<svg xmlns="http://www.w3.org/2000/svg" width="272.304" height="90.019" viewBox="0 0 272.304 90.019">
  <g id="App_Store" data-name="App Store" transform="translate(-1341.716 -4850.656)">
    <g id="App_Store__iOS_-Badge-Logo.wine" data-name="App_Store_(iOS)-Badge-Logo.wine" transform="translate(1341.716 4850.656)">
      <path id="Path_533" data-name="Path 533" d="M250.619,0H21.7c-.834,0-1.659,0-2.491,0-.7,0-1.388.018-2.091.029a30.4,30.4,0,0,0-4.56.4A15.285,15.285,0,0,0,8.229,1.842,14.644,14.644,0,0,0,4.546,4.495,14.092,14.092,0,0,0,1.865,8.143,14.741,14.741,0,0,0,.442,12.426a28.926,28.926,0,0,0-.408,4.505C.013,17.622.011,18.314,0,19V71.021c.011.7.013,1.376.035,2.075a28.924,28.924,0,0,0,.408,4.5,14.711,14.711,0,0,0,1.422,4.286A13.979,13.979,0,0,0,4.546,85.52a14.272,14.272,0,0,0,3.683,2.653,15.365,15.365,0,0,0,4.326,1.42,30.942,30.942,0,0,0,4.56.4c.7.015,1.394.024,2.091.024.832,0,1.657,0,2.491,0H250.619c.818,0,1.649,0,2.467,0,.694,0,1.4-.009,2.1-.024a30.539,30.539,0,0,0,4.551-.4,15.6,15.6,0,0,0,4.342-1.42,14.708,14.708,0,0,0,6.369-6.286,14.746,14.746,0,0,0,1.409-4.286,30.069,30.069,0,0,0,.423-4.505c.009-.7.009-1.376.009-2.075.018-.818.018-1.631.018-2.462v-47.1c0-.824,0-1.642-.018-2.457,0-.69,0-1.382-.009-2.073a30.064,30.064,0,0,0-.422-4.505,14.417,14.417,0,0,0-7.778-10.584A15.52,15.52,0,0,0,259.735.431a30.006,30.006,0,0,0-4.551-.4c-.693-.011-1.4-.024-2.1-.029-.818,0-1.649,0-2.467,0Z" transform="translate(0 0)" fill="none"/>
      <path id="Path_534" data-name="Path 534" d="M18.1,86.911c-.693,0-1.37-.009-2.058-.024a29.2,29.2,0,0,1-4.253-.367,13.5,13.5,0,0,1-3.77-1.233A12.3,12.3,0,0,1,4.843,83,11.976,11.976,0,0,1,2.521,79.86a12.767,12.767,0,0,1-1.236-3.728,27.608,27.608,0,0,1-.379-4.217c-.015-.474-.033-2.054-.033-2.054V17.9s.02-1.555.033-2.012a27.512,27.512,0,0,1,.377-4.211A12.841,12.841,0,0,1,2.52,7.939,12.093,12.093,0,0,1,4.83,4.795a12.659,12.659,0,0,1,3.191-2.3,13.359,13.359,0,0,1,3.762-1.223A28.966,28.966,0,0,1,16.051.9L18.1.875H251.961L254.039.9a28.5,28.5,0,0,1,4.229.366,13.624,13.624,0,0,1,3.8,1.232,12.656,12.656,0,0,1,5.5,5.443,12.858,12.858,0,0,1,1.218,3.709,28.9,28.9,0,0,1,.4,4.245c.007.637.007,1.321.007,2,.018.843.018,1.646.018,2.456V67.432c0,.817,0,1.615-.018,2.418,0,.731,0,1.4-.009,2.091a28.317,28.317,0,0,1-.389,4.169,12.8,12.8,0,0,1-1.229,3.756,12.753,12.753,0,0,1-5.5,5.417,13.447,13.447,0,0,1-3.8,1.237,28.862,28.862,0,0,1-4.253.367q-1.021.024-2.042.024l-2.467,0Z" transform="translate(1.114 1.116)"/>
      <path id="Path_535" data-name="Path 535" d="M43.644,35.434a11.261,11.261,0,0,1,5.362-9.448,11.527,11.527,0,0,0-9.082-4.91c-3.821-.4-7.526,2.286-9.473,2.286-1.985,0-4.983-2.247-8.211-2.18a12.1,12.1,0,0,0-10.179,6.207c-4.4,7.62-1.118,18.818,3.1,24.977,2.109,3.016,4.574,6.385,7.8,6.265,3.156-.131,4.335-2.013,8.145-2.013,3.775,0,4.881,2.013,8.172,1.937,3.387-.055,5.521-3.029,7.556-6.074a24.945,24.945,0,0,0,3.455-7.037,10.882,10.882,0,0,1-6.643-10.011ZM37.428,17.025a11.088,11.088,0,0,0,2.536-7.943,11.281,11.281,0,0,0-7.3,3.777,10.55,10.55,0,0,0-2.6,7.649,9.328,9.328,0,0,0,7.366-3.483ZM83.542,51H72.771l-2.587,7.638H65.622l10.2-28.258h4.74l10.2,28.258h-4.64Zm-9.656-3.525h8.538l-4.209-12.4H78.1Zm38.914.862c0,6.4-3.427,10.515-8.6,10.515a6.984,6.984,0,0,1-6.482-3.6h-.1v10.2H93.393V38.032h4.094v3.427h.078a7.308,7.308,0,0,1,6.56-3.642c5.229,0,8.676,4.133,8.676,10.518Zm-4.347,0c0-4.171-2.155-6.913-5.444-6.913-3.231,0-5.4,2.8-5.4,6.913,0,4.151,2.173,6.931,5.4,6.931,3.289,0,5.444-2.722,5.444-6.931Zm27.022,0c0,6.4-3.427,10.515-8.6,10.515a6.984,6.984,0,0,1-6.482-3.6h-.1v10.2h-4.229V38.032h4.093v3.427h.078a7.308,7.308,0,0,1,6.56-3.642c5.229,0,8.676,4.133,8.676,10.518Zm-4.347,0c0-4.171-2.156-6.913-5.445-6.913-3.231,0-5.4,2.8-5.4,6.913,0,4.151,2.173,6.931,5.4,6.931,3.289,0,5.445-2.722,5.445-6.931Zm19.333,2.427c.313,2.8,3.036,4.642,6.755,4.642,3.564,0,6.129-1.84,6.129-4.367,0-2.193-1.547-3.507-5.209-4.407l-3.662-.882c-5.189-1.253-7.6-3.68-7.6-7.618,0-4.876,4.249-8.224,10.282-8.224,5.971,0,10.065,3.349,10.2,8.224h-4.269c-.256-2.82-2.587-4.522-5.993-4.522s-5.738,1.722-5.738,4.229c0,2,1.489,3.173,5.131,4.073l3.113.765c5.8,1.371,8.207,3.7,8.207,7.833,0,5.287-4.211,8.6-10.909,8.6-6.267,0-10.5-3.234-10.771-8.345Zm26.478-17.6v4.875h3.918v3.349h-3.918V52.739c0,1.764.784,2.587,2.507,2.587a13.219,13.219,0,0,0,1.391-.1v3.329a11.613,11.613,0,0,1-2.349.2c-4.171,0-5.8-1.567-5.8-5.562V41.381h-3V38.032h3V33.156Zm6.187,15.178c0-6.482,3.818-10.556,9.771-10.556,5.973,0,9.773,4.073,9.773,10.556,0,6.5-3.78,10.555-9.774,10.555S183.127,54.834,183.127,48.334Zm15.236,0c0-4.447-2.038-7.071-5.465-7.071s-5.462,2.644-5.462,7.071c0,4.464,2.036,7.069,5.462,7.069S198.363,52.8,198.363,48.334Zm7.8-10.3h4.033v3.507h.1a4.914,4.914,0,0,1,4.956-3.722,6.521,6.521,0,0,1,1.449.158V41.93a5.911,5.911,0,0,0-1.9-.256,4.261,4.261,0,0,0-4.407,4.74v12.22h-4.229Zm30.034,14.551c-.569,3.74-4.211,6.307-8.871,6.307-5.993,0-9.713-4.015-9.713-10.458,0-6.462,3.74-10.653,9.536-10.653,5.7,0,9.285,3.916,9.285,10.162V49.39H221.876v.256a5.366,5.366,0,0,0,5.542,5.836,4.661,4.661,0,0,0,4.758-2.9Zm-14.3-6.149h10.3a4.955,4.955,0,0,0-5.053-5.229,5.216,5.216,0,0,0-5.247,5.229ZM73.357,9.106a6.007,6.007,0,0,1,6.389,6.747c0,4.338-2.345,6.831-6.389,6.831h-4.9V9.106Zm-2.8,11.658h2.56A4.269,4.269,0,0,0,77.6,15.881a4.28,4.28,0,0,0-4.478-4.856h-2.56Zm11.567-3.208a4.854,4.854,0,1,1,9.664,0,4.855,4.855,0,1,1-9.664,0Zm7.584,0c0-2.221-1-3.52-2.749-3.52s-2.747,1.3-2.747,3.52c0,2.239.989,3.528,2.747,3.528S89.712,19.786,89.712,17.556Zm14.927,5.128h-2.1l-2.118-7.547h-.16l-2.109,7.547H96.077L93.252,12.437H95.3l1.836,7.819h.151L99.4,12.437h1.94l2.107,7.819h.16l1.827-7.819h2.022Zm5.189-10.247h1.947v1.628h.151a3.067,3.067,0,0,1,3.058-1.826,3.333,3.333,0,0,1,3.547,3.811v6.633h-2.022V16.558c0-1.647-.716-2.466-2.211-2.466a2.351,2.351,0,0,0-2.447,2.6v5.995h-2.022Zm11.925-4h2.022V22.684h-2.022Zm4.833,9.119a4.855,4.855,0,1,1,9.666,0,4.856,4.856,0,1,1-9.666,0Zm7.584,0c0-2.221-1-3.52-2.749-3.52s-2.747,1.3-2.747,3.52c0,2.239.989,3.528,2.747,3.528S134.17,19.786,134.17,17.556Zm4.21,2.23c0-1.845,1.373-2.908,3.811-3.059l2.776-.16v-.885c0-1.082-.715-1.693-2.1-1.693-1.129,0-1.911.414-2.136,1.139h-1.958c.207-1.76,1.862-2.889,4.187-2.889,2.569,0,4.018,1.279,4.018,3.443v7h-1.947v-1.44h-.16a3.447,3.447,0,0,1-3.078,1.609,3.1,3.1,0,0,1-3.416-3.067Zm6.587-.876v-.857l-2.5.16c-1.411.094-2.051.575-2.051,1.478,0,.922.8,1.459,1.9,1.459a2.416,2.416,0,0,0,2.653-2.24Zm4.671-1.354c0-3.238,1.664-5.289,4.253-5.289a3.377,3.377,0,0,1,3.142,1.8h.151V8.437h2.022V22.684h-1.938V21.065h-.16a3.556,3.556,0,0,1-3.218,1.788c-2.607,0-4.253-2.051-4.253-5.3Zm2.089,0c0,2.173,1.024,3.481,2.738,3.481s2.758-1.327,2.758-3.473-1.065-3.481-2.758-3.481S151.727,15.4,151.727,17.556Zm15.847,0a4.854,4.854,0,1,1,9.664,0,4.855,4.855,0,1,1-9.664,0Zm7.584,0c0-2.221-1-3.52-2.749-3.52s-2.747,1.3-2.747,3.52c0,2.239.989,3.528,2.747,3.528S175.158,19.786,175.158,17.556Zm4.793-5.119H181.9v1.628h.151a3.067,3.067,0,0,1,3.058-1.826,3.333,3.333,0,0,1,3.547,3.811v6.633h-2.022V16.558c0-1.647-.716-2.466-2.211-2.466a2.351,2.351,0,0,0-2.447,2.6v5.995h-2.022Zm20.129-2.551v2.6h2.22v1.7h-2.22v5.269c0,1.073.442,1.544,1.449,1.544a6.754,6.754,0,0,0,.771-.047v1.685a6.634,6.634,0,0,1-1.1.1c-2.249,0-3.144-.791-3.144-2.767V14.187H196.43v-1.7h1.627v-2.6Zm4.982-1.449h2v5.647h.16a3.153,3.153,0,0,1,3.124-1.836,3.376,3.376,0,0,1,3.529,3.82v6.616h-2.024V16.567c0-1.637-.762-2.466-2.191-2.466a2.394,2.394,0,0,0-2.58,2.6v5.985h-2.022Zm20.609,11.48a4.16,4.16,0,0,1-4.44,2.965,4.654,4.654,0,0,1-4.733-5.289,4.726,4.726,0,0,1,4.725-5.354c2.851,0,4.571,1.948,4.571,5.166v.706h-7.236v.113a2.708,2.708,0,0,0,2.729,2.935,2.456,2.456,0,0,0,2.438-1.242Zm-7.113-3.3h5.176a2.472,2.472,0,0,0-2.522-2.654,2.621,2.621,0,0,0-2.653,2.654Z" transform="translate(12.719 10.195)" fill="#fff"/>
    </g>
  </g>
</svg>
