<svg id="Group_490" data-name="Group 490" xmlns="http://www.w3.org/2000/svg" width="1920" height="1750" viewBox="0 0 1920 1750">
  <g id="Group_404" data-name="Group 404">
    <g id="Group_491" data-name="Group 491">
      <path id="Path_1686" data-name="Path 1686" d="M917.27,1603.829H0V806.566l3.15-5.1,272.58,239.26,130.38,114.437Z" transform="translate(0 146.171)" fill="#c33764"/>
      <path id="Path_1687" data-name="Path 1687" d="M0,799.131l3.15,2.755L0,806.991Z" transform="translate(0 145.787)" fill="#ff7bac"/>
      <path id="Path_1688" data-name="Path 1688" d="M1920,0V1750H1667l-.33-.535-91.34-562.544L1382.62,0Z" fill="#3283ed"/>
      <path id="Path_1689" data-name="Path 1689" d="M588,200l-.5.7-.5-.7Z" transform="translate(0 36.499)" fill="#ff7bac"/>
      <path id="Path_1690" data-name="Path 1690" d="M1667,1480.071h-.24l-.09-.463Z" transform="translate(0 269.928)" fill="#ff7bac"/>
      <path id="Path_1691" data-name="Path 1691" d="M584.35.81,3.133,946.913,0,944.16V0H583.853Z" transform="translate(3.15 0.81)" fill="#0e5cc2"/>
      <path id="Path_1692" data-name="Path 1692" d="M1666.67,1749.465,587.5.81,588,0h794.62l3.63,22.361,177.2,1091.384,11.88,73.176Z" fill="#023270"/>
      <path id="Path_1693" data-name="Path 1693" d="M1147.86,908.676l-226.23,841.2h-4.36L406.11,1301.227,275.73,1186.8,3.15,947.549,587.5.685Z" transform="translate(0 0.125)" fill="#0a9ad7"/>
      <path id="Path_1694" data-name="Path 1694" d="M1666.76,1609.829H921.63l226.23-841.243,518.81,840.708Z" transform="translate(0 140.171)" fill="#0d54b0"/>
    </g>
  </g>
</svg>
