<svg xmlns="http://www.w3.org/2000/svg" width="63" height="63" viewBox="0 0 63 63">
  <g id="bitcoin" transform="translate(-0.004 0.001)">
    <path id="Path_2324" data-name="Path 2324" d="M62.062,39.12A31.493,31.493,0,1,1,39.121.942,31.5,31.5,0,0,1,62.062,39.12Z" transform="translate(0 0)" fill="#f7931a"/>
    <path id="Path_2325" data-name="Path 2325" d="M45.633,27.186c.626-4.191-2.565-6.445-6.929-7.948l1.416-5.678L36.662,12.7l-1.378,5.528c-.908-.226-1.841-.44-2.768-.652L33.9,12.011,30.45,11.15l-1.417,5.676c-.752-.171-1.49-.341-2.207-.519l0-.018L22.064,15.1l-.919,3.691s2.564.588,2.51.624a1.838,1.838,0,0,1,1.61,2.01l-1.612,6.468a2.863,2.863,0,0,1,.359.115l-.364-.091-2.261,9.061A1.258,1.258,0,0,1,19.8,37.8c.034.05-2.512-.627-2.512-.627L15.575,41.13l4.5,1.121c.837.21,1.657.429,2.463.636l-1.43,5.744,3.452.861,1.417-5.682c.942.256,1.857.492,2.753.715L27.317,50.18l3.456.861,1.43-5.732c5.893,1.115,10.326.665,12.189-4.664,1.5-4.292-.074-6.768-3.175-8.383,2.258-.523,3.959-2.008,4.413-5.076Zm-7.9,11.073c-1.069,4.292-8.294,1.973-10.638,1.39l1.9-7.608c2.343.585,9.854,1.742,8.741,6.218ZM38.8,27.124c-.975,3.9-6.989,1.92-8.941,1.434l1.721-6.9C33.535,22.144,39.819,23.052,38.8,27.124Z" transform="translate(-0.24 -0.174)" fill="#fff"/>
  </g>
</svg>
