<svg xmlns="http://www.w3.org/2000/svg" width="1194.597" height="729.613" viewBox="0 0 1194.597 729.613">
  <g id="Group_960" data-name="Group 960" transform="translate(-655.402 -362)">
    <g id="Group_958" data-name="Group 958" transform="translate(103.66 91.544)">
      <g id="undraw_events_re_98ue" transform="translate(1301 375.418)">
        <g id="Rectangle_1132" data-name="Rectangle 1132" transform="translate(-4.661 -5.962)" fill="#fff" stroke="#707070" stroke-width="3">
          <rect width="355" height="272" rx="10" stroke="none"/>
          <rect x="1.5" y="1.5" width="352" height="269" rx="8.5" fill="none"/>
        </g>
        <path id="Path_2815" data-name="Path 2815" d="M545.74,419.107H199.4V159.263H545.74Z" transform="translate(-199.401 -159.263)" fill="#fff"/>
        <circle id="Ellipse_655" data-name="Ellipse 655" cx="13.786" cy="13.786" r="13.786" transform="translate(70.251 26.326)" fill="#e6e6e6"/>
        <path id="Path_2816" data-name="Path 2816" d="M355.14,201.529a2.3,2.3,0,0,0,0,4.6H522.9a2.3,2.3,0,0,0,0-4.6Z" transform="translate(-239.376 -170.274)" fill="#e6e6e6"/>
        <path id="Path_2817" data-name="Path 2817" d="M355.138,220.172a2.3,2.3,0,1,0-.01,4.6H461.186a2.3,2.3,0,1,0,0-4.6Z" transform="translate(-239.374 -175.131)" fill="#e6e6e6"/>
        <path id="Path_2819" data-name="Path 2819" d="M225.579,266.422V420.973H533.2V266.422ZM531.723,304.69H456.666V267.9h75.057Zm-151.593,0V267.9h75.057V304.69Zm75.057,1.479v36.789H380.13V306.169Zm-76.536-1.479H303.594V267.9h75.057Zm0,1.479v36.789H303.594V306.169Zm-76.536,36.789H227.058V306.169h75.057Zm0,1.479v36.789H227.058V344.437Zm1.479,0h75.057v36.789H303.594ZM378.651,382.7v36.789H303.594V382.7Zm1.479,0h75.057v36.789H380.13Zm0-1.479V344.437h75.057v36.789Zm76.536-36.789h75.057v36.789H456.666Zm0-1.479V306.169h75.057v36.789ZM302.115,267.9V304.69H227.058V267.9ZM227.058,382.7h75.057v36.789H227.058Zm229.608,36.789V382.7h75.057v36.789Z" transform="translate(-206.221 -187.18)" fill="#e4e4e4"/>
        <path id="Path_2820" data-name="Path 2820" d="M384.947,310.582l-30.609-.693c-3.062-11.86-1.683-23.153.76-33.559l30.609.693a67.018,67.018,0,0,0-.76,33.559Z" transform="translate(-239.307 -189.761)" fill="#ffdc5e"/>
        <path id="Path_2821" data-name="Path 2821" d="M163.676,143.086l.016-1.165,15.858.566-.017,1.165Z" transform="translate(-42.641 -49.1)" fill="#fff"/>
        <path id="Path_2822" data-name="Path 2822" d="M163.586,149.386l.016-1.165,15.857.567-.016,1.165Z" transform="translate(-42.618 -50.742)" fill="#fff"/>
        <path id="Path_2823" data-name="Path 2823" d="M163.495,155.686l.017-1.165,15.857.567-.016,1.165Z" transform="translate(-42.594 -52.383)" fill="#fff"/>
        <path id="Path_2824" data-name="Path 2824" d="M163.4,161.986l.016-1.165,15.858.567-.017,1.165Z" transform="translate(-42.57 -54.024)" fill="#fff"/>
        <path id="Path_2825" data-name="Path 2825" d="M163.315,168.286l.016-1.165,15.858.567-.017,1.165Z" transform="translate(-42.547 -55.665)" fill="#fff"/>
        <path id="Path_2826" data-name="Path 2826" d="M294.947,426.582l-30.609-.693c-3.062-11.86-1.683-23.153.76-33.559l30.609.693a67.018,67.018,0,0,0-.76,33.559Z" transform="translate(-215.861 -219.982)" fill="#adf7b6"/>
        <path id="Path_2827" data-name="Path 2827" d="M73.676,259.086l.016-1.165,15.858.566-.017,1.165Z" transform="translate(-19.194 -79.321)" fill="#fff"/>
        <path id="Path_2828" data-name="Path 2828" d="M73.586,265.386l.016-1.165,15.857.567-.016,1.165Z" transform="translate(-19.171 -80.962)" fill="#fff"/>
        <path id="Path_2829" data-name="Path 2829" d="M73.5,271.686l.017-1.165,15.857.567-.016,1.165Z" transform="translate(-19.147 -82.603)" fill="#fff"/>
        <path id="Path_2830" data-name="Path 2830" d="M73.4,277.986l.016-1.165,15.858.567-.017,1.165Z" transform="translate(-19.124 -84.245)" fill="#fff"/>
        <path id="Path_2831" data-name="Path 2831" d="M73.315,284.286l.016-1.165,15.858.567-.017,1.165Z" transform="translate(-19.1 -85.886)" fill="#fff"/>
        <path id="Path_2832" data-name="Path 2832" d="M510.947,373.582l-30.609-.693c-3.062-11.86-1.683-23.153.76-33.559l30.609.693a67.018,67.018,0,0,0-.76,33.559Z" transform="translate(-272.133 -206.174)" fill="#ffee93"/>
        <path id="Path_2833" data-name="Path 2833" d="M289.676,206.086l.016-1.165,15.858.566-.017,1.165Z" transform="translate(-75.467 -65.513)" fill="#fff"/>
        <path id="Path_2834" data-name="Path 2834" d="M289.586,212.386l.016-1.165,15.857.567-.016,1.165Z" transform="translate(-75.443 -67.154)" fill="#fff"/>
        <path id="Path_2835" data-name="Path 2835" d="M289.495,218.686l.017-1.165,15.857.567-.016,1.165Z" transform="translate(-75.42 -68.796)" fill="#fff"/>
        <path id="Path_2836" data-name="Path 2836" d="M289.4,224.986l.016-1.165,15.858.567-.017,1.165Z" transform="translate(-75.396 -70.437)" fill="#fff"/>
        <path id="Path_2837" data-name="Path 2837" d="M289.315,231.286l.016-1.165,15.858.567-.017,1.165Z" transform="translate(-75.373 -72.078)" fill="#fff"/>
        <path id="Path_2838" data-name="Path 2838" d="M492.947,363.582l-30.609-.693c-3.062-11.86-1.683-23.153.76-33.559l30.609.693a67.018,67.018,0,0,0-.76,33.559Z" transform="translate(-267.444 -203.569)" fill="#ff6392"/>
        <path id="Path_2839" data-name="Path 2839" d="M271.676,196.086l.016-1.165,15.858.566-.017,1.165Z" transform="translate(-70.777 -62.908)" fill="#fff"/>
        <path id="Path_2840" data-name="Path 2840" d="M271.586,202.386l.016-1.165,15.857.567-.016,1.165Z" transform="translate(-70.754 -64.549)" fill="#fff"/>
        <path id="Path_2841" data-name="Path 2841" d="M271.495,208.686l.017-1.165,15.857.567-.016,1.165Z" transform="translate(-70.73 -66.19)" fill="#fff"/>
        <path id="Path_2842" data-name="Path 2842" d="M271.4,214.986l.016-1.165,15.858.567-.017,1.165Z" transform="translate(-70.707 -67.832)" fill="#fff"/>
        <path id="Path_2843" data-name="Path 2843" d="M271.315,221.286l.016-1.165,15.858.567-.017,1.165Z" transform="translate(-70.683 -69.473)" fill="#fff"/>
        <path id="Path_2844" data-name="Path 2844" d="M645.614,454.932,615,454.239c-3.062-11.86-1.683-23.153.76-33.559l30.609.693a67.02,67.02,0,0,0-.76,33.559Z" transform="translate(-307.217 -227.367)" fill="#adf7b6"/>
        <path id="Path_2845" data-name="Path 2845" d="M424.342,287.435l.017-1.165,15.857.567L440.2,288Z" transform="translate(-110.55 -86.706)" fill="#fff"/>
        <path id="Path_2846" data-name="Path 2846" d="M424.252,293.735l.016-1.165,15.858.567-.017,1.165Z" transform="translate(-110.527 -88.348)" fill="#fff"/>
        <path id="Path_2847" data-name="Path 2847" d="M424.161,300.036l.017-1.165,15.857.566-.016,1.165Z" transform="translate(-110.503 -89.989)" fill="#fff"/>
        <path id="Path_2848" data-name="Path 2848" d="M424.071,306.336l.017-1.165,15.857.566-.017,1.165Z" transform="translate(-110.48 -91.63)" fill="#fff"/>
        <path id="Path_2849" data-name="Path 2849" d="M423.981,312.636l.016-1.165,15.858.567-.017,1.165Z" transform="translate(-110.456 -93.272)" fill="#fff"/>
        <path id="Path_2850" data-name="Path 2850" d="M600.947,318.582l-30.609-.693c-3.062-11.86-1.683-23.153.76-33.559l30.609.693a67.018,67.018,0,0,0-.76,33.559Z" transform="translate(-295.58 -191.845)" fill="#f694c1"/>
        <path id="Path_2851" data-name="Path 2851" d="M379.676,151.086l.016-1.165,15.858.566-.017,1.165Z" transform="translate(-98.914 -51.184)" fill="#fff"/>
        <path id="Path_2852" data-name="Path 2852" d="M379.586,157.386l.016-1.165,15.857.567-.016,1.165Z" transform="translate(-98.89 -52.826)" fill="#fff"/>
        <path id="Path_2853" data-name="Path 2853" d="M379.495,163.686l.017-1.165,15.857.567-.016,1.165Z" transform="translate(-98.867 -54.467)" fill="#fff"/>
        <path id="Path_2854" data-name="Path 2854" d="M379.4,169.986l.016-1.165,15.858.567-.017,1.165Z" transform="translate(-98.843 -56.108)" fill="#fff"/>
        <path id="Path_2855" data-name="Path 2855" d="M379.315,176.286l.016-1.165,15.858.567-.017,1.165Z" transform="translate(-98.82 -57.75)" fill="#fff"/>
      </g>
      <g id="Group_957" data-name="Group 957" transform="translate(1378.645 405.441)">
        <path id="Path_2766" data-name="Path 2766" d="M59.376,102.667a4.644,4.644,0,0,0,.287,1.62,4.787,4.787,0,0,0,4.5,3.153v2.623a7.41,7.41,0,1,1,0-14.806v2.637a6.077,6.077,0,0,0-.731.043,4.8,4.8,0,0,0-4.056,4.73Z" transform="translate(-56.427 -95.25)" fill="#c43764"/>
        <path id="Path_2767" data-name="Path 2767" d="M99,145.31a7.4,7.4,0,0,1-7.4,7.4v-2.379l.186-.244a4.773,4.773,0,0,0,4.587-4.773,4.444,4.444,0,0,0-.143-1.161,4.773,4.773,0,0,0-4.63-3.612V137.9a7.41,7.41,0,0,1,6.464,3.813A7.267,7.267,0,0,1,99,145.31Z" transform="translate(-86.558 -131.787)" fill="#3a72b9"/>
      </g>
    </g>
    <g id="Group_956" data-name="Group 956" transform="translate(292.701 124)">
      <g id="Group_955" data-name="Group 955" transform="translate(210.396 -1104)">
        <path id="Path_2802" data-name="Path 2802" d="M851.3,365.062V558.244H348.92V365.062c0-133.1,103.816-243.091,236.69-250.775q7.19-.419,14.5-.414c2.776,0,5.542.041,8.287.145a250.33,250.33,0,0,1,169.327,73.43c1.357,1.357,2.693,2.724,4.029,4.112a251.035,251.035,0,0,1,69.546,173.5Z" transform="translate(-103.109 1228.127)" fill="#c1d3fe"/>
        <path id="Path_2803" data-name="Path 2803" d="M608.4,114.018V558.244H585.608V114.287q7.194-.419,14.5-.414C602.885,113.873,605.651,113.915,608.4,114.018Z" transform="translate(-103.109 1228.127)" fill="#fff"/>
        <path id="Path_2804" data-name="Path 2804" d="M801.071,214.349H399.148a251.938,251.938,0,0,1,19.318-22.788H781.752a251.967,251.967,0,0,1,19.318,22.788Z" transform="translate(-103.109 1228.127)" fill="#fff"/>
        <rect id="Rectangle_1113" data-name="Rectangle 1113" width="178.049" height="301.427" transform="translate(531.908 1507.733)" fill="#fefae0"/>
        <rect id="Rectangle_1114" data-name="Rectangle 1114" width="26.932" height="26.932" transform="translate(567.066 1558.656)" fill="#d7e3fc"/>
        <rect id="Rectangle_1115" data-name="Rectangle 1115" width="26.932" height="26.932" transform="translate(610.457 1558.656)" fill="#d7e3fc"/>
        <rect id="Rectangle_1116" data-name="Rectangle 1116" width="26.932" height="26.932" transform="translate(653.848 1558.656)" fill="#d7e3fc"/>
        <rect id="Rectangle_1117" data-name="Rectangle 1117" width="26.932" height="26.932" transform="translate(567.814 1620.001)" fill="#d7e3fc"/>
        <rect id="Rectangle_1118" data-name="Rectangle 1118" width="26.932" height="26.932" transform="translate(611.205 1620.001)" fill="#d7e3fc"/>
        <rect id="Rectangle_1119" data-name="Rectangle 1119" width="26.932" height="26.932" transform="translate(654.596 1620.001)" fill="#d7e3fc"/>
        <rect id="Rectangle_1120" data-name="Rectangle 1120" width="26.932" height="26.932" transform="translate(568.563 1681.347)" fill="#d7e3fc"/>
        <rect id="Rectangle_1121" data-name="Rectangle 1121" width="26.932" height="26.932" transform="translate(611.953 1681.347)" fill="#d7e3fc"/>
        <rect id="Rectangle_1122" data-name="Rectangle 1122" width="26.932" height="26.932" transform="translate(655.344 1681.347)" fill="#d7e3fc"/>
        <rect id="Rectangle_1124" data-name="Rectangle 1124" width="26.932" height="26.932" transform="translate(612.701 1742.692)" fill="#e6e6e6"/>
        <rect id="Rectangle_1127" data-name="Rectangle 1127" width="26.932" height="41.932" rx="1" transform="translate(612.701 1727.692)" fill="#ee6055"/>
        <circle id="Ellipse_653" data-name="Ellipse 653" cx="37.119" cy="37.119" r="37.119" transform="translate(268.408 1650.843)" fill="#84dcc6"/>
        <path id="Path_2805" data-name="Path 2805" d="M250.63,345.962h.1L252.568,451.2h-3.875Z" transform="translate(55 1342)" fill="#8e5362"/>
        <rect id="Rectangle_1129" data-name="Rectangle 1129" width="1.836" height="6.934" transform="translate(311.533 1743.662) rotate(62.234)" fill="#8e5362"/>
        <circle id="Ellipse_654" data-name="Ellipse 654" cx="56.446" cy="56.446" r="56.446" transform="translate(358.211 1576.72)" fill="#84dcc6"/>
        <path id="Path_2806" data-name="Path 2806" d="M359.813,291.166h.155L362.759,451.2h-5.892Z" transform="translate(55 1342)" fill="#8e5362"/>
        <rect id="Rectangle_1130" data-name="Rectangle 1130" width="2.791" height="10.545" transform="translate(423.789 1717.867) rotate(62.234)" fill="#8e5362"/>
        <path id="Path_2807" data-name="Path 2807" d="M401.344,351.14l9.536-7.627c-7.408-.817-10.451,3.223-11.7,6.42-5.787-2.4-12.087.746-12.087.746l19.079,6.926a14.437,14.437,0,0,0-4.83-6.466Z" transform="translate(-103.109 1228.127)"/>
        <path id="Path_2808" data-name="Path 2808" d="M501.82,288.99l9.536-7.627c-7.408-.817-10.451,3.223-11.7,6.42-5.787-2.4-12.087.746-12.087.746l19.079,6.926a14.437,14.437,0,0,0-4.83-6.466Z" transform="translate(-103.109 1228.127)"/>
        <path id="Path_2809" data-name="Path 2809" d="M463.494,348.032l9.536-7.627c-7.408-.817-10.451,3.223-11.7,6.42-5.787-2.4-12.087.746-12.087.746l19.079,6.926a14.438,14.438,0,0,0-4.83-6.466Z" transform="translate(-103.109 1228.127)"/>
        <rect id="Rectangle_1131" data-name="Rectangle 1131" width="555.205" height="45.577" transform="translate(219.398 1763.583)" fill="#f7f7f7"/>
      </g>
      <g id="Group_954" data-name="Group 954">
        <g id="undraw_processing_re_tbdu" transform="translate(362.701 479.415)">
          <path id="Path_2717" data-name="Path 2717" d="M749.49,392.837a14.225,14.225,0,0,1,19.251,8.94,13.7,13.7,0,0,1,.414,1.855L825.961,431.8l13.146-8.712,16.357,18.831-20.073,16.3a14.413,14.413,0,0,1-17.2.663L760.56,419.029a13.593,13.593,0,0,1-1.312.478,14.225,14.225,0,0,1-18.114-11.068,13.835,13.835,0,0,1-.21-1.732,14.268,14.268,0,0,1,8.566-13.871Z" transform="translate(38.562 -222.982)" fill="#ffb8b8"/>
          <path id="Path_2718" data-name="Path 2718" d="M202.8,462.129a8.4,8.4,0,0,0,8.4,8.4h13.716l2.445,4.431V671.572a8.4,8.4,0,0,0,16.807,0V470.533H704.3l.128,201.039a8.4,8.4,0,0,0,16.807,0V470.533H736.1a8.4,8.4,0,0,0,0-16.807H211.2a8.4,8.4,0,0,0-8.4,8.4Z" transform="translate(-119.024 -204.81)" fill="#d4a373"/>
          <path id="Path_2719" data-name="Path 2719" d="M380.689,560.327V529.3a5.172,5.172,0,0,0-5.171-5.171H257.868A5.172,5.172,0,0,0,252.7,529.3v31.029Z" transform="translate(-104.411 -184.192)" fill="#eddcd2"/>
          <rect id="Rectangle_1083" data-name="Rectangle 1083" width="127.993" height="40.078" transform="translate(148.286 387.771)" fill="#eddcd2"/>
          <path id="Path_2720" data-name="Path 2720" d="M252.7,601.128v31.028a5.172,5.172,0,0,0,5.171,5.171h117.65a5.172,5.172,0,0,0,5.171-5.171V601.128Z" transform="translate(-104.411 -161.643)" fill="#eddcd2"/>
          <circle id="Ellipse_642" data-name="Ellipse 642" cx="3.879" cy="3.879" r="3.879" transform="translate(209.05 355.449)" fill="#fff"/>
          <circle id="Ellipse_643" data-name="Ellipse 643" cx="3.879" cy="3.879" r="3.879" transform="translate(209.05 407.164)" fill="#fff"/>
          <circle id="Ellipse_644" data-name="Ellipse 644" cx="3.879" cy="3.879" r="3.879" transform="translate(208.842 457.783)" fill="#fff"/>
          <path id="Path_2721" data-name="Path 2721" d="M234,445.709v10.265a2.132,2.132,0,0,0,2.25,1.978h40.621a2.51,2.51,0,0,0,1.112-.259l10.253-5.133a1.868,1.868,0,0,0,0-3.439l-10.253-5.133a2.51,2.51,0,0,0-1.112-.259H236.25a2.132,2.132,0,0,0-2.25,1.978Z" transform="translate(-109.886 -207.738)" fill="#3f3d56"/>
          <path id="Path_2722" data-name="Path 2722" d="M236.25,443.731h8.093v14.221H236.25a2.132,2.132,0,0,1-2.25-1.978V445.709A2.132,2.132,0,0,1,236.25,443.731Z" transform="translate(-109.886 -207.738)" fill="#ffd670"/>
          <path id="Path_2723" data-name="Path 2723" d="M1002.136,561.048a31.992,31.992,0,0,1-30.893-5.442c-10.82-9.082-14.213-24.044-16.973-37.9l-8.165-40.978L963.2,488.5c12.292,8.464,24.862,17.2,33.373,29.459s12.226,29,5.388,42.262" transform="translate(98.657 -198.073)" fill="#3ab988"/>
          <path id="Path_2724" data-name="Path 2724" d="M993.86,598.867c1.73-12.6,3.509-25.366,2.3-38.1-1.078-11.312-4.529-22.36-11.555-31.419a52.267,52.267,0,0,0-13.41-12.151c-1.341-.846-2.575,1.279-1.24,2.121a49.688,49.688,0,0,1,19.654,23.715c4.279,10.884,4.966,22.748,4.229,34.31-.446,6.992-1.391,13.938-2.343,20.875a1.273,1.273,0,0,0,.858,1.511A1.236,1.236,0,0,0,993.86,598.867Z" transform="translate(105.472 -186.28)" fill="#32a076"/>
          <path id="Path_2725" data-name="Path 2725" d="M991.376,568.85a23.55,23.55,0,0,1-20.519,10.59c-10.387-.493-19.047-7.743-26.842-14.625l-23.057-20.357,15.26-.73c10.974-.525,22.231-1.015,32.683,2.369s20.092,11.529,22,22.348" transform="translate(91.292 -178.562)" fill="#3ab988"/>
          <path id="Path_2726" data-name="Path 2726" d="M1003.664,594.539c-8.327-14.734-17.986-31.11-35.244-36.344a39.328,39.328,0,0,0-14.824-1.531c-1.574.136-1.181,2.562.39,2.426a36.537,36.537,0,0,1,23.657,6.259c6.67,4.54,11.864,10.853,16.26,17.547,2.693,4.1,5.1,8.374,7.517,12.643.771,1.364,3.024.379,2.244-1Z" transform="translate(100.556 -174.708)" fill="#32a076"/>
          <path id="Path_2727" data-name="Path 2727" d="M1011.229,603.234A17.832,17.832,0,0,0,1000.3,588.3v-8.518H986.015v8.787a17.823,17.823,0,0,0-10.332,14.667l-3.359,39.052h42.266Z" transform="translate(106.334 -167.894)" fill="#8e5362"/>
          <path id="Path_2728" data-name="Path 2728" d="M138,629.486a1.293,1.293,0,0,1,1.293-1.293l1192.481.47c.714,0,.823.109.823.823a1.293,1.293,0,0,1-1.293,1.293H139.293A1.293,1.293,0,0,1,138,629.486Z" transform="translate(-138 -153.716)" fill="#ccc"/>
          <path id="Path_2729" data-name="Path 2729" d="M377.407,457.875l4.244-1.787,2.911-21.275h38.77L426.488,456l3.8,1.9a.9.9,0,0,1-.4,1.708H377.757a.9.9,0,0,1-.35-1.733Z" transform="translate(-68.05 -210.348)" fill="#e6e6e6"/>
          <path id="Path_2730" data-name="Path 2730" d="M321.079,440.167V413.311H519.057v26.856a3.773,3.773,0,0,1-3.765,3.773H324.844a3.773,3.773,0,0,1-3.765-3.773Z" transform="translate(-84.385 -216.645)" fill="#ccc"/>
          <path id="Path_2731" data-name="Path 2731" d="M320.925,335.278a4.554,4.554,0,0,1,4.549-4.548H514.728a4.554,4.554,0,0,1,4.549,4.548v114.91H320.925Z" transform="translate(-84.43 -240.829)" fill="#3f3d56"/>
          <path id="Path_2732" data-name="Path 2732" d="M327.376,436.452V340.687a3.511,3.511,0,0,1,3.507-3.507H505.541a3.511,3.511,0,0,1,3.507,3.507v95.765a3.51,3.51,0,0,1-3.507,3.507H330.883a3.51,3.51,0,0,1-3.507-3.507Z" transform="translate(-82.541 -238.94)" fill="#fff"/>
          <path id="Path_2733" data-name="Path 2733" d="M612.1,261.193H787.14v209H612.1Z" transform="translate(0.842 -261.193)" fill="#fff"/>
          <path id="Path_2734" data-name="Path 2734" d="M612.1,261.193H787.14v209H612.1Zm171.953,3.088H615.188V467.108H784.052Z" transform="translate(0.842 -261.193)" fill="#e5e5e5"/>
          <rect id="Rectangle_1084" data-name="Rectangle 1084" width="122.444" height="4.732" transform="translate(639.239 101.211)" fill="#f1f1f1"/>
          <path id="Path_2735" data-name="Path 2735" d="M589.318,67.249h1.334V19.379H543.614v1.336h45.7Z" transform="translate(159.199 5.675)" fill="#cbcbcb"/>
          <path id="Path_2736" data-name="Path 2736" d="M506.2,70.646h47.038V69.312h-45.7V22.777H506.2Z" transform="translate(148.242 6.67)" fill="#cbcbcb"/>
          <rect id="Rectangle_1085" data-name="Rectangle 1085" width="122.444" height="4.732" transform="translate(639.239 113.548)" fill="#f1f1f1"/>
          <rect id="Rectangle_1086" data-name="Rectangle 1086" width="122.444" height="4.732" transform="translate(639.239 125.885)" fill="#f1f1f1"/>
          <rect id="Rectangle_1087" data-name="Rectangle 1087" width="122.444" height="4.732" transform="translate(639.239 147.598)" fill="#f1f1f1"/>
          <rect id="Rectangle_1088" data-name="Rectangle 1088" width="122.444" height="4.732" transform="translate(639.239 159.934)" fill="#f1f1f1"/>
          <rect id="Rectangle_1089" data-name="Rectangle 1089" width="122.444" height="4.732" transform="translate(639.239 172.271)" fill="#f1f1f1"/>
          <path id="Path_2737" data-name="Path 2737" d="M676.975,292.109l1.234-1.511-1.86-2.117-1.657,1.029a9.243,9.243,0,0,0-3.23-1.629l-.214-2.124-2.812-.182-.473,2.021a9.246,9.246,0,0,0-3.745,1.25l-1.4-1.141-2.117,1.86.951,1.532a9.244,9.244,0,0,0-1.723,3.553l-2.065.208-.182,2.812,2.078.486a9.24,9.24,0,0,0,1.211,3.433l-1.141,1.4,1.86,2.117,1.532-.951a9.245,9.245,0,0,0,3.334,1.668l.222,2.205,2.812.182.5-2.139a9.245,9.245,0,0,0,3.6-1.225l1.511,1.234,2.117-1.86-1.029-1.658a9.249,9.249,0,0,0,1.679-3.416l2.185-.22.182-2.812-2.158-.5a9.245,9.245,0,0,0-1.212-3.5Zm-2.946,10.383a7.516,7.516,0,1,1,.687-10.607,7.516,7.516,0,0,1-.687,10.607Z" transform="translate(14.192 -254.053)" fill="#ce84ad"/>
          <path id="Path_2738" data-name="Path 2738" d="M690.183,308.55l1.7-.952-.952-2.652-1.919.348a9.241,9.241,0,0,0-2.406-2.7l.581-2.054-2.549-1.2-1.182,1.706a9.247,9.247,0,0,0-3.943-.213l-.88-1.574-2.652.952.322,1.775a9.245,9.245,0,0,0-2.907,2.672l-2-.565-1.2,2.549,1.755,1.216a9.239,9.239,0,0,0-.134,3.638l-1.574.88.952,2.652,1.775-.322a9.244,9.244,0,0,0,2.488,2.776l-.6,2.133,2.549,1.2,1.251-1.806a9.246,9.246,0,0,0,3.8.184l.952,1.7,2.652-.952-.348-1.92a9.246,9.246,0,0,0,2.817-2.56l2.113.6,1.2-2.549-1.822-1.262a9.247,9.247,0,0,0,.158-3.7Zm-6.554,8.575a7.516,7.516,0,1,1,4.535-9.613A7.516,7.516,0,0,1,683.629,317.125Z" transform="translate(17.857 -250.047)" fill="#ce84ad"/>
          <path id="Path_2739" data-name="Path 2739" d="M706.1,298.436l1.173-1.559-1.943-2.041-1.615,1.094a9.243,9.243,0,0,0-3.292-1.5l-.3-2.114-2.817-.069-.392,2.038a9.246,9.246,0,0,0-3.692,1.4l-1.442-1.084-2.041,1.943,1.012,1.493a9.244,9.244,0,0,0-1.579,3.619l-2.055.291-.07,2.817,2.1.4a9.243,9.243,0,0,0,1.348,3.382L689.4,309.99l1.943,2.041,1.493-1.012a9.246,9.246,0,0,0,3.4,1.534l.31,2.195,2.817.07.414-2.157a9.245,9.245,0,0,0,3.552-1.368l1.559,1.173,2.041-1.943-1.094-1.615a9.246,9.246,0,0,0,1.542-3.48l2.175-.308.07-2.817-2.177-.418a9.244,9.244,0,0,0-1.351-3.448Zm-2.529,10.492a7.516,7.516,0,1,1,.262-10.626A7.516,7.516,0,0,1,703.567,308.928Z" transform="translate(22.79 -252.099)" fill="#ce84ad"/>
          <path id="Path_2741" data-name="Path 2741" d="M869.077,526.722h-62.07c0,1.784-63.97,3.232-63.97,3.232a16.62,16.62,0,0,0-2.728,2.586,16.044,16.044,0,0,0-3.75,10.343v2.586a16.167,16.167,0,0,0,16.161,16.161H869.077a16.175,16.175,0,0,0,16.161-16.161v-2.586A16.183,16.183,0,0,0,869.077,526.722Z" transform="translate(37.29 -183.433)" fill="#3f3d56"/>
          <rect id="Rectangle_1090" data-name="Rectangle 1090" width="16.807" height="108.6" transform="translate(838.85 377.554)" fill="#3f3d56"/>
          <path id="Path_2742" data-name="Path 2742" d="M749.836,640.442c0,1.816,25.469.7,56.885.7s56.886,1.114,56.886-.7-25.469-16.217-56.886-16.217S749.836,638.626,749.836,640.442Z" transform="translate(41.178 -154.878)" fill="#3f3d56"/>
          <path id="Path_2743" data-name="Path 2743" d="M628.869,375.042H613.02l-7.541-41.109h23.393Z" transform="translate(177.317 97.793)" fill="#ffb8b8"/>
          <path id="Path_2744" data-name="Path 2744" d="M776.275,643.459l-51.107,0v-.646a19.892,19.892,0,0,1,19.892-19.892h31.216Z" transform="translate(33.954 -155.261)" fill="#2f2e41"/>
          <path id="Path_2745" data-name="Path 2745" d="M750.9,640.328,719.3,569.47a25.968,25.968,0,0,1,11.4-33.335l68.539-36.753,31.276-2.66,28.85-2.622.208.352c.266.449,6.469,11.164,2.276,22.912-3.18,8.911-11.453,15.872-24.589,20.688-30.659,11.242-66.077,20.85-79.881,24.458a4.462,4.462,0,0,0-2.859,2.275,4.523,4.523,0,0,0-.254,3.618l29.356,65.954a5.818,5.818,0,0,1-4.925,7.795l-21.935,1.6q-.279.027-.556.027a5.814,5.814,0,0,1-5.309-3.448Z" transform="translate(31.585 -192.986)" fill="#2f2e41"/>
          <path id="Path_2746" data-name="Path 2746" d="M636.869,375.042H621.02l-7.541-41.109h23.393Z" transform="translate(179.659 97.793)" fill="#ffb8b8"/>
          <path id="Path_2747" data-name="Path 2747" d="M784.275,643.459l-51.107,0v-.646a19.892,19.892,0,0,1,19.892-19.892h31.216Z" transform="translate(36.297 -155.261)" fill="#2f2e41"/>
          <path id="Path_2748" data-name="Path 2748" d="M759.9,643.249,728.3,572.39a25.968,25.968,0,0,1,11.4-33.335L808.236,502.3l31.276-2.66,22.6-1.96,0-.31c.266.449,6.469,11.163,2.276,22.911-3.18,8.911-4.989,15.872-18.124,20.688-30.659,11.242-66.077,20.85-79.881,24.458a4.462,4.462,0,0,0-2.859,2.275,4.523,4.523,0,0,0-.254,3.618l29.356,65.954a5.818,5.818,0,0,1-4.925,7.795l-21.935,1.6q-.279.026-.556.026a5.814,5.814,0,0,1-5.309-3.448Z" transform="translate(34.221 -192.028)" fill="#2f2e41"/>
          <path id="Path_2749" data-name="Path 2749" d="M804.445,523.354c-1.515-1.072-23.271,10.343-27.15,1.293,18.1-45.25,5.627-64.79,16.714-90.738a32.311,32.311,0,0,1,21.419-18.332l28.765-1.452.149.072a33.621,33.621,0,0,1,18.384,35.668c-.1,28.24-17,49.779-11.091,70.262a6.622,6.622,0,0,1-.625,5.15,6.314,6.314,0,0,1-4.028,2.985L809,523.194a6.418,6.418,0,0,1-5.193-1.005Z" transform="translate(49.22 -216.407)" fill="#c33764"/>
          <circle id="Ellipse_645" data-name="Ellipse 645" cx="31.754" cy="31.754" r="31.754" transform="translate(852.06 134.448)" fill="#ffb8b8"/>
          <path id="Path_2750" data-name="Path 2750" d="M791.984,480.61l-55.172-43.525a13.6,13.6,0,0,1-1.34.4,14.257,14.257,0,0,1-11.4-2.187,14.221,14.221,0,1,1,21.99-14.912,13.656,13.656,0,0,1,.3,1.877l54.922,31.684,13.668-7.869L830.089,465.9l-21.221,15.125A14.147,14.147,0,0,1,791.984,480.61Z" transform="translate(31.853 -217.786)" fill="#ffb8b8"/>
          <path id="Path_2751" data-name="Path 2751" d="M817.035,468.857l-31.479-21.406L800.35,426.5a14.439,14.439,0,0,1,18.008-4.706h0a14.439,14.439,0,0,1,7.62,17.172Z" transform="translate(51.639 -214.574)" fill="#c33764"/>
          <path id="Path_2752" data-name="Path 2752" d="M839.718,419.812c-1.687.738-5.142-12.705-3.594-15.394,2.3-4,2.166-3.97,3.693-6.616s1.87-6.267-.109-8.594-6.557-2.019-7.46.9c.581-5.544-4.9-10-10.334-11.252s-11.161-.475-16.622-1.589c-6.338-1.293-12.933-6.606-10.4-13.576a9.815,9.815,0,0,1,1.915-3.147c2.922-3.285,7.009-4.688,11-6.044,8.313-2.822,16.854-5.679,25.627-5.367a37.231,37.231,0,0,1,32.9,24.059,33.837,33.837,0,0,1,1.4,5.2c3.011,16.192-6.392,32.164-21.663,38.329Z" transform="translate(54.21 -224.465)" fill="#2f2e41"/>
          <path id="Path_2753" data-name="Path 2753" d="M480.619,542.794v2.586A16.175,16.175,0,0,0,496.78,561.54H613.136A16.166,16.166,0,0,0,629.3,545.379v-2.586a16.045,16.045,0,0,0-3.75-10.343,16.634,16.634,0,0,0-2.728-2.586s-63.97-1.448-63.97-3.232H496.78A16.183,16.183,0,0,0,480.619,542.794Z" transform="translate(-37.663 -183.459)" fill="#3f3d56"/>
          <rect id="Rectangle_1091" data-name="Rectangle 1091" width="16.807" height="108.6" transform="translate(509.827 377.44)" fill="#3f3d56"/>
          <path id="Path_2754" data-name="Path 2754" d="M551.228,624.136c-31.417,0-56.886,14.4-56.886,16.217s25.469.7,56.886.7,56.886,1.113,56.886-.7S582.645,624.136,551.228,624.136Z" transform="translate(-33.644 -154.904)" fill="#3f3d56"/>
          <path id="Path_2755" data-name="Path 2755" d="M443.761,332.185h23.393l-7.541,41.109H443.764Z" transform="translate(129.957 97.281)" fill="#ffb8b8"/>
          <path id="Path_2756" data-name="Path 2756" d="M578.636,621.172h31.216a19.892,19.892,0,0,1,19.892,19.892v.647l-51.107,0Z" transform="translate(-8.958 -155.773)" fill="#2f2e41"/>
          <path id="Path_2757" data-name="Path 2757" d="M620.252,642.028q-.277,0-.556-.026l-21.935-1.6a5.818,5.818,0,0,1-4.925-7.795l29.356-65.954a4.523,4.523,0,0,0-.254-3.618,4.462,4.462,0,0,0-2.859-2.275c-13.8-3.608-49.222-13.216-79.881-24.458-13.135-4.817-21.408-11.777-24.589-20.688-4.193-11.748,2.01-22.462,2.276-22.912l.208-.352,28.85,2.622,31.276,2.66,68.539,36.753a25.968,25.968,0,0,1,11.4,33.335l-31.6,70.858a5.814,5.814,0,0,1-5.309,3.448Z" transform="translate(-28.133 -193.498)" fill="#2f2e41"/>
          <path id="Path_2758" data-name="Path 2758" d="M437.761,332.185h23.393l-7.541,41.109H437.764Z" transform="translate(128.2 97.281)" fill="#ffb8b8"/>
          <path id="Path_2759" data-name="Path 2759" d="M572.636,621.172h31.216a19.892,19.892,0,0,1,19.892,19.892v.647l-51.107,0Z" transform="translate(-10.715 -155.773)" fill="#2f2e41"/>
          <path id="Path_2760" data-name="Path 2760" d="M613.252,645.028q-.277,0-.556-.027l-21.935-1.6a5.818,5.818,0,0,1-4.925-7.8l29.356-65.954a4.522,4.522,0,0,0-.254-3.618,4.461,4.461,0,0,0-2.859-2.275c-13.8-3.608-49.222-13.216-79.881-24.458-13.135-4.817-21.408-11.777-24.588-20.688-4.193-11.748,2.01-22.462,2.276-22.911l.208-.352,28.85,2.622,31.276,2.66,68.539,36.753a25.968,25.968,0,0,1,11.4,33.335l-31.6,70.858a5.814,5.814,0,0,1-5.309,3.448Z" transform="translate(-30.183 -192.619)" fill="#2f2e41"/>
          <path id="Path_2761" data-name="Path 2761" d="M507.891,418.321a14.439,14.439,0,0,1,18.439-3.6h0a14.439,14.439,0,0,1,6.467,17.453l-8.688,24.133-35.585-13.522Z" transform="translate(-35.348 -216.782)" fill="#6c63ff"/>
          <path id="Path_2762" data-name="Path 2762" d="M575.789,538.541a6.418,6.418,0,0,1-5.193,1l-54.789-13.033a6.314,6.314,0,0,1-4.028-2.985,6.622,6.622,0,0,1-.626-5.15c5.908-20.483-1.839-45.874-11.091-70.262a33.621,33.621,0,0,1,18.384-35.668l.149-.072,28.765,1.452a32.311,32.311,0,0,1,21.419,18.332c11.087,25.949,14.262,59.245,9.7,101.793a6.462,6.462,0,0,1-2.694,4.588Z" transform="translate(-32.101 -216.919)" fill="#3a72b9"/>
          <circle id="Ellipse_646" data-name="Ellipse 646" cx="31.754" cy="31.754" r="31.754" transform="translate(459.663 193.123) rotate(-80.783)" fill="#ffb8b8"/>
          <path id="Path_2763" data-name="Path 2763" d="M559.859,479.275l-21.221-15.125,15.141-19.822,13.668,7.869,54.922-31.684a13.665,13.665,0,0,1,.3-1.877,14.221,14.221,0,1,1,10.59,17.1,13.579,13.579,0,0,1-1.34-.4l-55.172,43.525A14.146,14.146,0,0,1,559.859,479.275Z" transform="translate(-20.672 -218.299)" fill="#ffb8b8"/>
          <path id="Path_2764" data-name="Path 2764" d="M526.651,437.216a14.439,14.439,0,0,1,7.621-17.172h0a14.439,14.439,0,0,1,18.008,4.706L567.073,445.7l-31.479,21.406Z" transform="translate(-24.36 -215.085)" fill="#3a72b9"/>
          <path id="Path_2765" data-name="Path 2765" d="M556.689,384.856a5.736,5.736,0,0,1-.768,6.705c-4.51,5.1-5.714,13-4.088,19.8,1.951,8.162,7.131,15.118,12.246,21.77s10.408,13.485,12.655,21.571c5.319,19.141-8.97,39.554-27.333,47.137s-39.274,5.182-58.608.613C476.2,499,461.142,493.93,451.163,482.739S438.535,452.6,449.141,442c8.314-8.309,21.258-8.978,32.827-11.061s24.671-8.215,26.221-19.867c1.54-11.577-9.307-21.145-11.35-32.644-2.54-14.3,9.9-27.925,23.97-31.511s28.917.4,42.549,5.4c10.486,3.852,21.453,8.877,25.444,20.291,2.22,6.347.5,13.58-4.978,17.486-8.336,5.948-19.052.207-27.213-5.379Z" transform="translate(-48.875 -222.583)" fill="#2f2e41"/>
        </g>
        <text id="Work_in_Progress" data-name="Work in Progress" transform="translate(1061.137 586.192) rotate(50)" fill="rgba(0,0,0,0.6)" font-size="25" font-family="Quicksand" font-weight="700"><tspan x="-102.375" y="0">Work in Progress</tspan></text>
        <g id="Group_953" data-name="Group 953" transform="translate(-10.74 5)">
          <path id="Path_2766-2" data-name="Path 2766" d="M66.261,119.987a15.488,15.488,0,0,0,.956,5.4,15.966,15.966,0,0,0,15.01,10.516v8.748a24.714,24.714,0,1,1,0-49.379v8.8a20.27,20.27,0,0,0-2.438.143,16.014,16.014,0,0,0-13.528,15.775Z" transform="translate(632.572 493.75)" fill="#c43764"/>
          <path id="Path_2767-2" data-name="Path 2767" d="M116.266,162.614A24.666,24.666,0,0,1,91.6,187.279v-7.935l.621-.813a15.918,15.918,0,0,0,15.3-15.918,14.819,14.819,0,0,0-.478-3.872A15.918,15.918,0,0,0,91.6,146.7v-8.8a24.713,24.713,0,0,1,21.559,12.715A24.235,24.235,0,0,1,116.266,162.614Z" transform="translate(614.213 471.488)" fill="#3a72b9"/>
        </g>
      </g>
    </g>
  </g>
</svg>
