<svg id="dogecoin-1" xmlns="http://www.w3.org/2000/svg" xmlns:xlink="http://www.w3.org/1999/xlink" width="186" height="186" viewBox="0 0 186 186">
  <defs>
    <clipPath id="clip-path">
      <circle id="Ellipse_450" data-name="Ellipse 450" cx="88.248" cy="88.248" r="88.248"/>
    </clipPath>
  </defs>
  <circle id="Ellipse_447" data-name="Ellipse 447" cx="93" cy="93" r="93" fill="#988430"/>
  <circle id="Ellipse_448" data-name="Ellipse 448" cx="90.147" cy="90.147" r="90.147" transform="translate(2.984 2.984)" fill="#7a6a2a"/>
  <circle id="Ellipse_449" data-name="Ellipse 449" cx="88.248" cy="88.248" r="88.248" transform="translate(4.883 4.883)" fill="#ba9f33"/>
  <g id="Group_539" data-name="Group 539" transform="translate(4.883 4.883)" clip-path="url(#clip-path)">
    <path id="Path_2202" data-name="Path 2202" d="M453.554,514.419l-2.954-5.591,1.718-6.992L464.57,497.1l-5.214-10.7,2.577-10.8,4.837-9.675,14.949-2.351L492.7,453.1l23.72,1.793,4.656,25.362-8.966,31.933-5.109,16.531L486.3,529.5l-9.614-6.661-11.257-4.7Z" transform="translate(-387.579 -389.702)" fill="#e2cc85"/>
  </g>
  <g id="Group_540" data-name="Group 540" transform="translate(4.883 4.883)" clip-path="url(#clip-path)">
    <path id="Path_2203" data-name="Path 2203" d="M327.23,736.67a17.488,17.488,0,0,1-7.746,1.01c-1.417-1.9-11.317-2.788-11.317-2.788a5.531,5.531,0,0,0-3.421.527c-2.2.889-4.28.784-6.224,1.266s-3.873-2.049-5.365-2.577a20.866,20.866,0,0,1-3.466-1.9l-4.174-.407-8.379-3.541L263.832,715l-3.617,5.666-1.115,7.007,4.024,8.3,10.835,9.871,21.128,5.365,12.523-3.692L323.3,740.89Z" transform="translate(-224.937 -612.134)" fill="#f1d789"/>
  </g>
  <g id="Group_541" data-name="Group 541" transform="translate(4.883 4.883)" clip-path="url(#clip-path)">
    <path id="Path_2204" data-name="Path 2204" d="M202.4,467.626l2.682-8.122,3.195-5.244,10.293-.859-3.089,9.012-8.6,15.311,3.572,13.668-6.329,3.165-1.944-2.984-1.567-6.842-.105-7.686Z" transform="translate(-175.168 -389.957)" fill="#f4ecb4"/>
  </g>
  <g id="Group_542" data-name="Group 542" transform="translate(4.883 4.883)" clip-path="url(#clip-path)">
    <path id="Path_2205" data-name="Path 2205" d="M216.745,603.282l-1.974-2.758a4.529,4.529,0,0,1-.226-2.456c.3-1.16.256-1.236.105-1.673s-1.417-1.944-1.341-3.24c.075-1.311-.105-1.748.859-2.788a3.5,3.5,0,0,0,.708-2.758l1.311.814.3-.452a1.342,1.342,0,0,1,.482.964c.105-.814-.332-4.581.663-5.44,1.01-.859,2.758,4.024,2.758,4.024l-1.085-7.083-2.788-7.264-4.958-6.631-.3-7.309V558.6a24.615,24.615,0,0,0-2.908,6.254c-.452,1.9.633,4.2.407,6.932-.181,2.713-.407,2.5.256,3.572s2.276,3.285,1.643,4.883c-.558,1.371-2.456.407-2.456.407a4.123,4.123,0,0,1-.889,1.522,3.387,3.387,0,0,0-.738-1.492c-.03.256-.105.6-.105.6s-.332-1.04-.663-2.351c-.452-1.748-.934-4.054-1.371-5.289-.181.708-.633,2.863-.633,2.863l.256,3.315,1.236,4.551,1.19,2.984,1.16,3.647,1.01,2.456.814,1.869.708,4.2,3.421,3.617,1.823.814Z" transform="translate(-177.971 -479.303)" fill="#f3e19d"/>
  </g>
  <g id="Group_543" data-name="Group 543" transform="translate(4.883 4.883)" clip-path="url(#clip-path)">
    <path id="Path_2206" data-name="Path 2206" d="M201.3,476.907a28.7,28.7,0,0,0-3.165,8.379,55.157,55.157,0,0,0-.889,14.376,59.568,59.568,0,0,0,2,11.845,65.839,65.839,0,0,0,4.28,10.051l.105-.226a15.861,15.861,0,0,1-1.236-3.089c-.407-1.6-.558-3.5-.934-4.355a20.877,20.877,0,0,1-1.16-2.652c-.256-1.01-.3-2.607-1.085-3.8a7.7,7.7,0,0,1-.859-3.014c-.151-1.9.075-4.024-.105-5.772-.332-2.908-.558-4.883-.256-6.4s1.869-5.847,2.833-9.283c.633-2.2.256-4.054,1.417-5.968a16.881,16.881,0,0,0,2.125-4.732C204.672,471.211,201.3,476.907,201.3,476.907Z" transform="translate(-172.272 -405.869)" fill="#f2e8b0"/>
  </g>
  <g id="Group_544" data-name="Group 544" transform="translate(4.883 4.883)" clip-path="url(#clip-path)">
    <path id="Path_2207" data-name="Path 2207" d="M255.43,492.7a4.916,4.916,0,0,0-1.869,1.04,27.287,27.287,0,0,0-1.673,2.23c-.814,1.085-.859,1.944-1.522,3.285-.663,1.311-2.125,3.285-2.306,3.993s-.482,4.024-.859,5.591a7.525,7.525,0,0,0,.377,3.5l.859-.181a2.7,2.7,0,0,0,.859,1.869c.859.738,1.01-2.5,1.01-2.5l3.21-10.835,4.837-3.285.527-2.652Z" transform="translate(-214.757 -423.334)" fill="#f5eec0"/>
  </g>
  <g id="Group_545" data-name="Group 545" transform="translate(4.883 4.883)" clip-path="url(#clip-path)">
    <path id="Path_2208" data-name="Path 2208" d="M269.128,518a8.119,8.119,0,0,0-3.391.964c-.452.332-.633.6-1.115,1.01a7.406,7.406,0,0,0-2.23,2.381,15.841,15.841,0,0,0-1.371,5.184c-.151,1.16-.151,2.23-.256,3.165a13.2,13.2,0,0,0-.256,2.984c.151,1.447,1.643,2.2,1.793,3.843l3.089-1.567,2.908-11.468,6.179-3.873-3.5-3.918-1.854,1.3Z" transform="translate(-226.104 -443.718)" fill="#e6db9d"/>
  </g>
  <g id="Group_546" data-name="Group 546" transform="translate(4.883 4.883)" clip-path="url(#clip-path)">
    <path id="Path_2209" data-name="Path 2209" d="M202.2,857.4l-13.789.332-7.309-.558s.452-5.365.558-6.631a32.172,32.172,0,0,1,1.371-3.421,7.735,7.735,0,0,0-.105-3.993c.332-.527,1.371-.814,2.532-11.212.452-3.873.527-6.812.859-8.65.482-2.607.814-3.571.738-4.551a20.489,20.489,0,0,1-.075-3.918c.226-1.6,1.793-3.5,1.748-4.807a4.068,4.068,0,0,0-1.01-2.351c-.452-.633-.814-1.16-.814-1.16s3.089-2.125,3.059-10.684a.827.827,0,0,1,.181.075l1.522,4.325,1.04,1.266,3.993,7.444,5.139,4.988,7.6,5.109,4.762,5.184.482,13.819-6.224,8.077Z" transform="translate(-158.691 -680.758)" fill="#e5cb7a"/>
  </g>
  <g id="Group_547" data-name="Group 547" transform="translate(4.883 4.883)" clip-path="url(#clip-path)">
    <path id="Path_2210" data-name="Path 2210" d="M335.9,899.331a4.257,4.257,0,0,1,1.522-2.833,1.69,1.69,0,0,1,.332,1.01,8.979,8.979,0,0,1,6.1-4.1c4.054-.739,5.033-3.692,5.033-3.692l8.6-7.821,9.841-9.057,11.965-4.2,5.591-1.371a3.084,3.084,0,0,1-.105,1.311,27.289,27.289,0,0,0,5.742-1.447c.964-.377,1.869-.527,2.351-.03.708.663.814,2.23.859,3.165,1.16-.256,2.5-1.371,3.572-1.266,1.718.181,3.24,2.2,4.988,2.2,2.306,0,3.345-1.417,4.958-2.532.964-.663,2.351-1.492,3.134-2.049,1.869-1.371,21.64-7.414,21.64-7.414l6.932.452,1.115,7.444-.6,19.561-31.737,16.577-50.031,7.67-20.374-5.214Z" transform="translate(-290.163 -734.604)" fill="#d8c173"/>
  </g>
  <g id="Group_548" data-name="Group 548" transform="translate(4.883 4.883)" clip-path="url(#clip-path)">
    <path id="Path_2211" data-name="Path 2211" d="M195.5,1061.283a42.429,42.429,0,0,0,2.682-10.1c.708-4.883.075-6,.256-7.565.256-2.351,2.908-6.932,3.134-7.821.181,1.823.708,8.71,2.607,10.247-.407.6-1.085,2.682,1.341,4.28-.407.859-1.236,1.9-.708,3.466a14.163,14.163,0,0,1,.859,6.254,5.173,5.173,0,0,0-2.532,1.266C202.4,1061.976,195.5,1061.283,195.5,1061.283Z" transform="translate(-170.921 -884.591)" fill="#f1d789"/>
  </g>
  <g id="Group_549" data-name="Group 549" transform="translate(4.883 4.883)" clip-path="url(#clip-path)">
    <path id="Path_2212" data-name="Path 2212" d="M397.549,975.516l11.106-3.089.482.151s.256.151.256.663c.708-.407,1.311-.332,1.748-.6.226.482.452,2.08,1.447,2.276,1.04.226,2.155-.452,3.285-1.311a21.763,21.763,0,0,1,3.345-2.456,18.046,18.046,0,0,1,.934,2c1.266-1.01,3.466-5.109,6.6-5.033a11.891,11.891,0,0,1,4.355-5.259,9.472,9.472,0,0,1,7.007-1.944,11.97,11.97,0,0,1,3.285-2.939,3.027,3.027,0,0,0,2.713.181c1.311-.6,2.788-2.939,4.732-3.24a4.567,4.567,0,0,1,3.014.633s5.666-5.621,9.569-7.49c-.151-.452-.452-2.155,4.129-5.922.256.226.075.859.256.889a10.686,10.686,0,0,0,2.607-1.567,21.179,21.179,0,0,1,5.109-3.059,7.151,7.151,0,0,1,4.913.738,2.25,2.25,0,0,1,.708-.331,8.868,8.868,0,0,0,1.371-.3c-.03.784.407,2.125,0,3.285a7.323,7.323,0,0,0,1.492.633,6.74,6.74,0,0,1-1.748,2.652c.784.377.889.814,2,1.19a22.619,22.619,0,0,0-1.522,2.381c-.332.708-1.522,3.647-2.049,4.762-.558,1.115-1.311,3.165-1.673,3.572a30.9,30.9,0,0,1-2.682,3.014c.889-.332,4.551-1.447,6.1-1.869-.934,1.371-9.569,14.2-9.569,14.2l-17.39,5.184-8.529,1.447-44.44-.03-3.918-1.944Z" transform="translate(-341.716 -801.702)" fill="#e0cd81"/>
  </g>
  <g id="Group_550" data-name="Group 550" transform="translate(4.883 4.883)" clip-path="url(#clip-path)">
    <path id="Path_2213" data-name="Path 2213" d="M311.409,471.812a5.455,5.455,0,0,0-1.567.181c-.256.181,1.311.558,1.793.738a4.12,4.12,0,0,1,1.793,1.673c.256.633,9.419,4.325,9.419,4.325l6.48-.332,2.23-3.089-4.25-3.722,2.984-8.786-3.948.633-9.494,5.666-4.762,1.823Z" transform="translate(-268.008 -397.94)" fill="#dfc57c"/>
  </g>
  <g id="Group_551" data-name="Group 551" transform="translate(4.883 4.883)" clip-path="url(#clip-path)">
    <path id="Path_2214" data-name="Path 2214" d="M414.715,525.339a1.016,1.016,0,0,0,.889.482,4.009,4.009,0,0,1,3.089,1.01c.859,1.085,3.24,4.551,3.24,4.551l5.7,2.05.377-6.706-6.224-4.325-7.083,2.607v.332Z" transform="translate(-357.089 -448.559)" fill="#e5cc7c"/>
  </g>
  <g id="Group_552" data-name="Group 552" transform="translate(4.883 4.883)" clip-path="url(#clip-path)">
    <path id="Path_2215" data-name="Path 2215" d="M388.036,549.3a6.2,6.2,0,0,0,2.351-.407c1.311-.482,3.466-1.522,4.4-1.115,1.311.558,1.04,2.306,2.456,3.873.859.964,2.426.934,3.315,1.974s3.948.558,3.948.558l1.16,6.254-4.656,5.968-1.522,7.414h-6.3l-5.757-2.276-2.833-6.857,1.417-6.932Z" transform="translate(-331.525 -470.035)" fill="#d2c281"/>
  </g>
  <g id="Group_553" data-name="Group 553" transform="translate(4.883 4.883)" clip-path="url(#clip-path)">
    <path id="Path_2216" data-name="Path 2216" d="M487.266,509.357a1.714,1.714,0,0,0,.482.075,1.248,1.248,0,0,0-.407,1.341c.151.859.633,1.944.226,2.607a3.241,3.241,0,0,1,.708,1.236c.256.739.332,1.417,2,1.522a3.55,3.55,0,0,0-.663.527,11,11,0,0,1,1.748,1.944,14.772,14.772,0,0,0,2.2-.527l.332.226.708-.3s-.663-.256-.181-1.869c.452-1.417.859-1.341.889-1.447a15.482,15.482,0,0,0,.332-2.2,26.36,26.36,0,0,0,.407-3.165l-.482-5.259-2.713-1.643-2.2-2.125-2.08,3.918-1.371,1.371-.105,3.391.166.377Z" transform="translate(-418.578 -429.789)" fill="#e2c270"/>
  </g>
  <g id="Group_554" data-name="Group 554" transform="translate(4.883 4.883)" clip-path="url(#clip-path)">
    <path id="Path_2217" data-name="Path 2217" d="M531.5,367.454a18.309,18.309,0,0,1,.663,2.426,2.335,2.335,0,0,0,.105-.633s.377,2.08.452,2.939c.151-.03.3-.075.332.075a12.957,12.957,0,0,1,.3,2.758,7.52,7.52,0,0,1,2.532-2.532,4.426,4.426,0,0,1,2.049-.814c1.16-.03,2,.738,3.391.738,3.345,0,6.374-2.456,8.6-3.21a11.381,11.381,0,0,0,4.054-1.869,10.65,10.65,0,0,0,2.125-2.652c1.04-1.793,2.125-3.345,3.21-3.541a6.763,6.763,0,0,1-1.492.106s.331-.332.889-.784a3.463,3.463,0,0,1,2.2-1.01c1.718,0,2.577.256,3.541.256a4.813,4.813,0,0,0,1.522-.256,6.063,6.063,0,0,0,3.285.708c2.276.03,3.8.226,4.988.331s5.184-.331,6.329-.3a5.529,5.529,0,0,1,2.155.527l-3.692-10.73L565.783,338.4l-7.9,5.591-12.146,12.146-11.754,4.355-2.456,2.758v4.2Z" transform="translate(-456.287 -292.287)" fill="#ccb360"/>
  </g>
  <g id="Group_555" data-name="Group 555" transform="translate(4.883 4.883)" clip-path="url(#clip-path)">
    <path id="Path_2218" data-name="Path 2218" d="M679.067,379.311s.332-.332.889-.784a3.463,3.463,0,0,1,2.2-1.01c1.718,0,2.577.256,3.541.256a4.812,4.812,0,0,0,1.522-.256,6.064,6.064,0,0,0,3.285.708c2.276.03,3.8.226,4.988.332s5.184-.332,6.329-.3a5.53,5.53,0,0,1,2.155.527l-1.673-4.837-1.944-3.692-5.546-6.073s-6.661-3.918-6.706-3.948c-.03-.03-2.306-.633-2.306-.633l-6.028,3.647-5.47,14.15-.105,2.984,3.541,1.673c.889-1.492,1.869-2.682,2.788-2.833C679.7,379.311,679.067,379.311,679.067,379.311Z" transform="translate(-577.483 -310.292)" fill="#d5b457"/>
  </g>
  <g id="Group_556" data-name="Group 556" transform="translate(4.883 4.883)" clip-path="url(#clip-path)">
    <path id="Path_2219" data-name="Path 2219" d="M585.428,485.295c-.527.03-.964-.075-1.085-.452-.452-1.266-.814-1.447-1.19-1.447s-.889.814-1.19.889-.663-.934-.663-.934l-.331-.151a20.22,20.22,0,0,0-3.315,2.758c-1.371,1.492-3.617,4.024-4.626,4.476s-4.476.6-5.666.859a7.3,7.3,0,0,0-2.682,1.311c-.181.2.527.407.633.6.105.181-1.16.105-1.266.3a4.961,4.961,0,0,0,.482,1.447,2.463,2.463,0,0,1,1.04-.256c1.16-.03,2,.738,3.391.738,3.345,0,6.375-2.456,8.6-3.21a11.381,11.381,0,0,0,4.054-1.869,10.653,10.653,0,0,0,2.125-2.652A18.972,18.972,0,0,1,585.428,485.295Z" transform="translate(-483.919 -415.266)" fill="#d2b257"/>
  </g>
  <g id="Group_557" data-name="Group 557" transform="translate(4.883 4.883)" clip-path="url(#clip-path)">
    <path id="Path_2220" data-name="Path 2220" d="M270.821,843.482s-.3-1.115-3.059-3.994c-.784-.814-1.266-1.492-1.793-1.974a24.18,24.18,0,0,0-3.014-2.276c-2.049-1.522-4.28-1.522-6-3.391a31.127,31.127,0,0,1-5.109-9.087c-1.371-3.647-1.748-4.807-1.748-4.913s.377-.814.859-.708.482,1.04.6,1.266a7.478,7.478,0,0,0,.814,1.04,9.953,9.953,0,0,1,2.23,3.24,14.678,14.678,0,0,0-.527-2.607s2.652,1.673,4.913,3.421c2.276,1.748,3.21,2.351,3.873,3.466a52.378,52.378,0,0,0,2.984,4.913c.754.859,11.031,4.1,11.031,4.1l4.883,3.647,2.426,5.32-1.9,2.984-3.647.784-5.922-2.652Z" transform="translate(-217.293 -698.873)" fill="#d2b159"/>
  </g>
  <g id="Group_558" data-name="Group 558" transform="translate(4.883 4.883)" clip-path="url(#clip-path)">
    <path id="Path_2221" data-name="Path 2221" d="M300.293,845.855a13.808,13.808,0,0,0,4.25,3.843,40.782,40.782,0,0,0,10.835,4.024,30.315,30.315,0,0,0,6.374.964c5.32.075,8.982-1.447,13.518-1.944a65.194,65.194,0,0,0,8.6-1.191,44.427,44.427,0,0,0,9.645-3.572c2.351-1.085,4.506-1.9,6.254-2.939,2.456-1.447,4.25-3.059,6.329-3.541a5.369,5.369,0,0,1-2.577,3.285c1.085-.03,2.577-.105,2.577-.105a48.482,48.482,0,0,0-3.993,2.788c-1.567,1.19-3.647,3.21-5.772,4.551-1.371.859-2.863,1.492-3.843,2a17.387,17.387,0,0,0-4.913,3.572,2.1,2.1,0,0,1,.6,0,11.738,11.738,0,0,0-3.391,1.01,4.581,4.581,0,0,0-1.718.151c-.708.226-1.643.739-2.607,1.01a3.285,3.285,0,0,1-1.823.226l.226.452s-1.793-.03-2.381.03c.106.03.075.075.075.075a.91.91,0,0,0-.3.106,3.108,3.108,0,0,1-.934.407c-.181.03-.332.03-.558.075.075.181.663,1.191.934,1.793-.226.151-3.617,2.713-3.617,2.713a2.608,2.608,0,0,1,.256.527c.105.331.151.814.256,1.04.256.452.407.527.407.527s-.407.075-1.115.256a19.681,19.681,0,0,1-2.381.558,9.629,9.629,0,0,1-.964.075,2.633,2.633,0,0,1-.407,3.059c-1.236,1.447-1.6,1.673-1.974,2.607a4.035,4.035,0,0,0-.6-.377,2.534,2.534,0,0,1-1.16-.814,9.753,9.753,0,0,1-.452,1.417,17.618,17.618,0,0,0-1.04,2.758c-.407-.452-1.16-1.341-2.2-1.16s-1.869,1.6-2.049,2c0-.256-.181-.452-.226-.151a11.446,11.446,0,0,1-3.8,6.6c-.03-.708-.03-2.275-.105-2.788a7.294,7.294,0,0,1-2.833,1.673c-2.125.934-1.793,1.869-1.793,1.869a4.668,4.668,0,0,1,.964-3.059c1.16-1.567,1.869-2.306,1.869-2.426a.673.673,0,0,0-.151-.331c-.151-.151-.452-.332-.452-.452a3.03,3.03,0,0,0,1.869-2.713,4.816,4.816,0,0,0-1.266-3.014c-.075-.075.708-.633.6-.814-.075-.106-1.04-.814-1.16-1.191a3.5,3.5,0,0,1,.151-.663,1.867,1.867,0,0,0,.151-.784,6.245,6.245,0,0,0-.6-1.522,8.127,8.127,0,0,0,.859,0,7.422,7.422,0,0,1-.708-1.417,18.072,18.072,0,0,0-.452-1.869c.256.03.889.075.889,0,.03-.226-.558-.6-.3-.889a1.52,1.52,0,0,1,.859.6,3.456,3.456,0,0,0-1.115-1.793,2.738,2.738,0,0,1,2.2.151,2.946,2.946,0,0,1,1.19,1.266s.527.407,1.341,1.01a14.524,14.524,0,0,0,4.024,2.532,4.18,4.18,0,0,0,2.2.075,3.371,3.371,0,0,0,.934-.377,1.712,1.712,0,0,1,.332-.151,7.236,7.236,0,0,0-.558-.934c.256,0,.558.03.558.03s.181-.407-.633-1.19c.181-.181.407-.3.407-.6a1.787,1.787,0,0,1-.814-.557c.151-.105.377-.452.633-.558-.226-.181-.784-.934-1.04-1.01a4.73,4.73,0,0,0,.708-.332,8.643,8.643,0,0,1-1.673-.6,9.629,9.629,0,0,0-1.371-.964c-.377-.151-1.04-.226-1.311-.527a4.126,4.126,0,0,0,.964,0c.226,0,.332.03.407.03-.03-.105-.03-.331.558-.407a2.762,2.762,0,0,0,.814-.256,2.08,2.08,0,0,1-1.191-.633,4.63,4.63,0,0,0-1.522-1.16c-.377-.075-1.085.256-1.522.226a1.377,1.377,0,0,1-.859-.377s-2,.181-6.45-2.532a22.721,22.721,0,0,1-5.516-4.431,6.624,6.624,0,0,1-1.04-.482c-1.447-.754-3.451-2.321-3.391-4.37Z" transform="translate(-259.921 -719.571)" fill="#c2a44d"/>
  </g>
  <g id="Group_559" data-name="Group 559" transform="translate(4.883 4.883)" clip-path="url(#clip-path)">
    <path id="Path_2222" data-name="Path 2222" d="M665.313,259.244a1.954,1.954,0,0,1,.889.6c.708.814,1.16,2.351-.452,3.993a2.542,2.542,0,0,0,1.447.226c-.558.663-1.823,2.08-1.9,3.315a1.263,1.263,0,0,0,.558,1.311,5.023,5.023,0,0,0-1.01,2.984,12.005,12.005,0,0,1,1.492-1.417,39.606,39.606,0,0,1,3.692-2.532,2.142,2.142,0,0,0,.105.784s1.944-1.6,3.572-.889c.738.332.407,1.371.407,1.371a1.722,1.722,0,0,1,1.718.332,31.953,31.953,0,0,1,2.23,3.24,23.686,23.686,0,0,1,1.417,1.944,24.605,24.605,0,0,1,2.049,4.325c.03-.784.226-2,2.456-1.236a13.669,13.669,0,0,1,6.887,5.666c2.125,3.24,2.652,6.887,3.722,8.273a11.794,11.794,0,0,1,2.276,4.506c.075.934-.332,3.948,1.9,12.1.633-2.532,1.6-8.153,1.6-8.153l.527-4.958.6-15.341-16.019-13.307L672.953,257.3l-8.153.784Z" transform="translate(-569.499 -223.408)" fill="#caa13e"/>
  </g>
  <g id="Group_560" data-name="Group 560" transform="translate(4.883 4.883)" clip-path="url(#clip-path)">
    <path id="Path_2223" data-name="Path 2223" d="M749.176,193.322s-.226-1.492-3.994-4.024c-3.767-2.5-6.706-2.5-9.418-4.626-2.08-1.673-4.25-5.516-5.666-6.781-1.371-1.251-1.6-4.868-1.6-4.868l4.626-3.873,6.887-9.946,5.817-6.4,2.788,3.873,3.873,4.551,2.155,9.132.784,13.367Z" transform="translate(-623.6 -134.656)" fill="#b59544"/>
  </g>
  <g id="Group_561" data-name="Group 561" transform="translate(4.883 4.883)" clip-path="url(#clip-path)">
    <path id="Path_2224" data-name="Path 2224" d="M867.831,367.567a17,17,0,0,0-.738-6,109.812,109.812,0,0,0-4.174-10.624c-.407-2.276-.105-2.456.332-2.713.452-.256,2.08-1.19,2.984-4.476a4.234,4.234,0,0,1,3.692-3.391l1.718-1.266,2.607,6.525,2.276,5.892.708,4.506.527,3.843-1.236,8.123-6.1,5.516Z" transform="translate(-737.598 -292.881)" fill="#c89d3a"/>
  </g>
  <g id="Group_562" data-name="Group 562" transform="translate(4.883 4.883)" clip-path="url(#clip-path)">
    <path id="Path_2225" data-name="Path 2225" d="M309.38,1133.471a14.653,14.653,0,0,1-1.447-3.617,3.4,3.4,0,0,1,.377-1.718,3.047,3.047,0,0,0-1.01-.964,3.317,3.317,0,0,1,.708-1.6c.407-.482,1.19-1.115,1.341-1.341s.226-.527.663-.6c.452-.075.934-.075.934-.663v-1.085a1.291,1.291,0,0,0,.332-.3c.105-.151.181-.332.256-.377a2.782,2.782,0,0,1,1.236-.226,9.248,9.248,0,0,0,1.9.452c1.085-.03,2.351-.859,4.355-.482,3.014.557,3.722,2.607,5.47,3.767a3.469,3.469,0,0,0,2.607.452h.407c.075,0,.633-.633.934-.6.6.03.663.527,1.04.557.889.105,2.607-.452,3.466-.226a1.655,1.655,0,0,1,1.085,1.085,1.672,1.672,0,0,1-.407,1.673,6.688,6.688,0,0,0-2,2.381c.256.181.708.6.708.6a5.932,5.932,0,0,1-2.607,1.221,4.116,4.116,0,0,0-3.315,1.447c-.814,1.191-3.617.527-3.617.527Z" transform="translate(-265.873 -956.824)" fill="#ceb052"/>
  </g>
  <g id="Group_563" data-name="Group 563" transform="translate(4.883 4.883)" clip-path="url(#clip-path)">
    <path id="Path_2226" data-name="Path 2226" d="M864,523.373a52,52,0,0,0,3.165-4.687c.814-1.6-2.577-21.866-2.577-21.866L871.4,474.5l-.181-7.264a66.767,66.767,0,0,1,1.115-9.614c.934,1.673,3.843,3.692,4.476,4.762a55.118,55.118,0,0,0,1.16-10.986c.558.859,1.9,9.494,1.9,9.494l1.341,5.817,1.748,6.179,1.944,6.525,1.16,4.506.663,1.085.557,1.9.527,2.049,1.522,4.807.889,3.948.708,7.158a10.914,10.914,0,0,1,.331,1.673,6.951,6.951,0,0,1-.105,1.371,16.534,16.534,0,0,1,.151,2.908c-.151,1.19-.151,2.125-1.085,2.984s-1.522,5.968-1.522,5.968l-1.673-1.115a4.543,4.543,0,0,0-.452-2.908,2.961,2.961,0,0,0-3.165-1.447,9.561,9.561,0,0,0-3.135.934,18.263,18.263,0,0,1-3.014,2.652c-1.492.889-3.918.964-5.214,1.266a13.94,13.94,0,0,0-4.28,2.23A23.84,23.84,0,0,1,864,523.373Z" transform="translate(-738.68 -388.258)" fill="#cca847"/>
  </g>
  <g id="Group_564" data-name="Group 564" transform="translate(4.883 4.883)" clip-path="url(#clip-path)">
    <path id="Path_2227" data-name="Path 2227" d="M864,890.416a12.934,12.934,0,0,0,3.722,1.447c2.411.588,8.575,4.129,8.575,4.129l5.184,3.165,6.4.482,5.621-.784s.181-2.381-.181-11.257c-.377-8.906-.663-10.172-.663-10.835s-.226-11.965-.482-14.422-.075-4.958-.151-6.4-.889-7.339-1.266-8.861a3.844,3.844,0,0,0-1.311-2.276,18.154,18.154,0,0,0-.738,3.572c0,.708-.151,2.426-.151,2.863-.106-.03-.151-.3-.151-.407-.151.377-.332,1.04-.407,1.115s.105-.633,0-.784-.3-.075-.256-.452a4.214,4.214,0,0,1,.105-.663,6.92,6.92,0,0,0-.784,2.351c-.332,1.673-.332,1.718-.452,1.869-.105.181-.708.784-.738,1.01-.03.407.557.814.6,1.04.03.377-.527,2.125-.708,2.984s-.105,2.532-.3,3.391c-.151.784-.3,1.236-.814,1.567.377.075.738.181.738.181a5.568,5.568,0,0,1-.814,4.129c-.482.663-.6.964-1.115,1.567a6.917,6.917,0,0,0-1.869,3.21,5.252,5.252,0,0,1-.105-.738,35.484,35.484,0,0,0-2.23,2.863c-.859,1.341-2.049,1.266-2.381,1.6a1.609,1.609,0,0,0-.3,1.417c-.3.075-.859.181-1.236,1.341a2.824,2.824,0,0,1-1.341,1.6,7.082,7.082,0,0,1-2,.633,2.431,2.431,0,0,1,.708.226A11.948,11.948,0,0,1,870.284,884a5.073,5.073,0,0,0-2,2.426,1.741,1.741,0,0,1-1.447,1.115c.3.181.739.6.964.738a3.369,3.369,0,0,0-1.9.934C864.844,890.084,864.482,890.341,864,890.416Z" transform="translate(-738.68 -722.374)" fill="#c39d3c"/>
  </g>
  <g id="Group_565" data-name="Group 565" transform="translate(4.883 4.883)" clip-path="url(#clip-path)">
    <path id="Path_2228" data-name="Path 2228" d="M715.4,1148.287a7.014,7.014,0,0,1,3.285-2.351,39.764,39.764,0,0,1,5.817-1.417,20.788,20.788,0,0,1,2.833-.934,8.313,8.313,0,0,1-.407,2.2c.859.151,3.014-1.522,4.174-1.9s3.8-.934,4.024-1.115.708-1.266.859-1.311.558.226.814.226c.482,0,3.873-3.134,6.555-3.089,2.652.03,5.666,2.23,5.214,4.2a3.127,3.127,0,0,1,2.049-.633,3.573,3.573,0,0,0-.105.558s1.447-.332,1.823.151c.407.482.181.934,1.16,2.08.784.964.558,1.19.407,1.522a10.566,10.566,0,0,1,3.948,2.351c1.718,1.6-13.713.6-13.713.6l-28.467-.256Z" transform="translate(-612.474 -971.896)" fill="#d2ba6b"/>
  </g>
  <g id="Group_566" data-name="Group 566" transform="translate(4.883 4.883)" clip-path="url(#clip-path)">
    <path id="Path_2229" data-name="Path 2229" d="M818.859,566.009a18.53,18.53,0,0,1-1.341,4.25c-.859,1.643-1.793,3.918-1.793,3.918a7.161,7.161,0,0,1,.181-1.522,43.358,43.358,0,0,0-4.476,2.833,15.167,15.167,0,0,0-2.2,2.275,45.42,45.42,0,0,0,1.567-4.807,96.877,96.877,0,0,0-8.786,7.716l-8.213,6.646a28.43,28.43,0,0,1-2.908,1.371c-1.417.6-3.089,1.115-4.325,1.6a6.86,6.86,0,0,1,1.6-2.426c.784-.738,3.135-3.285,3.5-4.476a4.066,4.066,0,0,0-.03-3.014c-.407.106-1.341.151-1.974.332a3.853,3.853,0,0,0-1.311.859,30.905,30.905,0,0,1,1.522-5.365c-.784.03-2.125.256-2.125.256a19.14,19.14,0,0,1,5.063-5.32,16.487,16.487,0,0,0-2.863.889c-1.869.784-3.918,1.944-5.44,2.577a119.66,119.66,0,0,0,10.474-17.812c3.571-8,4.913-10.052,5.7-14.346a64.7,64.7,0,0,0,.407-8.077,54.048,54.048,0,0,0,.226-6.962,16.549,16.549,0,0,1,4.551,11.739c.105,7.309-3.346,17.179-7.007,22.5.889.256,3.21.558,5.591-3.572s2.351-5.289,3.21-7.007a6.28,6.28,0,0,1,.075,1.16,31.593,31.593,0,0,0,5.109-9.494c.332,2.276,1.311,4.28-.226,8.454-1.371,3.767-3.165,4.687-3.165,4.687a7.126,7.126,0,0,0,2.2-.934c.226.558.181,1.19.558,1.417s.889.6.964.964a10.949,10.949,0,0,0,1.236-1.944,41.015,41.015,0,0,0,.3,9.057,3.066,3.066,0,0,0,3.165-2.276,9.313,9.313,0,0,0-.181,5.033A5.953,5.953,0,0,0,818.859,566.009Z" transform="translate(-671.161 -452.805)" fill="#c0993a"/>
  </g>
  <g id="Group_567" data-name="Group 567" transform="translate(4.883 4.883)" clip-path="url(#clip-path)">
    <path id="Path_2230" data-name="Path 2230" d="M592.76,231.381a8.877,8.877,0,0,1-3.135.482c-1.718,0-1.236-.663-3.918-.663-4.129,0-18.551,2.381-21.082,2.351-1.643-.03,5.546.708,5.546.708l18.37.256,3.692-.3,1.371-2.788Z" transform="translate(-484.213 -201.241)" fill="#a88f33"/>
  </g>
  <g id="Group_568" data-name="Group 568" transform="translate(4.883 4.883)" clip-path="url(#clip-path)">
    <path id="Path_2231" data-name="Path 2231" d="M402.8,452.015a21.007,21.007,0,0,0-3.345,3.165,24.472,24.472,0,0,1-2.652,3.391,2.3,2.3,0,0,0,.784-.105s0,.3-.181.377a1.057,1.057,0,0,1,.859.3,1.531,1.531,0,0,0-.527,2.155,2.32,2.32,0,0,0,1.643.889s-.256.738.814.663c2.306-.106,4.883-1.115,6.073-.859a3.335,3.335,0,0,1,2.713,1.869c.889,1.447,1.673,1.673,1.673,1.673a8.546,8.546,0,0,0,.407-3.345,9.952,9.952,0,0,0,.708-3.391l-.784-5.772L407.56,448.7l-4.43,2.456Z" transform="translate(-341.886 -385.965)" fill="#e3c571"/>
  </g>
  <g id="Group_569" data-name="Group 569" transform="translate(4.883 4.883)" clip-path="url(#clip-path)">
    <path id="Path_2232" data-name="Path 2232" d="M464.5,336.161s.332.784,1.718.859a.782.782,0,0,0-.106.633c.03.256.075.633.075.633a1.43,1.43,0,0,0,.407-.3c.075.332-.075.859,0,1.236a2.728,2.728,0,0,0,.226.663,1.2,1.2,0,0,1,.075-.151,6.073,6.073,0,0,0,1.04,1.492.613.613,0,0,1,.075-.3,1.045,1.045,0,0,0,.181.527.55.55,0,0,1-.151-.105,17.267,17.267,0,0,0,.482,3.617,1.7,1.7,0,0,0,.181-.256c0-.075-.03.663-.106,1.19a5.209,5.209,0,0,0-.03,1.266,3.974,3.974,0,0,1,.889-.527,3.217,3.217,0,0,0,1.643-1.974,13.162,13.162,0,0,0,.6-2.155,3.024,3.024,0,0,1,.3.889c.03.377.738.181.738.181l.151-1.643.889-3.722.814-2.306,3.918-6.1,7.083-5.44,6.179,1.417,5.214-7.083-8.982-5.395-8.5.889-7.716,10.684-6.179,9.69Z" transform="translate(-399.384 -270.969)" fill="#d8b65b"/>
  </g>
  <g id="Group_570" data-name="Group 570" transform="translate(4.883 4.883)" clip-path="url(#clip-path)">
    <path id="Path_2233" data-name="Path 2233" d="M556.9,279.933a9.914,9.914,0,0,0-2.05.889c-1.522.784-2.577,1.04-3.165,2.2a5.364,5.364,0,0,0-.633,2.08,14.354,14.354,0,0,1,1.643-.6c.633-.151,1.341-.105,1.266.151a1.761,1.761,0,0,1-.3.482s1.19-.03,1.16.558a3.036,3.036,0,0,1-.452,1.522c-.226.3-1.16.738-1.266,1.085-.256.708.105.738-.03,1.311-.106.558-.6,1.643-2.23,3.541a18.847,18.847,0,0,0-2.381,3.24,20.643,20.643,0,0,1-1.236-2.833c-.3.151-1.9,1.04-1.9,1.04l-3.707-12.915.075-.859a2.308,2.308,0,0,0,.407-1.16c-.558-.181-.633-.332-1.371-1.04a9.177,9.177,0,0,0-2.577-2.155,1.636,1.636,0,0,0-1.311-.964c-.889-.181-1.447-.332-1.447-.332a1.568,1.568,0,0,0,.708-.558,9.325,9.325,0,0,1-2.23.226,9.365,9.365,0,0,0-2.049.03c-.678.105-1.492.407-1.793-.633-.331-.256-1.04-.03-1.643.859s-.814,1.6-1.974,1.944a4.03,4.03,0,0,1-.527,1.447,16.6,16.6,0,0,1-1.567,1.944c-1.115,1.311-.934,3.466-2.713,5.109s.3-4.551.3-4.551l2.863-6.857,8.153-7.972,12.659-.859,1.236,6.555L553,273.98Z" transform="translate(-447.271 -230.203)" fill="#d3ae4d"/>
  </g>
  <g id="Group_571" data-name="Group 571" transform="translate(4.883 4.883)" clip-path="url(#clip-path)">
    <path id="Path_2234" data-name="Path 2234" d="M681.39,281.549l-5.32-7.67-3.722-2.863s-2.652-4.883-2.833-5.033a35.053,35.053,0,0,0-4.25-.482l.3.738a1.954,1.954,0,0,1,.889.6c.708.814,1.16,2.351-.452,3.993a2.542,2.542,0,0,0,1.447.226c-.558.663-1.823,2.08-1.9,3.315a1.263,1.263,0,0,0,.558,1.311,5.023,5.023,0,0,0-1.01,2.984,12.007,12.007,0,0,1,1.492-1.417,39.606,39.606,0,0,1,3.692-2.532,2.142,2.142,0,0,0,.105.784s1.944-1.6,3.572-.889c.738.332.407,1.371.407,1.371a1.722,1.722,0,0,1,1.718.331,31.987,31.987,0,0,1,2.23,3.24,23.654,23.654,0,0,1,1.417,1.944,24.6,24.6,0,0,1,2.049,4.325c.03-.6.151-1.447,1.191-1.447Z" transform="translate(-569.754 -230.373)" fill="#caa13e"/>
  </g>
  <g id="Group_572" data-name="Group 572" transform="translate(4.883 4.883)" clip-path="url(#clip-path)">
    <path id="Path_2235" data-name="Path 2235" d="M243.056,424.451a5.19,5.19,0,0,1,0-2.758c.377-1.823.964-2.682,1.16-5.365a18.722,18.722,0,0,1,1.944-6.028L251,408.1l3.421.934,1.01,4.581L251.1,416a3.324,3.324,0,0,1-1.447,1.823c-1.236.814-2.908,1.447-3.315,2.276a6.666,6.666,0,0,0-.527,1.6,2.265,2.265,0,0,0-1.974.558A2.893,2.893,0,0,0,243.056,424.451Z" transform="translate(-211.169 -351.483)" fill="#f4efc8"/>
  </g>
  <g id="Group_573" data-name="Group 573" transform="translate(4.883 4.883)" clip-path="url(#clip-path)">
    <path id="Path_2236" data-name="Path 2236" d="M235.25,351.8a2.209,2.209,0,0,0-.708.889,18.071,18.071,0,0,1-1.04-5.922c-.03-2.577-.181-3.21.407-4.1.6-.889,2.939-1.823,2.607-3.421-.332-1.522-1.718-2.155-3.421-1.718-1.191.3-2.08,2.833-3.315,4.1-.934.964-2.049.814-2.351,1.341-.407.708-.03,1.417-.151,1.869a9,9,0,0,1-1.085,1.944c-1.371,1.974-3.692,4.762-3.993,7.264a12.42,12.42,0,0,1,.407-3.014l-.226-.377,1.492-4.883.964-4.024,2.155-6.736,3.8-6.887L234.482,324l3.843.256.452,5.772,2.2,10.835,4.626,5.7-7.414,4.988Z" transform="translate(-193.598 -280.057)" fill="#ebcc73"/>
  </g>
  <g id="Group_574" data-name="Group 574" transform="translate(4.883 4.883)" clip-path="url(#clip-path)">
    <path id="Path_2237" data-name="Path 2237" d="M307.114,471.8a1.872,1.872,0,0,1-.859.03c-.226-.105-.452-.256-.377-.407s.482-.407.482-.527a.422.422,0,0,0-.377-.452.409.409,0,0,0-.452.181,1.729,1.729,0,0,0-.6-.3,4.265,4.265,0,0,1,.482-.03,4.689,4.689,0,0,0-1.311-.377c.377-.226,1.115-.889,1.6-.889s.784-.075.708-.331a1.534,1.534,0,0,0-.859-.784c.151-.181.256-.452-.105-1.191a1.437,1.437,0,0,1-.105-1.417,9.655,9.655,0,0,1,.663-.889,2.422,2.422,0,0,1,.633-.784,7.569,7.569,0,0,1,1.115-.482c.527-.181.964-.407,1.266-.181a.414.414,0,0,1,.181.527,2.723,2.723,0,0,1,1.974.106,14.867,14.867,0,0,0,3.21.738l.814,1.643-5.395,4.626-2.23,1.115Z" transform="translate(-263.156 -398)" fill="#e5c66b"/>
  </g>
  <g id="Group_575" data-name="Group 575" transform="translate(4.883 4.883)" clip-path="url(#clip-path)">
    <path id="Path_2238" data-name="Path 2238" d="M331.844,409.986a20.763,20.763,0,0,0-2.049,1.522c.226.03.6.181.452.407a24.468,24.468,0,0,0-1.869,1.748,11.554,11.554,0,0,0-1.447,2.125,7.647,7.647,0,0,1-2.532,1.748c1.236,0,3.722-1.522,4.656-1.522a.919.919,0,0,0,.784,1.01,5.942,5.942,0,0,0,4.1-.934c2.049-1.236,1.371-2.155,2.23-2.758,1.643-1.085,2.306-2.049,3.21-2.652a5.479,5.479,0,0,1,1.371-.738s.03-.452.3-.407a.405.405,0,0,1,.332.256,9.249,9.249,0,0,1,3.572-1.417.207.207,0,0,1-.106-.106s.151-.075.181-.151c0,0,.105-.151.181-.075s.181.633.332.859c.332-.151.964-1.567.964-1.567l1.522-4.355V399l-1.191.226-8.936,3.8-5.425,5.621Z" transform="translate(-280.397 -343.755)" fill="#e6bd62"/>
  </g>
  <g id="Group_576" data-name="Group 576" transform="translate(4.883 4.883)" clip-path="url(#clip-path)">
    <path id="Path_2239" data-name="Path 2239" d="M476.4,324.055a5.062,5.062,0,0,0,1.371-.558,6.226,6.226,0,0,1-.964,2.155,19.153,19.153,0,0,0-1.447,2.5c-.633,1.236-.708,3.014-1.311,3.8a2.761,2.761,0,0,1,.859-.256,3.97,3.97,0,0,0-.859,1.085,5.141,5.141,0,0,1-1.823,2.426,14.47,14.47,0,0,0-4.054,2.833c-1.522,1.643-3.089,3.722-3.873,4.476a11.158,11.158,0,0,0,1.115-3.059c.151-.934-.03-2.049.226-3.285a10.7,10.7,0,0,1,1.492-4.28c1.236-2.155,3.346-9.645,3.346-9.645l4.551-1.447Z" transform="translate(-399.214 -277.339)" fill="#b6933f"/>
  </g>
  <g id="Group_577" data-name="Group 577" transform="translate(4.883 4.883)" clip-path="url(#clip-path)">
    <path id="Path_2240" data-name="Path 2240" d="M510.938,271.528a12.7,12.7,0,0,0-1.748,3.722c-.377,1.748-.03,1.6-.256,2.456a3.21,3.21,0,0,0,0,1.6,5.681,5.681,0,0,1,1.9-1.869,15.755,15.755,0,0,0,2.984-2,10.983,10.983,0,0,1,2.532-2.758c-.557-.075-1.341-.332-1.492-.3a33.671,33.671,0,0,1,3.918-2.758c1.673-1.191,1.567-1.673,4.28-2.863a18.554,18.554,0,0,1-2.049,0c.3-.633,1.341-.934,2.381-1.974s-.663-2.577-.663-2.577l-7.942,4.807Z" transform="translate(-437.036 -227.57)" fill="#c49937"/>
  </g>
  <g id="Group_578" data-name="Group 578" transform="translate(4.883 4.883)" clip-path="url(#clip-path)">
    <path id="Path_2241" data-name="Path 2241" d="M379.7,130.694l.181-1.447,2.276-3.647,2.381-6.4V110.44l-.181-5.063.377-3.315.286-1.055.3-.407,1.944,1.01,2.682,3.647.256,7.038L387.6,123.4l-7.444,8.123Z" transform="translate(-327.363 -90.322)" fill="#dfc068"/>
  </g>
  <g id="Group_579" data-name="Group 579" transform="translate(4.883 4.883)" clip-path="url(#clip-path)">
    <path id="Path_2242" data-name="Path 2242" d="M251.093,97.679s-1.19.03-1.447,4.988-.377,7.565-.558,10.021a54.008,54.008,0,0,1-.814,5.395c-.226,1.447-.332,3.421-1.01,4.626a10.683,10.683,0,0,1-2.426,3.617,14.96,14.96,0,0,1-4.551,2.532c-.663.151-4.024.482-5.395,1.236a8.2,8.2,0,0,0-2.23,1.417,28.474,28.474,0,0,0-6,8.123c-2.682,5.289-5.365,20.224-5.365,20.224l.6-1.01a9.569,9.569,0,0,1,1.417-3.692c1.311-2.351.934-4.988,2.758-9.494a51.641,51.641,0,0,1,2.682-5.847,21.712,21.712,0,0,1,5.892-7.188,18.624,18.624,0,0,1,7.188-2.863l4.054-2.682s.708-1.371,1.643-2.939c1.311-2.2,2.984-4.657,3.345-8.228.558-5.289-.784-8.755-.708-11.89s.106-5.44.738-6S251.093,97.679,251.093,97.679Z" transform="translate(-192.833 -87.809)" fill="#a88f33"/>
  </g>
  <g id="Group_580" data-name="Group 580" transform="translate(4.883 4.883)" clip-path="url(#clip-path)">
    <path id="Path_2243" data-name="Path 2243" d="M416.682,120.264a56.859,56.859,0,0,0,2.607-8.3c.151-.784.452-1.567.527-2.2.377-3.692.482-5.214,0-7.233-.377-1.492-1.823-2.833-2.577-3.873-.738-1.085-1.085-1.492-.934-1.718a1.677,1.677,0,0,1,1.311-.558,4.486,4.486,0,0,1,3.21,1.492c1.16,1.341,2.08,5.892,2.08,5.892l.964,6,2.456,7.565Z" transform="translate(-358.422 -86.734)" fill="#c99e3d"/>
  </g>
  <g id="Group_581" data-name="Group 581" transform="translate(4.883 4.883)" clip-path="url(#clip-path)">
    <path id="Path_2244" data-name="Path 2244" d="M450.411,119.526a1.524,1.524,0,0,1-.934,0,1.342,1.342,0,0,1-.6,1.266c-.633-.256-6.555.256-6.555.256s-2.758-.482-3.617-4.129c-.6-2.426.452-5.772.105-7.972-.527-3.24-1.266-3.873-1.341-4.883s-.151-1.266-.151-1.9a3.5,3.5,0,0,0-.859-.181c-.075-.3.075-.558-.256-1.085a5.991,5.991,0,0,1,2.863,1.6,5.431,5.431,0,0,1,1.371,1.748,14.117,14.117,0,0,1,2.833,3.345c.784,1.552,2.306,6.525,2.652,7.339a5.489,5.489,0,0,0,.889,1.417C447.683,117.431,448.964,119.225,450.411,119.526Z" transform="translate(-375.349 -90.577)" fill="#b58634"/>
  </g>
  <g id="Group_582" data-name="Group 582" transform="translate(4.883 4.883)" clip-path="url(#clip-path)">
    <path id="Path_2245" data-name="Path 2245" d="M465.7,123.6a41.683,41.683,0,0,1,2.456,4.581c.889,2,1.417,3.647,2.532,4.988-.6-1.748-1.673-5.184-2.306-6.4A14.59,14.59,0,0,0,465.7,123.6Z" transform="translate(-400.403 -109.856)" fill="#a88f33"/>
  </g>
  <g id="Group_583" data-name="Group 583" transform="translate(4.883 4.883)" clip-path="url(#clip-path)">
    <path id="Path_2246" data-name="Path 2246" d="M310.659,288a22.037,22.037,0,0,0-4.355,1.869c-.934.482-1.823.889-2.682,1.266a46.421,46.421,0,0,1-6.525,2.456c.151.181.226.256.226.256a1.9,1.9,0,0,0,.407,1.16c-.226.226-3.24,2.276-2.351,9.132.6-.226,1.311-.527,1.417-.527.181.03.226.527.452.527a3.039,3.039,0,0,0,1.748-1.311c-.03.407-.482,4.506,1.944,7.264.452-.527,1.6-2.276,1.6-2.276l.03-.558a15.155,15.155,0,0,1,.738-3.722,9.655,9.655,0,0,1,1.869-3.089l6.45-9.208Z" transform="translate(-255.609 -249.482)" fill="#e6c367"/>
  </g>
  <g id="Group_584" data-name="Group 584" transform="translate(4.883 4.883)" clip-path="url(#clip-path)">
    <path id="Path_2247" data-name="Path 2247" d="M351.808,255.995a3.581,3.581,0,0,1-.964.482,3.728,3.728,0,0,1,.633-2.939c1.04-1.522,3.315-3.5,3.948-5.063.407-1.01.226-3.541,3.843-6.781s5.033-4.355,5.033-4.355l5.847-2.939,7.188,2.833-3.572,14-2.773,6.555-11.031-2.08Z" transform="translate(-302.787 -203.959)" fill="#dcba5a"/>
  </g>
  <g id="Group_585" data-name="Group 585" transform="translate(4.883 4.883)" clip-path="url(#clip-path)">
    <path id="Path_2248" data-name="Path 2248" d="M385.6,297.757l1.371-1.718v-1.221a7.8,7.8,0,0,0,3.165-2.08c1.643-1.673,3.918-4.883,5.922-4.687,2,.226,2.2,4.355,2.276,5.516a31.624,31.624,0,0,0,.738,5.214c.452,1.417-4.883,6.781-4.883,6.781l-3.617,2.758Z" transform="translate(-332.374 -249.519)" fill="#e9ce77"/>
  </g>
  <g id="Group_586" data-name="Group 586" transform="translate(4.883 4.883)" clip-path="url(#clip-path)">
    <path id="Path_2249" data-name="Path 2249" d="M413.8,363.234s1.115-1.748.3-2.125a12.9,12.9,0,0,1,1.371-2.23,11.256,11.256,0,0,1,2.682-3.5c2.049-1.944,3.315-3.21,3.647-4.506a11.879,11.879,0,0,0,.332-2.577,4.975,4.975,0,0,0,.708.482,4.21,4.21,0,0,1,1.673,4.054,6.669,6.669,0,0,1-1.191,3.692,17.637,17.637,0,0,1-1.6,1.417c-.708.482-.964,1.04-2.155,1.085a1.426,1.426,0,0,1,.407-.226,2.764,2.764,0,0,0-1.9.452c-.663.6-2.08,2.456-2.788,3.014C414.584,362.722,413.8,363.234,413.8,363.234Z" transform="translate(-356.324 -300.695)" fill="#cdae50"/>
  </g>
  <g id="Group_587" data-name="Group 587" transform="translate(4.883 4.883)" clip-path="url(#clip-path)">
    <path id="Path_2250" data-name="Path 2250" d="M493.123,229.781a18.131,18.131,0,0,0-5.546-1.085c-3.165-.105-7.791.075-12.327.105-4.883.03-9.313-1.673-15.461-1.974-1.01-.6-3.572-3.24-11.589,2.351.482-.03,5.817-1.236,7.67,1.085,1.869,2.306,1.341,6.224,1.085,7.158-.482,2.08-2.049,5.109-2.682,7.233s-.482,3.24-.934,4.732-1.447,2.23-.859,3.948c.784-.482,1.191-.482,2.5-3.421s1.04-5.033,3.21-7.52a49.146,49.146,0,0,1,7.007-6.781c1.341-.859,12.026-6.4,23.207-1.115C491.1,234.212,493.123,229.781,493.123,229.781Z" transform="translate(-385.54 -196.553)" fill="#d2a83e"/>
  </g>
  <g id="Group_588" data-name="Group 588" transform="translate(4.883 4.883)" clip-path="url(#clip-path)">
    <path id="Path_2251" data-name="Path 2251" d="M400.365,232a1.364,1.364,0,0,0-.075-.332,2.386,2.386,0,0,0-.407-.6,19.292,19.292,0,0,0-3.993-.332c-2.351.256-4.476,3.165-5.47,4.656-1.01,1.492-2.23,3.8-3.571,4.988a.494.494,0,0,0-.075-.332s.075.105-.075.256-.151.226-.075.3l.226.226a18.475,18.475,0,0,0,4.988-3.572,25.061,25.061,0,0,1,6.525-4.657A9.164,9.164,0,0,1,400.365,232Z" transform="translate(-333.199 -200.822)" fill="#c29637"/>
  </g>
  <g id="Group_589" data-name="Group 589" transform="translate(4.883 4.883)" clip-path="url(#clip-path)">
    <path id="Path_2252" data-name="Path 2252" d="M727.69,164.1s-.482.6-1.085,1.266c-1.341,1.417-3.089,3.014-4.581,4.657-1.417,1.567-3.014,2.788-4.807,4.837s-3.873,4.325-4.4,4.988a4.908,4.908,0,0,0-.859,2.306c-.256-.181-.558-.377-.558-.377a3.849,3.849,0,0,0,.452.663c.377.527.965,1.19,1.266,1.6a4.873,4.873,0,0,1,.784,1.718c.181.03,1.341.256,2.788-2.125s3.345-4.988,3.345-4.988l3.014-4.476,1.9-3.8,2.381-4.25Z" transform="translate(-609.077 -144.253)" fill="#ac8132"/>
  </g>
  <g id="Group_590" data-name="Group 590" transform="translate(4.883 4.883)" clip-path="url(#clip-path)">
    <path id="Path_2253" data-name="Path 2253" d="M812.313,143.9a23.366,23.366,0,0,0-2.532,2.381c-.708.889-2.381,3.24-2.381,3.24l.6-.075,3.059-2.713,1.191-2.125Z" transform="translate(-690.61 -127.097)" fill="#a88f33"/>
  </g>
  <g id="Group_591" data-name="Group 591" transform="translate(4.883 4.883)" clip-path="url(#clip-path)">
    <path id="Path_2254" data-name="Path 2254" d="M836.3,782.753a3.147,3.147,0,0,1,.663-1.974,14.326,14.326,0,0,0,4.25-5.892,37.735,37.735,0,0,0,1.944-4.988s-3.135,2.682-5.063,3.315c.452-.934.708-1.6.934-2.08-.256-.226-1.341-.482-1.447-.6.6-.6.934-2.08,2.155-3.059,1.567-1.19,4.431-3.24,6.661-5.063s6.6-6.073,7.158-7.309a2.751,2.751,0,0,1,.407.784s-2.2,2.863-3.345,4.687a4.469,4.469,0,0,0-.934,2.456l2.08-.889s.6,2.23-2.125,5.621c1.191-.452,1.673-.181,2.351-.557a10.557,10.557,0,0,0-4.1,4.325c-1.417,2.652-3.345,5.741-6.6,7.671A54.616,54.616,0,0,0,836.3,782.753Z" transform="translate(-715.154 -646.192)" fill="#a67a2e"/>
  </g>
  <g id="Group_592" data-name="Group 592" transform="translate(4.883 4.883)" clip-path="url(#clip-path)">
    <path id="Path_2255" data-name="Path 2255" d="M749.379,204.528a16.64,16.64,0,0,0-1.417,4.581c-.03.482-.151.859-.151,1.417-.03,1.793.106,3.8-.3,4.732a2.513,2.513,0,0,0-.377-.784c-.226.633-.633,2.607-.964,3.345a15.711,15.711,0,0,1-.452-4.129c.03-1.974.075-2.351.075-2.758a12.193,12.193,0,0,1-.633,1.9c-.226-.407-.482-.934-.784-1.371a8.167,8.167,0,0,1-.6.964c-.03-.181-.105-.663-.151-1.341a19.135,19.135,0,0,1-.03-2,9.085,9.085,0,0,1,2.049-3.466,28.989,28.989,0,0,0,3.722-6.148c.482-1.04,2.532-5.365,2.532-5.365h1.567l-2.276,5.184s-1.371,2.833-2.08,3.873-2.2,4.024-2.863,5.184c.482-.633.889-.964,1.371-1.567A24.792,24.792,0,0,0,749.379,204.528Z" transform="translate(-636.401 -169.732)" fill="#8c6228"/>
  </g>
  <g id="Group_593" data-name="Group 593" transform="translate(4.883 4.883)" clip-path="url(#clip-path)">
    <path id="Path_2256" data-name="Path 2256" d="M799.713,142.6a6.472,6.472,0,0,1-1.191,2.155c-.934,1.115-2.939,2.607-3.918,3.8a10.282,10.282,0,0,0-1.869,8.077,13.611,13.611,0,0,1,2.351-4.25,32.52,32.52,0,0,0,3.873-5.546,9.319,9.319,0,0,0,.889-2.939l.3-.377-.181-.859-.256-.06Z" transform="translate(-677.98 -125.993)" fill="#cba94c"/>
  </g>
  <g id="Group_594" data-name="Group 594" transform="translate(4.883 4.883)" clip-path="url(#clip-path)">
    <path id="Path_2257" data-name="Path 2257" d="M936.877,403.742a16.473,16.473,0,0,1-.784-3.135c-.181-1.492.3-1.793-.256-3.5-.331-1.04-.934-.889-1.085-1.04a8.9,8.9,0,0,1-.226-2.577,9.646,9.646,0,0,0-.181-2.456c-.226-.181-.377-.332-.708-1.447a16.105,16.105,0,0,0-.738-2c-.181-.331-.708-.633-.708-.964,0-.663.6-1.01.6-1.19-.03-.377-.482-.075-.6-.181-.151-.181.377-1.266.181-1.417-.075-.075-.6.558-.738.377-.151-.181-.332-1.974-.6-3.165-.256-1.16-.527-2-.558-2.351s-2.08-6.179-2.577-7.6a35.732,35.732,0,0,1-1.01-3.647,18.8,18.8,0,0,0-.332-2c-.075.151-.03.889-.151.859s-.482-2.607-.6-3.014a20.633,20.633,0,0,1-.889-2.788c-.151-1.01-.482-3.647-.708-5.44s-.332-2.532-.332-2.984a18.478,18.478,0,0,0-.181-3.285,30.53,30.53,0,0,0-1.417-5.546c-1.01-2.532-3.692-9.012-4.174-10.624,0-.407.527-.181.527-.181s1.311,3.285,2.276,5.817a39.013,39.013,0,0,0,2.049,4.988,18.733,18.733,0,0,1,2.23,6.781c.633,4.069.859,7.821,1.236,10.323a26.848,26.848,0,0,0,.708,3.722c.407,1.371,1.04,2.788,1.869,4.958a32.815,32.815,0,0,1,1.522,4.657c.332,1.673.332,2.939.527,3.767.181.708.452,2.125,1.085,4.174s1.567,4.687,2.2,6.329a34.733,34.733,0,0,1,1.974,7.49A71.948,71.948,0,0,1,936.877,403.742Z" transform="translate(-784.628 -287.178)" fill="#a88f33"/>
  </g>
  <g id="Group_595" data-name="Group 595" transform="translate(4.883 4.883)" clip-path="url(#clip-path)">
    <path id="Path_2258" data-name="Path 2258" d="M826.432,140.551l-.075.181a.317.317,0,0,1,.181.377,9.03,9.03,0,0,1-.075,1.236c-.075.527-.226.934-.256,1.266a6.367,6.367,0,0,1-.889,3.541c-.3.558-.482,1.04-.633,1.371a4.07,4.07,0,0,1-.784,1.311c.527-.3,2.426-1.492,3.391-1.311a7.069,7.069,0,0,0-2.306,2.08,5.208,5.208,0,0,0,1.793,0c1.673-.256,3.541-.859,5.184-.738,1.793.105,1.085-2.155,1.085-2.155l-2.08-4.551L827.05,140.4l-.618.151Z" transform="translate(-704.623 -124.125)" fill="#be9c44"/>
  </g>
  <g id="Group_596" data-name="Group 596" transform="translate(4.883 4.883)" clip-path="url(#clip-path)">
    <path id="Path_2259" data-name="Path 2259" d="M851,161.048s-1.748-1.748-2.456-7.746a139.573,139.573,0,0,1-.557-14.9l-1.417-3.466a8.151,8.151,0,0,0-1.04-3.165c-.738-.859-2.2-2.306-2.863-3.014s-1.417-1.673-1.869-1.823c.226-.377,1.236-2.5,5.109-2.532s5.063,2.125,5.47,2.908a28.415,28.415,0,0,1,2.908,10.624c.633,6.45.663,6.932.557,9.162a51.947,51.947,0,0,1-1.19,7.158C853.006,156.843,852.3,159.737,851,161.048Z" transform="translate(-718.977 -110.534)" fill="#a17c34"/>
  </g>
  <g id="Group_597" data-name="Group 597" transform="translate(4.883 4.883)" clip-path="url(#clip-path)">
    <path id="Path_2260" data-name="Path 2260" d="M868.475,389.725a2.96,2.96,0,0,0,1.673-.377,4.709,4.709,0,0,0,4.129-1.748,3.525,3.525,0,0,1-.332,2.758,6.375,6.375,0,0,1,1.01-.633c.03.558.558,2.276-1.673,6.45a2.633,2.633,0,0,1,1.944-.708c.03.784.452,3.421-.663,4.837a1.965,1.965,0,0,1-1.944.663,3.871,3.871,0,0,0,0-.633c-.03-.407-.181-.814-.075-1.085a5.406,5.406,0,0,1-1.567-1.085c-1.311-1.236-3.014-3.345-3.135-4.913a1.938,1.938,0,0,1,1.417-2.125,1.693,1.693,0,0,1-.332-.407,2.284,2.284,0,0,0-.452-.995Z" transform="translate(-741.935 -334.072)" fill="#8c6228"/>
  </g>
  <g id="Group_598" data-name="Group 598" transform="translate(4.883 4.883)" clip-path="url(#clip-path)">
    <path id="Path_2261" data-name="Path 2261" d="M792.282,206.512s-.075-.105-.482.377c.075-.482.151-.934.181-1.371a4.736,4.736,0,0,1,.738-1.115c-.226.452-.377.859-.377.859a6.062,6.062,0,0,1,1.371-1.673c.558-.452,1.266-.663,1.567-1.085a2.8,2.8,0,0,0,.332-.6,9.4,9.4,0,0,0,1.869-1.9c.151-.181.377-.377.527-.558.256-.105.859-.377,1.567-.738.739-.407,1.567-.964,2.08-1.191,1.01-.452,2.08-.407,2.577-1.115.377-.105.784-1.236.708-2.2a9.127,9.127,0,0,1,4.4,5.892c.708,2.758-.557,7.007-1.085,9.057s-.6,3.572-1.341,4.506c-.934,1.236-3.948,2.984-4.687,3.843-.633.708-2.532,2.5-2.456,3.8.075.964,1.266,1.492,1.522,1.673s.256.407.738.3.663-.332.859-.332c.226.03.226.075.332.075a1.1,1.1,0,0,0,.226-.03s-.075,1.371-3.285,1.793c-.226.03-.452.105-.739.151a1.838,1.838,0,0,0,1.01-.738c-.452-.075-1.748-.151-2.08-.256a4.024,4.024,0,0,1,.739-.889c.256-.226-.03-.3-.256-.181a12.029,12.029,0,0,0-1.115.859,10.811,10.811,0,0,1-1.311,1.19,2.941,2.941,0,0,1,.557-2.577c-.181.03-.527.558-.859.452a4.788,4.788,0,0,1,.105-1.643,7.532,7.532,0,0,1,1.16-1.869l4.732-8.454,1.01-6.4Z" transform="translate(-677.361 -169.817)" fill="#92723a"/>
  </g>
  <g id="Group_599" data-name="Group 599" transform="translate(4.883 4.883)" clip-path="url(#clip-path)">
    <path id="Path_2262" data-name="Path 2262" d="M771.388,271.251s-.256.181.256.527a5.741,5.741,0,0,1-.482.738c-.256.3-.527.482-.633.738a4.11,4.11,0,0,0-.407,1.115,5.493,5.493,0,0,1-.708,2.607,11.175,11.175,0,0,0-.663,1.266,9.228,9.228,0,0,0-.784,1.492,15.542,15.542,0,0,0-.256,1.974s.332-.407.452-.558a4.193,4.193,0,0,1-.663,1.085c.181-.151.708-.527,1.6-1.311a39.711,39.711,0,0,1,5.516-4.174,8.045,8.045,0,0,1-1.793.332c.377-.377,3.767-4.355,5.546-4.732a.706.706,0,0,0,.151-.482l-1.522-.151-3.089.663L773.452,270Z" transform="translate(-656.723 -234.194)" fill="#b18e3e"/>
  </g>
  <g id="Group_600" data-name="Group 600" transform="translate(4.883 4.883)" clip-path="url(#clip-path)">
    <path id="Path_2263" data-name="Path 2263" d="M795.07,270.63a4.2,4.2,0,0,0-.784,1.417,4.718,4.718,0,0,1-.738-1.01c-.558-.934-1.417-2.125-3.421-1.447a6.3,6.3,0,0,1,0-1.417,7.839,7.839,0,0,0,2.351-2.08,9.639,9.639,0,0,0,1.823-2.939c.3-.226.814-.6,1.492-1.04.964-.663,2.125-1.567,2.306-2.577a6.151,6.151,0,0,1-2.863.558c.558-.256,1.417-.527,1.311-1.643.226-.151.407-.256.407-.256a1.5,1.5,0,0,0-.527-.075c-.03-.106-.075-.256-.332-.181s-.3.075-.332.181a1.6,1.6,0,0,0-.708.181,11.054,11.054,0,0,1-1.236.889c.105-.181.256-.452.256-.452a5.183,5.183,0,0,0-1.266.3,26.171,26.171,0,0,0-3.21,1.522c.105-.181.151-.3.226-.332s.256-.075.256-.105a1.087,1.087,0,0,1-.03-.407,13.868,13.868,0,0,1,1.191-2.049,3.99,3.99,0,0,0,.633-1.718l2.306-1.16,6.48-1.492,4.2.256-.527,2.908-2.487,5.079-2.125,4.626L797.3,269Z" transform="translate(-675.492 -220.011)" fill="#543e26"/>
  </g>
  <g id="Group_601" data-name="Group 601" transform="translate(4.883 4.883)" clip-path="url(#clip-path)">
    <path id="Path_2264" data-name="Path 2264" d="M808.139,241.57a37.607,37.607,0,0,1-3.24,3.617c.452-.964,3.24-6.706,4.25-8.3-.226-.181-.527-.181.181-2.984-.6,1.417-.814,2.155-1.311,2.532a.919.919,0,0,1-.889.256.633.633,0,0,0,.075-.377s-2.125-.256-3.572-.256a21.374,21.374,0,0,0-5.922,1.417,23.9,23.9,0,0,0-2.426.859c-.452.377-.708.784-.934.889-.181.106-1.04.377-1.236.663-.181.3-.482.633-.482.708s-.075.181.151.105c.075-.03.633-.332,1.266-.708.859-.482,1.9-1.04,2.652-1.371a12.289,12.289,0,0,1,3.8-.889,23.651,23.651,0,0,1,3.421-.6,28.632,28.632,0,0,1,3.21.075c-.181.151-.332.332-.256.964a4.5,4.5,0,0,1-.3.814c-.452,1.236-1.311,3.285-1.793,4.325-.663,1.417-1.417,2.607-1.793,3.345a24.5,24.5,0,0,1-2,3.722c-.814,1.04-1.236,1.673-1.492,1.9s-2.08,1.567-1.944,2.049a10.013,10.013,0,0,0,3.948-2.607c1.522-1.718,1.823-2.758,3.014-3.692a10.066,10.066,0,0,0,2.682-3.8A16.631,16.631,0,0,1,808.139,241.57Z" transform="translate(-678.057 -203.535)" fill="#806031"/>
  </g>
  <g id="Group_602" data-name="Group 602" transform="translate(4.883 4.883)" clip-path="url(#clip-path)">
    <path id="Path_2265" data-name="Path 2265" d="M514.9,438.471a4.733,4.733,0,0,1-1.085,2.049c-.738.663-2.049,1.236-2.2,2.351-.181,1.115,1.311,1.673,1.311,1.673a5.8,5.8,0,0,0-.814,2.351,15.54,15.54,0,0,0,.075,2.23,1.007,1.007,0,0,0-.3.3,2.465,2.465,0,0,0,.814,1.567c.738.6,1.371.964,1.748.814a3.549,3.549,0,0,1,.151.377s.558-1.417.934-2.652c.377-1.266.708-1.085.859-2.788a16.116,16.116,0,0,1,1.793-4.626l1.115-2.5-1.823-1.417Z" transform="translate(-439.385 -377.047)" fill="#b6903c"/>
  </g>
  <g id="Group_603" data-name="Group 603" transform="translate(4.883 4.883)" clip-path="url(#clip-path)">
    <path id="Path_2266" data-name="Path 2266" d="M535,456.3a10.977,10.977,0,0,0-1.04,1.236,3.618,3.618,0,0,1-1.567,1.522c-.708.256-1.16.256-1.115.964s.708,1.01,1.085,1.371a1.764,1.764,0,0,1,.557,1.718,1.722,1.722,0,0,0,1.01-1.04c.377-.814,3.014-5.772,3.014-5.772Z" transform="translate(-456.1 -392.42)" fill="#685026"/>
  </g>
  <g id="Group_604" data-name="Group 604" transform="translate(4.883 4.883)" clip-path="url(#clip-path)">
    <path id="Path_2267" data-name="Path 2267" d="M543.608,359.178a1.487,1.487,0,0,0,0-1.04c-.226-.452-1.6-.6-2.276-1.115a2.714,2.714,0,0,0-2.276-.663c.105-.256.527-.814.181-.934a4.1,4.1,0,0,0-1.9.708c-.332.256-1.085.558-1.236.738s-.407.527-.558.377c-.151-.105-.226-.377-.482-.226a6.122,6.122,0,0,0-1.718,1.748,8.929,8.929,0,0,1-2.276,3.391c-1.522,1.492-2.2,2.456-1.748,3.014s.663.151.738.633a4.037,4.037,0,0,1-.075,1.417c-.181.784-.482,1.522-.075,1.673,1.04.331,2.05-.3,2.276-.106.452.407-.256,1.869.814,2.155a3.3,3.3,0,0,0,2.155-.256l3.948-2.125,3.8-2,1.944-3.843-1.04-3.21Z" transform="translate(-454.32 -306.736)" fill="#d4b968"/>
  </g>
  <g id="Group_605" data-name="Group 605" transform="translate(4.883 4.883)" clip-path="url(#clip-path)">
    <path id="Path_2268" data-name="Path 2268" d="M598.765,375.224a1.583,1.583,0,0,1,.151-1.9c.814-.889,1.974-1.266,2.426-1.823a.7.7,0,0,0-.331-.226,3,3,0,0,1,1.311-1.236,1.254,1.254,0,0,0-.859-.407c-.738,0-1.19.452-1.869.452-.663,0-.738-.332-.738-.332s1.115-.105,1.01-.6c-.105-.527-.3-.527-.3-.527a11.106,11.106,0,0,0,2.532-1.371,2.766,2.766,0,0,0,.407-1.266c.256,0,1.748-.784,2.351-.452s.181,1.236.181,1.236a15.032,15.032,0,0,0,2.758-2.713c.814.075,1.191-.558,1.793-.558.739,0,1.9,1.01,2.125,3.165a13.522,13.522,0,0,1,.151,4.129,18.929,18.929,0,0,0,.3,5.184c.256,1.04.859.934.859.934a1.7,1.7,0,0,1-.527.814,2.517,2.517,0,0,0-.407,1.748,7.438,7.438,0,0,0,.226.814,3.761,3.761,0,0,0-.6.934,1.059,1.059,0,0,1-.964.633,4.809,4.809,0,0,0-.663,0c-.482.03-.633.106-.934,0s-.527-.226-.407-1.19c.105-.964-3.722-3.21-3.722-3.21Z" transform="translate(-513.199 -313.604)" fill="#cca849"/>
  </g>
  <g id="Group_606" data-name="Group 606" transform="translate(4.883 4.883)" clip-path="url(#clip-path)">
    <path id="Path_2269" data-name="Path 2269" d="M552.5,471.207s1.371,1.823,7.007,1.823a14.232,14.232,0,0,0,4.174-.407,11.389,11.389,0,0,0,5.139-3.722c2.049-2.426,1.6-3.421,1.6-3.421l-1.19-.181-3.873.527-11.468,4.883-1.386.5Z" transform="translate(-474.123 -400.063)" fill="#585136"/>
  </g>
  <g id="Group_607" data-name="Group 607" transform="translate(4.883 4.883)" clip-path="url(#clip-path)">
    <path id="Path_2270" data-name="Path 2270" d="M552.883,451.531s-4.883,1.085-4.883-2c0-3.014,3.014-6.179,3.767-6.736a14.157,14.157,0,0,1,2.652-1.19h4.506l.859,2.276-.377,4.913Z" transform="translate(-470.301 -379.935)" fill="#252211"/>
  </g>
  <g id="Group_608" data-name="Group 608" transform="translate(4.883 4.883)" clip-path="url(#clip-path)">
    <path id="Path_2271" data-name="Path 2271" d="M570.781,445.975s-.934-.859-3.059.3a7.649,7.649,0,0,0-3.948,5.772c-.105,1.944,1.6,3.391,4.25,3.466a13.279,13.279,0,0,0,3.767-.3c-.151-.181-.934-1.16-.934-1.16Z" transform="translate(-483.694 -383.391)" fill="#c3b378"/>
  </g>
  <g id="Group_609" data-name="Group 609" transform="translate(4.883 4.883)" clip-path="url(#clip-path)">
    <path id="Path_2272" data-name="Path 2272" d="M575.006,450.645s-.226-.181-.889.181a14.865,14.865,0,0,0-2,1.643,7.639,7.639,0,0,0-.889.738c-.934,1.115-1.718,2.939-1.266,3.843.452.889,1.944,1.944,5.742,1.236Z" transform="translate(-488.838 -387.579)" fill="#e6d89c"/>
  </g>
  <g id="Group_610" data-name="Group 610" transform="translate(4.883 4.883)" clip-path="url(#clip-path)">
    <path id="Path_2273" data-name="Path 2273" d="M576.211,438.757a4.8,4.8,0,0,0-.6,2.426,4,4,0,0,0,4.024,4.129c2.426.151,4.054-3.5,5.817-4.913a4.223,4.223,0,0,1,2.155-1.115,19.958,19.958,0,0,0-5.033-3.421c-3.617-1.944-7.67-2.2-9.87.784,1.04-.075,4.4-.934,4.4-.934l1.643.527Z" transform="translate(-491.279 -373.822)" fill="#252211"/>
  </g>
  <g id="Group_611" data-name="Group 611" transform="translate(4.883 4.883)" clip-path="url(#clip-path)">
    <path id="Path_2274" data-name="Path 2274" d="M622.865,460.345c-.106-.226-.181-.527.256-.6.452-.075.633-.03.784.3s.3.6.075.738A1.041,1.041,0,0,1,622.865,460.345Zm-.708-2.125s-.151.105-.075-.105c.03-.256.226-.708.708-.6s.377.633.3.784a.787.787,0,0,1-.784.3A.251.251,0,0,1,622.156,458.22Z" transform="translate(-533.2 -393.435)" fill="#6f674d"/>
  </g>
  <g id="Group_612" data-name="Group 612" transform="translate(4.883 4.883)" clip-path="url(#clip-path)">
    <path id="Path_2275" data-name="Path 2275" d="M352,441.267a4.7,4.7,0,0,0,2.577.859c1.371-.03,3.135-1.447,3.948-2.351.482-.527.889-1.085,1.341-1.522a8.124,8.124,0,0,0,.814-.814c.256-.3.527-.859.663-1.04a13.906,13.906,0,0,1-1.311,1.01,15.1,15.1,0,0,1-1.944,1.01c-.407.151-4.626,2.381-4.626,2.381l-1.462.467Z" transform="translate(-303.837 -375.518)" fill="#ac924c"/>
  </g>
  <g id="Group_613" data-name="Group 613" transform="translate(4.883 4.883)" clip-path="url(#clip-path)">
    <path id="Path_2276" data-name="Path 2276" d="M364.1,387.666a6.065,6.065,0,0,1,1.944-.738,35.286,35.286,0,0,1,3.722-.527l2.049.889.814,3.089-1.492,3.21-1.9,1.19-2.155-3.466Z" transform="translate(-314.114 -333.053)" fill="#9f8e57"/>
  </g>
  <g id="Group_614" data-name="Group 614" transform="translate(4.883 4.883)" clip-path="url(#clip-path)">
    <path id="Path_2277" data-name="Path 2277" d="M342.308,359.058l-.708.527a4.645,4.645,0,0,0,.332-1.341,12.425,12.425,0,0,1,2.08-4.883,15.668,15.668,0,0,1,1.115-1.341.753.753,0,0,0-.6.151,7.32,7.32,0,0,1,2.08-2.125c.964-.6,1.341-.784,2.351-.3s1.266.738,2,.708a2.268,2.268,0,0,0,1.371-.814s.151.482-.407,1.6a22.519,22.519,0,0,1-2.758,3.391l-4.581,3.135Z" transform="translate(-295.005 -301.688)" fill="#eac970"/>
  </g>
  <g id="Group_615" data-name="Group 615" transform="translate(4.883 4.883)" clip-path="url(#clip-path)">
    <path id="Path_2278" data-name="Path 2278" d="M368.8,356.721s3.315.452,4.325-.482c.03.105.151.105.151.181a.263.263,0,0,1-.075.151,2.4,2.4,0,0,1,.331-.03,1.931,1.931,0,0,0,.407.075,2.4,2.4,0,0,0,.332-.03.559.559,0,0,1-.226.377c.151,0,.3.03.3.151s.03.482-.151.558a.679.679,0,0,1-.452-.03,1.859,1.859,0,0,0,.226.814,1.709,1.709,0,0,0,1.793,1.01s.452,1.085-1.447,3.5c-.256.332-.527.784-.859,1.16a4.37,4.37,0,0,0-.3.889s3.21-1.236,4.129-4.054a21.3,21.3,0,0,0,.934-8.228,4.221,4.221,0,0,0-.332-1.643,1.424,1.424,0,0,0-2.23-.256,27.223,27.223,0,0,1-3.692,3.843A12.5,12.5,0,0,1,368.8,356.721Z" transform="translate(-318.105 -302.485)" fill="#d7bc6b"/>
  </g>
  <g id="Group_616" data-name="Group 616" transform="translate(4.883 4.883)" clip-path="url(#clip-path)">
    <path id="Path_2279" data-name="Path 2279" d="M336.44,418.2a2.792,2.792,0,0,0-.964,1.793,5.865,5.865,0,0,0,.663,3.767c.377.558,1.19,2.08,2.908,2.155a3.188,3.188,0,0,0,1.236-.256,7.818,7.818,0,0,0,1.673-1.04c.738-.558,1.341-1.04,1.266-1.085-.181-.075-4.551-3.692-4.551-3.692L337.028,418Z" transform="translate(-289.724 -359.891)" fill="#585136"/>
  </g>
  <g id="Group_617" data-name="Group 617" transform="translate(4.883 4.883)" clip-path="url(#clip-path)">
    <path id="Path_2280" data-name="Path 2280" d="M360.373,434.725a3.835,3.835,0,0,0,1.417-.407c.527-.332-3.089-3.918-3.089-3.918l.256,3.873Z" transform="translate(-309.528 -370.423)" fill="#453a25"/>
  </g>
  <g id="Group_618" data-name="Group 618" transform="translate(4.883 4.883)" clip-path="url(#clip-path)">
    <path id="Path_2281" data-name="Path 2281" d="M341.668,406.119a5.22,5.22,0,0,0-.452,1.085,19.029,19.029,0,0,0,.332,3.8,2.751,2.751,0,0,0,2.426,1.974,3.429,3.429,0,0,0,1.869-.6c0-.151-1.115-.3-1.417-.859a5.163,5.163,0,0,1-.3-1.793c-.03-.482-.03-1.01.151-1.19a3.882,3.882,0,0,0,.482-1.748L346.2,404.1h-1.9l-2.276,1.417Z" transform="translate(-294.666 -348.086)" fill="#84754b"/>
  </g>
  <g id="Group_619" data-name="Group 619" transform="translate(4.883 4.883)" clip-path="url(#clip-path)">
    <path id="Path_2282" data-name="Path 2282" d="M340.6,397.436a8.27,8.27,0,0,1,2.833-2.426,2.914,2.914,0,0,1,1.944-.181l-.784,2-1.115,1.236.075.633a3.866,3.866,0,0,0,.934,2.833,2.917,2.917,0,0,0,2.426,1.115,3.159,3.159,0,0,0,2.577-2.08,5.849,5.849,0,0,0-.105-5.591,4.548,4.548,0,0,0-3.843-2.08C345.121,392.915,341.806,393.066,340.6,397.436Z" transform="translate(-294.155 -338.574)" fill="#252211"/>
  </g>
  <g id="Group_620" data-name="Group 620" transform="translate(4.883 4.883)" clip-path="url(#clip-path)">
    <path id="Path_2283" data-name="Path 2283" d="M593.162,448.208c-.558-.256-.03-1.823.527-2.306a3.926,3.926,0,0,1,2.5-1.115c.452-.03.889.256.814.558a4.478,4.478,0,0,1-1.6,1.9C594.428,448.013,593.8,448.495,593.162,448.208Z" transform="translate(-508.456 -382.64)" fill="#f7f7e7"/>
  </g>
  <g id="Group_621" data-name="Group 621" transform="translate(4.883 4.883)" clip-path="url(#clip-path)">
    <path id="Path_2284" data-name="Path 2284" d="M389.064,410.789a1.08,1.08,0,0,1,1.04.738c.105.482-.256,1.447-1.04,1.447-.633,0-.964-.784-.964-1.01a1.16,1.16,0,0,1,.151-.527A.862.862,0,0,1,389.064,410.789Z" transform="translate(-334.497 -353.766)" fill="#f8f6de"/>
  </g>
  <g id="Group_622" data-name="Group 622" transform="translate(4.883 4.883)" clip-path="url(#clip-path)">
    <path id="Path_2285" data-name="Path 2285" d="M344.855,413.1a3.5,3.5,0,0,0-1.522,1.492,3.958,3.958,0,0,0-.3,2.381,5.832,5.832,0,0,0,.708,1.643,1.137,1.137,0,0,0,.859.527,1.523,1.523,0,0,0,.784-1.115,7.928,7.928,0,0,1,.527-3.059C346.347,414.034,344.855,413.1,344.855,413.1Z" transform="translate(-296.165 -355.73)" fill="#d4c38b"/>
  </g>
  <g id="Group_623" data-name="Group 623" transform="translate(4.883 4.883)" clip-path="url(#clip-path)">
    <path id="Path_2286" data-name="Path 2286" d="M354.14,405.97c-.181.106-.482.256-.407.452.075.181.708.3.934.738a1.58,1.58,0,0,1,.181,1.16,1.817,1.817,0,0,0,.527-.377c.332-.377.738-.889,1.085-.889.226,0,.452.105.663.105.332,0,.663-.105.708-.452.075-.452-.633-.859-1.04-.784a.988.988,0,0,0-.151-1.04c-.332-.3-1.371.226-1.6.377-.241.151-.9.708-.9.708Z" transform="translate(-305.299 -348.675)" fill="#e2d59d"/>
  </g>
  <g id="Group_624" data-name="Group 624" transform="translate(4.883 4.883)" clip-path="url(#clip-path)">
    <path id="Path_2287" data-name="Path 2287" d="M459.856,618.963l2.23-.663.633.452s.452.964,1.16,1.085c-.226.482-.814.889-.784,1.236a1.02,1.02,0,0,0,.332.6s-2,3.315,1.944,6.661c-.934.377-2.125.889-2.758,1.19a4.944,4.944,0,0,1,1.823.663c.407.377.407.482.784.708s.6.527.527.663c-.256-.151-1.115-.6-1.266-.181-.151.407-3.722.256-3.722.256l-6.028,1.16a1.088,1.088,0,0,0-.407-1.16c-.738-.663-1.643.03-2.607-.708-1.266-.964-1.311-2.08-1.718-2.5a7.914,7.914,0,0,1,3.21-.889,1.331,1.331,0,0,1-.181-1.01c.181-.527.934-.859.708-1.492.332-.075.482-.075,1.311-1.115.784-1.04,1.266-1.266,1.869-1.341a2.75,2.75,0,0,0,2.08-1.04c.784-.738.527-1.371.527-1.371S460.036,620,459.856,618.963Z" transform="translate(-387.069 -530.007)" fill="#cbac5a"/>
  </g>
  <g id="Group_625" data-name="Group 625" transform="translate(4.883 4.883)" clip-path="url(#clip-path)">
    <path id="Path_2288" data-name="Path 2288" d="M471.442,620.676c.03-.151.151-.226.964-.151s5.968-.482,7.369-.557a46.151,46.151,0,0,1,8.831.482c2.426.512,4.883,1.115,6.073,1.417,1.19.332,1.567.452,1.522.6a.435.435,0,0,1-.452.256c-.151-.03-4.1-1.236-5.32-1.492a47.47,47.47,0,0,0-7.746-.889,40.372,40.372,0,0,0-4.837.181,38.807,38.807,0,0,1-5.742.407c-.889-.105-.708-.105-.663-.256Z" transform="translate(-405.241 -531.388)" fill="#d6bc6f"/>
  </g>
  <g id="Group_626" data-name="Group 626" transform="translate(4.883 4.883)" clip-path="url(#clip-path)">
    <path id="Path_2289" data-name="Path 2289" d="M334.1,701.856s3.089,1.673,4.2,3.722a1.614,1.614,0,0,1-.482,2.275s1.748,0,1.522.964c-.105.6-3.014,2.23-4.958,3.089a8.043,8.043,0,0,1-2.863.964c-.934.151-3.5-.3-4.024.452a1.465,1.465,0,0,0-.151,1.643,8.469,8.469,0,0,0,1.371.256s-.256.708-2.788.784-3.165.256-3.315.527c-.151.256.482.106,1.643.3s2.788.3,2.788.3a5.136,5.136,0,0,1-1.9.814c-1.567.407-4.024.784-4.762,1.236a4.423,4.423,0,0,0,1.19.663,7.53,7.53,0,0,0-1.673.6c.226.151.527.332.527.332a10.383,10.383,0,0,1-2,1.9c-.738.377-4.988,2.351-6.45,1.974-3.647-.964-4.1-4.958-4.988-5.259-1.341-.452-1.974.452-3.165-.181a7.4,7.4,0,0,1,1.371-.859c-.6-.3-3.722-2.276-3.722-2.276a23.094,23.094,0,0,0-1.085-2.08c-.6-1.04-1.492-2.426-2.155-3.647-1.447-2.682-1.522-3.918-2.833-5.44.226-.3,1.01-.256,1.01-.256l10.986,3.617,19.485.558,5.063-7.234Z" transform="translate(-255.767 -600.754)" fill="#dfc677"/>
  </g>
  <g id="Group_627" data-name="Group 627" transform="translate(4.883 4.883)" clip-path="url(#clip-path)">
    <path id="Path_2290" data-name="Path 2290" d="M360.7,744.142a1.7,1.7,0,0,0,.407.332,5.889,5.889,0,0,1,1.311,1.01c.151-.226.527-.633,1.19,0s1.492.181,2,.331c.527.181.558.256.558.256a3.86,3.86,0,0,1,.964-.527c.407-.151.889-.256,1.417-.407a7.917,7.917,0,0,1,1.371-.256c.331.226,1.522,1.492,6.3-.377,4.506-1.748,5.546-1.944,6.3-1.673.075-.181.151-.527,1.311-.482a8.963,8.963,0,0,0-.964-2.125l-5.32-1.823h-2.908l-8.725,1.6-4.837,2.758Z" transform="translate(-311.226 -632.008)" fill="#c4a859"/>
  </g>
  <g id="Group_628" data-name="Group 628" transform="translate(4.883 4.883)" clip-path="url(#clip-path)">
    <path id="Path_2291" data-name="Path 2291" d="M341.4,716.453a2.821,2.821,0,0,0,1.311,1.673,7.648,7.648,0,0,1,1.567,1.371s.226-.3.407-.6c.181-.332.332-.708.633-.814.6-.256,1.974.226,2.276.151.256-.075.181-.6.452-.6.633-.03,1.04.407,1.266.407s.784-.03.859-.151.106-1.371.964-1.974a2.571,2.571,0,0,1,2.381-.226c0,.226.03.784.633.814a3.061,3.061,0,0,1,1.191.106c.527.181,1.16-.03,1.447.859.256-.075.859-.151.708-1.01a4.335,4.335,0,0,0,1.19-1.266c.151-.226.407-.482.6-.814a2.456,2.456,0,0,1,2,.633,1.214,1.214,0,0,0-.482.482,5.325,5.325,0,0,1,.6.708c.226.3.377.663.663.738a24.864,24.864,0,0,0,2.833,0,5.7,5.7,0,0,1,2.456.739c.151-.075.151-.106.527-.03s.663.105.256-.377c.226.106.482.332.708.106a1.479,1.479,0,0,1,1.04-.633c.633-.075.859.03,1.115-.633.331-.814-.814-.814-.814-.814s.527-.482,1.115-1.115a5.088,5.088,0,0,0,1.718-2.577,1.819,1.819,0,0,0-1.567-2.2l-9.208,2.833L351,711.675Z" transform="translate(-294.835 -607.378)" fill="#927d49"/>
  </g>
  <g id="Group_629" data-name="Group 629" transform="translate(4.883 4.883)" clip-path="url(#clip-path)">
    <path id="Path_2292" data-name="Path 2292" d="M274.078,562.608a3.174,3.174,0,0,0-.482,1.266c-.181.889-.105.784-.256,1.417s-2,6.932-1.311,9.057,1.9,2.908,2.652,4.626a6.372,6.372,0,0,1,.377.934c.256,1.115.03,1.974.332,3.089a3.409,3.409,0,0,0,.784,1.266c.889.934,2.351,1.823,2.984,2.456.889.934,2.155,2.833,3.767,3.014a5.427,5.427,0,0,0,3.089-.859,26.617,26.617,0,0,1,2.381-1.793,10.853,10.853,0,0,1,5.214-.753,31.015,31.015,0,0,0,5.063,1.01,13.764,13.764,0,0,0,3.285-.452c2.155-.633,4.762-1.718,6.48-2.2,1.01-.3,1.823-.377,2.652-.558a5.717,5.717,0,0,0,3.285-1.643c-.452-.527-1.01-1.341-4.024-1.311-3.421.075-7.369,1.974-9.313,2.276s-2.788.557-4.958-.226c-2.125-.784-2.2-1.311-2.2-1.311a9.562,9.562,0,0,1-3.165-5.546,9.92,9.92,0,0,1,2.426-9.645,1.6,1.6,0,0,0,.482-1.341s1.6-2.155,1.16-4.174c-.482-2-3.572-1.6-3.572-1.6Z" transform="translate(-235.786 -480.131)" fill="#6e6342"/>
  </g>
  <g id="Group_630" data-name="Group 630" transform="translate(4.883 4.883)" clip-path="url(#clip-path)">
    <path id="Path_2293" data-name="Path 2293" d="M302.547,624.2a1.569,1.569,0,0,0-.181.814c.03.407.151.934,1.371,2.125a2.6,2.6,0,0,1,.814,2.2,3.8,3.8,0,0,0,1.944-.558,1,1,0,0,1,1.492.407,3.149,3.149,0,0,1,1.04-.332,2.279,2.279,0,0,0,.934-.3,13.431,13.431,0,0,0,2.456,1.974c1.04.558,1.643.934,2.155.558a1.427,1.427,0,0,0,.452-1.311,3.918,3.918,0,0,0-.452-.784c-.332-.482-.859-1.04-.889-1.492-.075-1.04.784-2.276.6-2.577s-.859-.377-2.532.226c-1.733.573-9.208-.949-9.208-.949Z" transform="translate(-261.678 -535.018)" fill="#39331f"/>
  </g>
  <g id="Group_631" data-name="Group 631" transform="translate(4.883 4.883)" clip-path="url(#clip-path)">
    <path id="Path_2294" data-name="Path 2294" d="M326.3,642.037s-.859-.814-.558-4.762a4.88,4.88,0,0,1,1.085.105s.467,3.059-.527,4.657Z" transform="translate(-281.479 -546.119)" fill="#292311"/>
  </g>
  <g id="Group_632" data-name="Group 632" transform="translate(4.883 4.883)" clip-path="url(#clip-path)">
    <path id="Path_2295" data-name="Path 2295" d="M285.5,537.585a2.308,2.308,0,0,0,.332-.3,7.473,7.473,0,0,0-.558,6.3c1.115,3.5,3.918,6.1,7.369,6.224s5.259-1.567,7.339-4.1c.814-1.01,1.748-2.276,2.577-3.135,1.236-1.341,2.2-1.718,2.2-3.014,0-2.652-2.712-3.843-6.706-5.033s-7.6-1.04-9.464-.226A5.176,5.176,0,0,0,285.5,537.585Z" transform="translate(-246.804 -458.122)" fill="#252211"/>
  </g>
  <g id="Group_633" data-name="Group 633" transform="translate(4.883 4.883)" clip-path="url(#clip-path)">
    <path id="Path_2296" data-name="Path 2296" d="M374.3,669.408l.3-.151s.075-1.191.558-1.16a.933.933,0,0,1,.663.934.56.56,0,0,1-.633.558A1.485,1.485,0,0,1,374.3,669.408Z" transform="translate(-322.777 -572.299)" fill="#3f3824"/>
  </g>
  <g id="Group_634" data-name="Group 634" transform="translate(4.883 4.883)" clip-path="url(#clip-path)">
    <path id="Path_2297" data-name="Path 2297" d="M365.4,643.119s.3-.105.663.256a5.4,5.4,0,0,1,2,.106,1.527,1.527,0,0,1,.527.482,5.239,5.239,0,0,1-2.351,0C365.4,643.677,365.4,643.119,365.4,643.119Z" transform="translate(-315.218 -551.074)" fill="#2d2815"/>
  </g>
  <g id="Group_635" data-name="Group 635" transform="translate(4.883 4.883)" clip-path="url(#clip-path)">
    <path id="Path_2298" data-name="Path 2298" d="M395.4,639.094a3.725,3.725,0,0,0-1.673-.814c-.151-.03-.181.075-.3.075-.075-.03-.106-.256-.106-.256l-.482.256s-.075.105.181.3c.226.181.6.331.708.633a2.639,2.639,0,0,0,.151.452,1.609,1.609,0,0,0,.814-.151C394.951,639.426,395.434,639.2,395.4,639.094Z" transform="translate(-338.516 -546.823)" fill="#82764f"/>
  </g>
  <g id="Group_636" data-name="Group 636" transform="translate(4.883 4.883)" clip-path="url(#clip-path)">
    <path id="Path_2299" data-name="Path 2299" d="M359.4,658.862a1.269,1.269,0,0,1,1.16-1.085,1.163,1.163,0,0,1,1.236.934l-.6.6C361.193,659.3,360.741,658.666,359.4,658.862Z" transform="translate(-310.122 -563.532)" fill="#2d2816"/>
  </g>
  <g id="Group_637" data-name="Group 637" transform="translate(4.883 4.883)" clip-path="url(#clip-path)">
    <path id="Path_2300" data-name="Path 2300" d="M391.814,631.417a3.147,3.147,0,0,1-1.793.784.712.712,0,0,1,0-.934c.332-.482.708-.633,1.085-.482A.881.881,0,0,1,391.814,631.417Z" transform="translate(-335.981 -540.562)" fill="#574f35"/>
  </g>
  <g id="Group_638" data-name="Group 638" transform="translate(4.883 4.883)" clip-path="url(#clip-path)">
    <path id="Path_2301" data-name="Path 2301" d="M416.556,629.754c.03-.151-.075-.181,0-.256s.482-.226.558-.151c.03.03,0,.151,0,.3a.707.707,0,0,1-.075.407.609.609,0,0,1-.558.181c-.151-.03-.181-.256-.181-.3C416.375,629.9,416.556,629.829,416.556,629.754Zm2.577-1.627c0-.075.256-.226.407-.226.226,0,.226.181.256.226.075.03.075-.03.151.105.075.151.181.377.106.527a.55.55,0,0,1-.452.226,3.967,3.967,0,0,1-.467-.859Z" transform="translate(-358.447 -538.16)" fill="#82764f"/>
  </g>
  <g id="Group_639" data-name="Group 639" transform="translate(4.883 4.883)" clip-path="url(#clip-path)">
    <path id="Path_2302" data-name="Path 2302" d="M400.7,642.5a2.119,2.119,0,0,1,.784.452c-.151.106-.377.226-.377.226A1.129,1.129,0,0,0,400.7,642.5Z" transform="translate(-345.198 -550.56)" fill="#6e6342"/>
  </g>
  <g id="Group_640" data-name="Group 640" transform="translate(4.883 4.883)" clip-path="url(#clip-path)">
    <path id="Path_2303" data-name="Path 2303" d="M395.733,595.167c-.075-.075.226-.256.407-.226s.256.151.452.181.226-.075.3-.151.331-.03.377,0a.752.752,0,0,1,.075.105.417.417,0,0,1,.151-.3.472.472,0,0,1,.407-.075,2.209,2.209,0,0,1,.151.557c-.03.075-.482.181-.558.105a5.427,5.427,0,0,0,.452.633c.03.075-.332.256-.482.226A6.148,6.148,0,0,1,395.733,595.167Zm1.974-2.5a.351.351,0,0,0-.151-.181c-.105-.03-.452,0-.452.181a5.689,5.689,0,0,0,.633,1.718c.377.527.633.965.889,1.085a.35.35,0,0,0,.452-.151,9.07,9.07,0,0,0,.075-1.944,17.985,17.985,0,0,0-.151-2.652.4.4,0,0,0-.482.075A13.97,13.97,0,0,0,397.707,592.665Z" transform="translate(-340.97 -506.542)" fill="#585136"/>
  </g>
  <g id="Group_641" data-name="Group 641" transform="translate(4.883 4.883)" clip-path="url(#clip-path)">
    <path id="Path_2304" data-name="Path 2304" d="M391.59,654.061a1.221,1.221,0,0,0-1.04-.106c-.482.226-.452,1.115-.452,1.115a.715.715,0,0,0,.663-.075A2.031,2.031,0,0,0,391.59,654.061Z" transform="translate(-336.194 -560.222)" fill="#574f35"/>
  </g>
  <g id="Group_642" data-name="Group 642" transform="translate(4.883 4.883)" clip-path="url(#clip-path)">
    <path id="Path_2305" data-name="Path 2305" d="M404.9,625.8c-.03-.3-.3-.3-.3-.452a.339.339,0,0,1,.332-.256c.151,0,.3.181.482.3.181.106.452.3.482.527s-.3.859-.663.859C404.871,626.765,404.977,626.1,404.9,625.8Zm2.908-.407s-.6.181-.558,0c.03-.181.181-.226.377-.226a.6.6,0,0,1,.377-.181.33.33,0,0,1,.226.075s.407-.181.527-.075c.105.105.03.105.105.226a1.059,1.059,0,0,1,.181.452c0,.121-.452.377-.814.331C407.81,625.906,407.885,625.469,407.81,625.394Zm3.511-.678s.181.105.03.226a2.408,2.408,0,0,1-1.085.331c-.452,0-.859.075-.859-.075s.377-.452.6-.527a.479.479,0,0,1,.377-.181c.181,0,.889-.075,1.085-.106.181-.03.332.075.226.226C411.653,624.716,411.321,624.716,411.321,624.716Zm1.04-4.657s-.226.482-.482.482c-.256-.03-.256-.106-.256-.181,0-.106.256-.377.226-.452-.075,0-.256,0-.226-.181,0-.151.256-.332.482-.3a.986.986,0,0,1,.6-.226c.256,0,.482.075.482.226s-.3.482-.407.558C412.662,620.1,412.512,620.179,412.361,620.059Zm-3.436,8.906s-.3.03-.3.181c0,.075.075.075.181.03a.823.823,0,0,0,.181-.03c.03.03.03.181.256.181a1.447,1.447,0,0,0,.527-.181c.181-.075.331-.151.331-.3a.447.447,0,0,0-.452-.377.6.6,0,0,0-.332.075s-.075-.151-.332,0-.226.151-.151.226C408.97,628.89,408.925,628.965,408.925,628.965Zm-1.7,1.567c0-.075.377-.226.482-.181a1.928,1.928,0,0,1,.407.663c0,.075-.377.256-.527.256a.69.69,0,0,1-.407-.3c0-.03.181-.075.181-.105C407.4,630.789,407.222,630.608,407.222,630.532Zm-1.19-2.2c.075-.03.075-.105.181-.181a.26.26,0,0,1,.226-.03.368.368,0,0,1,.256-.181c.181-.03.332,0,.3.075,0,.226.151.377.151.558s-.105.407-.482.557a2.652,2.652,0,0,1-.964.075.5.5,0,0,1-.075-.482A1.015,1.015,0,0,1,406.032,628.332Z" transform="translate(-348.511 -530.771)" fill="#82764f"/>
  </g>
  <g id="Group_643" data-name="Group 643" transform="translate(4.883 4.883)" clip-path="url(#clip-path)">
    <path id="Path_2306" data-name="Path 2306" d="M415.686,680.5s-.256.151-.256.226a.666.666,0,0,0-.03.226c0,.045.332-.03.377-.075C415.792,680.847,415.686,680.575,415.686,680.5Z" transform="translate(-357.683 -582.833)" fill="#6e6342"/>
  </g>
  <g id="Group_644" data-name="Group 644" transform="translate(4.883 4.883)" clip-path="url(#clip-path)">
    <path id="Path_2307" data-name="Path 2307" d="M398.634,675.353a3.124,3.124,0,0,1,.6.075c.151.075.256.226.105.407s-.3.452-.633.407c-.377-.03-.738-.226-.738-.377a.729.729,0,0,1,.181-.527C398.3,675.218,398.377,675.293,398.634,675.353Z" transform="translate(-342.876 -578.395)" fill="#585136"/>
  </g>
  <g id="Group_645" data-name="Group 645" transform="translate(4.883 4.883)" clip-path="url(#clip-path)">
    <path id="Path_2308" data-name="Path 2308" d="M389.291,676.8a4.269,4.269,0,0,0-.6.558c-.151.181-.889,1.115-1.115,1.311a2.853,2.853,0,0,1,.256-.377,1.541,1.541,0,0,0-.633.814c-.181.557,1.01.859,1.793,1.085s1.085.3,1.085.3a8.389,8.389,0,0,1-.738-1.371c-.3-.708-.452-.784-.256-1.115.151-.332.377-.558.377-.814-.09-.241-.166-.392-.166-.392Z" transform="translate(-333.714 -579.691)" fill="#574f35"/>
  </g>
  <g id="Group_646" data-name="Group 646" transform="translate(4.883 4.883)" clip-path="url(#clip-path)">
    <path id="Path_2309" data-name="Path 2309" d="M287.2,680.439a.911.911,0,0,0,.332,0,15.5,15.5,0,0,1,5.033-.739,26.883,26.883,0,0,1,5.44.889c3.089.814,6.932,2.426,9.419,3.345.663.256,1.311.708,1.793.889a11.408,11.408,0,0,0,3.089.934,12.068,12.068,0,0,0,4.054-.557c1.718-.377,4.657-.558,7.233-.934a14.744,14.744,0,0,0,2.456-.558s-2.05,2.049-6.962,2.788a21.777,21.777,0,0,1-6,.075,18.238,18.238,0,0,1-3.391-.6c-.889-.256-2.713-.934-4.958-1.492-1.567-.407-3.315-.708-5.32-1.085C294.479,682.488,289.114,681.448,287.2,680.439Z" transform="translate(-248.802 -582.139)" fill="#252211"/>
  </g>
  <g id="Group_647" data-name="Group 647" transform="translate(4.883 4.883)" clip-path="url(#clip-path)">
    <path id="Path_2310" data-name="Path 2310" d="M199.453,491.824,186.9,480.1" transform="translate(-163.617 -412.633)" fill="none"/>
  </g>
  <g id="Group_648" data-name="Group 648" transform="translate(4.883 4.883)" clip-path="url(#clip-path)">
    <path id="Path_2311" data-name="Path 2311" d="M114.608,485.754c-.527-.482-1.085-.964-1.6-1.447-.527-.482-1.04-.964-1.567-1.447l-1.567-1.492c-.256-.256-.527-.482-.784-.738-.256-.226-.558-.482-.814-.708-2.08-1.974-4.174-3.948-6.224-5.922,2.125,1.944,4.2,3.873,6.329,5.847l.738.738c.256.256.527.482.784.738l1.567,1.447c.527.482,1.04.964,1.567,1.492S114.08,485.272,114.608,485.754ZM87,485.453s7.565.784,11.257,1.311c3.421.482,14.12,2.125,14.12,2.125M87,485.453c2.125.181,4.25.407,6.374.633,1.085.105,2.125.226,3.165.331l1.6.181,1.567.226,6.329,1.01,3.165.527c1.04.181,2.08.377,3.165.558-1.04-.105-2.125-.256-3.165-.407l-3.165-.452-6.329-.934c-.527-.075-1.04-.181-1.567-.256l-1.6-.181c-1.04-.105-2.125-.256-3.165-.377C91.25,486.056,89.125,485.784,87,485.453Zm24.624,5.41s-8.077,2.049-10.8,2.833c-2.682.738-10.8,3.21-10.8,3.21" transform="translate(-78.772 -407.452)" fill="#cfb66c"/>
  </g>
  <g id="Group_649" data-name="Group 649" transform="translate(4.883 4.883)" clip-path="url(#clip-path)">
    <path id="Path_2312" data-name="Path 2312" d="M128.95,585.9c-1.793.527-3.572,1.04-5.395,1.522l-5.395,1.447c-1.793.527-3.572,1.04-5.365,1.567l-2.682.738c-.889.256-1.793.482-2.713.739.889-.3,1.793-.6,2.682-.859l2.682-.859c1.793-.558,3.572-1.085,5.365-1.643,1.823-.452,3.617-.934,5.44-1.371C125.3,586.744,127.126,586.307,128.95,585.9Zm-20.48,11.016c.889-.332,11.136-5.109,13.518-6.224,1.191-.558,4.657-1.793,4.657-1.793" transform="translate(-96.098 -502.489)" fill="#cfb66c"/>
  </g>
  <g id="Group_650" data-name="Group 650" transform="translate(4.883 4.883)" clip-path="url(#clip-path)">
    <path id="Path_2313" data-name="Path 2313" d="M114.5,614.327c.784-.3,1.522-.663,2.276-1.01l2.23-1.04,4.476-2.155c1.492-.708,2.939-1.492,4.476-2.155.784-.331,1.567-.6,2.351-.859l1.191-.377c.407-.106.784-.226,1.191-.332-1.492.708-3.059,1.311-4.551,2-1.492.738-3.014,1.341-4.551,2l-4.551,2C117.514,613.031,116.022,613.694,114.5,614.327Zm.995,4.174s9.283-5.44,12.478-7.188c1.673-.934,7.083-3.617,7.083-3.617" transform="translate(-102.128 -519.9)" fill="#cfb66c"/>
  </g>
  <g id="Group_651" data-name="Group 651" transform="translate(4.883 4.883)" clip-path="url(#clip-path)">
    <path id="Path_2314" data-name="Path 2314" d="M121.1,625.635c1.567-.964,3.165-1.944,4.762-2.938l2.381-1.447c.814-.482,1.6-.934,2.426-1.417.814-.482,1.6-.964,2.426-1.417a8.694,8.694,0,0,1,1.236-.633l1.266-.633c1.673-.814,3.345-1.643,5.109-2.351-1.6,1.01-3.24,1.869-4.883,2.758-.814.452-1.643.859-2.456,1.311s-1.6.934-2.426,1.371c-.814.482-1.6.934-2.426,1.371l-2.456,1.341Zm19.485-9.614s-5.772,4.431-7.64,5.847-7.369,5.395-7.369,5.395" transform="translate(-107.733 -527.034)" fill="#cfb66c"/>
  </g>
  <g id="Group_652" data-name="Group 652" transform="translate(4.883 4.883)" clip-path="url(#clip-path)">
    <path id="Path_2315" data-name="Path 2315" d="M165.555,622.9c-1.19,1.01-2.456,1.974-3.692,2.908l-3.722,2.863c-1.266.934-2.5,1.9-3.767,2.833s-2.532,1.823-3.873,2.682c1.191-1.01,2.456-1.944,3.722-2.863s2.577-1.823,3.8-2.758l3.722-2.863C163.023,624.769,164.259,623.8,165.555,622.9Zm-6.585,10.549s1.341-1.115,3.014-2.682a64.668,64.668,0,0,1,5.44-4.883" transform="translate(-132.703 -533.914)" fill="#cfb66c"/>
  </g>
  <g id="Group_653" data-name="Group 653" transform="translate(4.883 4.883)" clip-path="url(#clip-path)">
    <path id="Path_2316" data-name="Path 2316" d="M206.7,650.1c.663-.663,1.371-1.311,2.08-1.944l1.085-.934c.332-.3.708-.633,1.04-.965.663-.663,1.311-1.371,1.974-2.049a12.655,12.655,0,0,1,1.04-.964,2.822,2.822,0,0,1,.6-.407,1.691,1.691,0,0,1,.633-.332c-.151.226-.332.332-.482.527-.181.151-.332.332-.482.482-.332.331-.708.633-1.04.934-.708.6-1.447,1.19-2.155,1.823s-1.371,1.311-2.08,1.944C208.147,648.859,207.438,649.492,206.7,650.1Zm9.012-6.028s-4.913,4.807-5.922,5.591" transform="translate(-180.434 -550.56)" fill="#cfb66c"/>
  </g>
  <g id="Group_654" data-name="Group 654" transform="translate(4.883 4.883)" clip-path="url(#clip-path)">
    <path id="Path_2317" data-name="Path 2317" d="M233.122,652.9a16.122,16.122,0,0,1-1.417,1.447l-1.492,1.417c-.482.482-.934.964-1.447,1.447-.527.452-1.01.889-1.567,1.311l1.447-1.417c.482-.482,1.01-.889,1.522-1.371l1.447-1.417C232.113,653.819,232.595,653.337,233.122,652.9Zm.226,2.607a31.419,31.419,0,0,1-1.6,3.692c-1.266,2.532-3.165,5.7-3.993,7.309" transform="translate(-197.844 -559.393)" fill="#cfb66c"/>
  </g>
  <g id="Group_655" data-name="Group 655" transform="translate(4.883 4.883)" clip-path="url(#clip-path)">
    <path id="Path_2318" data-name="Path 2318" d="M236.576,670.2a4.231,4.231,0,0,1-.332,1.522,14.8,14.8,0,0,1-.6,1.417c-.226.452-.482.934-.738,1.371-.256.452-.558.889-.784,1.341l-1.522,2.682c-.527.889-1.04,1.793-1.6,2.652a24.735,24.735,0,0,1,1.371-2.758c.527-.889,1.01-1.793,1.492-2.713a14.977,14.977,0,0,0,.633-1.417c.226-.482.452-.934.633-1.371.226-.482.407-.934.633-1.371A8.981,8.981,0,0,1,236.576,670.2Z" transform="translate(-201.072 -574.086)" fill="#cfb66c"/>
  </g>
  <g id="Group_656" data-name="Group 656" transform="translate(4.883 4.883)" clip-path="url(#clip-path)">
    <path id="Path_2319" data-name="Path 2319" d="M295.981,752.2a7.448,7.448,0,0,0-1.341,4.476C295.047,755.365,295.559,753.36,295.981,752.2Zm1.417,1.974s-.527,5.365-.964,8A32.233,32.233,0,0,0,297.4,754.174Zm9.871,8.318s-2.23,6.555-2.276,8.379C305.475,769,306.409,765.175,307.268,762.493Z" transform="translate(-255.112 -643.728)" fill="#dec270"/>
  </g>
  <g id="Group_657" data-name="Group 657" transform="translate(4.883 4.883)" clip-path="url(#clip-path)">
    <path id="Path_2320" data-name="Path 2320" d="M413.1,749.5s3.617,5.968,6.329,11.061A25.186,25.186,0,0,0,413.1,749.5Z" transform="translate(-355.73 -641.435)" fill="#cbaf59"/>
  </g>
  <g id="Group_658" data-name="Group 658" transform="translate(4.883 4.883)" clip-path="url(#clip-path)">
    <path id="Path_2321" data-name="Path 2321" d="M477.6,807.8a109.928,109.928,0,0,1,5.365,10.835A16.558,16.558,0,0,0,477.6,807.8Z" transform="translate(-410.51 -690.95)" fill="#e3c677"/>
  </g>
  <g id="Group_659" data-name="Group 659" transform="translate(4.883 4.883)" clip-path="url(#clip-path)">
    <path id="Path_2322" data-name="Path 2322" d="M588.936,681.256c.6-.377,1.793-2.426,2.833-2.939a7.119,7.119,0,0,0,2.758-1.673,6.644,6.644,0,0,1,3.24-2.607c2.863-1.236.889-2.833.889-2.833a9.267,9.267,0,0,1,1.01-.859,2.857,2.857,0,0,0,1.522-2.426c-.106-2-.482-4.913-2.125-6.6,1.6-.331,4.657-.557,6.555-1.04a9.352,9.352,0,0,0,3.21-1.341,3.66,3.66,0,0,1,.784-4.325c2.049-2.155,3.722-3.466,4.958-5.892-1.417-.181-3.571-.934-9.087,1.16a6.929,6.929,0,0,1,.859.482s-3.391.934-4.626,1.974c-2.155,1.823-2.426,3.315-4.762,4.43-2.351,1.115-4.687.814-6.631,1.718-1.944.889-2.23,1.673-2.939,2,.151.181-.03.482.256.738-.181.256-1.236,1.974-2.306,1.974.105.407,1.01.708,1.01.708a4.87,4.87,0,0,1-2.351.6,17.248,17.248,0,0,0,3.918,3.285c-.181.377-.934.934-.633,1.643.332.708,1.191,1.673,4.626,2.456a30.281,30.281,0,0,1-6.555.105c-2.758-.331-3.21-.527-4.913-.105.181.181.663.181,1.085.663-.452.03-3.285-.332-4.25.934a8.217,8.217,0,0,0-1.371,4.913,1.282,1.282,0,0,0-.784,1.642c.256.934,1.6,1.236,2.456,1.823.859.633.934.859,1.748.708.859-.181,2.125-1.04,2.863-1.04a1.927,1.927,0,0,1,1.266.558s2-.964,2.2-.784c.181.181.03,1.341.226,1.522C586.072,682.974,588.333,681.632,588.936,681.256Z" transform="translate(-493.273 -555.605)" fill="#ecd592"/>
  </g>
  <path id="Path_2323" data-name="Path 2323" d="M399.228,303.528c-9.419-24.323-32.7-28.828-32.7-28.828H300.1l.256,24.775h13.231V354.8H300.1v24.729h64.589c15.567,0,28.045-15.642,28.045-15.642C412.716,335.521,399.228,303.528,399.228,303.528Zm-34.193,43.687s-5.063,7.309-10.579,7.309H343.425l-.256-54.989h14.15s6.555,1.371,11.136,14.346C368.456,313.881,374.529,332.462,365.035,347.215Z" transform="translate(-254.876 -233.304)" fill="#fff" opacity="0.8"/>
</svg>
