<svg xmlns="http://www.w3.org/2000/svg" width="948" height="539.44" viewBox="0 0 948 539.44">
  <g id="Group_663" data-name="Group 663" transform="translate(-832 -490)">
    <g id="undraw_appreciation_re_p6rl" transform="translate(832 490)">
      <ellipse id="Ellipse_428" data-name="Ellipse 428" cx="25.356" cy="7.96" rx="25.356" ry="7.96" transform="matrix(0.357, -0.934, 0.934, 0.357, 348.742, 449.19)" fill="#2f2e41"/>
      <circle id="Ellipse_429" data-name="Ellipse 429" cx="50.711" cy="50.711" r="50.711" transform="translate(260.18 508.57) rotate(-80.783)" fill="#2f2e41"/>
      <rect id="Rectangle_809" data-name="Rectangle 809" width="15.406" height="27.602" transform="translate(295.25 506.438)" fill="#2f2e41"/>
      <rect id="Rectangle_810" data-name="Rectangle 810" width="15.406" height="27.602" transform="translate(326.062 506.438)" fill="#2f2e41"/>
      <ellipse id="Ellipse_430" data-name="Ellipse 430" cx="12.838" cy="4.814" rx="12.838" ry="4.814" transform="translate(295.25 529.547)" fill="#2f2e41"/>
      <ellipse id="Ellipse_431" data-name="Ellipse 431" cx="12.838" cy="4.814" rx="12.838" ry="4.814" transform="translate(326.062 528.905)" fill="#2f2e41"/>
      <circle id="Ellipse_432" data-name="Ellipse 432" cx="17.332" cy="17.332" r="17.332" transform="matrix(1, -0.029, 0.029, 1, 301.808, 436.989)" fill="#fff"/>
      <circle id="Ellipse_433" data-name="Ellipse 433" cx="5.777" cy="5.777" r="5.777" transform="translate(313.866 448.024)" fill="#3f3d56"/>
      <path id="Path_2173" data-name="Path 2173" d="M366.708,583.575c-4.095-18.338,8.994-36.868,29.235-41.387s39.969,6.682,44.064,25.02-9.32,25.1-29.561,29.621S370.8,601.913,366.708,583.575Z" transform="translate(-97.54 -164.095)" fill="#3a72b9"/>
      <ellipse id="Ellipse_434" data-name="Ellipse 434" cx="7.96" cy="25.356" rx="7.96" ry="25.356" transform="translate(234.922 439.435) rotate(-64.626)" fill="#2f2e41"/>
      <path id="Path_2174" data-name="Path 2174" d="M387.217,633.7c0,4.963,12.78,14.764,26.96,14.764s27.477-13.973,27.477-18.936-13.3.963-27.477.963S387.217,628.738,387.217,633.7Z" transform="translate(-93.767 -148.767)" fill="#fff"/>
      <path id="Path_2175" data-name="Path 2175" d="M776.48,535.815,721.4,590.18,596.913,713.016l-2.519,2.484-14.036,13.847-29.426-29.072-2.591-2.555-53.8-53.14h-.012l-17.239-17.038-10.185-10.068-30.332-29.955-4.1-4.051L384.33,535.709a138.542,138.542,0,0,1-24.162-32.534c-.589-1.071-1.142-2.155-1.684-3.238A138.363,138.363,0,0,1,505.328,301.495h.012c.447.071.883.141,1.33.236a133.759,133.759,0,0,1,14.024,3.262,137.875,137.875,0,0,1,34.288,15.225q1.678,1.042,3.321,2.119A139.148,139.148,0,0,1,580.052,340.1l.412-.412.412.412a139.573,139.573,0,0,1,12.752-11.28c.977-.765,1.966-1.519,2.955-2.249a138.3,138.3,0,0,1,106.575-24.8,131.787,131.787,0,0,1,14.036,3.273q2.314.654,4.592,1.413c1.225.4,2.449.812,3.662,1.26a137.09,137.09,0,0,1,28.719,14.248q2.95,1.925,5.817,4.027a138.41,138.41,0,0,1,16.5,209.817Z" transform="translate(-101.473 -206.985)" fill="#c33764"/>
      <path id="Path_2176" data-name="Path 2176" d="M698.675,546.38,574.191,669.215l-2.519,2.484-14.036,13.847L528.21,656.475l-2.591-2.555-53.8-53.14c8.643-2.014,21.925.754,26.788,3.156,11.528,5.687,21.007,15.025,32.711,20.347a54.327,54.327,0,0,0,33.358,3.685c20.983-4.4,37.22-20.63,51.539-36.6s28.954-33.123,49.077-40.529C675.9,546.933,687.3,546.05,698.675,546.38Z" transform="translate(-78.751 -163.185)" opacity="0.15"/>
      <path id="Path_2177" data-name="Path 2177" d="M807.008,342.1a139.128,139.128,0,0,0-61.853-35.972c-1.554-.436-3.1-.824-4.663-1.189a137.564,137.564,0,0,0-20.477-3.285c-1.2-.118-2.4-.2-3.615-.259a135.593,135.593,0,0,0-18.169.071,139.411,139.411,0,0,0-88.123,39.387l-.424-.424-.424.424a139.668,139.668,0,0,0-54.988-33.064c-1.166-.377-2.344-.742-3.521-1.083a140.916,140.916,0,0,0-49.007-5.24c-.459.024-.918.059-1.365.106a139.3,139.3,0,0,0-81.718,34.618c-2.143,1.884-4.251,3.862-6.3,5.911a140.289,140.289,0,0,0-31.369,150.189c.412,1.107.86,2.2,1.33,3.3a139.125,139.125,0,0,0,30.038,44.686l45.828,45.239,3.6,3.568,99.168,97.885,2.555,2.532,26.046,25.716,20.123,19.864L807.008,540.256a140.273,140.273,0,0,0,0-198.16Zm-2.484,195.652L609.684,730.1l-17.6-17.38L566.588,687.56l-2.555-2.52-97.237-96-3.545-3.5L414.857,537.76A135.639,135.639,0,0,1,385.7,494.522c-.471-1.1-.919-2.19-1.33-3.285a136.746,136.746,0,0,1,30.485-146.644q3.286-3.285,6.723-6.288h.012a135.859,135.859,0,0,1,78.28-33.158q5.776-.494,11.563-.495c1.448,0,2.885.024,4.333.071a136.707,136.707,0,0,1,34.912,5.652c1.166.341,2.331.707,3.485,1.1A134.416,134.416,0,0,1,588.7,328.532a136.137,136.137,0,0,1,19.323,16.061l1.248,1.248.412-.412.412.412,1.248-1.248a136.205,136.205,0,0,1,100.923-39.87c1.5.047,2.991.118,4.486.224,1.2.071,2.4.153,3.592.271a135.56,135.56,0,0,1,22.478,3.945c1.578.4,3.144.836,4.7,1.319a136.541,136.541,0,0,1,57,227.267Z" transform="translate(-130.74 -211.571)" fill="#3f3d56"/>
      <path id="Path_2178" data-name="Path 2178" d="M534.829,310.34c-7.559,5.97-15.672,11.481-20.583,19.641-3.615,6.029-5.181,13.035-6.347,19.958-2.261,13.47-3.226,27.271-7.654,40.188s-13.035,25.257-25.81,30.073c-7.925,2.979-16.661,2.814-25.1,2.237-20.83-1.413-41.8-5.146-60.546-14.318-10.48-5.134-20.642-12.057-32.287-12.823a29.9,29.9,0,0,0-7.088.389A138.348,138.348,0,0,1,504.332,301.5h.012c.447.071.883.141,1.33.236a133.759,133.759,0,0,1,14.024,3.262,138.33,138.33,0,0,1,15.13,5.346Z" transform="translate(-100.477 -206.987)" opacity="0.15"/>
      <path id="Path_2179" data-name="Path 2179" d="M225.3,639.218a33.851,33.851,0,0,0,32.688-5.758c11.449-9.609,15.039-25.441,17.96-40.1L284.589,550,266.5,562.454c-13.007,8.956-26.307,18.2-35.313,31.172s-12.937,30.681-5.7,44.718Z" transform="translate(-123.139 -162.531)" fill="#3ab988"/>
      <path id="Path_2180" data-name="Path 2180" d="M226.507,683.41c-1.831-13.334-3.713-26.84-2.429-40.317,1.14-11.969,4.792-23.66,12.226-33.245a55.3,55.3,0,0,1,14.189-12.858c1.419-.9,2.725,1.353,1.312,2.245a52.576,52.576,0,0,0-20.8,25.093c-4.528,11.516-5.255,24.07-4.475,36.3.472,7.4,1.472,14.748,2.48,22.088a1.347,1.347,0,0,1-.908,1.6A1.308,1.308,0,0,1,226.507,683.41Z" transform="translate(-122.797 -154.227)" fill="#32a076"/>
      <path id="Path_2181" data-name="Path 2181" d="M241.052,654.38a24.918,24.918,0,0,0,21.712,11.206c10.991-.522,20.154-8.193,28.4-15.475l24.4-21.541-16.147-.773c-11.612-.556-23.523-1.074-34.583,2.507s-21.26,12.2-23.282,23.646Z" transform="translate(-119.709 -148.793)" fill="#3ab988"/>
      <path id="Path_2182" data-name="Path 2182" d="M221.709,682.927c8.811-15.591,19.031-32.918,37.293-38.456a41.616,41.616,0,0,1,15.686-1.62c1.665.144,1.249,2.711-.413,2.567a38.661,38.661,0,0,0-25.032,6.623c-7.058,4.8-12.554,11.483-17.205,18.566-2.849,4.339-5.4,8.861-7.954,13.378C223.268,685.429,220.884,684.388,221.709,682.927Z" transform="translate(-123.173 -146.079)" fill="#32a076"/>
      <circle id="Ellipse_435" data-name="Ellipse 435" cx="50.711" cy="50.711" r="50.711" transform="translate(302.642 38.838)" fill="#2f2e41"/>
      <rect id="Rectangle_811" data-name="Rectangle 811" width="15.406" height="27.602" transform="translate(330.244 129.348)" fill="#2f2e41"/>
      <rect id="Rectangle_812" data-name="Rectangle 812" width="15.406" height="27.602" transform="translate(361.056 129.348)" fill="#2f2e41"/>
      <ellipse id="Ellipse_436" data-name="Ellipse 436" cx="12.838" cy="4.814" rx="12.838" ry="4.814" transform="translate(330.244 152.457)" fill="#2f2e41"/>
      <ellipse id="Ellipse_437" data-name="Ellipse 437" cx="12.838" cy="4.814" rx="12.838" ry="4.814" transform="translate(361.056 151.815)" fill="#2f2e41"/>
      <circle id="Ellipse_438" data-name="Ellipse 438" cx="17.332" cy="17.332" r="17.332" transform="translate(337.305 59.379)" fill="#fff"/>
      <ellipse id="Ellipse_439" data-name="Ellipse 439" cx="5.753" cy="5.794" rx="5.753" ry="5.794" transform="translate(352.362 80.212) rotate(-44.987)" fill="#3f3d56"/>
      <path id="Path_2183" data-name="Path 2183" d="M396.427,263.325c-4.095-18.338,8.994-36.868,29.235-41.387s39.969,6.682,44.064,25.02-9.32,25.1-29.561,29.621S400.521,281.663,396.427,263.325Z" transform="translate(-92.265 -220.936)" fill="#3a72b9"/>
      <ellipse id="Ellipse_440" data-name="Ellipse 440" cx="7.96" cy="25.356" rx="7.96" ry="25.356" transform="translate(722.734 401.014) rotate(-39.512)" fill="#2f2e41"/>
      <circle id="Ellipse_441" data-name="Ellipse 441" cx="50.711" cy="50.711" r="50.711" transform="translate(730.976 424.193) rotate(-9.217)" fill="#2f2e41"/>
      <rect id="Rectangle_813" data-name="Rectangle 813" width="15.406" height="27.602" transform="translate(796.858 505.921)" fill="#2f2e41"/>
      <rect id="Rectangle_814" data-name="Rectangle 814" width="15.406" height="27.602" transform="translate(766.046 505.921)" fill="#2f2e41"/>
      <ellipse id="Ellipse_442" data-name="Ellipse 442" cx="12.838" cy="4.814" rx="12.838" ry="4.814" transform="translate(786.587 529.03)" fill="#2f2e41"/>
      <ellipse id="Ellipse_443" data-name="Ellipse 443" cx="12.838" cy="4.814" rx="12.838" ry="4.814" transform="translate(755.775 528.388)" fill="#2f2e41"/>
      <path id="Path_2184" data-name="Path 2184" d="M826.059,601.565c-15.987-13.211-24.874-25.324-12.9-39.808s34.632-15.517,50.619-2.306,19.245,35.662,7.277,50.146S842.047,614.775,826.059,601.565Z" transform="translate(-19.15 -162.499)" fill="#c33764"/>
      <circle id="Ellipse_444" data-name="Ellipse 444" cx="17.332" cy="17.332" r="17.332" transform="matrix(1, -0.029, 0.029, 1, 753.787, 422.997)" fill="#fff"/>
      <circle id="Ellipse_445" data-name="Ellipse 445" cx="5.777" cy="5.777" r="5.777" transform="translate(759.753 429.738)" fill="#3f3d56"/>
      <path id="Path_2185" data-name="Path 2185" d="M771.64,606.736c-3.51,3.51-5.991,14.889-1.054,19.825s19.446-.315,22.955-3.825-5.31-3.948-10.246-8.884S775.149,603.227,771.64,606.736Z" transform="translate(-26.215 -152.654)" fill="#fff"/>
      <ellipse id="Ellipse_446" data-name="Ellipse 446" cx="7.96" cy="25.356" rx="7.96" ry="25.356" transform="matrix(0.934, -0.357, 0.357, 0.934, 811.749, 489.405)" fill="#2f2e41"/>
      <path id="Path_2186" data-name="Path 2186" d="M1084.974,679.419H139.026a1.189,1.189,0,0,1,0-2.355h945.948a1.189,1.189,0,0,1,0,2.355Z" transform="translate(-138 -139.979)" fill="#ccc"/>
    </g>
    <g id="Group_662" data-name="Group 662" transform="translate(-24 21.393)">
      <path id="Path_1" data-name="Path 1" d="M73.734,138.786a27.256,27.256,0,0,0,1.683,9.506A28.1,28.1,0,0,0,101.833,166.8v15.4a43.494,43.494,0,1,1,0-86.9v15.479a35.671,35.671,0,0,0-4.29.252,28.183,28.183,0,0,0-23.808,27.762Z" transform="translate(1115.573 582.357)" fill="#fff"/>
      <path id="Path_2" data-name="Path 2" d="M135.01,181.394A43.409,43.409,0,0,1,91.6,224.8V210.838l1.094-1.43a28.014,28.014,0,0,0,26.921-28.014,26.08,26.08,0,0,0-.841-6.814,28.014,28.014,0,0,0-27.173-21.2V137.9a43.494,43.494,0,0,1,37.941,22.378A42.652,42.652,0,0,1,135.01,181.394Z" transform="translate(1109.99 575.589)" fill="#fff"/>
    </g>
    <text id="Sennzo" transform="translate(1248 794)" fill="#fff" font-size="80" font-family="Pacifico-Regular, Pacifico"><tspan x="0" y="0">Sennzo</tspan></text>
  </g>
</svg>
