<svg xmlns="http://www.w3.org/2000/svg" width="200" height="200" viewBox="0 0 200 200">
  <g id="litecoin-seeklogo.com" transform="translate(-0.5 -0.5)">
    <path id="Path_2716" data-name="Path 2716" d="M100.5.5a100,100,0,1,0,100,100A100.006,100.006,0,0,0,100.5.5m1.493,103.215L91.66,138.847h55.568a2.888,2.888,0,0,1,2.755,3.674l-4.822,16.648a3.823,3.823,0,0,1-3.674,2.755H56.528l14.351-48.565L55.035,118.3l3.444-11.481,15.959-4.937,20.207-68.2a3.823,3.823,0,0,1,3.674-2.755h21.47a2.888,2.888,0,0,1,2.755,3.674L105.437,92.234,121.281,87.3l-3.444,11.6Z" fill="#345d9d"/>
  </g>
</svg>
