<svg id="Layer_1" data-name="Layer 1" xmlns="http://www.w3.org/2000/svg" viewBox="0 0 86.5 134.4"><defs><style>.cls-1{fill:#3d73b9;}.cls-2{fill:#c53865;}</style></defs><path class="cls-1" d="M168.7,159.1a50,50,0,0,1-38.4,48.6,9.5,9.5,0,0,1-11.6-9.3h0a9.6,9.6,0,0,1,7.2-9.3,30.9,30.9,0,0,0,0-60.1,9.5,9.5,0,0,1-7.2-9.2h0a9.6,9.6,0,0,1,11.6-9.4A50.2,50.2,0,0,1,168.7,159.1Z" transform="translate(-82.2 -73.6)"/><path class="cls-2" d="M82.2,122.5a50,50,0,0,0,38.4,48.6,9.5,9.5,0,0,0,11.6-9.3h0a9.4,9.4,0,0,0-7.2-9.3,30.9,30.9,0,0,1,0-60.1,9.4,9.4,0,0,0,7.2-9.3h0a9.5,9.5,0,0,0-11.6-9.3A50.1,50.1,0,0,0,82.2,122.5Z" transform="translate(-82.2 -73.6)"/></svg>