<svg id="Layer_1" data-name="Layer 1" xmlns="http://www.w3.org/2000/svg" viewBox="0 0 429.5 158.1"><defs><style>.cls-1{isolation:isolate;font-size:100px;font-family:Pacifico-Regular, Pacifico;}.cls-1,.cls-3{fill:#fff;}.cls-2{letter-spacing:-0.02em;}</style></defs><text class="cls-1" transform="translate(120.7 112.4)">Sen<tspan class="cls-2" x="158.2" y="0">n</tspan><tspan x="205.8" y="0">zo</tspan></text><path class="cls-3" d="M168.7,159.1a50,50,0,0,1-38.4,48.6,9.5,9.5,0,0,1-11.6-9.3h0a9.6,9.6,0,0,1,7.2-9.3,30.9,30.9,0,0,0,0-60.1,9.5,9.5,0,0,1-7.2-9.2h0a9.6,9.6,0,0,1,11.6-9.4A50.2,50.2,0,0,1,168.7,159.1Z" transform="translate(-82.2 -73.6)"/><path class="cls-3" d="M82.2,122.5a50,50,0,0,0,38.4,48.6,9.5,9.5,0,0,0,11.6-9.3h0a9.4,9.4,0,0,0-7.2-9.3,30.9,30.9,0,0,1,0-60.1,9.4,9.4,0,0,0,7.2-9.3h0a9.5,9.5,0,0,0-11.6-9.3A50.1,50.1,0,0,0,82.2,122.5Z" transform="translate(-82.2 -73.6)"/></svg>