<svg xmlns="http://www.w3.org/2000/svg" width="63" height="63" viewBox="0 0 63 63">
  <path id="patreon" d="M7.846,38.432C7.846,23.758,19.764,10,35.48,8.034a30.87,30.87,0,0,1,25.67,8.647,30.891,30.891,0,0,1,9.561,19.786,30.27,30.27,0,0,1-5.631,21.1C60.5,63.852,51.46,70.8,40.2,70.8H24.872V40.53C25,33.846,27.229,28.082,35.35,25.33a14.684,14.684,0,0,1,17.812,9.3C55.781,42.625,51.982,48,47.53,51.274a14.456,14.456,0,0,1-15.978.132V61.756a21.188,21.188,0,0,0,9.561,1.7c9.952-1.443,17.681-7.076,20.955-15.593a24.187,24.187,0,0,0-6.024-26.075c-8.513-6.945-17.812-8.649-27.766-3.8A25.165,25.165,0,0,0,15.312,36.6V70.8H7.978Z" transform="translate(-7.846 -7.798)" fill="#ff5900"/>
</svg>
