<svg xmlns="http://www.w3.org/2000/svg" width="196.489" height="134.809" viewBox="0 0 196.489 134.809">
  <g id="paypal" transform="translate(32.034)">
    <path id="Path_2326" data-name="Path 2326" d="M16.677,7.01H35.7c10.211,0,14.06,5.162,13.449,12.77-.974,12.543-8.559,19.472-18.611,19.472H25.462c-1.381,0-2.309.906-2.672,3.4L20.639,57.026c-.136.928-.634,1.472-1.359,1.54H7.326c-1.132,0-1.517-.86-1.223-2.717L13.371,9.727c.294-1.834,1.291-2.717,3.306-2.717Z" transform="translate(48.092 8.862)" fill="#009ee3" fill-rule="evenodd"/>
    <path id="Path_2327" data-name="Path 2327" d="M61.2,6.643c6.408,0,12.34,3.487,11.525,12.159-.974,10.3-6.5,16.008-15.215,16.03H49.9c-1.087,0-1.63.883-1.9,2.717L46.53,46.9c-.226,1.4-.951,2.106-2.015,2.106H37.428c-1.132,0-1.517-.725-1.268-2.332L42,9.156C42.3,7.3,42.976,6.62,44.244,6.62H61.2v.023ZM49.655,26.726h5.774c3.6-.136,6-2.626,6.249-7.132a4.361,4.361,0,0,0-4.732-4.755l-5.434.023L49.655,26.726ZM91.972,46.152c.657-.589,1.313-.883,1.223-.158l-.226,1.743c-.113.906.249,1.381,1.087,1.381h6.294c1.064,0,1.585-.43,1.834-2.06l3.872-24.34c.2-1.223-.113-1.811-1.042-1.811H98.086c-.634,0-.928.34-1.087,1.291l-.249,1.494c-.136.77-.5.928-.815.136-1.177-2.785-4.166-4.03-8.355-3.917-9.713.2-16.234,7.562-16.936,17-.543,7.313,4.687,13.042,11.593,13.042,5-.023,7.245-1.494,9.736-3.8ZM86.7,42.417a6.322,6.322,0,0,1-6.476-7.426,9.054,9.054,0,0,1,8.694-7.426,6.311,6.311,0,0,1,6.476,7.426A9.054,9.054,0,0,1,86.7,42.417Zm31.653-21.6h-6.385c-1.313,0-1.857.974-1.426,2.2L118.463,46.2,110.7,57.224c-.657.928-.136,1.766.77,1.766h7.177c.091,0,.158.023.249.023a2.214,2.214,0,0,0,1.879-1.064l24.362-34.936c.747-1.064.408-2.2-.838-2.2H137.5a2.425,2.425,0,0,0-2.287,1.426L125.052,36.96,120.523,22.2a1.947,1.947,0,0,0-2.174-1.381Z" transform="translate(-68.122 75.796)" fill="#113984" fill-rule="evenodd"/>
    <path id="Path_2328" data-name="Path 2328" d="M109.462,6.643c6.408,0,12.34,3.487,11.525,12.159-.974,10.3-6.5,16.008-15.215,16.03H98.164c-1.087,0-1.63.883-1.9,2.717L94.79,46.9c-.226,1.4-.951,2.106-2.015,2.106H85.688c-1.132,0-1.517-.725-1.268-2.332L90.285,9.156c.294-1.834.974-2.536,2.242-2.536l16.936.023ZM97.938,26.726h5.774c3.6-.136,6-2.626,6.249-7.132a4.361,4.361,0,0,0-4.732-4.755l-5.434.023L97.938,26.726Zm42.295,19.427c.657-.589,1.313-.883,1.223-.158l-.226,1.743c-.113.906.249,1.381,1.087,1.381h6.294c1.064,0,1.585-.43,1.834-2.06l3.872-24.34c.2-1.223-.113-1.811-1.042-1.811h-6.906c-.634,0-.928.34-1.087,1.291l-.249,1.494c-.136.77-.5.928-.815.136-1.177-2.785-4.166-4.03-8.332-3.917-9.713.2-16.234,7.562-16.936,17-.543,7.313,4.687,13.042,11.593,13.042,5,0,7.245-1.472,9.759-3.781h0l-.068-.023Zm-5.253-3.736A6.322,6.322,0,0,1,128.5,34.99a9.054,9.054,0,0,1,8.694-7.426,6.322,6.322,0,0,1,6.476,7.426,9.073,9.073,0,0,1-8.694,7.426Zm29,6.725H156.67a.86.86,0,0,1-.86-.86v-.113l6.385-40.415a1.253,1.253,0,0,1,1.2-.974h7.313a.86.86,0,0,1,.86.86v.113l-6.385,40.415a1.215,1.215,0,0,1-1.2.974Z" transform="translate(-7.113 75.796)" fill="#009ee3" fill-rule="evenodd"/>
    <path id="Path_2329" data-name="Path 2329" d="M12.381,0H31.423c5.366,0,11.728.181,15.962,3.917a12.952,12.952,0,0,1,3.985,10.8c-1.177,14.536-9.849,22.664-21.51,22.664h-9.4c-1.608,0-2.649,1.064-3.1,3.917L14.736,57.985c-.181,1.087-.634,1.721-1.472,1.789H1.536C.245,59.774-.23,58.8.109,56.627L8.555,3.17C8.894,1.019,10.072,0,12.381,0Z" transform="translate(40.5 0)" fill="#113984" fill-rule="evenodd"/>
    <path id="Path_2330" data-name="Path 2330" d="M7.79,30.774,11.118,9.74A2.917,2.917,0,0,1,14.424,7H33.443a18.521,18.521,0,0,1,7.676,1.4c-1.9,12.928-10.279,20.128-21.238,20.128H10.53c-1.268,0-2.174.634-2.74,2.242Z" transform="translate(50.344 8.849)" fill="#172c70" fill-rule="evenodd"/>
  </g>
</svg>
