<svg xmlns="http://www.w3.org/2000/svg" xmlns:xlink="http://www.w3.org/1999/xlink" width="289.716" height="85.98" viewBox="0 0 289.716 85.98">
  <defs>
    <linearGradient id="linear-gradient" x1="0.849" y1="0.31" x2="0.361" y2="0.799" gradientUnits="objectBoundingBox">
      <stop offset="0" stop-color="#00a0ff"/>
      <stop offset="0.007" stop-color="#00a1ff"/>
      <stop offset="0.26" stop-color="#00beff"/>
      <stop offset="0.512" stop-color="#00d2ff"/>
      <stop offset="0.76" stop-color="#00dfff"/>
      <stop offset="1" stop-color="#00e3ff"/>
    </linearGradient>
    <linearGradient id="linear-gradient-2" x1="0.97" y1="0.436" x2="-1.177" y2="0.436" gradientUnits="objectBoundingBox">
      <stop offset="0" stop-color="#ffe000"/>
      <stop offset="0.409" stop-color="#ffbd00"/>
      <stop offset="0.775" stop-color="orange"/>
      <stop offset="1" stop-color="#ff9c00"/>
    </linearGradient>
    <linearGradient id="linear-gradient-3" x1="0.761" y1="0.213" x2="-0.443" y2="1.411" gradientUnits="objectBoundingBox">
      <stop offset="0" stop-color="#ff3a44"/>
      <stop offset="1" stop-color="#c31162"/>
    </linearGradient>
    <linearGradient id="linear-gradient-4" x1="-0.17" y1="-0.275" x2="0.367" y2="0.26" gradientUnits="objectBoundingBox">
      <stop offset="0" stop-color="#32a071"/>
      <stop offset="0.068" stop-color="#2da771"/>
      <stop offset="0.476" stop-color="#15cf74"/>
      <stop offset="0.801" stop-color="#06e775"/>
      <stop offset="1" stop-color="#00f076"/>
    </linearGradient>
    <linearGradient id="linear-gradient-5" x1="0.624" y1="0.038" x2="-0.364" y2="1.027" gradientUnits="objectBoundingBox">
      <stop offset="0" stop-color="#cc2e36"/>
      <stop offset="1" stop-color="#9c0e4e"/>
    </linearGradient>
    <linearGradient id="linear-gradient-6" x1="5.233" y1="-7.998" x2="-1.121" y2="-1.634" gradientUnits="objectBoundingBox">
      <stop offset="0" stop-color="#008de0"/>
      <stop offset="0.007" stop-color="#008de0"/>
      <stop offset="0.26" stop-color="#00a7e0"/>
      <stop offset="0.512" stop-color="#00b8e0"/>
      <stop offset="0.76" stop-color="#00c4e0"/>
      <stop offset="1" stop-color="#00c7e0"/>
    </linearGradient>
    <linearGradient id="linear-gradient-7" x1="0.943" y1="-0.195" x2="-2.414" y2="-0.195" gradientUnits="objectBoundingBox">
      <stop offset="0" stop-color="#e0c500"/>
      <stop offset="0.409" stop-color="#e0a600"/>
      <stop offset="0.775" stop-color="#e09100"/>
      <stop offset="1" stop-color="#e08900"/>
    </linearGradient>
    <linearGradient id="linear-gradient-8" x1="0.944" y1="0.999" x2="-2.414" y2="0.999" gradientUnits="objectBoundingBox">
      <stop offset="0" stop-color="#ffe840"/>
      <stop offset="0.409" stop-color="#ffce40"/>
      <stop offset="0.775" stop-color="#ffbc40"/>
      <stop offset="1" stop-color="#ffb540"/>
    </linearGradient>
    <linearGradient id="linear-gradient-9" x1="5.219" y1="0.865" x2="-1.113" y2="6.933" gradientUnits="objectBoundingBox">
      <stop offset="0" stop-color="#40b8ff"/>
      <stop offset="0.007" stop-color="#40b9ff"/>
      <stop offset="0.26" stop-color="#40ceff"/>
      <stop offset="0.512" stop-color="#40ddff"/>
      <stop offset="0.76" stop-color="#40e7ff"/>
      <stop offset="1" stop-color="#40eaff"/>
    </linearGradient>
    <linearGradient id="linear-gradient-10" x1="-0.137" y1="-0.184" x2="0.304" y2="0.257" gradientUnits="objectBoundingBox">
      <stop offset="0" stop-color="#65b895"/>
      <stop offset="0.068" stop-color="#62bd95"/>
      <stop offset="0.476" stop-color="#50db97"/>
      <stop offset="0.801" stop-color="#44ed98"/>
      <stop offset="1" stop-color="#40f498"/>
    </linearGradient>
  </defs>
  <g id="Play_Store" data-name="Play Store" transform="translate(-1022 -4853.178)">
    <g id="Google_Play-Badge-Logo.wine" transform="translate(1022 4853.178)">
      <path id="Path_536" data-name="Path 536" d="M278.986,85.98H10.73A10.771,10.771,0,0,1,0,75.233V10.748A10.77,10.77,0,0,1,10.73,0H278.986a10.77,10.77,0,0,1,10.73,10.748V75.233a10.77,10.77,0,0,1-10.73,10.748" transform="translate(0 0)"/>
      <path id="Path_537" data-name="Path 537" d="M278.986,0H10.73A10.771,10.771,0,0,0,0,10.748V75.233A10.77,10.77,0,0,0,10.73,85.98H278.986a10.77,10.77,0,0,0,10.73-10.748V10.748A10.77,10.77,0,0,0,278.986,0m0,1.72A9.031,9.031,0,0,1,288,10.748V75.233a9.031,9.031,0,0,1-9.013,9.029H10.73a9.032,9.032,0,0,1-9.013-9.029V10.748A9.032,9.032,0,0,1,10.73,1.72H278.986" transform="translate(0 0)" fill="none"/>
      <path id="Path_538" data-name="Path 538" d="M931.644,160.025a5.826,5.826,0,0,1-1.6,4.3,6.239,6.239,0,0,1-4.731,1.909,6.737,6.737,0,1,1,0-13.474,6.633,6.633,0,0,1,2.643.541,5.309,5.309,0,0,1,2.014,1.441l-1.132,1.134a4.344,4.344,0,0,0-3.525-1.53,5.151,5.151,0,1,0,3.6,8.863,4.059,4.059,0,0,0,1.08-2.612h-4.676v-1.549h6.24a5.533,5.533,0,0,1,.09.973" transform="translate(-829.882 -138.006)" fill="#fff"/>
      <path id="Path_539" data-name="Path 539" d="M929.638,158.015h-.215a5.611,5.611,0,0,1-1.536,4.153l0,0v0a6.023,6.023,0,0,1-4.576,1.842,6.522,6.522,0,1,1,0-13.044,6.422,6.422,0,0,1,2.558.523,5.1,5.1,0,0,1,1.934,1.382l.164-.139-.152-.152-1.132,1.135.152.151.165-.138a4.565,4.565,0,0,0-3.69-1.607,5.366,5.366,0,1,0,3.748,9.23,4.281,4.281,0,0,0,1.142-2.746l.02-.233h-4.7v-1.119h6.025v-.215l-.211.038a5.254,5.254,0,0,1,.086.935h.429A5.693,5.693,0,0,0,929.76,157l-.032-.177h-6.634v1.979h4.891v-.215l-.214-.018a3.852,3.852,0,0,1-1.018,2.479,4.908,4.908,0,0,1-6.812.006,5.19,5.19,0,0,1,0-7.13,4.671,4.671,0,0,1,3.367-1.371,4.129,4.129,0,0,1,3.361,1.454l.151.18,1.3-1.3.139-.139-.127-.151a5.514,5.514,0,0,0-2.093-1.5,6.844,6.844,0,0,0-2.728-.559,6.952,6.952,0,1,0,0,13.9,6.459,6.459,0,0,0,4.886-1.975l-.155-.149.152.152a6.044,6.044,0,0,0,1.662-4.457h-.215m9.892-5.387h-5.864v4.089h5.288v1.55h-5.288v4.089h5.864v1.584h-7.517v-12.9h7.517v1.584" transform="translate(-827.876 -135.996)" fill="#fff"/>
      <path id="Path_540" data-name="Path 540" d="M1083.483,155.329v-.215H1077.4v4.519h5.288v1.119H1077.4v4.519h5.864v1.154h-7.088V153.96h7.088v1.369h.214v0h.215v-1.8h-7.946v13.327h7.946v-2.014h-5.864v-3.659h5.288V159.2h-5.288v-3.659h5.864v-.215h-.215m6.977,11.313H1088.8V155.329h-3.6v-1.584h8.848v1.584h-3.6v11.313" transform="translate(-971.829 -138.698)" fill="#fff"/>
      <path id="Path_541" data-name="Path 541" d="M1176.888,166.642v-.215h-1.441V155.114h-3.6V153.96h8.419v1.154h-3.6v11.528h.214v0h.215v-11.1h3.6V153.53h-9.277v2.014h3.6v11.313h2.085v-.215h-.215m10,0v-12.9h1.654v12.9h-1.654" transform="translate(-1058.257 -138.698)" fill="#fff"/>
      <path id="Path_542" data-name="Path 542" d="M1329.5,166.642h.215V153.96h1.225v12.467h-1.44v.215h0v.215h1.869V153.53h-2.083v13.327h.214v-.215m8.993,0h-1.656V155.329h-3.6v-1.584h8.848v1.584h-3.6v11.313" transform="translate(-1200.871 -138.698)" fill="#fff"/>
      <path id="Path_543" data-name="Path 543" d="M1373.481,165.95v-.215h-1.441V154.422h-3.6v-1.154h8.419v1.154h-3.6V165.95h.215v0h.215v-11.1h3.6v-2.014h-9.277v2.014h3.6v11.313h2.085v-.215h-.215m12.127-2.746a4.946,4.946,0,0,0,7,0,5.5,5.5,0,0,0,0-7.4,4.945,4.945,0,0,0-7,0,5.509,5.509,0,0,0,0,7.4Zm8.219,1.08a6.677,6.677,0,0,1-9.441,0,6.976,6.976,0,0,1,0-9.564,6.655,6.655,0,0,1,9.433.008,6.954,6.954,0,0,1,.008,9.555Z" transform="translate(-1235.859 -138.006)" fill="#fff"/>
      <path id="Path_544" data-name="Path 544" d="M1518.963,161.193l-.153.151a5.16,5.16,0,0,0,7.3,0,5.716,5.716,0,0,0,0-7.706,5.16,5.16,0,0,0-7.3,0,5.724,5.724,0,0,0,0,7.706l.153-.151.153-.151a5.294,5.294,0,0,1,0-7.1,4.732,4.732,0,0,1,6.69,0,5.289,5.289,0,0,1,0,7.1,4.732,4.732,0,0,1-6.69,0Zm8.22,1.08-.153-.149a6.465,6.465,0,0,1-9.135,0l-.006-.007.006.007a6.763,6.763,0,0,1,0-9.265,6.442,6.442,0,0,1,9.126.009,6.74,6.74,0,0,1,.009,9.256l.153.149.154.149a7.168,7.168,0,0,0-.009-9.854,6.869,6.869,0,0,0-9.741-.008h0a7.192,7.192,0,0,0,0,9.864l.006.006-.006-.007a6.891,6.891,0,0,0,9.75,0Zm4.219,1.667v-12.9h2.014l6.258,10.033h.071l-.071-2.485v-7.548h1.656v12.9H1539.6l-6.547-10.519h-.071l.071,2.486v8.033H1531.4" transform="translate(-1369.213 -135.996)" fill="#fff"/>
      <path id="Path_545" data-name="Path 545" d="M985.845,166.642h.214V153.96h1.68L994,163.993h.411l-.077-2.7V153.96h1.226v12.467h-1.393l-6.547-10.519h-.411l.077,2.7v7.814h-1.438v.215h0v.215h1.868v-8.251l-.071-2.489-.215.006v.215h.071v-.215l-.182.114,6.61,10.62h2.061V153.53H993.9V161.3l.071,2.489.215-.006v-.215h-.071v.215l.182-.114-6.321-10.134h-2.347v13.327h.215v-.215m67.3,36.542h4V176.312h-4Zm36.068-17.192-4.59,11.65h-.138l-4.764-11.65h-4.314l7.145,16.283-4.073,9.057h4.178l11.009-25.341Zm-22.709,14.14c-1.313,0-3.142-.657-3.142-2.282,0-2.074,2.279-2.869,4.245-2.869a7.116,7.116,0,0,1,3.659.9A4.858,4.858,0,0,1,1066.505,200.132Zm.483-14.728c-2.9,0-5.9,1.28-7.144,4.114L1063.4,191a3.794,3.794,0,0,1,3.659-1.971c2.071,0,4.176,1.245,4.21,3.458v.276a8.844,8.844,0,0,0-4.176-1.037c-3.831,0-7.732,2.108-7.732,6.05,0,3.6,3.142,5.912,6.661,5.912a5.65,5.65,0,0,0,5.11-2.627h.137v2.074h3.865v-10.3c0-4.77-3.554-7.433-8.144-7.433Zm-24.748,3.859h-5.7v-9.211h5.7a4.606,4.606,0,1,1,0,9.211Zm-.1-12.951h-9.595v26.871h4V193h5.593c4.438,0,8.8-3.218,8.8-8.345S1046.575,176.312,1042.137,176.312Zm-52.323,23.824a5.561,5.561,0,0,1,0-11.082c2.731,0,4.875,2.355,4.875,5.575C994.689,197.817,992.546,200.137,989.815,200.137Zm4.6-12.64h-.138a6.322,6.322,0,0,0-4.806-2.043,9.151,9.151,0,0,0,0,18.284,6.221,6.221,0,0,0,4.806-2.077h.138v1.316c0,3.5-1.867,5.368-4.875,5.368a5.054,5.054,0,0,1-4.6-3.255l-3.491,1.454a8.7,8.7,0,0,0,8.091,5.4c4.7,0,8.678-2.771,8.678-9.523V186.008h-3.8Zm6.569,15.687h4.011V176.311h-4.011Zm9.923-8.865a5.01,5.01,0,0,1,4.771-5.333,3.53,3.53,0,0,1,3.388,1.94Zm12.447-3.047c-.76-2.044-3.078-5.818-7.814-5.818-4.7,0-8.608,3.705-8.608,9.142a8.939,8.939,0,0,0,9.058,9.142,9.077,9.077,0,0,0,7.607-4.052l-3.112-2.078a5.21,5.21,0,0,1-4.5,2.528,4.644,4.644,0,0,1-4.425-2.77l12.2-5.056Zm-97.233-3.013v3.878h9.265a8.1,8.1,0,0,1-2.109,4.883,9.474,9.474,0,0,1-7.156,2.84,10.321,10.321,0,0,1,0-20.639,9.866,9.866,0,0,1,6.983,2.771l2.731-2.735a13.494,13.494,0,0,0-9.715-3.914,14.2,14.2,0,1,0,0,28.4,12.556,12.556,0,0,0,13.242-13.055,12.6,12.6,0,0,0-.208-2.424Zm23.776,11.878a5.556,5.556,0,1,1,5.151-5.541A5.285,5.285,0,0,1,949.893,200.137Zm0-14.683a9.142,9.142,0,1,0,9.162,9.142A9,9,0,0,0,949.893,185.454Zm19.987,14.683a5.556,5.556,0,1,1,5.151-5.541A5.286,5.286,0,0,1,969.88,200.137Zm0-14.683a9.142,9.142,0,1,0,9.162,9.142A9,9,0,0,0,969.88,185.454Z" transform="translate(-823.657 -138.698)" fill="#fff"/>
      <path id="Path_546" data-name="Path 546" d="M222.691,162.832a4.155,4.155,0,0,0-1.15,3.177V212.92a4.309,4.309,0,0,0,.993,3.02l.159.153h0a2.756,2.756,0,0,0,1.9.7,4.937,4.937,0,0,0,2.4-.721l31.15-17.728,10.7-6.09a4.006,4.006,0,0,0,2.249-2.787v0a4,4,0,0,0-2.249-2.788l-10.7-6.089-31.149-17.728a4.946,4.946,0,0,0-2.409-.723,2.76,2.76,0,0,0-1.894.7Z" transform="translate(-200.139 -146.471)" fill="#00c1ff"/>
      <path id="Path_547" data-name="Path 547" d="M1.268-498.305l-.159-.153a4.308,4.308,0,0,1-.993-3.02v-46.911a4.155,4.155,0,0,1,1.15-3.177l26.589,26.631L1.268-498.305" transform="translate(21.287 567.927)" fill="url(#linear-gradient)"/>
      <path id="Path_548" data-name="Path 548" d="M9.55-166.808l-8.864-8.88,8.863-8.879,10.7,6.089a4,4,0,0,1,2.249,2.789v0A4.005,4.005,0,0,1,20.25-172.9l-10.7,6.09" transform="translate(48.455 218.68)" fill="url(#linear-gradient-2)"/>
      <path id="Path_549" data-name="Path 549" d="M2.336-255.688a2.757,2.757,0,0,1-1.9-.7h0l26.586-26.63,8.864,8.88L4.74-256.409a4.936,4.936,0,0,1-2.4.721" transform="translate(22.115 326.009)" fill="url(#linear-gradient-3)"/>
      <path id="Path_550" data-name="Path 550" d="M26.779-256.276.19-282.907a2.76,2.76,0,0,1,1.895-.7,4.944,4.944,0,0,1,2.409.723l31.149,17.728-8.863,8.879" transform="translate(22.362 299.268)" fill="url(#linear-gradient-4)"/>
      <path id="Path_551" data-name="Path 551" d="M2.846-176.33a2.763,2.763,0,0,1-1.9-.7h0l-.007-.006L.8-177.17l-.014-.014.159-.16a2.756,2.756,0,0,0,1.9.7,4.936,4.936,0,0,0,2.4-.721L36.4-195.094l.2.2-.2.115L5.25-177.052a5.124,5.124,0,0,1-2.207.717q-.1,0-.2,0" transform="translate(21.605 246.966)" fill="url(#linear-gradient-5)"/>
      <path id="Path_552" data-name="Path 552" d="M1.108-31.972a4.307,4.307,0,0,1-.993-3.02v-.313a4.309,4.309,0,0,0,.993,3.02l.159.153-.159.16" transform="translate(21.287 101.754)" fill="url(#linear-gradient-6)"/>
      <path id="Path_553" data-name="Path 553" d="M.842-85.05l-.2-.2,10.7-6.09a4.005,4.005,0,0,0,2.249-2.787,2.665,2.665,0,0,1-.248,1.109,4.608,4.608,0,0,1-2,1.992L.842-85.05" transform="translate(57.363 137.122)" fill="url(#linear-gradient-7)"/>
      <path id="Path_554" data-name="Path 554" d="M13.583-85.606a4,4,0,0,0-2.249-2.789L.633-94.484l.2-.2h0l10.5,5.976a3.774,3.774,0,0,1,2.249,3.1" transform="translate(57.371 128.597)" fill="url(#linear-gradient-8)"/>
      <path id="Path_555" data-name="Path 555" d="M.115-31.423v-.328c0-.118,0-.234.009-.347V-32.1a.015.015,0,0,1,0,0v-.013a4.1,4.1,0,0,1,.983-2.637l.157.158a4.156,4.156,0,0,0-1.15,3.177" transform="translate(21.287 50.961)" fill="url(#linear-gradient-9)"/>
      <path id="Path_556" data-name="Path 556" d="M36.4-176.138,5.249-193.866a4.945,4.945,0,0,0-2.408-.723,2.76,2.76,0,0,0-1.895.7l-.157-.158q.073-.078.153-.15l.006-.005a2.758,2.758,0,0,1,1.877-.7H2.84a4.944,4.944,0,0,1,2.408.723L36.6-176.339h0l-.2.2" transform="translate(21.606 210.252)" fill="url(#linear-gradient-10)"/>
    </g>
  </g>
</svg>
