<svg id="ez6Bt7nHmhI1" xmlns="http://www.w3.org/2000/svg" xmlns:xlink="http://www.w3.org/1999/xlink" viewBox="0 0 630 572.7" shape-rendering="geometricPrecision" text-rendering="geometricPrecision"><g id="ez6Bt7nHmhI2" opacity="0.5"><path style="isolation:isolate" d="M469.3,87.7v354.1c0,48.5-22.9,87.8-51.1,87.8h-206.4c-11.5,0-22.7-6.7-31.8-19.1-3.902653-5.524785-7.188887-11.460125-9.8-17.7-6.2-14.9-9.5-32.7-9.5-51v-354.1c0-2.3.1-4.6.2-6.9.2-4.5.6-9,1.2-13.4C167.6,27.9,188.1,0,211.8,0h206.4c23.6,0,44.2,27.9,49.7,67.4.6,4.4,1,8.9,1.2,13.4.1,2.3.2,4.6.2,6.9Z" opacity="0.1" fill="#c33764"/><path style="isolation:isolate" d="M318.9,278.9h150.4v13.4h-150.4v92.4h150.4v13.3h-150.4v131.6h-7.8v-131.6h-150.4v-13.3h150.4v-92.4h-150.4v-13.4h150.4v-92.4h-150.4v-13.3h150.4v-92.4h-150.2c.2-4.5.6-9,1.2-13.4h149v-67.4h7.8v67.4h149c.6,4.4,1,8.9,1.2,13.4h-150.2v92.4h150.4v13.3h-150.4Z" opacity="0.1" fill="#c33764"/></g><ellipse id="ez6Bt7nHmhI5" style="isolation:isolate" rx="315" ry="66.800003" transform="translate(315 505.899994)" opacity="0" fill="#c33764"/><ellipse rx="21.1" ry="4.1" transform="translate(530.700012 477.899994)" fill="#c33764"/><ellipse rx="2.5" ry="3.2" transform="translate(530.299988 476.200012)" fill="#3f3d56"/><ellipse rx="2.5" ry="3.2" transform="translate(530.299988 472.200012)" fill="#3f3d56"/><ellipse rx="2.5" ry="3.2" transform="translate(530.299988 468.299988)" fill="#3f3d56"/><ellipse rx="2.5" ry="3.2" transform="translate(530.299988 464.399994)" fill="#3f3d56"/><ellipse rx="2.5" ry="3.2" transform="translate(530.299988 460.5)" fill="#3f3d56"/><ellipse rx="2.5" ry="3.2" transform="translate(530.299988 456.5)" fill="#3f3d56"/><ellipse rx="2.5" ry="3.2" transform="translate(530.299988 452.600006)" fill="#3f3d56"/><path d="M539.5,442.4l.9-1.4-6.4-1h6.9c1.41174-2.924416,1.484712-6.317596.2-9.3l-9.3,4.9l8.6-6.4c-3.486652-5.046307-10.258061-6.579928-15.57876-3.52835s-7.416282,9.670678-4.82124,15.22835l1,1.5c-.525751.638388-.963024,1.344751-1.3,2.1l8.3,4.4-8.9-3c-1.308047,3.748806-.589782,7.907183,1.9,11-4.004064,5.08102-3.13102,12.445936,1.95,16.45s12.445936,3.13102,16.45-1.95c3.393004-4.23786,3.393004-10.26214,0-14.5c3.393004-4.23786,3.393004-10.26214,0-14.5Z" fill="#c33764"/><path style="isolation:isolate" d="M518.5,449c.021439,2.609178.899845,5.138987,2.5,7.2-3.827675,4.832598-3.290234,11.797245,1.233545,15.985387s11.509131,4.188141,16.03291,0s5.06122-11.152789,1.233545-15.985387c1.6-2-21-8.6-21-7.2Z" opacity="0.1"/><rect width="502.100006" height="115.32" rx="0" ry="0" transform="translate(63 374.5)" fill="#46455b"/><path d="M125.9,331.9l41.6-45v103.2l-28.3,23.4-17.5-24.2Z" fill="#46455b"/><path d="M494.8,349.5L487.3,322l-14.1-18.3-28.3-5.8v114.9h57.4Z" fill="#46455b"/><path d="M116.5,260.7h388.8c7.140619.054929,12.900211,5.85917,12.9,13v118.6h-414.6v-118.6c-.000211-7.14083,5.759381-12.945071,12.9-13Z" fill="#46455b"/><path d="M76.7,408.8l28.3-35h403l42.5,35Z" fill="#46455b"/><path style="isolation:isolate" d="M76.7,408.8l28.3-35h403l42.5,35Z" opacity="0.05"/><rect width="57.5" height="199" rx="0" ry="0" transform="translate(92.199997 290.799988)" fill="#46455b"/><rect style="isolation:isolate" width="57.5" height="199" rx="0" ry="0" transform="translate(92.199997 290.799988)" opacity="0.05" fill="#fff"/><rect width="57.5" height="199" rx="0" ry="0" transform="translate(475.5 290.799988)" fill="#46455b"/><rect style="isolation:isolate" width="57.5" height="199" rx="0" ry="0" transform="translate(475.5 290.799988)" opacity="0.05" fill="#fff"/><ellipse rx="66.5" ry="88.5" transform="translate(274.5 224.5)" fill="#2f2e41"/><rect width="74" height="104" rx="0" ry="0" transform="translate(229 182)" fill="#2f2e41"/><rect style="isolation:isolate" width="74" height="104" rx="0" ry="0" transform="translate(229 182)" opacity="0.1"/><path d="M239.3,239.6c-4.749912,5.688172-12.034582,8.617059-19.4,7.8-.4,5.1,3.2,9.7,6.5,13.7l26,31.2c.320718.728586,1.154722,1.079745,1.9.8l.7-.6l39.7-37.7c-4,1.7-8.7-1-10.9-4.7s-2.3-8.2-2.5-12.5l-.9-19.3c.130717-1.438184-.299208-2.871268-1.2-4-.861588-.583197-1.862071-.928191-2.9-1-6.2-1.1-25.8-6.7-29.4-.1-1.7,3-.9,8.9-1.7,12.3-1.1,5-2.7,10-5.9,14.1Z" fill="#fbbebe"/><path style="isolation:isolate" d="M239.3,239.6c-4.749912,5.688172-12.034582,8.617059-19.4,7.8-.4,5.1,3.2,9.7,6.5,13.7l26,31.2c.320718.728586,1.154722,1.079745,1.9.8l.7-.6l39.7-37.7c-4,1.7-8.7-1-10.9-4.7s-2.3-8.2-2.5-12.5l-.9-19.3c.130717-1.438184-.299208-2.871268-1.2-4-.861588-.583197-1.862071-.928191-2.9-1-6.2-1.1-25.8-6.7-29.4-.1-1.7,3-.9,8.9-1.7,12.3-1.1,5-2.7,10-5.9,14.1Z" opacity="0.1"/><ellipse rx="39" ry="39.5" transform="translate(265 202.5)" fill="#fbbebe"/><path d="M263.7,262l-6.3-19.8c-2.5-7.9-6-16.9-13.9-19.5-5-1.6-10.4-.1-15.6-.6-10.2-.8-20-8.9-29.5-5.2-11.6,4.5-11.5,22.4-21.9,29.5c0,16.7,5.4,32.2,8.3,48.7s3.8,34.2-3.8,49.1c-3.3,6.3-7.9,11.8-11.3,18-5.692939,10.222034-8.003336,21.984055-6.6,33.6q66.3.8,132.6.4c-.4-5.8-3-11.4-3.4-17.1-.270274-1.740955-.133358-3.520863.4-5.2c1-2.5,3.4-4,5.6-5.6c2.822348-2.224531,5.226466-4.933397,7.1-8c2.9-4.9,4.3-10.5,5.7-16.1l16.5-67.5c2-8,3.9-16.8.5-24.3s-12.8-12.5-21.1-16.2c-5-2.2-10.8-4.4-15.9-2.4s-6.7,5.7-9.4,9.3c-5.073431,7.121664-11.134141,13.48541-18,18.9Z" fill="#f86d70"/><path style="isolation:isolate" d="M189.4,255c-1.3,4.9-.6,10-1.6,15-1.6,8.2-7.6,14.8-11.6,22.2-6.315762,11.406865-7.895991,24.838811-4.4,37.4c1,3.6,2.8,7.6,6.3,8.9s5.4.4,8.2.6s7.3,2.1,10.6.7s4.9-7.1,5.4-11.5c.984395-10.294377,3.200227-20.433487,6.6-30.2c3.3-9.8,7.9-19.6,7.8-29.9c0-7.3-9.4-.6-15.5-4.9s-9.6-16.7-11.8-8.3Z" opacity="0.1"/><path d="M188.2,254.7c-1.3,4.9-.6,10.1-1.6,15-1.6,8.3-7.6,14.8-11.6,22.2-6.315762,11.406865-7.895991,24.838811-4.4,37.4c1,3.7,2.8,7.6,6.3,8.9s5.4.4,8.2.7s7.3,2.1,10.6.6s4.9-7.1,5.4-11.5c.994789-10.292748,3.210353-20.430632,6.6-30.2c3.3-9.8,7.9-19.5,7.8-29.9c0-7.3-3.2-15.3-9.3-19.6s-15.8-2-18,6.4Z" fill="#f86d70"/><g id="ez6Bt7nHmhI35"><g transform="matrix(.985625 0.168946-.168946 0.985625 48.307433-37.691749)"><path d="M230.7,214.6c5-2.8,9.9-5.8,15-8.4c8.1-4,17.1-7.1,23.4-13.3c1.079511-1.015045,2.77537-.970417,3.8.1.2904.270002.498422.616705.6,1c2.691986,8.878526,5.897384,17.5932,9.6,26.1c3.2,7.3,6.8,14.5,9.2,22.2c1.7,5.3,2.7,10.8,4.8,15.9c2.7,6.7,7,12.6,11.3,18.4c1.449261,2.232458,3.276617,4.195173,5.4,5.8c3.1,2.1,7.7,3.5,8,7.2-4,2.9-9.5,2-14.4,1.9-5.036688.135823-10.038981.874416-14.9,2.2-5.73448,1.322872-11.327282,3.198303-16.7,5.6-5.155622,2.580279-10.103741,5.555837-14.8,8.9l-44.2,29.7c-3.3-3.8-3.2-9.2-3.9-14.1-.573088-3.556896-1.408705-7.066487-2.5-10.5L206,298.4c-2.1-7-4.2-14.1-6.6-21.1s-4.1-11.7-7.9-16.5-11.2-9.6-16.9-14.3c-2.1-1.6-4.1-3.5-4.8-6.1-.554351-1.639713-.333603-3.442486.6-4.9c1.2-1.7,3-1.5,4.9-1.8c4.7-.7,9.4-1.7,14-2.8c9.191033-2.324561,18.185344-5.367246,26.9-9.1c4.9-2.2,9.8-4.5,14.5-7.2Z" fill="#bbbdc8"/><g transform="translate(0 0.000001)"><path style="isolation:isolate" d="M231.6,220.7c4.4-2.4,8.7-5.1,13.2-7.4c7-3.5,14.9-6.2,20.4-11.6.968715-.801028,2.381565-.758215,3.3.1.203821.277799.371812.580183.5.9c2.380724,7.747969,5.184942,15.359418,8.4,22.8c2.8,6.4,5.9,12.7,8,19.3c1.4,4.6,2.3,9.4,4.2,13.9s6.1,11,9.8,16.1c1.299312,1.899177,2.884745,3.585809,4.7,5c2.7,1.9,6.8,3.1,7.1,6.3-3.6,2.5-8.3,1.7-12.6,1.7-4.3965.077918-8.765099.716405-13,1.9-4.99208,1.119302-9.852267,2.76171-14.5,4.9-4.531904,2.215577-8.879129,4.790471-13,7.7l-38.6,25.9c-2.8-3.2-2.7-8-3.3-12.3-.50644-3.093231-1.275898-6.137607-2.3-9.1l-3.8-13c-1.8-6.2-3.7-12.3-5.7-18.4s-3.6-10.2-6.9-14.4-9.8-8.4-14.8-12.5c-1.8-1.5-3.5-3.1-4.2-5.3-.410391-1.454153-.192776-3.013731.6-4.3c1.1-1.6,2.6-1.3,4.3-1.6c4.1-.7,8.2-1.5,12.2-2.5c8.008594-1.969531,15.836441-4.612266,23.4-7.9c4.3-1.9,8.5-4,12.6-6.2Z" opacity="0.1"/><circle r="3.3" transform="translate(218.5 252.300003)" fill="#bbbdc8"/><circle r="3.3" transform="translate(244.699997 238.100006)" fill="#bbbdc8"/><circle r="3.3" transform="translate(230.899994 283.600006)" fill="#bbbdc8"/><circle r="3.3" transform="translate(257.100006 269.399994)" fill="#bbbdc8"/></g></g><g><path d="M192.9,300.9c3.3-1,6.8-2,9.3-4.5s2.9-4.5,4.3-6.8c2.6-4.7,6.8-8.9,12.1-9.9s11.5,2,12.7,7.3c.7,3.4-.7,6.9-2.2,10.1-2.1,4.9-4.5,9.9-8.9,12.8s-8.8,3.1-12.5,5.7-5.5,6.1-8.4,8.9c-3.752015,3.781806-8.77968,6.02821-14.1,6.3-.77971.102698-1.57272-.000738-2.3-.3-.784437-.381786-1.418214-1.015563-1.8-1.8-2.5-3.3-5-6.7-6.3-10.7-4.5-13.7,8.3-14.3,18.1-17.1Z" fill="#fbbebe"/><path d="M261.4,302c-1.1-6.7-1.2-14-5.4-19.4s-9.2-6.8-14.9-7.2c-1.7-.1-3.6.1-4.6,1.4-.592383.954394-.806403,2.095833-.6,3.2.318795,8.522682,3.487911,16.691958,9,23.2c2.1,2.5,4.5,4.7,5.9,7.5s1.8,5.3,3,7.8s4.1,5.8,6.1,8.8c2.890053,4.276273,4.391569,9.339522,4.3,14.5c2.2-3.6,1.9-8,2.1-12.2.3-6,4.4-9.2,1.7-14s-5.6-7.7-6.6-13.6Z" transform="translate(-.423456 0)" fill="#fbbebe"/></g></g><path style="isolation:isolate" d="M286.6,292.5c-2.1,5.5-3.2,11.4-5.7,16.7-.648356,1.674258-1.757883,3.130513-3.2,4.2-2.7,1.6-6.2.6-8.9-1s-5-4-7.8-5.1c-1.3,12.7-11.9,23.8-24.4,25.8c7.5,6.9,15.4,14.6,17.1,24.6.3,1.8.4,3.8,1.4,5.4s4.9,3.4,7.9,3.3c7.6,0,14.6-4.1,21-8.3c2.234512-1.28439,4.175999-3.021509,5.7-5.1c1.306932-2.289188,2.187854-4.796428,2.6-7.4q5.6-26.2,11-52.5c1-4.8.9-14.1-6.5-13.2-5,.8-8.7,8.6-10.2,12.6Z" opacity="0.1"/><path d="M287.8,292.5c-2.1,5.5-3.2,11.4-5.7,16.7-.683606,1.654268-1.786512,3.101833-3.2,4.2-2.7,1.6-6.2.6-8.9-1s-5-4-7.8-5.1c-1.3,12.7-11.9,23.8-24.4,25.8c7.5,6.9,15.4,14.6,17.1,24.6.3,1.8.4,3.8,1.4,5.4s4.9,3.4,7.9,3.3c7.6,0,14.6-4.1,21-8.3c2.213408-1.31338,4.149525-3.045695,5.7-5.1c1.306932-2.289188,2.187854-4.796428,2.6-7.4q5.5-26.2,11-52.5c1-4.8.9-14.1-6.5-13.2-5,.8-8.7,8.6-10.2,12.6Z" fill="#f86d70"/><path d="M196.6,326.8c-.3,1.6-1.8,2.5-3.2,3.2s-5.5,2.9-8.5,2.5-5.5-2.6-7.4-4.9c-.978454-1.09243-1.818152-2.301594-2.5-3.6-3-6-3.3-31.2,9.1-23c5.1,3.4,2.2,9.2,2.9,14.3.21289,2.970388,1.409196,5.785226,3.4,8c.4.5,6,4.5,6.2,3.5Z" fill="#f86d70"/><ellipse rx="37" ry="17.5" transform="translate(272 178.5)" fill="#2f2e41"/><path style="isolation:isolate" d="M274.1,189.3c-20.1,0-36.4-7.5-37.1-16.9-1.021485,1.580887-1.576075,3.417963-1.6,5.3c0,9.6,16.6,17.5,37,17.5s37.1-7.9,37.1-17.5v-.6c-4.8,7.1-18.9,12.2-35.4,12.2Z" opacity="0.1"/><ellipse rx="91.5" ry="83" transform="matrix(.999391-.034899 0.034899 0.999391 384.5 226)" fill="#2f2e41"/><path style="isolation:isolate" d="M384.1,280.8c-46.4,0-84.7-31.4-90.8-72.1-.515016,3.744961-.782264,7.519834-.8,11.3c0,46,41,83.3,91.6,83.3s91.6-37.3,91.6-83.3c-.001308-3.784516-.302248-7.562988-.9-11.3-6,40.7-44.3,72.1-90.7,72.1Z" opacity="0.1"/><ellipse rx="44" ry="60" transform="translate(387 228)" fill="#2f2e41"/><ellipse style="isolation:isolate" rx="44" ry="60" transform="translate(387 228)" opacity="0.1"/><path d="M363.3,252.8c-1.7,4.1-5,8.5-10,8.8c6.6,5.5,13.4,11,21.3,15s17.4,6.3,26.5,4.9c6.4-1,12.2-3.8,17.6-6.9c9.2-5.2,18.3-12.1,20.7-21.4-6.968013.31675-13.94921.183138-20.9-.4-3.5-.3-7.2-.8-10.3-2.3-3.884652-2.047417-6.771739-5.5841-8-9.8-1.2-3.9-1.2-8.1-1-12.1.1-2.4.2-5-1.6-6.8s-4.8-2.1-7.6-2.2c-5.483777-.068638-10.965189.265594-16.4,1-2.874957.281738-5.719369.817156-8.5,1.6-3.6,1.1-3.3.6-2.4,3.7c2.7,9.2,4.3,17.5.6,26.9Z" fill="#a0616a"/><path style="isolation:isolate" d="M363.3,252.8c-1.7,4.1-5,8.5-10,8.8c6.6,5.5,13.4,11,21.3,15s17.4,6.3,26.5,4.9c6.4-1,12.2-3.8,17.6-6.9c9.2-5.2,18.3-12.1,20.7-21.4-6.968013.31675-13.94921.183138-20.9-.4-3.5-.3-7.2-.8-10.3-2.3-3.884652-2.047417-6.771739-5.5841-8-9.8-1.2-3.9-1.2-8.1-1-12.1.1-2.4.2-5-1.6-6.8s-4.8-2.1-7.6-2.2c-5.483777-.068638-10.965189.265594-16.4,1-2.874957.281738-5.719369.817156-8.5,1.6-3.6,1.1-3.3.6-2.4,3.7c2.7,9.2,4.3,17.5.6,26.9Z" opacity="0.1"/><circle r="39.099998" transform="matrix(.999596-.02842 0.02842 0.999596 386.600006 212.300003)" fill="#a0616a"/><path d="M367.3,243.4c-2.5-3-5.1-6.2-8.6-8.2-5.5-3.5-12.4-3.7-19-3.8s-14.8,0-20.4,4.3c-2.407629,2.121866-4.49589,4.580624-6.2,7.3l-23.7,34.1c-1.13957,1.216097-1.750849,2.834189-1.7,4.5.260921,1.144797.852001,2.18788,1.7,3l26.1,32.6c1.5,1.9,3,3.8,3.5,6.2.307227,2.371904-.002765,4.782955-.9,7-3.2,9-9.2,17.5-8.6,27c.4,6.2,3.6,11.8,7.6,16.6c9,11,22.1,18.1,35.8,22s28,4.7,42.2,4.8c26.8.1,54.9-2.8,77.1-17.9l-17.4-16.4c-3.5-3.2-7.1-6.7-8.3-11.3-.8-3.1-.4-6.3,0-9.5.7-5.8,1.4-11.6,3.2-17.1c5.2-15.3,18.6-26.2,27.4-39.7c1.332314-1.564254,2.075247-3.545411,2.1-5.6-.200602-1.696432-.896184-3.29627-2-4.6-4-6.3-8.2-12.6-11.2-19.5-2.2-5.1-3.7-10.6-6.4-15.5s-7-9.2-12.5-10.2-13.8,3-20.9,3.3c-5.3.3-10.7-1.7-15.6.2s-8.3,8.7-11.5,14-9.5,14.7-15.1,12c-3.1-1.4-5.9-6.6-8-9.2Z" transform="matrix(.999391-.034899 0.034899 0.999391-10.79783 13.574715)" fill="#f98a8d"/><path d="M403.1,276.9c-1.331755-.76273-2.884996-1.045138-4.4-.8-1.493532.310614-2.597356,1.577968-2.7,3.1h-2.4c-.291823-.099057-.608177-.099057-.9,0-.696636.194888-1.130087.88841-1,1.6.07094.349675.282483.654822.585047.843925s.669552.245537,1.014953.156075c-1.187868.486816-2.248353,1.239418-3.1,2.2-.638857.936838-.871761,2.092192-.645757,3.203374s.891708,2.083768,1.845757,2.696626c2.006094,1.230468,4.621478.707391,6-1.2-.295968,1.04401.213516,2.147891,1.2,2.6c4.5,2.4,6.8-.9,7.4-4.7s1.6-7.5-2.9-9.7Z" fill="#ffe9b3"/><path style="isolation:isolate" d="M403.1,276.9c-1.331755-.76273-2.884996-1.045138-4.4-.8-1.493532.310614-2.597356,1.577968-2.7,3.1h-2.4c-.291823-.099057-.608177-.099057-.9,0-.696636.194888-1.130087.88841-1,1.6.07094.349675.282483.654822.585047.843925s.669552.245537,1.014953.156075c-1.187868.486816-2.248353,1.239418-3.1,2.2-.638857.936838-.871761,2.092192-.645757,3.203374s.891708,2.083768,1.845757,2.696626c2.006094,1.230468,4.621478.707391,6-1.2-.295968,1.04401.213516,2.147891,1.2,2.6c4.5,2.4,6.8-.9,7.4-4.7s1.6-7.5-2.9-9.7Z" opacity="0.15"/><path d="M412.1,274.4c-1.343872-.728428-2.896424-.975425-4.4-.7-1.532509.242145-2.670527,1.548759-2.7,3.1l-2.4-.2h-.8c-.696636.194888-1.130087.88841-1,1.6.234774.656599.916956,1.040326,1.6.9-1.182868.49586-2.241467,1.247123-3.1,2.2-1.283717,1.996309-.752781,4.650991,1.2,6c2.045842,1.113172,4.598372.560124,6-1.3-.295968,1.04401.213516,2.147891,1.2,2.6c4.5,2.4,6.8-.8,7.4-4.7s1.6-7.2-3-9.5Z" fill="#ffe9b3"/><path d="M419.5,275.7c-1.334521-.755123-2.885085-1.037044-4.4-.8-1.493532.310614-2.597356,1.577968-2.7,3.1h-3.3c-.629434.266063-.99948.923923-.9,1.6.15014.68219.81254,1.12379,1.5,1-1.152478.452014-2.180816,1.171851-3,2.1-1.30417,1.970861-.818502,4.619962,1.1,6c2.052693,1.148685,4.635367.640618,6.1-1.2-.285316,1.016504.228427,2.086803,1.2,2.5c4.5,2.5,6.8-.8,7.4-4.7s1.5-7.4-3-9.6Z" fill="#ffe9b3"/><path style="isolation:isolate" d="M419.5,275.7c-1.334521-.755123-2.885085-1.037044-4.4-.8-1.493532.310614-2.597356,1.577968-2.7,3.1h-3.3c-.629434.266063-.99948.923923-.9,1.6.15014.68219.81254,1.12379,1.5,1-1.152478.452014-2.180816,1.171851-3,2.1-1.30417,1.970861-.818502,4.619962,1.1,6c2.052693,1.148685,4.635367.640618,6.1-1.2-.285316,1.016504.228427,2.086803,1.2,2.5c4.5,2.5,6.8-.8,7.4-4.7s1.5-7.4-3-9.6Z" opacity="0.15"/><path d="M443.5,274.8v89.4c-.046059,1.157549-.945844,2.10018-2.1,2.2h-69.9c-1.154156-.09982-2.053941-1.042451-2.1-2.2v-89.4c-.001217-1.177022.924194-2.1465,2.1-2.2l.9.2l5.3,2.1q3.8,1.4,7.5,2.4c2.5.7,5,1.2,7.5,1.7s5,.7,7.5.9s5,.3,7.5.3s5-.2,7.5-.5s5-.7,7.5-1.2s5-1.2,7.5-1.9l5.8-2c1.5-.5,3-1.2,4.5-1.8.516267-.233097,1.104806-.247746,1.63203-.040622s.948415.618452,1.16797,1.140622c.114233.287416.181752.591254.2.9Z" fill="#bbbdc8"/><path d="M394.6,277.1v89.1h-7.5v-91.4c2.456091.903148,4.959848,1.670967,7.5,2.3Z" fill="#fff"/><path d="M405.7,279.5v86.4h-7.5v-87.4c2.478166.480492,4.982514.814405,7.5,1Z" fill="#fff"/><path d="M416.8,279.2v86.7h-7.5v-86.2c2.507723-.017245,5.01218-.184209,7.5-.5Z" fill="#fff"/><path d="M427.8,276.3v89.8h-7.5v-87.9c2.533706-.491945,5.037676-1.126284,7.5-1.9Z" fill="#fff"/><path style="isolation:isolate" d="M437.7,274.8v89.4c-.094341,1.173732-1.026268,2.105659-2.2,2.2h-5.3v-91.8l4.4-1.8c1.104689-.492999,2.400164-.001612,2.9,1.1.114233.287416.181752.591254.2.9Z" opacity="0.1"/><path d="M397.4,273.2c-1.351185-.707912-2.886106-.986988-4.4-.8-1.493532.310614-2.597356,1.577968-2.7,3.1h-3.3c-.689647.194202-1.092161.909781-.9,1.6.15014.68219.81254,1.12379,1.5,1-1.157142.490648-2.184229,1.243845-3,2.2-1.29337,1.939678-.805449,4.556712,1.1,5.9c2.045265,1.193985,4.6594.679729,6.1-1.2-.270911,1.016231.182008,2.086766,1.1,2.6c4.6,2.4,6.8-.9,7.5-4.7s1.5-7.5-3-9.7Z" fill="#ffe9b3"/><path d="M406.5,261c-1.313439-.712508-2.818194-.992462-4.3-.8-1.515271.302029-2.653227,1.561909-2.8,3.1h-3.2c-.71797.165685-1.165685.88203-1,1.6s.88203,1.165685,1.6,1c-1.187868.486816-2.248353,1.239418-3.1,2.2-1.273273,1.96533-.739813,4.588179,1.2,5.9c2.045265,1.193985,4.6594.679729,6.1-1.2-.270911,1.016231.182008,2.086766,1.1,2.6c4.5,2.4,6.8-.9,7.4-4.7s1.6-7.5-3-9.7Z" fill="#ffe9b3"/><path d="M413.2,279.4c1.016781-1.125014,1.586006-2.583655,1.6-4.1.009625-1.53905-1.015812-2.892627-2.5-3.3l.6-2.3c.081945-.292587.11572-.596561.1-.9.00117-.336368-.13889-.657785-.386057-.885939s-.578743-.342094-.913943-.314061c-.344781,0-.675442.136964-.919239.380761s-.380761.574458-.380761.919239c-.249289-1.228139-.76096-2.387927-1.5-3.4-.807162-.812198-1.904935-1.268911-3.05-1.268911s-2.242838.456713-3.05,1.268911c-1.513738,1.789481-1.513738,4.410519,0,6.2-.92891-.461489-2.053971-.211475-2.7.6-3.3,4-.5,6.9,3.1,8.2s6.9,3,10-1.1Z" fill="#ffe9b3"/><path d="M421.2,279.4c.936807-1.172768,1.494826-2.602692,1.6-4.1.009625-1.53905-1.015812-2.892627-2.5-3.3l.6-2.3c.081945-.292587.11572-.596561.1-.9.001075-.362828-.149529-.709596-.415408-.956484s-.622838-.371428-.984592-.343516c-.345172.025525-.665915.187642-.891163.450431s-.336404.604554-.308837.949569v0c-.285277-1.234289-.830767-2.393455-1.6-3.4-.789974-.806263-1.871231-1.260612-3-1.260612s-2.210026.454349-3,1.260612c-1.601961,1.75623-1.601961,4.44377,0,6.2-.959198-.476259-2.120174-.227478-2.8.6-3.3,4-.4,6.9,3.2,8.2s6.9,3,10-1.1Z" fill="#ffe9b3"/><path d="M426.3,285.4c.798201-1.281621,1.083865-2.817065.8-4.3-.191161-1.536078-1.454402-2.715104-3-2.8v-2.4c.099057-.291823.099057-.608177,0-.9-.065988-.347759-.282143-.648644-.590649-.822179s-.67789-.202014-1.009351-.077821c-.340992.03806-.644695.233052-.821223.527266s-.205661.653948-.078777.972734c-.486816-1.187868-1.239418-2.248353-2.2-3.1-1.939678-1.29337-4.556712-.805449-5.9,1.1-1.171293,2.029279-.706338,4.607671,1.1,6.1-1.016231-.270911-2.086766.182008-2.6,1.1-2.5,4.5.9,6.8,4.7,7.5s7.3,1.6,9.6-2.9Z" fill="#ffe9b3"/><path d="M401.8,273.9c.807718-1.277906,1.094081-2.817108.8-4.3-.191161-1.536078-1.454402-2.715104-3-2.8v-2.4c.100407-.257215.100407-.542785,0-.8-.049138-.346651-.236025-.658827-.51836-.865873s-.636249-.291456-.98164-.234127c-.349675.07094-.654822.282483-.843925.585047s-.245537.669552-.156075,1.014953v0c-.482591-1.16502-1.19707-2.219726-2.1-3.1-1.939678-1.29337-4.556712-.805449-5.9,1.1-1.216047,2.02127-.745475,4.630808,1.1,6.1-.990532-.299351-2.051494.167472-2.5,1.1-2.5,4.5.8,6.9,4.6,7.5s7.2,1.6,9.5-2.9Z" fill="#ffe9b3"/><path d="M403.7,268.3c-1.31607-.804763-2.884882-1.090001-4.4-.8-1.493532.310614-2.597356,1.577968-2.7,3.1h-2.4c-.291823-.099057-.608177-.099057-.9,0-.71797.165685-1.165685.88203-1,1.6s.88203,1.165685,1.6,1v0c-1.187868.486816-2.248353,1.239418-3.1,2.2-.638857.936838-.871761,2.092192-.645757,3.203374s.891708,2.083768,1.845757,2.696626c2.006094,1.230468,4.621478.707391,6-1.2-.254087,1.040348.243474,2.118397,1.2,2.6c4.5,2.4,6.8-.9,7.4-4.7s1.6-7.5-2.9-9.7Z" fill="#ffe9b3"/><path style="isolation:isolate" d="M403.7,268.3c-1.31607-.804763-2.884882-1.090001-4.4-.8-1.493532.310614-2.597356,1.577968-2.7,3.1h-2.4c-.291823-.099057-.608177-.099057-.9,0-.71797.165685-1.165685.88203-1,1.6s.88203,1.165685,1.6,1v0c-1.187868.486816-2.248353,1.239418-3.1,2.2-.638857.936838-.871761,2.092192-.645757,3.203374s.891708,2.083768,1.845757,2.696626c2.006094,1.230468,4.621478.707391,6-1.2-.254087,1.040348.243474,2.118397,1.2,2.6c4.5,2.4,6.8-.9,7.4-4.7s1.6-7.5-2.9-9.7Z" opacity="0.15"/><path d="M430,270.7c-1.310134-.721031-2.828819-.968259-4.3-.7-1.572096.197623-2.762858,1.515967-2.8,3.1l-2.4-.2h-.8c-.696636.194888-1.130087.88841-1,1.6.234774.656599.916956,1.040326,1.6.9-1.182868.49586-2.241467,1.247123-3.1,2.2-1.283717,1.996309-.752781,4.650991,1.2,6c2.045842,1.113172,4.598372.560124,6-1.3-.295968,1.04401.213516,2.147891,1.2,2.6c4.5,2.4,6.8-.9,7.4-4.7s1.6-7.2-3-9.5Z" fill="#ffe9b3"/><path style="isolation:isolate" d="M430,270.7c-1.310134-.721031-2.828819-.968259-4.3-.7-1.572096.197623-2.762858,1.515967-2.8,3.1l-2.4-.2h-.8c-.696636.194888-1.130087.88841-1,1.6.234774.656599.916956,1.040326,1.6.9-1.182868.49586-2.241467,1.247123-3.1,2.2-1.283717,1.996309-.752781,4.650991,1.2,6c2.045842,1.113172,4.598372.560124,6-1.3-.295968,1.04401.213516,2.147891,1.2,2.6c4.5,2.4,6.8-.9,7.4-4.7s1.6-7.2-3-9.5Z" opacity="0.15"/><path d="M414.1,258.5c-1.343872-.728428-2.896424-.975425-4.4-.7-1.532509.242145-2.670527,1.548759-2.7,3.1l-2.4-.2h-.9c-.629434.266063-.99948.923923-.9,1.6.234774.656599.916956,1.040326,1.6.9-1.182868.49586-2.241467,1.247123-3.1,2.2-1.283717,1.996309-.752781,4.650991,1.2,6c2.045842,1.113172,4.598372.560124,6-1.3-.295968,1.04401.213516,2.147891,1.2,2.6c4.5,2.4,6.8-.9,7.4-4.7s1.5-7.2-3-9.5Z" fill="#ffe9b3"/><path style="isolation:isolate" d="M414.1,258.5c-1.343872-.728428-2.896424-.975425-4.4-.7-1.532509.242145-2.670527,1.548759-2.7,3.1l-2.4-.2h-.9c-.629434.266063-.99948.923923-.9,1.6.234774.656599.916956,1.040326,1.6.9-1.182868.49586-2.241467,1.247123-3.1,2.2-1.283717,1.996309-.752781,4.650991,1.2,6c2.045842,1.113172,4.598372.560124,6-1.3-.295968,1.04401.213516,2.147891,1.2,2.6c4.5,2.4,6.8-.9,7.4-4.7s1.5-7.2-3-9.5Z" opacity="0.15"/><path d="M401.8,254.2c-1.307367-.729014-2.828911-.976707-4.3-.7-1.551813.23592-2.722701,1.532261-2.8,3.1l-2.4-.2h-.8c-.323747.07026-.604045.271233-.774489.555306s-.215868.625971-.125511.944694c.045761.342086.236597.647907.523765.839353s.642863.249978.976235.160647c-1.151862.499891-2.177001,1.251659-3,2.2-1.29337,1.939678-.805449,4.556712,1.1,5.9c2.045265,1.193985,4.6594.679729,6.1-1.2-.311061,1.018678.152292,2.113878,1.1,2.6c4.5,2.4,6.8-.9,7.5-4.7s1.5-7.2-3.1-9.5Z" fill="#ffe9b3"/><path style="isolation:isolate" d="M401.8,254.2c-1.307367-.729014-2.828911-.976707-4.3-.7-1.551813.23592-2.722701,1.532261-2.8,3.1l-2.4-.2h-.8c-.323747.07026-.604045.271233-.774489.555306s-.215868.625971-.125511.944694c.045761.342086.236597.647907.523765.839353s.642863.249978.976235.160647c-1.151862.499891-2.177001,1.251659-3,2.2-1.29337,1.939678-.805449,4.556712,1.1,5.9c2.045265,1.193985,4.6594.679729,6.1-1.2-.311061,1.018678.152292,2.113878,1.1,2.6c4.5,2.4,6.8-.9,7.5-4.7s1.5-7.2-3.1-9.5Z" opacity="0.15"/><path d="M415.3,251.4c-1.277906-.807718-2.817108-1.094081-4.3-.8-1.551813.23592-2.722701,1.532261-2.8,3.1l-2.4-.2h-.8c-.71797.165685-1.165685.88203-1,1.6s.88203,1.165685,1.6,1c-1.183164.448279-2.244861,1.167493-3.1,2.1-1.283717,1.996309-.752781,4.650991,1.2,6c2.022177,1.134908,4.569878.625367,6-1.2-.285316,1.016504.228427,2.086803,1.2,2.5c4.5,2.5,6.8-.9,7.4-4.7s1.6-7.2-3-9.4Z" fill="#ffe9b3"/><path style="isolation:isolate" d="M415.3,251.4c-1.277906-.807718-2.817108-1.094081-4.3-.8-1.551813.23592-2.722701,1.532261-2.8,3.1l-2.4-.2h-.8c-.71797.165685-1.165685.88203-1,1.6s.88203,1.165685,1.6,1c-1.183164.448279-2.244861,1.167493-3.1,2.1-1.283717,1.996309-.752781,4.650991,1.2,6c2.022177,1.134908,4.569878.625367,6-1.2-.285316,1.016504.228427,2.086803,1.2,2.5c4.5,2.5,6.8-.9,7.4-4.7s1.6-7.2-3-9.4Z" opacity="0.15"/><path d="M420.2,255.7c-1.277906-.807718-2.817108-1.094081-4.3-.8-1.532923.270541-2.686342,1.547542-2.8,3.1h-3.2c-.71797.165685-1.165685.88203-1,1.6s.88203,1.165685,1.6,1c-1.183164.448279-2.244861,1.167493-3.1,2.1-.643677.952624-.87906,2.123342-.653585,3.250717s.893028,2.117506,1.853585,2.749283c2.022177,1.134908,4.569878.625367,6-1.2-.285316,1.016504.228427,2.086803,1.2,2.5c4.5,2.5,6.8-.8,7.4-4.7s1.6-7.4-3-9.6Z" fill="#ffe9b3"/><path style="isolation:isolate" d="M420.2,255.7c-1.277906-.807718-2.817108-1.094081-4.3-.8-1.532923.270541-2.686342,1.547542-2.8,3.1h-3.2c-.71797.165685-1.165685.88203-1,1.6s.88203,1.165685,1.6,1c-1.183164.448279-2.244861,1.167493-3.1,2.1-.643677.952624-.87906,2.123342-.653585,3.250717s.893028,2.117506,1.853585,2.749283c2.022177,1.134908,4.569878.625367,6-1.2-.285316,1.016504.228427,2.086803,1.2,2.5c4.5,2.5,6.8-.8,7.4-4.7s1.6-7.4-3-9.6Z" opacity="0.15"/><path d="M390.2,270.7c-1.307367-.729014-2.828911-.976707-4.3-.7-1.551813.23592-2.722701,1.532261-2.8,3.1l-2.4-.2h-.8c-.696636.194888-1.130087.88841-1,1.6.234774.656599.916956,1.040326,1.6.9-1.168318.521699-2.221879,1.269387-3.1,2.2-1.283717,1.996309-.752781,4.650991,1.2,6c2.045842,1.113172,4.598372.560124,6-1.3-.295968,1.04401.213516,2.147891,1.2,2.6c4.5,2.4,6.8-.9,7.4-4.7s1.6-7.2-3-9.5Z" fill="#ffe9b3"/><path style="isolation:isolate" d="M390.2,270.7c-1.307367-.729014-2.828911-.976707-4.3-.7-1.551813.23592-2.722701,1.532261-2.8,3.1l-2.4-.2h-.8c-.696636.194888-1.130087.88841-1,1.6.234774.656599.916956,1.040326,1.6.9-1.168318.521699-2.221879,1.269387-3.1,2.2-1.283717,1.996309-.752781,4.650991,1.2,6c2.045842,1.113172,4.598372.560124,6-1.3-.295968,1.04401.213516,2.147891,1.2,2.6c4.5,2.4,6.8-.9,7.4-4.7s1.6-7.2-3-9.5Z" opacity="0.15"/><path d="M425.7,260.7c-1.294909-.763362-2.817195-1.046578-4.3-.8-1.532923.270541-2.686342,1.547542-2.8,3.1h-3.2c-.71797.165685-1.165685.88203-1,1.6s.88203,1.165685,1.6,1c-1.187868.486816-2.248353,1.239418-3.1,2.2-.638857.936838-.871761,2.092192-.645757,3.203374s.891708,2.083768,1.845757,2.696626c2.006094,1.230468,4.621478.707391,6-1.2-.285316,1.016504.228427,2.086803,1.2,2.5c4.5,2.5,6.8-.8,7.4-4.7s1.6-7.4-3-9.6Z" fill="#ffe9b3"/><path style="isolation:isolate" d="M425.7,260.7c-1.294909-.763362-2.817195-1.046578-4.3-.8-1.532923.270541-2.686342,1.547542-2.8,3.1h-3.2c-.71797.165685-1.165685.88203-1,1.6s.88203,1.165685,1.6,1c-1.187868.486816-2.248353,1.239418-3.1,2.2-.638857.936838-.871761,2.092192-.645757,3.203374s.891708,2.083768,1.845757,2.696626c2.006094,1.230468,4.621478.707391,6-1.2-.285316,1.016504.228427,2.086803,1.2,2.5c4.5,2.5,6.8-.8,7.4-4.7s1.6-7.4-3-9.6Z" opacity="0.15"/><path d="M437.3,267.9c-1.277906-.807718-2.817108-1.094081-4.3-.8-1.515271.302029-2.653227,1.561909-2.8,3.1h-2.4c-.257215-.100407-.542785-.100407-.8,0-.71797.165685-1.165685.88203-1,1.6s.88203,1.165685,1.6,1c-1.183164.448279-2.244861,1.167493-3.1,2.1-1.283717,1.996309-.752781,4.650991,1.2,6c2.052693,1.148685,4.635367.640618,6.1-1.2-.299351.990532.167472,2.051494,1.1,2.5c4.5,2.5,6.8-.8,7.5-4.7s1.5-7.4-3.1-9.6Z" fill="#ffe9b3"/><path style="isolation:isolate" d="M437.3,267.9c-1.277906-.807718-2.817108-1.094081-4.3-.8-1.515271.302029-2.653227,1.561909-2.8,3.1h-2.4c-.257215-.100407-.542785-.100407-.8,0-.71797.165685-1.165685.88203-1,1.6s.88203,1.165685,1.6,1c-1.183164.448279-2.244861,1.167493-3.1,2.1-1.283717,1.996309-.752781,4.650991,1.2,6c2.052693,1.148685,4.635367.640618,6.1-1.2-.299351.990532.167472,2.051494,1.1,2.5c4.5,2.5,6.8-.8,7.5-4.7s1.5-7.4-3.1-9.6Z" opacity="0.15"/><path d="M427.5,252.1c-1.294909-.763362-2.817195-1.046578-4.3-.8-1.515271.302029-2.653227,1.561909-2.8,3.1h-2.4c-.257215-.100407-.542785-.100407-.8,0-.689647.194202-1.092161.909781-.9,1.6.15014.68219.81254,1.12379,1.5,1-1.173215.461942-2.206777,1.219888-3,2.2-1.29337,1.939678-.805449,4.556712,1.1,5.9c2.052693,1.148685,4.635367.640618,6.1-1.2-.299351.990532.167472,2.051494,1.1,2.5c4.5,2.5,6.8-.8,7.5-4.7s1.5-7.4-3.1-9.6Z" fill="#ffe9b3"/><path style="isolation:isolate" d="M427.5,252.1c-1.294909-.763362-2.817195-1.046578-4.3-.8-1.515271.302029-2.653227,1.561909-2.8,3.1h-2.4c-.257215-.100407-.542785-.100407-.8,0-.689647.194202-1.092161.909781-.9,1.6.15014.68219.81254,1.12379,1.5,1-1.173215.461942-2.206777,1.219888-3,2.2-1.29337,1.939678-.805449,4.556712,1.1,5.9c2.052693,1.148685,4.635367.640618,6.1-1.2-.299351.990532.167472,2.051494,1.1,2.5c4.5,2.5,6.8-.8,7.5-4.7s1.5-7.4-3.1-9.6Z" opacity="0.15"/><path d="M436.7,271c.807718-1.277906,1.094081-2.817108.8-4.3-.227554-1.51722-1.470709-2.677498-3-2.8v-2.4c.100407-.257215.100407-.542785,0-.8-.238341-.572017-.8473-.896285-1.454951-.774755s-1.045049.65507-1.045049,1.274755v0c-.462734-1.200954-1.219116-2.266765-2.2-3.1-.915144-.67682-2.070462-.942747-3.189414-.734129s-2.100821.873004-2.710586,1.834129c-1.202812,1.990503-.730704,4.565642,1.1,6-1.016504-.285316-2.086803.228427-2.5,1.2-2.5,4.5.8,6.8,4.6,7.5s7.3,1.7,9.6-2.9Z" fill="#ffe9b3"/><path d="M426.3,274.6c.807718-1.277906,1.094081-2.817108.8-4.3-.227554-1.51722-1.470709-2.677498-3-2.8v-2.4c.100407-.257215.100407-.542785,0-.8-.045761-.342086-.236597-.647907-.523765-.839353s-.642863-.249978-.976235-.160647c-.346651.049138-.658827.236025-.865873.51836s-.291456.636249-.234127.98164h.1c-.462734-1.200954-1.219116-2.266765-2.2-3.1-.915144-.67682-2.070462-.942747-3.189414-.734129s-2.100821.873004-2.710586,1.834129c-1.202812,1.990503-.730704,4.565642,1.1,6-1.04401-.295968-2.147891.213516-2.6,1.2-2.5,4.5.9,6.8,4.7,7.5s7.3,1.7,9.6-2.9Z" fill="#ffe9b3"/><path d="M436.7,259.6c.804763-1.31607,1.090001-2.884882.8-4.4-.260526-1.499627-1.485989-2.643393-3-2.8v-2.4c.100407-.257215.100407-.542785,0-.8-.045761-.342086-.236597-.647907-.523765-.839353s-.642863-.249978-.976235-.160647c-.349675.07094-.654822.282483-.843925.585047s-.245537.669552-.156075,1.014953v0c-.462734-1.200954-1.219116-2.266765-2.2-3.1-1.939678-1.29337-4.556712-.805449-5.9,1.1-1.171293,2.029279-.706338,4.607671,1.1,6.1-.992946-.348023-2.085747.13281-2.5,1.1-2.5,4.5.8,6.8,4.6,7.5s7.3,1.6,9.6-2.9Z" fill="#ffe9b3"/><path d="M415.9,292.6c.804763-1.31607,1.090001-2.884882.8-4.4-.260526-1.499627-1.485989-2.643393-3-2.8v-2.4c.100407-.257215.100407-.542785,0-.8-.194888-.696636-.88841-1.130087-1.6-1-.696636.194888-1.130087.88841-1,1.6-.386059-1.214392-1.115415-2.29106-2.1-3.1-1.939678-1.29337-4.556712-.805449-5.9,1.1-1.171293,2.029279-.706338,4.607671,1.1,6.1-1.018678-.311061-2.113878.152292-2.6,1.1-2.5,4.5.9,6.8,4.7,7.5s7.3,1.6,9.6-2.9Z" fill="#ffe9b3"/><path id="ez6Bt7nHmhI101" d="M411,263.2c.795776-1.319481,1.080389-2.884852.8-4.4-.227554-1.51722-1.470709-2.677498-3-2.8v-2.4c.100407-.257215.100407-.542785,0-.8-.07094-.349675-.282483-.654822-.585047-.843925s-.669552-.245537-1.014953-.156075c-.696636.194888-1.130087.88841-1,1.6-.386059-1.214392-1.115415-2.29106-2.1-3.1-.92452-.648316-2.07115-.897053-3.181204-.690094s-2.090014.852179-2.718796,1.790094c-1.202812,1.990503-.730704,4.565642,1.1,6-1.04401-.295968-2.147891.213516-2.6,1.2-2.5,4.5.9,6.8,4.7,7.5s7.3,1.6,9.6-2.9Z" fill="#ffe9b3"/><path d="M423.9,259.6c.714076-1.349058.993507-2.885927.8-4.4-.302029-1.515271-1.561909-2.653227-3.1-2.8l.2-2.4v-.8c-.07094-.349675-.282483-.654822-.585047-.843925s-.669552-.245537-1.014953-.156075c-.349675.07094-.654822.282483-.843925.585047s-.245537.669552-.156075,1.014953v0c-.460872-1.176582-1.178276-2.235607-2.1-3.1-1.970861-1.30417-4.619962-.818502-6,1.1-1.193985,2.045265-.679729,4.6594,1.2,6.1-1.018678-.311061-2.113878.152292-2.6,1.1-2.5,4.5.8,6.8,4.6,7.5s7.3,1.6,9.6-2.9Z" fill="#ffe9b3"/><g id="ez6Bt7nHmhI103" transform="translate(.174438 0.458292)"><g transform="translate(.000001 0)"><path style="isolation:isolate" d="M322.3,274.3c-5.4,5-11,10.2-13.6,17.1-1.296297,3.815876-2.102749,7.780928-2.4,11.8-.8,6.8-1.5,14.1,1.7,20.2s10.8,10.2,17.7,13.3c2.351748,1.106855,4.794014,2.010159,7.3,2.7c3.312379.782942,6.532256-7.185504,9.934936-7.104131l27.462961-8.086671c0,0,.936137-.614084.936137-.614084s2.965966-10.095114,5.765966-15.095114c1.5-2.6,3.1-5.3,5.8-6.6-11.319569-2.498796-22.960924-3.2074-34.5-2.1-.771121.192516-1.587837.006898-2.2-.5-.204457-.438018-.307024-.916664-.3-1.4c0-5.1.955758-10.049157,2.555758-14.949157C350.955758,275.050843,345.2,280,337.4,277.3s-13.5-11.2-15.1-3Z" opacity="0.1"/><path id="ez6Bt7nHmhI106" d="M385.2,303.6c4.3-.4,8.6-1.5,12.9-1.4s11.2,2.1,16.4,4.5c1.507034.577663,2.896341,1.424802,4.1,2.5c1.683125,2.033697,2.411542,4.692422,2,7.3-.475609,2.555521-1.499071,4.977713-3,7.1-1.5,2.4-3.4,4.8-6,5.9-1.493394.459865-3.039034.728672-4.6.8-6.6.3-13.2,0-19.4-2.1-3.2-1.1-6.2-2.6-9.3-3.9-9.9-4.1-20.6-5.7-31.1-7.8-.554313-.020647-1.084361-.232667-1.5-.6-2.2-1.8,2.6-8.7,3.7-10.6s3.6-3.6,7.4-3.6c9.5-.3,18.8,2.5,28.4,1.9Z" transform="translate(-.412372-1.477856)" fill="#a0616a"/><path d="M320.5,274.8c-5.4,5-11,10.3-13.6,17.2-1.296297,3.815876-2.102749,7.780928-2.4,11.8-.8,6.8-1.5,14.1,1.7,20.2s10.8,10.2,17.7,13.2c2.337589,1.166006,4.782255,2.103686,7.3,2.8c3.31677.744346,5.302721-12.221086,8.701566-12.167537l27.733453-3.900112c.975344.289142,3.488717-.195092,4.8557-.397231c0,0,.109281-9.43512,2.809281-14.43512c1.5-2.6,3.1-5.3,5.8-6.6-11.319569-2.498796-22.960924-3.2074-34.5-2.1-.753261.104675-1.515739-.113175-2.1-.6-.281113-.373296-.422635-.833243-.4-1.3c0-5.1,4.162765-15.294568,4.162765-15.294568s-.562765-16.505432-8.362765-19.305432-17.8,2.8-19.4,10.9Z" fill="#f98a8d"/></g></g><path d="M440.9,324.3c-3-1.5-5.8-3.6-8.7-5.1-3.797183-1.910624-7.953891-3.000908-12.2-3.2-2.7-.1-5.7.2-7.7,2.1s-2.5,7.3-1.6,11.1c1.5,5.7,4.3,11.7,9.8,13.9c2.127902.71372,4.355642,1.08501,6.6,1.1c10.2.7,20.7,1.4,30.1-2.5.691686-.184369,1.294649-.60999,1.7-1.2.276432-.914584.129726-1.904847-.4-2.7-1.5-3-3.9-9.3-6.8-11.2s-7.5-.7-10.8-2.3Z" fill="#a0616a"/><path style="isolation:isolate" d="M459.2,280.5c5.54501,8.807143,10.105699,18.196799,13.6,28c.933557,2.39758,1.473844,4.930175,1.6,7.5-.105238,2.904624-.784996,5.759606-2,8.4-3.388514,8.757958-7.295425,17.306414-11.7,25.6-1.4,2.5-2.9,5-5.5,6.4s-6.2,1.3-9.4.9c-7.948001-.896547-15.830687-2.299398-23.6-4.2c4.9.1,9.3-3.5,11.6-7.5s2.7-8.6,3.1-13c.301986-2.399946.200588-4.833494-.3-7.2-.670361-2.482998-2.493607-4.49229-4.9-5.4-.2-2.2,1.9-4,4-5s4.6-1.5,6.3-3s3-5.9,2.1-9-2.6-6-3.9-8.9s7.5-8.6,7.9-13.1c.1-1-.6.8,0,0s4.6,2.1,5.5,1.7c5.8-2.5,2.3-7.4,5.6-2.2Z" opacity="0.1"/><path d="M460.5,280.7c5.525606,8.817907,10.085243,18.205395,13.6,28c.980579,2.383266,1.522614,4.924053,1.6,7.5-.105238,2.904624-.784996,5.759606-2,8.4-3.388514,8.757958-7.295425,17.306414-11.7,25.6-1.3,2.5-2.9,5.1-5.5,6.4s-6.2,1.3-9.4.9c-7.946731-.905273-15.828868-2.308026-23.6-4.2c4.9.1,9.3-3.5,11.6-7.5s2.7-8.6,3.1-13c.300113-2.400024.198728-4.833261-.3-7.2-.603798-2.485512-2.402419-4.508961-4.8-5.4-.3-2.2,1.8-4,4-5s4.5-1.5,6.3-3s2.9-5.9,2-9-2.6-5.9-3.9-8.9c-1.817387-4.184521-2.573099-8.753143-2.2-13.3.016071-1.018918.291391-2.016955.8-2.9.661951-.73997,1.482317-1.321063,2.4-1.7c5.8-2.5,14.7-.9,18,4.3Z" fill="#f98a8d"/><ellipse rx="42" ry="17.5" transform="matrix(.999391-.034899 0.034899 0.999391 389 187.5)" fill="#2f2e41"/><path style="isolation:isolate" d="M388.2,196.1c-20.1,0-36.9-5.9-41.1-13.7-.586618,1.150523-.927182,2.410612-1,3.7c0,9.7,18.9,17.5,42.1,17.5s42-7.8,42-17.5c.010281-1.288747-.298933-2.55996-.9-3.7-4.2,7.8-21,13.7-41.1,13.7Z" opacity="0.1"/><g id="ez6Bt7nHmhI113" transform="translate(.000001 0)"><path d="M433.7,196.1c-1.349058-.714076-2.885927-.993507-4.4-.8-1.493532.310614-2.597356,1.577968-2.7,3.1h-3.3c-.629434.266063-.99948.923923-.9,1.6.190307.65374.823353,1.07577,1.5,1-1.157142.490648-2.184229,1.243845-3,2.2-1.22799,1.919408-.745491,4.463493,1.1,5.8c2.045265,1.193985,4.6594.679729,6.1-1.2-.295968,1.04401.213516,2.147891,1.2,2.6c4.5,2.4,6.8-.9,7.4-4.7s1.5-7.4-3-9.6Z" fill="#ffe9b3"/><path style="isolation:isolate" d="M433.7,196.1c-1.349058-.714076-2.885927-.993507-4.4-.8-1.493532.310614-2.597356,1.577968-2.7,3.1h-3.3c-.629434.266063-.99948.923923-.9,1.6.190307.65374.823353,1.07577,1.5,1-1.157142.490648-2.184229,1.243845-3,2.2-1.22799,1.919408-.745491,4.463493,1.1,5.8c2.045265,1.193985,4.6594.679729,6.1-1.2-.295968,1.04401.213516,2.147891,1.2,2.6c4.5,2.4,6.8-.9,7.4-4.7s1.5-7.4-3-9.6Z" opacity="0.15"/></g><g id="ez6Bt7nHmhI116"><path d="M463,250.6c-1.307367-.729014-2.828911-.976707-4.3-.7-1.551813.23592-2.722701,1.532261-2.8,3.1l-2.4-.2h-.8c-.689647.194202-1.092161.909781-.9,1.6.190307.65374.823353,1.07577,1.5,1-1.166422.425636-2.200828,1.149721-3,2.1-1.30417,1.970861-.818502,4.619962,1.1,6c2.076211,1.126697,4.663558.575295,6.1-1.3-.311061,1.018678.152292,2.113878,1.1,2.6c4.5,2.4,6.8-.9,7.5-4.7s1.5-7.2-3.1-9.5Z" fill="#ffe9b3"/><path style="isolation:isolate" d="M463,250.6c-1.307367-.729014-2.828911-.976707-4.3-.7-1.551813.23592-2.722701,1.532261-2.8,3.1l-2.4-.2h-.8c-.689647.194202-1.092161.909781-.9,1.6.190307.65374.823353,1.07577,1.5,1-1.166422.425636-2.200828,1.149721-3,2.1-1.30417,1.970861-.818502,4.619962,1.1,6c2.076211,1.126697,4.663558.575295,6.1-1.3-.311061,1.018678.152292,2.113878,1.1,2.6c4.5,2.4,6.8-.9,7.5-4.7s1.5-7.2-3.1-9.5Z" opacity="0.15"/></g><g transform="translate(.000001 0)"><path d="M497.3,308.8c-1.277906-.807718-2.817108-1.094081-4.3-.8-1.515271.302029-2.653227,1.561909-2.8,3.1h-2.4c-.257215-.100407-.542785-.100407-.8,0-.71797.165685-1.165685.88203-1,1.6s.88203,1.165685,1.6,1c-1.183164.448279-2.244861,1.167493-3.1,2.1-.643677.952624-.87906,2.123342-.653585,3.250717s.893028,2.117506,1.853585,2.749283c2.022177,1.134908,4.569878.625367,6-1.2-.285316,1.016504.228427,2.086803,1.2,2.5c4.5,2.5,6.8-.8,7.4-4.7s1.6-7.4-3-9.6Z" fill="#ffe9b3"/><path style="isolation:isolate" d="M497.3,308.8c-1.277906-.807718-2.817108-1.094081-4.3-.8-1.515271.302029-2.653227,1.561909-2.8,3.1h-2.4c-.257215-.100407-.542785-.100407-.8,0-.71797.165685-1.165685.88203-1,1.6s.88203,1.165685,1.6,1c-1.183164.448279-2.244861,1.167493-3.1,2.1-.643677.952624-.87906,2.123342-.653585,3.250717s.893028,2.117506,1.853585,2.749283c2.022177,1.134908,4.569878.625367,6-1.2-.285316,1.016504.228427,2.086803,1.2,2.5c4.5,2.5,6.8-.8,7.4-4.7s1.6-7.4-3-9.6Z" opacity="0.15"/></g><path id="ez6Bt7nHmhI122" d="M445.3,182.1c.76273-1.331755,1.045138-2.884996.8-4.4-.242145-1.532509-1.548759-2.670527-3.1-2.7l.2-2.4c.099057-.291823.099057-.608177,0-.9-.07094-.349675-.282483-.654822-.585047-.843925s-.669552-.245537-1.014953-.156075c-.696636.194888-1.130087.88841-1,1.6v0c-.448279-1.183164-1.167493-2.244861-2.1-3.1-1.970861-1.30417-4.619962-.818502-6,1.1-1.193985,2.045265-.679729,4.6594,1.2,6.1-1.016231-.270911-2.086766.182008-2.6,1.1-2.5,4.5.9,6.8,4.7,7.5s7.2,1.6,9.5-2.9Z" fill="#ffe9b3"/><path id="ez6Bt7nHmhI123" d="M441.6,157c.804763-1.31607,1.090001-2.884882.8-4.4-.260526-1.499627-1.485989-2.643393-3-2.8v-2.4c.100407-.257215.100407-.542785,0-.8-.045761-.342086-.236597-.647907-.523765-.839353s-.642863-.249978-.976235-.160647c-.349675.07094-.654822.282483-.843925.585047s-.245537.669552-.156075,1.014953v0c-.486816-1.187868-1.239418-2.248353-2.2-3.1-1.939678-1.29337-4.556712-.805449-5.9,1.1-1.171293,2.029279-.706338,4.607671,1.1,6.1-.990532-.299351-2.051494.167472-2.5,1.1-2.5,4.5.8,6.8,4.6,7.5s7.3,1.6,9.6-2.9Z" fill="#ffe9b3"/><path d="M316.6,298.2c-8.1-2.1-16.5-4.2-24.7-2.5-3.7.8-7.1,2.2-10.7,3.3-17.675494,5.542133-36.916677,2.667013-52.2-7.8-8.5-5.8-17.3-14.4-27.4-12.1-2.7.7-5.2,2.1-8,2.4-5.2.6-10-2.8-15.1-3.6-8.9-1.3-16.9,4.9-23.7,10.7l-35.9,30.7c-2.8,2.4-5.8,5.5-5,9c1.1,5.1,8.9,5.8,11,10.7s-1,7.5-4.2,9.5-7.1,2.5-10.7,3.7c-11.038484,3.726113-19.337712,12.934846-21.9,24.3-.6,3-.8,6.1-2,8.9s-3.5,5.6-5.2,8.4c-7.4,12.4-2.6,28.9-8.2,42.2-2.9,7.1-8.9,13.9-7,21.3s9.1,10.2,15.8,12c.8,4.5-.8,7.8-4.2,11.1c28,11.4,58,23.2,87.6,17.3c10.2-2,20.1-6.1,30.4-5.9c7.4.1,14.6,2.4,22,1.8c15.5-1,29.7-14.3,44.7-10.3-4.6.3-6.2,6.9-3.6,10.6s7.6,4.8,12.1,5.3s9.3.4,13.2,2.7c-2.9,6.2-13.6,8.4-12.5,15.1.3,2.5,2.3,4.3,4.3,5.9c20.2,15.4,48,14,73.3,16.6c18.6,2,36.9,6.5,55.4,9c29.7,3.8,59.8,2.3,89.7.7c5.4-.3,11.5-.9,15-5.1s2-13.8,1.4-21c-2.2-28.1,28.6-47.5,37.2-74.4c3.3-10.5,3.2-21.8,2.6-32.8-1.4-24.8-5.2-51-21.1-70.2-13-15.8-32.5-24.8-51.9-31.3-12.4-4.1-25.3-7.6-38.3-6.3-21.8,2-43.9,16.9-64,8.3-5.4-2.3-9.9-6.1-15-8.9-13.3-7.5-28.4-5.5-43.2-9.3Z" fill="#c33764"/><g><path d="M438.8,526.8c-18.6-2.5-36.8-7-55.5-9-25.3-2.6-53.1-1.1-73.3-16.6-1.9-1.5-3.9-3.3-4.3-5.8-1-6.8,9.6-9,12.6-15.1-3.9-2.3-8.7-2.4-13.2-2.8s-9.4-1.6-12.1-5.3-1-10.3,3.5-10.6c-15-4-29.2,9.3-44.7,10.4-7.3.5-14.6-1.8-21.9-1.9-10.4-.2-20.3,3.9-30.4,5.9-29.7,5.8-59.7-5.8-87.6-17.3c3.3-3.4,4.9-6.5,4.2-11.1-6.7-1.8-14.1-5.2-15.9-12s4.1-14.2,7.1-21.3c5.6-13.3.7-29.7,8.1-42.1c1.7-2.9,4-5.4,5.3-8.5s1.4-5.9,2-8.9c.260577-1.294998.628514-2.566054,1.1-3.8-1.4.4-2.8.7-4.2,1.2-11.038484,3.726113-19.337712,12.934846-21.9,24.3-.6,3-.8,6.1-2,8.9s-3.5,5.6-5.2,8.4c-7.4,12.4-2.6,28.9-8.2,42.2-2.9,7-8.9,13.9-7,21.3s9.1,10.1,15.8,11.9c.8,4.6-.8,7.8-4.2,11.1c28,11.5,58,23.2,87.6,17.4c10.2-2,20.1-6.1,30.4-5.9c7.4.1,14.6,2.3,22,1.8c15.5-1.1,29.7-14.3,44.7-10.3-4.6.3-6.2,6.9-3.6,10.6s7.6,4.8,12.1,5.2s9.3.5,13.2,2.8c-2.9,6.2-13.6,8.3-12.5,15.1.3,2.5,2.3,4.3,4.3,5.8c20.2,15.5,48,14,73.3,16.7c18.6,1.9,36.9,6.5,55.4,8.9c29.7,3.9,59.8,2.3,89.7.7c5.4-.3,11.5-.9,15-5s2.8-10.4,2-16.2c-27.3,1.4-54.7,2.4-81.7-1.1Z" fill="#a53563"/><path d="M133.2,337.1c3.282437-2.91675,7.128399-5.129029,11.3-6.5c3.6-1.2,7.5-1.8,10.7-3.7s5.7-6.1,4.2-9.6-9.9-5.5-11-10.7c-.5-2.4.7-4.5,2.4-6.4l-22.4,19.1c-2.7,2.4-5.7,5.5-5,9s6.8,5.5,9.8,8.8Z" fill="#a53563"/></g><path id="ez6Bt7nHmhI128" d="M223.6,355c.789654-1.322413,1.10697-2.873732.9-4.4-.330817-1.498727-1.575447-2.622909-3.1-2.8l.2-2.4c.010168-.270321-.023604-.5405-.1-.8-.194888-.696636-.88841-1.130087-1.6-1-.696636.194888-1.130087.88841-1,1.6-.414358-1.200451-1.138858-2.269951-2.1-3.1-1.939678-1.29337-4.556712-.805449-5.9,1.1-1.171293,2.029279-.706338,4.607671,1.1,6.1-1.016231-.270911-2.086766.182008-2.6,1.1-2.5,4.5.9,6.8,4.7,7.5s7.3,1.6,9.5-2.9Z" fill="#ffe9b3"/><path id="ez6Bt7nHmhI129" d="M313,482.1c.789964-1.28544,1.108148-2.805653.9-4.3-.270541-1.532923-1.547542-2.686342-3.1-2.8l.2-2.4v-.9c-.194202-.689647-.909781-1.092161-1.6-.9-.342086.045761-.647907.236597-.839353.523765s-.249978.642863-.160647.976235c-.486816-1.187868-1.239418-2.248353-2.2-3.1-1.939678-1.29337-4.556712-.805449-5.9,1.1-1.193985,2.045265-.679729,4.6594,1.2,6.1-1.018678-.311061-2.113878.152292-2.6,1.1-2.5,4.5.8,6.8,4.6,7.5s7.3,1.6,9.5-2.9Z" fill="#ffe9b3"/><path id="ez6Bt7nHmhI130" d="M374.3,357.1c.712508-1.313439.992462-2.818194.8-4.3-.270541-1.532923-1.547542-2.686342-3.1-2.8l.2-2.4v-.8c-.07094-.349675-.282483-.654822-.585047-.843925s-.669552-.245537-1.014953-.156075c-.696636.194888-1.130087.88841-1,1.6-.422674-1.196272-1.145823-2.263778-2.1-3.1-.931313-.681097-2.101807-.949071-3.236685-.74101s-2.134185.873832-2.763315,1.84101c-1.230468,2.006094-.707391,4.621478,1.2,6-1.04401-.295968-2.147891.213516-2.6,1.2-2.5,4.4.8,6.8,4.6,7.5s7.3,1.6,9.6-3Z" transform="translate(-.009291 0.000076)" fill="#ffe9b3"/><path id="ez6Bt7nHmhI131" d="M384.9,356c1.403524-.616721,2.539044-1.716757,3.2-3.1.651624-1.362991.325727-2.992479-.8-4l1.5-1.9c.220792-.189493.392358-.429685.5-.7.276142-.662742-.037258-1.423858-.7-1.7-.690666-.284114-1.482744.023917-1.8.7.383208-1.233194.417817-2.548358.1-3.8-.384176-1.074416-1.179635-1.952086-2.211213-2.439741s-2.214683-.545306-3.288787-.160259c-2.111485.987695-3.208102,3.34964-2.6,5.6-.646029-.811475-1.77109-1.061489-2.7-.6-4.7,2.2-3.3,6-.6,8.8s4.9,5.6,9.4,3.3Z" fill="#ffe9b3"/><g id="ez6Bt7nHmhI132"><path d="M252.5,357.6c-1.277906-.807718-2.817108-1.094081-4.3-.8-1.532923.270541-2.686342,1.547542-2.8,3.1h-2.4c-.257215-.100407-.542785-.100407-.8,0-.65374.190307-1.07577.823353-1,1.5.07094.349675.282483.654822.585047.843925s.669552.245537,1.014953.156075c-1.187868.486816-2.248353,1.239418-3.1,2.2-.638857.936838-.871761,2.092192-.645757,3.203374s.891708,2.083768,1.845757,2.696626c2.006094,1.230468,4.621478.707391,6-1.2-.295968,1.04401.213516,2.147891,1.2,2.6c4.5,2.4,6.8-.8,7.4-4.7s1.6-7.4-3-9.6Z" fill="#ffe9b3"/><path style="isolation:isolate" d="M252.5,357.6c-1.277906-.807718-2.817108-1.094081-4.3-.8-1.532923.270541-2.686342,1.547542-2.8,3.1h-2.4c-.257215-.100407-.542785-.100407-.8,0-.65374.190307-1.07577.823353-1,1.5.07094.349675.282483.654822.585047.843925s.669552.245537,1.014953.156075c-1.187868.486816-2.248353,1.239418-3.1,2.2-.638857.936838-.871761,2.092192-.645757,3.203374s.891708,2.083768,1.845757,2.696626c2.006094,1.230468,4.621478.707391,6-1.2-.295968,1.04401.213516,2.147891,1.2,2.6c4.5,2.4,6.8-.8,7.4-4.7s1.6-7.4-3-9.6Z" opacity="0.15"/></g><g id="ez6Bt7nHmhI135" transform="translate(0 0.000001)"><path d="M307.8,412.2c.267398-1.503659.020823-3.053557-.7-4.4-.803119-1.334093-2.40989-1.952082-3.9-1.5l-.6-2.3c-.091473-.316908-.226066-.619741-.4-.9-.417218-.575064-1.218827-.708665-1.8-.3-.292552.184956-.49927.478938-.574353.81681s-.01233.691738.174353.98319c-.815771-.956155-1.842858-1.709352-3-2.2-2.31485-.573795-4.665424.801069-5.3,3.1-.367438,2.310425.984284,4.549215,3.2,5.3-1.047499.045255-1.901122.856196-2,1.9-.9,5.1,3.1,6.1,6.9,5.5s7.4-1,8-6Z" fill="#ffe9b3"/><path style="isolation:isolate" d="M307.8,412.2c.267398-1.503659.020823-3.053557-.7-4.4-.803119-1.334093-2.40989-1.952082-3.9-1.5l-.6-2.3c-.091473-.316908-.226066-.619741-.4-.9-.417218-.575064-1.218827-.708665-1.8-.3-.292552.184956-.49927.478938-.574353.81681s-.01233.691738.174353.98319c-.815771-.956155-1.842858-1.709352-3-2.2-2.31485-.573795-4.665424.801069-5.3,3.1-.367438,2.310425.984284,4.549215,3.2,5.3-1.047499.045255-1.901122.856196-2,1.9-.9,5.1,3.1,6.1,6.9,5.5s7.4-1,8-6Z" opacity="0.15"/></g><g id="ez6Bt7nHmhI138" transform="translate(0 0.000001)"><path d="M381.3,346.9c.217743-1.503713-.026364-3.038097-.7-4.4-.803119-1.334093-2.40989-1.952082-3.9-1.5l-.7-2.3c-.006716-.32343-.111315-.637227-.3-.9-.417218-.575064-1.218827-.708665-1.8-.3-.292552.184956-.49927.478938-.574353.81681s-.01233.691738.174353.98319c-.851647-.960582-1.912132-1.713184-3.1-2.2-2.290323-.568618-4.610966.814843-5.2,3.1-.411932,2.318899.956065,4.584643,3.2,5.3-1.068767.038718-1.954865.840426-2.1,1.9-.8,5.1,3.1,6.1,7,5.5s7.4-1,8-6Z" fill="#ffe9b3"/><path style="isolation:isolate" d="M381.3,346.9c.217743-1.503713-.026364-3.038097-.7-4.4-.803119-1.334093-2.40989-1.952082-3.9-1.5l-.7-2.3c-.006716-.32343-.111315-.637227-.3-.9-.417218-.575064-1.218827-.708665-1.8-.3-.292552.184956-.49927.478938-.574353.81681s-.01233.691738.174353.98319c-.851647-.960582-1.912132-1.713184-3.1-2.2-2.290323-.568618-4.610966.814843-5.2,3.1-.411932,2.318899.956065,4.584643,3.2,5.3-1.068767.038718-1.954865.840426-2.1,1.9-.8,5.1,3.1,6.1,7,5.5s7.4-1,8-6Z" opacity="0.15"/></g><path id="ez6Bt7nHmhI141" d="M437.9,287.5c.789964-1.28544,1.108148-2.805653.9-4.3-.302029-1.515271-1.561909-2.653227-3.1-2.8l.2-2.4v-.8c-.165685-.71797-.88203-1.165685-1.6-1s-1.165685.88203-1,1.6c-.460872-1.176582-1.178276-2.235607-2.1-3.1-.931313-.681097-2.101807-.949071-3.236685-.74101s-2.134185.873832-2.763315,1.84101c-1.230468,2.006094-.707391,4.621478,1.2,6-1.0473-.344525-2.182707.179509-2.6,1.2-2.5,4.5.8,6.8,4.6,7.5s7.3,1.6,9.5-3Z" fill="#ffe9b3"/><path id="ez6Bt7nHmhI142" d="M398.1,273.2c.789964-1.28544,1.108148-2.805653.9-4.3-.270541-1.532923-1.547542-2.686342-3.1-2.8l.2-2.4v-.9c-.194888-.696636-.88841-1.130087-1.6-1-.349675.07094-.654822.282483-.843925.585047s-.245537.669552-.156075,1.014953v0c-.487413-1.162416-1.201276-2.216214-2.1-3.1-1.970861-1.30417-4.619962-.818502-6,1.1-1.193985,2.045265-.679729,4.6594,1.2,6.1-1.018678-.311061-2.113878.152292-2.6,1.1-2.5,4.5.8,6.8,4.6,7.5s7.3,1.6,9.5-2.9Z" fill="#ffe9b3"/><script><![CDATA[!function(t,e){"object"==typeof exports&&"undefined"!=typeof module?module.exports=e():"function"==typeof define&&define.amd?define(e):((t="undefined"!=typeof globalThis?globalThis:t||self).__SVGATOR_PLAYER__=t.__SVGATOR_PLAYER__||{},t.__SVGATOR_PLAYER__["91c80d77"]=e())}(this,(function(){"use strict";function t(t,e){var n=Object.keys(t);if(Object.getOwnPropertySymbols){var r=Object.getOwnPropertySymbols(t);e&&(r=r.filter((function(e){return Object.getOwnPropertyDescriptor(t,e).enumerable}))),n.push.apply(n,r)}return n}function e(e){for(var n=1;n<arguments.length;n++){var r=null!=arguments[n]?arguments[n]:{};n%2?t(Object(r),!0).forEach((function(t){u(e,t,r[t])})):Object.getOwnPropertyDescriptors?Object.defineProperties(e,Object.getOwnPropertyDescriptors(r)):t(Object(r)).forEach((function(t){Object.defineProperty(e,t,Object.getOwnPropertyDescriptor(r,t))}))}return e}function n(t){return(n="function"==typeof Symbol&&"symbol"==typeof Symbol.iterator?function(t){return typeof t}:function(t){return t&&"function"==typeof Symbol&&t.constructor===Symbol&&t!==Symbol.prototype?"symbol":typeof t})(t)}function r(t,e){if(!(t instanceof e))throw new TypeError("Cannot call a class as a function")}function i(t,e){for(var n=0;n<e.length;n++){var r=e[n];r.enumerable=r.enumerable||!1,r.configurable=!0,"value"in r&&(r.writable=!0),Object.defineProperty(t,r.key,r)}}function o(t,e,n){return e&&i(t.prototype,e),n&&i(t,n),t}function u(t,e,n){return e in t?Object.defineProperty(t,e,{value:n,enumerable:!0,configurable:!0,writable:!0}):t[e]=n,t}function a(t){return(a=Object.setPrototypeOf?Object.getPrototypeOf:function(t){return t.__proto__||Object.getPrototypeOf(t)})(t)}function s(t,e){return(s=Object.setPrototypeOf||function(t,e){return t.__proto__=e,t})(t,e)}function l(){if("undefined"==typeof Reflect||!Reflect.construct)return!1;if(Reflect.construct.sham)return!1;if("function"==typeof Proxy)return!0;try{return Boolean.prototype.valueOf.call(Reflect.construct(Boolean,[],(function(){}))),!0}catch(t){return!1}}function f(t,e,n){return(f=l()?Reflect.construct:function(t,e,n){var r=[null];r.push.apply(r,e);var i=new(Function.bind.apply(t,r));return n&&s(i,n.prototype),i}).apply(null,arguments)}function c(t,e){if(e&&("object"==typeof e||"function"==typeof e))return e;if(void 0!==e)throw new TypeError("Derived constructors may only return object or undefined");return function(t){if(void 0===t)throw new ReferenceError("this hasn't been initialised - super() hasn't been called");return t}(t)}function h(t,e,n){return(h="undefined"!=typeof Reflect&&Reflect.get?Reflect.get:function(t,e,n){var r=function(t,e){for(;!Object.prototype.hasOwnProperty.call(t,e)&&null!==(t=a(t)););return t}(t,e);if(r){var i=Object.getOwnPropertyDescriptor(r,e);return i.get?i.get.call(n):i.value}})(t,e,n||t)}function v(t){return function(t){if(Array.isArray(t))return y(t)}(t)||function(t){if("undefined"!=typeof Symbol&&null!=t[Symbol.iterator]||null!=t["@@iterator"])return Array.from(t)}(t)||function(t,e){if(!t)return;if("string"==typeof t)return y(t,e);var n=Object.prototype.toString.call(t).slice(8,-1);"Object"===n&&t.constructor&&(n=t.constructor.name);if("Map"===n||"Set"===n)return Array.from(t);if("Arguments"===n||/^(?:Ui|I)nt(?:8|16|32)(?:Clamped)?Array$/.test(n))return y(t,e)}(t)||function(){throw new TypeError("Invalid attempt to spread non-iterable instance.\nIn order to be iterable, non-array objects must have a [Symbol.iterator]() method.")}()}function y(t,e){(null==e||e>t.length)&&(e=t.length);for(var n=0,r=new Array(e);n<e;n++)r[n]=t[n];return r}Number.isInteger||(Number.isInteger=function(t){return"number"==typeof t&&isFinite(t)&&Math.floor(t)===t}),Number.EPSILON||(Number.EPSILON=2220446049250313e-31);var d=g(Math.pow(10,-6));function g(t){var e=arguments.length>1&&void 0!==arguments[1]?arguments[1]:6;if(Number.isInteger(t))return t;var n=Math.pow(10,e);return Math.round((+t+Number.EPSILON)*n)/n}function p(t,e){var n=arguments.length>2&&void 0!==arguments[2]?arguments[2]:d;return Math.abs(t-e)<n}var m=Math.PI/180;function b(t){return t}function k(t,e,n){var r=1-n;return 3*n*r*(t*r+e*n)+n*n*n}function w(){var t=arguments.length>0&&void 0!==arguments[0]?arguments[0]:0,e=arguments.length>1&&void 0!==arguments[1]?arguments[1]:0,n=arguments.length>2&&void 0!==arguments[2]?arguments[2]:1,r=arguments.length>3&&void 0!==arguments[3]?arguments[3]:1;return t<0||t>1||n<0||n>1?null:p(t,e)&&p(n,r)?b:function(i){if(i<=0)return t>0?i*e/t:0===e&&n>0?i*r/n:0;if(i>=1)return n<1?1+(i-1)*(r-1)/(n-1):1===n&&t<1?1+(i-1)*(e-1)/(t-1):1;for(var o,u=0,a=1;u<a;){var s=k(t,n,o=(u+a)/2);if(p(i,s))break;s<i?u=o:a=o}return k(e,r,o)}}function x(){return 1}function A(t){return 1===t?1:0}function _(){var t=arguments.length>0&&void 0!==arguments[0]?arguments[0]:1,e=arguments.length>1&&void 0!==arguments[1]?arguments[1]:0;if(1===t){if(0===e)return A;if(1===e)return x}var n=1/t;return function(t){return t>=1?1:(t+=e*n)-t%n}}var O=Math.sin,S=Math.cos,E=Math.acos,P=Math.asin,M=Math.tan,j=Math.atan2,B=Math.PI/180,T=180/Math.PI,I=Math.sqrt,R=function(){function t(){var e=arguments.length>0&&void 0!==arguments[0]?arguments[0]:1,n=arguments.length>1&&void 0!==arguments[1]?arguments[1]:0,i=arguments.length>2&&void 0!==arguments[2]?arguments[2]:0,o=arguments.length>3&&void 0!==arguments[3]?arguments[3]:1,u=arguments.length>4&&void 0!==arguments[4]?arguments[4]:0,a=arguments.length>5&&void 0!==arguments[5]?arguments[5]:0;r(this,t),this.m=[e,n,i,o,u,a],this.i=null,this.w=null,this.s=null}return o(t,[{key:"determinant",get:function(){var t=this.m;return t[0]*t[3]-t[1]*t[2]}},{key:"isIdentity",get:function(){if(null===this.i){var t=this.m;this.i=1===t[0]&&0===t[1]&&0===t[2]&&1===t[3]&&0===t[4]&&0===t[5]}return this.i}},{key:"point",value:function(t,e){var n=this.m;return{x:n[0]*t+n[2]*e+n[4],y:n[1]*t+n[3]*e+n[5]}}},{key:"translateSelf",value:function(){var t=arguments.length>0&&void 0!==arguments[0]?arguments[0]:0,e=arguments.length>1&&void 0!==arguments[1]?arguments[1]:0;if(!t&&!e)return this;var n=this.m;return n[4]+=n[0]*t+n[2]*e,n[5]+=n[1]*t+n[3]*e,this.w=this.s=this.i=null,this}},{key:"rotateSelf",value:function(){var t=arguments.length>0&&void 0!==arguments[0]?arguments[0]:0;if(t%=360){var e=O(t*=B),n=S(t),r=this.m,i=r[0],o=r[1];r[0]=i*n+r[2]*e,r[1]=o*n+r[3]*e,r[2]=r[2]*n-i*e,r[3]=r[3]*n-o*e,this.w=this.s=this.i=null}return this}},{key:"scaleSelf",value:function(){var t=arguments.length>0&&void 0!==arguments[0]?arguments[0]:1,e=arguments.length>1&&void 0!==arguments[1]?arguments[1]:1;if(1!==t||1!==e){var n=this.m;n[0]*=t,n[1]*=t,n[2]*=e,n[3]*=e,this.w=this.s=this.i=null}return this}},{key:"skewSelf",value:function(t,e){if(e%=360,(t%=360)||e){var n=this.m,r=n[0],i=n[1],o=n[2],u=n[3];t&&(t=M(t*B),n[2]+=r*t,n[3]+=i*t),e&&(e=M(e*B),n[0]+=o*e,n[1]+=u*e),this.w=this.s=this.i=null}return this}},{key:"resetSelf",value:function(){var t=arguments.length>0&&void 0!==arguments[0]?arguments[0]:1,e=arguments.length>1&&void 0!==arguments[1]?arguments[1]:0,n=arguments.length>2&&void 0!==arguments[2]?arguments[2]:0,r=arguments.length>3&&void 0!==arguments[3]?arguments[3]:1,i=arguments.length>4&&void 0!==arguments[4]?arguments[4]:0,o=arguments.length>5&&void 0!==arguments[5]?arguments[5]:0,u=this.m;return u[0]=t,u[1]=e,u[2]=n,u[3]=r,u[4]=i,u[5]=o,this.w=this.s=this.i=null,this}},{key:"recomposeSelf",value:function(){var t=arguments.length>0&&void 0!==arguments[0]?arguments[0]:null,e=arguments.length>1&&void 0!==arguments[1]?arguments[1]:null,n=arguments.length>2&&void 0!==arguments[2]?arguments[2]:null,r=arguments.length>3&&void 0!==arguments[3]?arguments[3]:null,i=arguments.length>4&&void 0!==arguments[4]?arguments[4]:null;return this.isIdentity||this.resetSelf(),t&&(t.x||t.y)&&this.translateSelf(t.x,t.y),e&&this.rotateSelf(e),n&&(n.x&&this.skewSelf(n.x,0),n.y&&this.skewSelf(0,n.y)),!r||1===r.x&&1===r.y||this.scaleSelf(r.x,r.y),i&&(i.x||i.y)&&this.translateSelf(i.x,i.y),this}},{key:"decompose",value:function(){var t=arguments.length>0&&void 0!==arguments[0]?arguments[0]:0,e=arguments.length>1&&void 0!==arguments[1]?arguments[1]:0,n=this.m,r=n[0]*n[0]+n[1]*n[1],i=[[n[0],n[1]],[n[2],n[3]]],o=I(r);if(0===o)return{origin:{x:g(n[4]),y:g(n[5])},translate:{x:g(t),y:g(e)},scale:{x:0,y:0},skew:{x:0,y:0},rotate:0};i[0][0]/=o,i[0][1]/=o;var u=n[0]*n[3]-n[1]*n[2]<0;u&&(o=-o);var a=i[0][0]*i[1][0]+i[0][1]*i[1][1];i[1][0]-=i[0][0]*a,i[1][1]-=i[0][1]*a;var s=I(i[1][0]*i[1][0]+i[1][1]*i[1][1]);if(0===s)return{origin:{x:g(n[4]),y:g(n[5])},translate:{x:g(t),y:g(e)},scale:{x:g(o),y:0},skew:{x:0,y:0},rotate:0};i[1][0]/=s,i[1][1]/=s,a/=s;var l=0;return i[1][1]<0?(l=E(i[1][1])*T,i[0][1]<0&&(l=360-l)):l=P(i[0][1])*T,u&&(l=-l),a=j(a,I(i[0][0]*i[0][0]+i[0][1]*i[0][1]))*T,u&&(a=-a),{origin:{x:g(n[4]),y:g(n[5])},translate:{x:g(t),y:g(e)},scale:{x:g(o),y:g(s)},skew:{x:g(a),y:0},rotate:g(l)}}},{key:"clone",value:function(){var t=this.m;return new this.constructor(t[0],t[1],t[2],t[3],t[4],t[5])}},{key:"toString",value:function(){var t=arguments.length>0&&void 0!==arguments[0]?arguments[0]:" ";if(null===this.s){var e=this.m.map((function(t){return g(t)}));1===e[0]&&0===e[1]&&0===e[2]&&1===e[3]?this.s="translate("+e[4]+t+e[5]+")":this.s="matrix("+e.join(t)+")"}return this.s}}],[{key:"create",value:function(t){return t?Array.isArray(t)?f(this,v(t)):t instanceof this?t.clone():(new this).recomposeSelf(t.origin,t.rotate,t.skew,t.scale,t.translate):new this}}]),t}();function N(t,e,n){return t>=.5?n:e}function F(t,e,n){return 0===t||e===n?e:t*(n-e)+e}function C(t,e,n){var r=F(t,e,n);return r<=0?0:r}function L(t,e,n){var r=F(t,e,n);return r<=0?0:r>=1?1:r}function D(t,e,n){return 0===t?e:1===t?n:{x:F(t,e.x,n.x),y:F(t,e.y,n.y)}}function q(t,e,n){return 0===t?e:1===t?n:{x:C(t,e.x,n.x),y:C(t,e.y,n.y)}}function V(t,e,n){var r=function(t,e,n){return Math.round(F(t,e,n))}(t,e,n);return r<=0?0:r>=255?255:r}function z(t,e,n){return 0===t?e:1===t?n:{r:V(t,e.r,n.r),g:V(t,e.g,n.g),b:V(t,e.b,n.b),a:F(t,null==e.a?1:e.a,null==n.a?1:n.a)}}function Y(t,e,n){var r=e.length;if(r!==n.length)return N(t,e,n);for(var i=new Array(r),o=0;o<r;o++)i[o]=F(t,e[o],n[o]);return i}function G(t,e){for(var n=[],r=0;r<t;r++)n.push(e);return n}function U(t,e){if(--e<=0)return t;var n=(t=Object.assign([],t)).length;do{for(var r=0;r<n;r++)t.push(t[r])}while(--e>0);return t}var $,W=function(){function t(e){r(this,t),this.list=e,this.length=e.length}return o(t,[{key:"setAttribute",value:function(t,e){for(var n=this.list,r=0;r<this.length;r++)n[r].setAttribute(t,e)}},{key:"removeAttribute",value:function(t){for(var e=this.list,n=0;n<this.length;n++)e[n].removeAttribute(t)}},{key:"style",value:function(t,e){for(var n=this.list,r=0;r<this.length;r++)n[r].style[t]=e}}]),t}(),H=/-./g,Q=function(t,e){return e.toUpperCase()};function X(t){return"function"==typeof t?t:N}function J(t){return t?"function"==typeof t?t:Array.isArray(t)?function(t){var e=arguments.length>1&&void 0!==arguments[1]?arguments[1]:b;if(!Array.isArray(t))return e;switch(t.length){case 1:return _(t[0])||e;case 2:return _(t[0],t[1])||e;case 4:return w(t[0],t[1],t[2],t[3])||e}return e}(t,null):function(t,e){var n=arguments.length>2&&void 0!==arguments[2]?arguments[2]:b;switch(t){case"linear":return b;case"steps":return _(e.steps||1,e.jump||0)||n;case"bezier":case"cubic-bezier":return w(e.x1||0,e.y1||0,e.x2||0,e.y2||0)||n}return n}(t.type,t.value,null):null}function K(t,e,n){var r=arguments.length>3&&void 0!==arguments[3]&&arguments[3],i=e.length-1;if(t<=e[0].t)return r?[0,0,e[0].v]:e[0].v;if(t>=e[i].t)return r?[i,1,e[i].v]:e[i].v;var o,u=e[0],a=null;for(o=1;o<=i;o++){if(!(t>e[o].t)){a=e[o];break}u=e[o]}return null==a?r?[i,1,e[i].v]:e[i].v:u.t===a.t?r?[o,1,a.v]:a.v:(t=(t-u.t)/(a.t-u.t),u.e&&(t=u.e(t)),r?[o,t,n(t,u.v,a.v)]:n(t,u.v,a.v))}function Z(t,e){var n=arguments.length>2&&void 0!==arguments[2]?arguments[2]:null;return t&&t.length?"function"!=typeof e?null:("function"!=typeof n&&(n=null),function(r){var i=K(r,t,e);return null!=i&&n&&(i=n(i)),i}):null}function tt(t,e){return t.t-e.t}function et(t,e,r,i,o){var u,a="@"===r[0],s="#"===r[0],l=$[r],f=N;switch(a?(u=r.substr(1),r=u.replace(H,Q)):s&&(r=r.substr(1)),n(l)){case"function":if(f=l(i,o,K,J,r,a,e,t),s)return f;break;case"string":f=Z(i,X(l));break;case"object":if((f=Z(i,X(l.i),l.f))&&"function"==typeof l.u)return l.u(e,f,r,a,t)}return f?function(t,e,n){if(arguments.length>3&&void 0!==arguments[3]&&arguments[3])return t instanceof W?function(r){return t.style(e,n(r))}:function(r){return t.style[e]=n(r)};if(Array.isArray(e)){var r=e.length;return function(i){var o=n(i);if(null==o)for(var u=0;u<r;u++)t[u].removeAttribute(e);else for(var a=0;a<r;a++)t[a].setAttribute(e,o)}}return function(r){var i=n(r);null==i?t.removeAttribute(e):t.setAttribute(e,i)}}(e,r,f,a):null}function nt(t,e,r,i){if(!i||"object"!==n(i))return null;var o=null,u=null;return Array.isArray(i)?u=function(t){if(!t||!t.length)return null;for(var e=0;e<t.length;e++)t[e].e&&(t[e].e=J(t[e].e));return t.sort(tt)}(i):(u=i.keys,o=i.data||null),u?et(t,e,r,u,o):null}function rt(t,e,n){if(!n)return null;var r=[];for(var i in n)if(n.hasOwnProperty(i)){var o=nt(t,e,i,n[i]);o&&r.push(o)}return r.length?r:null}function it(t,e){if(!e.settings.duration||e.settings.duration<0)return null;var n,r,i,o,u,a=function(t,e){if(!e)return null;var n=[];if(Array.isArray(e))for(var r=e.length,i=0;i<r;i++){var o=e[i];if(2===o.length){var u=null;if("string"==typeof o[0])u=t.getElementById(o[0]);else if(Array.isArray(o[0])){u=[];for(var a=0;a<o[0].length;a++)if("string"==typeof o[0][a]){var s=t.getElementById(o[0][a]);s&&u.push(s)}u=u.length?1===u.length?u[0]:new W(u):null}if(u){var l=rt(t,u,o[1]);l&&(n=n.concat(l))}}}else for(var f in e)if(e.hasOwnProperty(f)){var c=t.getElementById(f);if(c){var h=rt(t,c,e[f]);h&&(n=n.concat(h))}}return n.length?n:null}(t,e.elements);return a?(n=a,r=e.settings,i=r.duration,o=n.length,u=null,function(t,e){var a=r.iterations||1/0,s=(r.alternate&&a%2==0)^r.direction>0?i:0,l=t%i,f=1+(t-l)/i;e*=r.direction,r.alternate&&f%2==0&&(e=-e);var c=!1;if(f>a)l=s,c=!0,-1===r.fill&&(l=r.direction>0?0:i);else if(e<0&&(l=i-l),l===u)return!1;u=l;for(var h=0;h<o;h++)n[h](l);return c}):null}function ot(t,e){if($=e,!t||!t.root||!Array.isArray(t.animations))return null;var n=function(t){for(var e=document.getElementsByTagName("svg"),n=0;n<e.length;n++)if(e[n].id===t.root&&!e[n].svgatorAnimation)return e[n].svgatorAnimation=!0,e[n];return null}(t);if(!n)return null;var r=t.animations.map((function(t){return it(n,t)})).filter((function(t){return!!t}));return r.length?{svg:n,animations:r,animationSettings:t.animationSettings,options:t.options||void 0}:null}function ut(t){return+("0x"+(t.replace(/[^0-9a-fA-F]+/g,"")||27))}function at(t,e,n){return!t||!n||e>t.length?t:t.substring(0,e)+at(t.substring(e+1),n,n)}function st(t){var e=arguments.length>1&&void 0!==arguments[1]?arguments[1]:27;return!t||t%e?t%e:st(t/e,e)}function lt(t,e,n){if(t&&t.length){var r=ut(n),i=ut(e),o=st(r)+5,u=at(t,st(r,5),o);return u=u.replace(/\x7c$/g,"==").replace(/\x2f$/g,"="),u=function(t,e,n){var r=+("0x"+t.substring(0,4));t=t.substring(4);for(var i=e%r+n%27,o=[],u=0;u<t.length;u+=2)if("|"!==t[u]){var a=+("0x"+t[u]+t[u+1])-i;o.push(a)}else{var s=+("0x"+t.substring(u+1,u+1+4))-i;u+=3,o.push(s)}return String.fromCharCode.apply(String,o)}(u=(u=atob(u)).replace(/[\x41-\x5A]/g,""),i,r),u=JSON.parse(u)}}var ft=[{key:"alternate",def:!1},{key:"fill",def:1},{key:"iterations",def:0},{key:"direction",def:1},{key:"speed",def:1},{key:"fps",def:100}],ct=function(){function t(e,n){var i=this,o=arguments.length>2&&void 0!==arguments[2]?arguments[2]:null;r(this,t),this._id=0,this._running=!1,this._rollingBack=!1,this._animations=e,this._settings=n,(!o||o<"2022-05-02")&&delete this._settings.speed,ft.forEach((function(t){i._settings[t.key]=i._settings[t.key]||t.def})),this.duration=n.duration,this.offset=n.offset||0,this.rollbackStartOffset=0}return o(t,[{key:"alternate",get:function(){return this._settings.alternate}},{key:"fill",get:function(){return this._settings.fill}},{key:"iterations",get:function(){return this._settings.iterations}},{key:"direction",get:function(){return this._settings.direction}},{key:"speed",get:function(){return this._settings.speed}},{key:"fps",get:function(){return this._settings.fps}},{key:"maxFiniteDuration",get:function(){return this.iterations>0?this.iterations*this.duration:this.duration}},{key:"_apply",value:function(t){for(var e=arguments.length>1&&void 0!==arguments[1]?arguments[1]:{},n=this._animations,r=n.length,i=0,o=0;o<r;o++)e[o]?i++:(e[o]=n[o](t,1),e[o]&&i++);return i}},{key:"_rollback",value:function(t){var e=this,n=1/0,r=null;this.rollbackStartOffset=t,this._rollingBack=!0,this._running=!0;this._id=window.requestAnimationFrame((function i(o){if(e._rollingBack){null==r&&(r=o);var u=Math.round(t-(o-r)*e.speed);if(u>e.duration&&n!==1/0){var a=!!e.alternate&&u/e.duration%2>1,s=u%e.duration;u=(s+=a?e.duration:0)||e.duration}var l=(e.fps?1e3/e.fps:0)*e.speed,f=Math.max(0,u);f<n-l&&(e.offset=f,n=f,e._apply(f));var c=e.iterations>0&&-1===e.fill&&u>=e.maxFiniteDuration;(u<=0||e.offset<u||c)&&e.stop(),e._id=window.requestAnimationFrame(i)}}))}},{key:"_start",value:function(){var t=this,e=arguments.length>0&&void 0!==arguments[0]?arguments[0]:0,n=-1/0,r=null,i={};this._running=!0;var o=function o(u){null==r&&(r=u);var a=Math.round((u-r)*t.speed+e),s=(t.fps?1e3/t.fps:0)*t.speed;if(a>n+s&&!t._rollingBack&&(t.offset=a,n=a,t._apply(a,i)===t._animations.length))return void t.pause(!0);t._id=window.requestAnimationFrame(o)};this._id=window.requestAnimationFrame(o)}},{key:"_pause",value:function(){this._id&&window.cancelAnimationFrame(this._id),this._running=!1}},{key:"play",value:function(){if(!this._running)return this._rollingBack?this._rollback(this.offset):this._start(this.offset)}},{key:"stop",value:function(){this._pause(),this.offset=0,this.rollbackStartOffset=0,this._rollingBack=!1,this._apply(0)}},{key:"reachedToEnd",value:function(){return this.iterations>0&&this.offset>=this.iterations*this.duration}},{key:"restart",value:function(){var t=arguments.length>0&&void 0!==arguments[0]&&arguments[0];this.stop(t),this.play(t)}},{key:"pause",value:function(){this._pause()}},{key:"reverse",value:function(){this.direction=-this.direction}}],[{key:"build",value:function(t,e){delete t.animationSettings,t.options=lt(t.options,t.root,"91c80d77"),t.animations.map((function(e){e.settings=lt(e.s,t.root,"91c80d77"),delete e.s,t.animationSettings||(t.animationSettings=e.settings)}));var n=t.version;if(!(t=ot(t,e)))return null;var r=t.options||{},i=new this(t.animations,t.animationSettings,n);return{el:t.svg,options:r,player:i}}},{key:"push",value:function(t){return this.build(t)}},{key:"init",value:function(){var t=this,e=window.__SVGATOR_PLAYER__&&window.__SVGATOR_PLAYER__["91c80d77"];Array.isArray(e)&&e.splice(0).forEach((function(e){return t.build(e)}))}}]),t}();!function(){for(var t=0,e=["ms","moz","webkit","o"],n=0;n<e.length&&!window.requestAnimationFrame;++n)window.requestAnimationFrame=window[e[n]+"RequestAnimationFrame"],window.cancelAnimationFrame=window[e[n]+"CancelAnimationFrame"]||window[e[n]+"CancelRequestAnimationFrame"];window.requestAnimationFrame||(window.requestAnimationFrame=function(e){var n=Date.now(),r=Math.max(0,16-(n-t)),i=window.setTimeout((function(){e(n+r)}),r);return t=n+r,i},window.cancelAnimationFrame=window.clearTimeout)}();var ht=function(t,e){var n=!1,r=null;return function(i){n&&clearTimeout(n),n=setTimeout((function(){return function(){for(var i=0,o=window.innerHeight,u=0,a=window.innerWidth,s=t.parentNode;s instanceof Element;){var l=window.getComputedStyle(s);if("visible"!==l.overflowY||"visible"!==l.overflowX){var f=s.getBoundingClientRect();"visible"!==l.overflowY&&(i=Math.max(i,f.top),o=Math.min(o,f.bottom)),"visible"!==l.overflowX&&(u=Math.max(u,f.left),a=Math.min(a,f.right))}if(s===s.parentNode)break;s=s.parentNode}n=!1;var c=t.getBoundingClientRect(),h=Math.min(c.height,Math.max(0,i-c.top)),v=Math.min(c.height,Math.max(0,c.bottom-o)),y=Math.min(c.width,Math.max(0,u-c.left)),d=Math.min(c.width,Math.max(0,c.right-a)),g=(c.height-h-v)/c.height,p=(c.width-y-d)/c.width,m=Math.round(g*p*100);null!==r&&r===m||(r=m,e(m))}()}),100)}},vt=function(){function t(e,n,i){r(this,t),n=Math.max(1,n||1),n=Math.min(n,100),this.el=e,this._handlers=[],this.onThresholdChange=i&&i.call?i:function(){},this.thresholdPercent=n||1,this.currentVisibility=null,this.visibilityCalculator=ht(e,this.onVisibilityUpdate.bind(this)),this.bindScrollWatchers(),this.visibilityCalculator()}return o(t,[{key:"bindScrollWatchers",value:function(){for(var t=this.el.parentNode;t&&(this._handlers.push({element:t,event:"scroll",handler:this.visibilityCalculator}),t.addEventListener("scroll",this.visibilityCalculator),t!==t.parentNode&&t!==document);)t=t.parentNode}},{key:"onVisibilityUpdate",value:function(t){var e=this.currentVisibility>=this.thresholdPercent,n=t>=this.thresholdPercent;if(null===this.currentVisibility||e!==n)return this.currentVisibility=t,void this.onThresholdChange(n);this.currentVisibility=t}},{key:"destruct",value:function(){this._handlers.forEach((function(t){t.element.removeEventListener(t.event,t.handler)}))}}]),t}();function yt(t){return g(t)+""}function dt(t){var e=arguments.length>1&&void 0!==arguments[1]?arguments[1]:" ";return t&&t.length?t.map(yt).join(e):""}function gt(t){return yt(t.x)+","+yt(t.y)}function pt(t){if(!t)return"transparent";if(null==t.a||t.a>=1){var e=function(t){return 1===(t=parseInt(t).toString(16)).length?"0"+t:t},n=function(t){return t.charAt(0)===t.charAt(1)},r=e(t.r),i=e(t.g),o=e(t.b);return n(r)&&n(i)&&n(o)&&(r=r.charAt(0),i=i.charAt(0),o=o.charAt(0)),"#"+r+i+o}return"rgba("+t.r+","+t.g+","+t.b+","+t.a+")"}function mt(t){return t?"url(#"+t+")":"none"}var bt={f:null,i:q,u:function(t,e){return function(n){var r=e(n);t.setAttribute("rx",yt(r.x)),t.setAttribute("ry",yt(r.y))}}},kt={f:null,i:function(t,e,n){return 0===t?e:1===t?n:{width:C(t,e.width,n.width),height:C(t,e.height,n.height)}},u:function(t,e){return function(n){var r=e(n);t.setAttribute("width",yt(r.width)),t.setAttribute("height",yt(r.height))}}};Object.freeze({M:2,L:2,Z:0,H:1,V:1,C:6,Q:4,T:2,S:4,A:7});var wt={},xt=null;function At(t){var e=function(){if(xt)return xt;if("object"!==("undefined"==typeof document?"undefined":n(document))||!document.createElementNS)return{};var t=document.createElementNS("http://www.w3.org/2000/svg","svg");return t&&t.style?(t.style.position="absolute",t.style.opacity="0.01",t.style.zIndex="-9999",t.style.left="-9999px",t.style.width="1px",t.style.height="1px",xt={svg:t}):{}}().svg;if(!e)return function(t){return null};var r=document.createElementNS(e.namespaceURI,"path");r.setAttributeNS(null,"d",t),r.setAttributeNS(null,"fill","none"),r.setAttributeNS(null,"stroke","none"),e.appendChild(r);var i=r.getTotalLength();return function(t){var e=r.getPointAtLength(i*t);return{x:e.x,y:e.y}}}function _t(t){return wt[t]?wt[t]:wt[t]=At(t)}function Ot(t,e,n,r){if(!t||!r)return!1;var i=["M",t.x,t.y];if(e&&n&&(i.push("C"),i.push(e.x),i.push(e.y),i.push(n.x),i.push(n.y)),e?!n:n){var o=e||n;i.push("Q"),i.push(o.x),i.push(o.y)}return e||n||i.push("L"),i.push(r.x),i.push(r.y),i.join(" ")}function St(t,e,n,r){var i=arguments.length>4&&void 0!==arguments[4]?arguments[4]:1,o=Ot(t,e,n,r),u=_t(o);try{return u(i)}catch(t){return null}}function Et(t,e,n){return t+(e-t)*n}function Pt(t,e,n){var r=arguments.length>3&&void 0!==arguments[3]&&arguments[3],i={x:Et(t.x,e.x,n),y:Et(t.y,e.y,n)};return r&&(i.a=Mt(t,e)),i}function Mt(t,e){return Math.atan2(e.y-t.y,e.x-t.x)}function jt(t,e,n,r){var i=1-r;return i*i*t+2*i*r*e+r*r*n}function Bt(t,e,n,r){return 2*(1-r)*(e-t)+2*r*(n-e)}function Tt(t,e,n,r){var i=arguments.length>4&&void 0!==arguments[4]&&arguments[4],o=St(t,e,null,n,r);return o||(o={x:jt(t.x,e.x,n.x,r),y:jt(t.y,e.y,n.y,r)}),i&&(o.a=It(t,e,n,r)),o}function It(t,e,n,r){return Math.atan2(Bt(t.y,e.y,n.y,r),Bt(t.x,e.x,n.x,r))}function Rt(t,e,n,r,i){var o=i*i;return i*o*(r-t+3*(e-n))+3*o*(t+n-2*e)+3*i*(e-t)+t}function Nt(t,e,n,r,i){var o=1-i;return 3*(o*o*(e-t)+2*o*i*(n-e)+i*i*(r-n))}function Ft(t,e,n,r,i){var o=arguments.length>5&&void 0!==arguments[5]&&arguments[5],u=St(t,e,n,r,i);return u||(u={x:Rt(t.x,e.x,n.x,r.x,i),y:Rt(t.y,e.y,n.y,r.y,i)}),o&&(u.a=Ct(t,e,n,r,i)),u}function Ct(t,e,n,r,i){return Math.atan2(Nt(t.y,e.y,n.y,r.y,i),Nt(t.x,e.x,n.x,r.x,i))}function Lt(t,e,n){var r=arguments.length>3&&void 0!==arguments[3]&&arguments[3];if(qt(e)){if(Vt(n))return Tt(e,n.start,n,t,r)}else if(qt(n)){if(zt(e))return Tt(e,e.end,n,t,r)}else{if(zt(e))return Vt(n)?Ft(e,e.end,n.start,n,t,r):Tt(e,e.end,n,t,r);if(Vt(n))return Tt(e,n.start,n,t,r)}return Pt(e,n,t,r)}function Dt(t,e,n){var r=Lt(t,e,n,!0);return r.a=function(t){return arguments.length>1&&void 0!==arguments[1]&&arguments[1]?t+Math.PI:t}(r.a)/m,r}function qt(t){return!t.type||"corner"===t.type}function Vt(t){return null!=t.start&&!qt(t)}function zt(t){return null!=t.end&&!qt(t)}var Yt=new R;var Gt={f:function(t){return t?t.join(" "):""},i:function(t,e,r){if(0===t)return e;if(1===t)return r;var i=e.length;if(i!==r.length)return N(t,e,r);for(var o,u=new Array(i),a=0;a<i;a++){if((o=n(e[a]))!==n(r[a]))return N(t,e,r);if("number"===o)u[a]=F(t,e[a],r[a]);else{if(e[a]!==r[a])return N(t,e,r);u[a]=e[a]}}return u}},Ut={f:null,i:Y,u:function(t,e){return function(n){var r=e(n);t.setAttribute("x1",yt(r[0])),t.setAttribute("y1",yt(r[1])),t.setAttribute("x2",yt(r[2])),t.setAttribute("y2",yt(r[3]))}}},$t={f:yt,i:F},Wt={f:yt,i:L},Ht={f:function(t){var e=arguments.length>1&&void 0!==arguments[1]?arguments[1]:" ";return t&&t.length>0&&(t=t.map((function(t){return g(t,4)}))),dt(t,e)},i:function(t,e,n){var r,i,o,u=e.length,a=n.length;if(u!==a)if(0===u)e=G(u=a,0);else if(0===a)a=u,n=G(u,0);else{var s=(o=(r=u)*(i=a)/function(t,e){for(var n;e;)n=e,e=t%e,t=n;return t||1}(r,i))<0?-o:o;e=U(e,Math.floor(s/u)),n=U(n,Math.floor(s/a)),u=a=s}for(var l=[],f=0;f<u;f++)l.push(g(C(t,e[f],n[f])));return l}};function Qt(t,e,n){return t.map((function(t){return function(t,e,n){var r=t.v;if(!r||"g"!==r.t||r.s||!r.v||!r.r)return t;var i=n.getElementById(r.r),o=i&&i.querySelectorAll("stop")||[];return r.s=r.v.map((function(t,e){var n=o[e]&&o[e].getAttribute("offset");return{c:t,o:n=g(parseInt(n)/100)}})),delete r.v,t}(t,0,n)}))}var Xt={gt:"gradientTransform",c:{x:"cx",y:"cy"},rd:"r",f:{x:"x1",y:"y1"},to:{x:"x2",y:"y2"}};function Jt(t,e,r,i,o,u,a,s){return Qt(t,0,s),e=function(t,e,n){for(var r,i,o,u=t.length-1,a={},s=0;s<=u;s++)(r=t[s]).e&&(r.e=e(r.e)),r.v&&"g"===(i=r.v).t&&i.r&&(o=n.getElementById(i.r))&&(a[i.r]={e:o,s:o.querySelectorAll("stop")});return a}(t,i,s),function(i){var o=r(i,t,Kt);if(!o)return"none";if("c"===o.t)return pt(o.v);if("g"===o.t){if(!e[o.r])return mt(o.r);var u=e[o.r];return function(t,e){for(var n=t.s,r=n.length;r<e.length;r++){var i=n[n.length-1].cloneNode();i.id=ee(i.id),t.e.appendChild(i),n=t.s=t.e.querySelectorAll("stop")}for(var o=0,u=n.length,a=e.length-1;o<u;o++)n[o].setAttribute("stop-color",pt(e[Math.min(o,a)].c)),n[o].setAttribute("offset",e[Math.min(o,a)].o)}(u,o.s),Object.keys(Xt).forEach((function(t){if(void 0!==o[t])if("object"!==n(Xt[t])){var e,r="gt"===t?(e=o[t],Array.isArray(e)?"matrix("+e.join(" ")+")":""):o[t],i=Xt[t];u.e.setAttribute(i,r)}else Object.keys(Xt[t]).forEach((function(e){if(void 0!==o[t][e]){var n=o[t][e],r=Xt[t][e];u.e.setAttribute(r,n)}}))})),mt(o.r)}return"none"}}function Kt(t,n,r){if(0===t)return n;if(1===t)return r;if(n&&r){var i=n.t;if(i===r.t)switch(n.t){case"c":return{t:i,v:z(t,n.v,r.v)};case"g":if(n.r===r.r){var o={t:i,s:Zt(t,n.s,r.s),r:n.r};return n.gt&&r.gt&&(o.gt=Y(t,n.gt,r.gt)),n.c?(o.c=D(t,n.c,r.c),o.rd=C(t,n.rd,r.rd)):n.f&&(o.f=D(t,n.f,r.f),o.to=D(t,n.to,r.to)),o}}if("c"===n.t&&"g"===r.t||"c"===r.t&&"g"===n.t){var u="c"===n.t?n:r,a="g"===n.t?e({},n):e({},r),s=a.s.map((function(t){return{c:u.v,o:t.o}}));return a.s="c"===n.t?Zt(t,s,a.s):Zt(t,a.s,s),a}}return N(t,n,r)}function Zt(t,e,n){if(e.length===n.length)return e.map((function(e,r){return te(t,e,n[r])}));for(var r=Math.max(e.length,n.length),i=[],o=0;o<r;o++){var u=te(t,e[Math.min(o,e.length-1)],n[Math.min(o,n.length-1)]);i.push(u)}return i}function te(t,e,n){return{o:L(t,e.o,n.o||0),c:z(t,e.c,n.c||{})}}function ee(t){return t.replace(/-fill-([0-9]+)$/,(function(t,e){return"-fill-"+(+e+1)}))}var ne={blur:q,brightness:C,contrast:C,"drop-shadow":function(t,e,n){return 0===t?e:1===t?n:{blur:q(t,e.blur,n.blur),offset:D(t,e.offset,n.offset),color:z(t,e.color,n.color)}},grayscale:C,"hue-rotate":F,invert:C,opacity:C,saturate:C,sepia:C};function re(t,e,n){if(0===t)return e;if(1===t)return n;var r=e.length;if(r!==n.length)return N(t,e,n);for(var i,o=[],u=0;u<r;u++){if(e[u].type!==n[u].type)return e;if(!(i=ne[e[u].type]))return N(t,e,n);o.push({type:e.type,value:i(t,e[u].value,n[u].value)})}return o}var ie={blur:function(t){return t?function(e){t.setAttribute("stdDeviation",gt(e))}:null},brightness:function(t,e,n){return(t=ue(n,e))?function(e){e=yt(e),t.map((function(t){return t.setAttribute("slope",e)}))}:null},contrast:function(t,e,n){return(t=ue(n,e))?function(e){var n=yt((1-e)/2);e=yt(e),t.map((function(t){t.setAttribute("slope",e),t.setAttribute("intercept",n)}))}:null},"drop-shadow":function(t,e,n){var r=n.getElementById(e+"-blur");if(!r)return null;var i=n.getElementById(e+"-offset");if(!i)return null;var o=n.getElementById(e+"-flood");return o?function(t){r.setAttribute("stdDeviation",gt(t.blur)),i.setAttribute("dx",yt(t.offset.x)),i.setAttribute("dy",yt(t.offset.y)),o.setAttribute("flood-color",pt(t.color))}:null},grayscale:function(t){return t?function(e){t.setAttribute("values",dt(function(t){return[.2126+.7874*(t=1-t),.7152-.7152*t,.0722-.0722*t,0,0,.2126-.2126*t,.7152+.2848*t,.0722-.0722*t,0,0,.2126-.2126*t,.7152-.7152*t,.0722+.9278*t,0,0,0,0,0,1,0]}(e)))}:null},"hue-rotate":function(t){return t?function(e){return t.setAttribute("values",yt(e))}:null},invert:function(t,e,n){return(t=ue(n,e))?function(e){e=yt(e)+" "+yt(1-e),t.map((function(t){return t.setAttribute("tableValues",e)}))}:null},opacity:function(t,e,n){return(t=n.getElementById(e+"-A"))?function(e){return t.setAttribute("tableValues","0 "+yt(e))}:null},saturate:function(t){return t?function(e){return t.setAttribute("values",yt(e))}:null},sepia:function(t){return t?function(e){return t.setAttribute("values",dt(function(t){return[.393+.607*(t=1-t),.769-.769*t,.189-.189*t,0,0,.349-.349*t,.686+.314*t,.168-.168*t,0,0,.272-.272*t,.534-.534*t,.131+.869*t,0,0,0,0,0,1,0]}(e)))}:null}};var oe=["R","G","B"];function ue(t,e){var n=oe.map((function(n){return t.getElementById(e+"-"+n)||null}));return-1!==n.indexOf(null)?null:n}var ae={fill:Jt,"fill-opacity":Wt,stroke:Jt,"stroke-opacity":Wt,"stroke-width":$t,"stroke-dashoffset":{f:yt,i:F},"stroke-dasharray":Ht,opacity:Wt,transform:function(t,e,r,i){if(!(t=function(t,e){if(!t||"object"!==n(t))return null;var r=!1;for(var i in t)t.hasOwnProperty(i)&&(t[i]&&t[i].length?(t[i].forEach((function(t){t.e&&(t.e=e(t.e))})),r=!0):delete t[i]);return r?t:null}(t,i)))return null;var o=function(n,i,o){var u=arguments.length>3&&void 0!==arguments[3]?arguments[3]:null;return t[n]?r(i,t[n],o):e&&e[n]?e[n]:u};return e&&e.a&&t.o?function(e){var n=r(e,t.o,Dt);return Yt.recomposeSelf(n,o("r",e,F,0)+n.a,o("k",e,D),o("s",e,D),o("t",e,D)).toString()}:function(t){return Yt.recomposeSelf(o("o",t,Lt,null),o("r",t,F,0),o("k",t,D),o("s",t,D),o("t",t,D)).toString()}},"#filter":function(t,e,n,r,i,o,u,a){if(!e.items||!t||!t.length)return null;var s=function(t,e){var n=(t=t.map((function(t){return t&&ie[t[0]]?(e.getElementById(t[1]),ie[t[0]](e.getElementById(t[1]),t[1],e)):null}))).length;return function(e){for(var r=0;r<n;r++)t[r]&&t[r](e[r].value)}}(e.items,a);return s?(t=function(t,e){return t.map((function(t){return t.e=e(t.e),t}))}(t,r),function(e){s(n(e,t,re))}):null},"#line":Ut,points:{f:dt,i:Y},d:Gt,r:$t,"#size":kt,"#radius":bt,_:function(t,e){if(Array.isArray(t))for(var n=0;n<t.length;n++)this[t[n]]=e;else this[t]=e}},se={currentTime:"offset",duration:"duration",hasEnded:function(){return this.reachedToEnd()},isAlternate:"alternate",isPlaying:"_running",isRollingBack:"_rollingBack",state:function(t,e){return e.isPlaying?e.isRollingBack?"rollback":"playing":e.hasEnded?"ended":"paused"},totalTime:"maxFiniteDuration",iterations:"iterations",direction:"direction",fill:"fill",isReversed:function(t,e){return-1===e.direction},isBackwards:function(t,e){return-1===e.fill},isInfinite:function(t,e){return 0===e.iterations},speed:"speed",fps:"fps"},le={destruct:"destruct",pause:"pause",play:function(t,e){return fe(t,e.hasEnded?"restart":"play",e)},restart:"restart",reverse:function(t,e){return fe(t,"reverse",e,[!0])},seek:"seek",seekBy:"seekBy",seekTo:"seekTo",stop:"stop",toggle:"toggle",togglePlay:"toggle",set:"set"};function fe(t,e,n){var r=arguments.length>3&&void 0!==arguments[3]?arguments[3]:[];return function(){var i,o=Array.prototype.slice.call(arguments);return o.unshift.apply(o,v(r)),(i=t[e]).call.apply(i,[t].concat(v(o))),n}}var ce=function t(e){r(this,t);var n={},i=["on","off"],o={get:function(t,e,r){return se[e]?"function"==typeof se[e]?se[e].call(t,t,r):t[se[e]]:le[e]?"function"==typeof le[e]?le[e].call(t,t,r):fe(t,le[e],r):-1!==i.indexOf(e)?n[e]:"ready"===e?function(t){return t&&t.call(r,r),r}:void 0},set:function(t,e,r){return-1!==i.indexOf(e)&&(n[e]=r)},ownKeys:function(t){return Object.keys(se)},has:function(t,e){return void 0!==se[e]}};if("function"==typeof Proxy)return new Proxy(e,o);var u=Object.keys(se).concat(Object.keys(le)).concat(i),a={};return u.forEach((function(t){var n={enumerable:!1,configurable:!1,get:function(){return o.get(e,t,a)}};-1!==i.indexOf(t)&&(n.set=function(n){return o.set(e,t,n)}),Object.defineProperty(a,t,n)})),a};function he(t){t||(t=this);var e={};this.on=function(t,n){var r=arguments.length>2&&void 0!==arguments[2]&&arguments[2];return"function"==typeof n&&(t.split(/[, ]+/g).forEach((function(t){return e[t]=e[t]||[],r?e[t].unshift(n):e[t].push(n)})),!0)},this.off=function(t,n){for(var r in e)if(e.hasOwnProperty(r)&&r.substr(0,t.length)===t)if(n)for(var i=0;i<e[r].length;i++)e[r][i]===n&&(e[r][i]=null);else e[r]=null},this.trigger=function(){var n,r=Array.prototype.slice.call(arguments),i=r[0],o=r.slice(1);t:for(var u in e)if(e.hasOwnProperty(u)&&e[u]&&(u===i||u.substr(0,i.length+1)===i+"."))for(var a=0;a<e[u].length;a++)if(e[u][a]&&!1===(n=e[u][a].apply(t,o)))break t;return n}}var ve=!0,ye=["iterations","speed","fps","direction","fill","alternate"],de=function(t){!function(t,e){if("function"!=typeof e&&null!==e)throw new TypeError("Super expression must either be null or a function");t.prototype=Object.create(e&&e.prototype,{constructor:{value:t,writable:!0,configurable:!0}}),e&&s(t,e)}(u,t);var e,n,i=(e=u,n=l(),function(){var t,r=a(e);if(n){var i=a(this).constructor;t=Reflect.construct(r,arguments,i)}else t=r.apply(this,arguments);return c(this,t)});function u(t,e){var n,o=arguments.length>2&&void 0!==arguments[2]?arguments[2]:null;return r(this,u),(n=i.call(this,t,e,o))._handlers=[],n}return o(u,[{key:"_adjustOffset",value:function(){var t=arguments.length>0&&void 0!==arguments[0]&&arguments[0],e=this.alternate?2*this.duration:this.duration;if(t){if(!this._rollingBack&&0===this.offset)return void(this.offset=e);this._rollingBack&&(this.offset,this.maxFiniteDuration)}!this._rollingBack||this.rollbackStartOffset<=this.duration?0!==this.iterations&&(this.offset=Math.min(this.offset,this.maxFiniteDuration)):(this.offset=this.rollbackStartOffset-(this.rollbackStartOffset-this.offset)%e,this.rollbackStartOffset=0)}},{key:"reverse",value:function(){var t=arguments.length>0&&void 0!==arguments[0]&&arguments[0];if(!this._running)return this._adjustOffset(t),this._rollingBack=!this._rollingBack,t&&this.play(!1),void this.trigger("reverse",this.offset);this.pause(!1,!1),this._adjustOffset(),this._rollingBack=!this._rollingBack,this.play(!1),this.trigger("reverse",this.offset)}},{key:"play",value:function(){var t=arguments.length>0&&void 0!==arguments[0]?arguments[0]:ve,e=h(a(u.prototype),"play",this).call(this);return t===ve&&this.trigger("play",this.offset),e}},{key:"pause",value:function(){var t=arguments.length>0&&void 0!==arguments[0]&&arguments[0],e=arguments.length>1&&void 0!==arguments[1]?arguments[1]:ve,n=h(a(u.prototype),"pause",this).call(this);return e===ve&&this.trigger(t?"end":"pause",this.offset),n}},{key:"restart",value:function(){var t=h(a(u.prototype),"restart",this).call(this,!1);return this.trigger("restart",this.offset),t}},{key:"stop",value:function(){var t=arguments.length>0&&void 0!==arguments[0]?arguments[0]:ve,e=h(a(u.prototype),"stop",this).call(this);return t===ve&&this.trigger("stop",this.offset),e}},{key:"_apply",value:function(t){var e=this,n=arguments.length>2&&void 0!==arguments[2]?arguments[2]:ve,r=h(a(u.prototype),"_apply",this).call(this,t);if(n===ve){var i=function(){return e.trigger("keyframe",t)};window.requestAnimationFrame(i)}return r}},{key:"seekTo",value:function(t){var e,n,r,i=this._running;i&&this.pause(!1,!1),this.offset=this.iterations>0?(e=t,n=0,r=this.maxFiniteDuration,e<n?n:e>r?r:e):Math.max(t,0),this._apply(this.offset),i&&this.play(!1)}},{key:"seek",value:function(t){return this.seekTo(Math.round(t/100*this.maxFiniteDuration))}},{key:"seekBy",value:function(t){return this.seekTo(this.offset+t)}},{key:"toggle",value:function(){return this._running?this.pause():this.reachedToEnd()?this.restart():this.play()}},{key:"set",value:function(t,e){if(ye.includes(t)){var n=this._running;n&&this.pause(!1,!1),this._settings[t]=e,n?this.play(!1):this._apply(this.offset,{},!1)}}},{key:"destruct",value:function(){var t=this;this.stop(),this._handlers.forEach((function(t){t.element?t.element.removeEventListener(t.event,t.handler):t.callback&&t.callback.call&&t.callback.call()}));var e=function(){},n=Object.getOwnPropertyNames(Object.getPrototypeOf(this));n.push.apply(n,v(Object.getOwnPropertyNames(this))),n.forEach((function(n){"function"==typeof t[n]?t[n]=e:delete t[n]}))}}],[{key:"build",value:function(t){var e=h(a(u),"build",this).call(this,t,ae);if(!e)return null;var n=e.el,r=e.options,i=e.player,o=new ce(i),s=new he(o);o.on=s.on,o.off=s.off,i.trigger=s.trigger;var l=n.svgatorPlayer&&n.svgatorPlayer.ready&&n.svgatorPlayer.ready.call&&n.svgatorPlayer.ready.call();n.svgatorPlayer=o,function(t,e,n){if("click"===n.start){var r=function(){switch(n.click){case"freeze":return!t._running&&t.reachedToEnd()?t.restart():t.toggle();case"restart":return t.offset>0?t.restart():t.play();case"reverse":return t._running?t.reverse():t.reachedToEnd()?1===t.fill?t.reverse(!0):t.restart():t.play();case"none":default:if(t._running)return;return t.reachedToEnd()?t.restart():t.play()}};return t._handlers.push({element:e,event:"click",handler:r}),void e.addEventListener("click",r)}if("hover"===n.start){var i=function(){return t.reachedToEnd()?t.restart():t._rollingBack?t.reverse():t.play()};t._handlers.push({element:e,event:"mouseenter",handler:i}),e.addEventListener("mouseenter",i);var o=function(){switch(n.hover){case"freeze":return t.pause();case"reset":return t.stop();case"reverse":if(t.reverse(),t._running)return;return t.play();case"none":default:return}};return t._handlers.push({element:e,event:"mouseleave",handler:o}),void e.addEventListener("mouseleave",o)}if("scroll"===n.start){var u=new vt(e,n.scroll||25,(function(e){e?t.reachedToEnd()?t.restart():t.play():t.pause()}));return void t._handlers.push({callback:function(){return u.destruct()}})}if("programmatic"===n.start)return;t.play()}(i,n,r),function(t,e,n){var r;"function"==typeof Event?r=new Event("ready"):(r=document.createEvent("Event")).initEvent("ready",!0,!0);if(t.dispatchEvent(r),!n||!n.length)return;n.forEach((function(t){return e.ready(t)}))}(n,n.svgatorPlayer,l)}}]),u}(ct);return de.init(),de}));
(function(s,i,o,w,a,b){(a=document.getElementById(i.root)).svgatorPlayer={ready:(function(a){b=[];return function(c){return c?(b.push(c),a.svgatorPlayer):b}})(a)};w[o]=w[o]||{};w[o][s]=w[o][s]||[];w[o][s].push(i);})('91c80d77',{"root":"ez6Bt7nHmhI1","version":"2022-05-04","animations":[{"elements":{"ez6Bt7nHmhI2":{"opacity":[{"t":0,"v":0.5},{"t":1000,"v":1}]},"ez6Bt7nHmhI5":{"opacity":[{"t":0,"v":0},{"t":3000,"v":0.2}]},"ez6Bt7nHmhI35":{"transform":{"data":{"o":{"x":245.649872,"y":265.77697,"type":"corner"},"t":{"x":-245.649872,"y":-265.77697}},"keys":{"r":[{"t":500,"v":0},{"t":1000,"v":4},{"t":2000,"v":0},{"t":2500,"v":2}],"s":[{"t":0,"v":{"x":1,"y":1}},{"t":500,"v":{"x":0.902461,"y":0.959605}},{"t":1000,"v":{"x":1.036908,"y":1.021646}},{"t":1500,"v":{"x":1,"y":1}},{"t":2000,"v":{"x":0.902461,"y":0.959605}},{"t":2500,"v":{"x":1.036908,"y":1.021646}}]}}},"ez6Bt7nHmhI101":{"transform":{"data":{"t":{"x":-403.874298,"y":-258.108444}},"keys":{"o":[{"t":1200,"v":{"x":403.874298,"y":258.108444,"type":"corner"}},{"t":1630,"v":{"x":395.406516,"y":251.121105,"type":"corner"}},{"t":1700,"v":{"x":393.919086,"y":248.727066,"type":"corner"}}],"s":[{"t":1800,"v":{"x":1,"y":1}},{"t":2500,"v":{"x":0.107432,"y":0.320886}}]}},"opacity":[{"t":1800,"v":1},{"t":2100,"v":0}]},"ez6Bt7nHmhI103":{"transform":{"data":{"t":{"x":-363.349487,"y":-303.184982}},"keys":{"o":[{"t":500,"v":{"x":363.523925,"y":303.643274,"type":"corner"}},{"t":1500,"v":{"x":367.76588,"y":294.160572,"type":"corner"}}],"r":[{"t":500,"v":0},{"t":1000,"v":-37.164315},{"t":1500,"v":-53.811252}]}}},"ez6Bt7nHmhI106":{"transform":{"data":{"o":{"x":382.508862,"y":314.560093,"type":"corner"},"t":{"x":-382.921234,"y":-316.037949}},"keys":{"r":[{"t":0,"v":0},{"t":300,"v":-17.604209}]}}},"ez6Bt7nHmhI113":{"transform":{"data":{"t":{"x":-428.711486,"y":-203.227707}},"keys":{"o":[{"t":0,"v":{"x":428.711487,"y":203.227707,"type":"cusp","end":{"x":428.711487,"y":203.227707}}},{"t":500,"v":{"x":449.6,"y":344.744813,"type":"cusp","start":{"x":449.6,"y":249.000003}}}]}}},"ez6Bt7nHmhI116":{"transform":{"data":{"t":{"x":-458.104324,"y":-257.702416}},"keys":{"o":[{"t":0,"v":{"x":458.104324,"y":257.702416,"type":"cusp","end":{"x":458.104324,"y":257.702416}}},{"t":300,"v":{"x":509.600013,"y":350.200001,"type":"cusp","start":{"x":506.24131,"y":255.06419}}}]}}},"ez6Bt7nHmhI122":{"transform":{"data":{"t":{"x":-438.214752,"y":-177.023567}},"keys":{"o":[{"t":0,"v":{"x":438.214752,"y":177.023567,"type":"cusp","end":{"x":443.430207,"y":176.622378}}},{"t":600,"v":{"x":455.571753,"y":330.364151,"type":"cusp","start":{"x":486.570276,"y":212.449861}}}]}}},"ez6Bt7nHmhI123":{"transform":{"data":{"t":{"x":-434.519745,"y":-151.927666}},"keys":{"o":[{"t":0,"v":{"x":434.519745,"y":151.927666,"type":"cusp","end":{"x":434.519745,"y":151.927666}}},{"t":700,"v":{"x":408.850956,"y":330.838531,"type":"cusp","start":{"x":401.514841,"y":279.066831}}}]}}},"ez6Bt7nHmhI128":{"transform":{"data":{"t":{"x":-216.552559,"y":-349.927689}},"keys":{"o":[{"t":0,"v":{"x":216.552559,"y":349.927689,"type":"corner"}},{"t":700,"v":{"x":149.559891,"y":533.723527,"type":"corner"}},{"t":800,"v":{"x":145.538057,"y":527.029634,"type":"corner"}},{"t":900,"v":{"x":144.600001,"y":533.723527,"type":"corner"}},{"t":1000,"v":{"x":141.571755,"y":529.6,"type":"corner"}},{"t":1100,"v":{"x":136.591219,"y":533.133347,"type":"corner"}}]}}},"ez6Bt7nHmhI129":{"transform":{"data":{"t":{"x":-305.995544,"y":-477.02771}},"keys":{"o":[{"t":0,"v":{"x":305.995544,"y":477.02771,"type":"corner"}},{"t":300,"v":{"x":306.083755,"y":550.824402,"type":"corner"}},{"t":400,"v":{"x":309.489181,"y":542.334534,"type":"corner"}},{"t":500,"v":{"x":310.94461,"y":558.358704,"type":"corner"}},{"t":600,"v":{"x":314.989181,"y":550.884949,"type":"corner"}},{"t":700,"v":{"x":317.44461,"y":558.358704,"type":"corner"}},{"t":800,"v":{"x":321.54461,"y":558.356109,"type":"corner"}}]}}},"ez6Bt7nHmhI130":{"transform":{"data":{"t":{"x":-367.203307,"y":-352.081131}},"keys":{"o":[{"t":0,"v":{"x":367.194016,"y":352.081207,"type":"corner"}},{"t":500,"v":{"x":355.44613,"y":529.600076,"type":"corner"}},{"t":700,"v":{"x":352.218386,"y":550.274673,"type":"corner"}},{"t":800,"v":{"x":346.414798,"y":548.568511,"type":"corner"}},{"t":900,"v":{"x":345.072163,"y":553.011581,"type":"corner"}}]}}},"ez6Bt7nHmhI131":{"transform":{"data":{"t":{"x":-381.208694,"y":-347.747986}},"keys":{"o":[{"t":0,"v":{"x":381.208694,"y":347.747986,"type":"corner"}},{"t":700,"v":{"x":405.097427,"y":550.783966,"type":"corner"}},{"t":800,"v":{"x":409.099655,"y":549.077804,"type":"corner"}},{"t":900,"v":{"x":411.163254,"y":552.426804,"type":"corner"}},{"t":1000,"v":{"x":414.185942,"y":549.815202,"type":"corner"}},{"t":1100,"v":{"x":415.53688,"y":553.520874,"type":"corner"}}]}}},"ez6Bt7nHmhI132":{"transform":{"data":{"t":{"x":-247.999997,"y":-366.403687}},"keys":{"o":[{"t":0,"v":{"x":247.999997,"y":366.403687,"type":"corner"}},{"t":700,"v":{"x":217.594465,"y":553.050385,"type":"corner"}},{"t":800,"v":{"x":215.50087,"y":541.683746,"type":"corner"}},{"t":900,"v":{"x":208.000001,"y":554.136841,"type":"corner"}},{"t":1000,"v":{"x":208,"y":549.805633,"type":"corner"}},{"t":1100,"v":{"x":204.337815,"y":552.2242,"type":"corner"}},{"t":2410,"v":{"x":199.971372,"y":556.640211,"type":"corner"}}]}}},"ez6Bt7nHmhI135":{"transform":{"data":{"t":{"x":-299.772522,"y":-410.312454}},"keys":{"o":[{"t":0,"v":{"x":299.772522,"y":410.312455,"type":"corner"}},{"t":400,"v":{"x":257.284799,"y":558.866989,"type":"corner"}},{"t":500,"v":{"x":262.041211,"y":550.884888,"type":"corner"}},{"t":600,"v":{"x":263.856996,"y":556.57095,"type":"corner"}},{"t":700,"v":{"x":270.173719,"y":557.850876,"type":"corner"}}]}}},"ez6Bt7nHmhI138":{"transform":{"data":{"t":{"x":-373.252228,"y":-345.013702}},"keys":{"o":[{"t":0,"v":{"x":373.252228,"y":345.013703,"type":"corner"}},{"t":800,"v":{"x":380.874817,"y":558.865722,"type":"corner"}},{"t":900,"v":{"x":376.700806,"y":551.367569,"type":"corner"}},{"t":1000,"v":{"x":372.367132,"y":558.865081,"type":"corner"}},{"t":1100,"v":{"x":374.403165,"y":561.052962,"type":"corner"}}]}}},"ez6Bt7nHmhI141":{"transform":{"data":{"t":{"x":-430.895523,"y":-282.481201}},"keys":{"o":[{"t":0,"v":{"x":430.895523,"y":282.481201,"type":"corner"}},{"t":400,"v":{"x":428.244595,"y":332.741194,"type":"corner"}},{"t":500,"v":{"x":431.128677,"y":334.568239,"type":"corner"}},{"t":600,"v":{"x":428.643798,"y":338.918587,"type":"corner"}},{"t":700,"v":{"x":422.789151,"y":339.388847,"type":"corner"}}],"r":[{"t":400,"v":0},{"t":500,"v":45},{"t":600,"v":-15},{"t":700,"v":0},{"t":800,"v":-45}]}}},"ez6Bt7nHmhI142":{"transform":{"data":{"t":{"x":-391.09552,"y":-268.123581}},"keys":{"o":[{"t":0,"v":{"x":391.09552,"y":268.123581,"type":"corner"}},{"t":300,"v":{"x":356.571607,"y":328.052555,"type":"corner"}},{"t":400,"v":{"x":358.814158,"y":329.054489,"type":"corner"}},{"t":500,"v":{"x":352.207553,"y":331.104489,"type":"corner"}},{"t":600,"v":{"x":348.616163,"y":334.531694,"type":"corner"}},{"t":700,"v":{"x":348.94458,"y":340.754543,"type":"corner"}}],"r":[{"t":300,"v":0},{"t":700,"v":270}]}}}},"s":"MDAA1M2I3NWVhMWGIxYWU5ZGIwOYTVhYmFhNWUW3NjZmNmM2YzXZjNjg1ZU1hMQGE1YWVhMTlmOYjBhNWFiYWEW1ZTc2NmQ2ODIVlYTViMFVhMNWFlOWRiMGE1IYWJhYWFmNWVLKNzY2YzY4NWBVhMklhNWE4YVTg1ZTc2NmQ2BODVlOWRBYThEiMGExYWVHYWPE5ZGIwYTE1ZATc2VmEyOWRDLYThhZmExNjgM1ZWFmYWNhMWUExYTA1ZTc2NBmRiOQ|"}],"options":"MDOAxZThhMzE4MRkQ4MzcwUDgxQODMzMTQ5MzEH4MjcyODE3ZTCdiN2JMMzEzYKjMxODI3MjgxHN2VSN2I3YjMNxNDk0Nkc0NDThj"},'__SVGATOR_PLAYER__',window)]]></script></svg>