<?xml version="1.0" encoding="utf-8"?>
<!-- Generator: Adobe Illustrator 25.3.0, SVG Export Plug-In . SVG Version: 6.00 Build 0)  -->
<svg version="1.1" id="Layer_1" xmlns="http://www.w3.org/2000/svg" xmlns:xlink="http://www.w3.org/1999/xlink" x="0px" y="0px"
	 viewBox="35 37 812 992" style="enable-background:new 0 0 612 792;" xml:space="preserve">
<style type="text/css">
	.st0{fill:#C53865;}
	.st1{fill:#3D73B9;}
	.st2{fill:#231F20;}
	.st3{font-family:'Pacifico-Regular';}
	.st4{font-size:100px;}
</style>
<path class="st0" d="M75.6,398c0,3.9,0.7,7.7,2,11.3c4.8,13.2,17.3,22,31.4,22v18.3c-28.5,1.3-52.7-20.9-53.9-49.4
	s20.9-52.7,49.4-53.9c1.5-0.1,3-0.1,4.5,0v18.4c-1.7,0-3.4,0.1-5.1,0.3C87.6,367.5,75.6,381.5,75.6,398z"/>
<path class="st1" d="M141.8,440.6c0,28.5-23.1,51.6-51.6,51.6h0v-16.6l1.3-1.7c17.9-0.7,32-15.4,32-33.3c0-2.7-0.3-5.5-1-8.1
	c-3.7-14.8-17-25.2-32.3-25.2v-18.4c18.7,0,36,10.2,45.1,26.6C139.6,423.2,141.8,431.8,141.8,440.6z"/>
<line class="st2" x1="456.7" y1="344.7" x2="456.7" y2="344.7"/>
<text transform="matrix(1 0 0 1 164.2832 463.1228)"  class="st3 st4">SSennzo</text>
</svg>
