<svg xmlns="http://www.w3.org/2000/svg" width="166" height="84" viewBox="0 0 166 84">
  <g id="Untitled-1" transform="translate(2.273 5.05)">
    <path id="Path_1" data-name="Path 1" d="M64.765,116.223a13.131,13.131,0,0,0,.811,4.58A13.536,13.536,0,0,0,78.3,129.719v7.417a20.953,20.953,0,1,1,0-41.866v7.457a17.185,17.185,0,0,0-2.067.122,13.577,13.577,0,0,0-11.469,13.374Z" transform="translate(-58.7 -95.3)" fill="#fff"/>
    <path id="Path_2" data-name="Path 2" d="M112.512,158.853A20.912,20.912,0,0,1,91.6,179.766v-6.728l.527-.689a13.5,13.5,0,0,0,12.969-13.5,12.564,12.564,0,0,0-.405-3.283A13.5,13.5,0,0,0,91.6,145.357V137.9a20.953,20.953,0,0,1,18.278,10.78A20.548,20.548,0,0,1,112.512,158.853Z" transform="translate(-79.618 -120.665)" fill="#fff"/>
    <text id="Sennzo" transform="translate(46.727 50.95)" font-size="50" font-family= "Quicksand, sans-serif"><text transform="matrix(1 0 0 1 164.2832 463.1228)"  class="st3 st4">SSennzo</text></text>
  </g>
</svg>
