<svg id="tether-seeklogo.com" xmlns="http://www.w3.org/2000/svg" width="200" height="200" viewBox="0 0 200 200">
  <path id="Path_2335" data-name="Path 2335" d="M100,0A100,100,0,1,1,0,100,100,100,0,0,1,100,0" fill="#53ae94"/>
  <path id="Path_2336" data-name="Path 2336" d="M470.688,525.266V511.823h36.14V491.34h-98.41v20.483h36.144v13.432c-29.375,1.148-51.462,6.1-51.462,12.024s22.1,10.877,51.462,12.032v43.06H470.7V549.307c29.322-1.151,51.364-6.1,51.364-12.019s-22.042-10.868-51.364-12.019m0,20.391v-.011c-.737.04-4.526.233-12.961.233-6.744,0-11.489-.163-13.161-.237v.018c-25.952-.978-45.323-4.822-45.323-9.422s19.374-8.438,45.323-9.418v15.01c1.7.1,6.561.343,13.271.343,8.059,0,12.111-.286,12.855-.343v-15.01c25.9.981,45.228,4.829,45.228,9.413s-19.335,8.433-45.228,9.414" transform="translate(-357.576 -436.207)" fill="#fff"/>
</svg>
