<svg id="euBMwey7fGb1" xmlns="http://www.w3.org/2000/svg" xmlns:xlink="http://www.w3.org/1999/xlink" viewBox="0 0 507.277 527.225" shape-rendering="geometricPrecision" text-rendering="geometricPrecision"><g transform="translate(-1134.732788-846.37406)"><g transform="translate(1134.723022 846.37401)"><path id="euBMwey7fGb4" d="M706.276,318.408c.057843,35.332729-7.303273,70.283975-21.607,102.592-.6,1.354-1.208,2.7-1.834,4.042-.089.209-.19.417-.285.626-.24.512-.481,1.031-.727,1.543-.177.373-.354.74-.538,1.113q-.654,1.366-1.328,2.72-.74,1.49-1.5,2.973t-1.537,2.954q-.683,1.281-1.373,2.555-.892,1.641-1.815,3.283-.8,1.4-1.6,2.789-.863,1.48-1.746,2.96l-.057.1c-.127.215-.253.43-.386.645-.12.2-.234.386-.354.582s-.234.386-.354.576v.006c-.386.633-.772,1.252-1.157,1.879l-.006.006c-.867,1.391-1.752,2.777-2.644,4.149q-2.486,3.833-5.1,7.552c0,.006-.006.006-.013.013-1.044,1.493-2.113,2.973-3.188,4.44q-1.034,1.4-2.087,2.8t-2.125,2.764c-.158.209-.323.417-.487.626-.911,1.164-1.834,2.328-2.77,3.473-.2.253-.4.5-.6.746-.31.373-.614.746-.917,1.113-.1.126-.2.247-.31.373-.519.62-1.037,1.24-1.569,1.86v.006q-.768.911-1.556,1.822c-.114.133-.228.266-.348.4-.171.2-.348.4-.525.6-.436.512-.886,1.018-1.341,1.524-.006.006-.006.013-.013.019l-.019.019v.006c-13.597666,15.340794-29.001614,28.979916-45.876,40.62-.056476.043601-.115589.083677-.177.12-.209.152-.417.291-.626.436-1.512,1.037-3.036,2.062-4.573,3.061q-1.129.74-2.264,1.461v.006c-.006,0-.006,0-.013.006h-.013l-.013.013-.038.019-.051.032c-.582.373-1.158.74-1.746,1.107-.177.12-.354.228-.531.335-.31.2-.626.392-.943.588s-.626.386-.942.576c-.4.24-.8.487-1.2.721q-1.3.788-2.606,1.556c-.316.19-.639.373-.961.563s-.639.367-.961.55c-.008734.01316-.022458.022188-.038.025l-.013.006-.013.013h-.006c-.885.506-1.765,1.012-2.656,1.505l-.006.006c-.715.4-1.43.791-2.151,1.183q-2.562,1.395-5.155,2.739c-1.2.626-2.41,1.234-3.624,1.834-.734.367-1.474.727-2.214,1.088-.613.3-1.233.594-1.847.885-.171.082-.335.164-.506.24-.278.133-.563.266-.841.392-.234.107-.462.215-.7.323-.557.266-1.12.519-1.676.772-.626.285-1.246.563-1.872.841-2.353,1.05-4.731,2.062-7.116,3.036-8.518521,3.488336-17.224662,6.499663-26.078,9.02-.411.12-.829.24-1.246.354q-5.683,1.594-11.448,2.916-10.066,2.315-20.316,3.8c-.013,0-.032.006-.044.006-.816.12-1.638.234-2.454.348-.069.013-.145.025-.221.032-.006.006-.013.006-.025,0h-.006c-.9.12-1.809.24-2.72.354-.063.012-.127.019-.19.025-.848.1-1.7.2-2.555.3-.917.1-1.834.2-2.758.291h-.006c-1.4.139-2.808.272-4.213.386-.025,0-.051.006-.076.006-.557.051-1.113.089-1.67.133h-.006q-9.82.778-19.823.772-10.863,0-21.505-.9c-.025,0-.051-.006-.076-.006q-2.268-.19-4.529-.417c-.4-.038-.791-.082-1.189-.12-.076-.006-.152-.013-.228-.025l-.367-.038c-.063-.006-.133-.013-.2-.025-.525-.057-1.05-.114-1.581-.177-.588-.07-1.183-.139-1.771-.215s-1.183-.145-1.771-.228c-.126-.013-.259-.025-.386-.051-.43-.051-.86-.107-1.284-.171-.209-.025-.411-.057-.614-.089-.411-.057-.816-.114-1.227-.177-.013,0-.032-.006-.044-.006-12.916364-1.866688-25.666685-4.742147-38.134-8.6h-.006c-.677-.209-1.354-.424-2.03-.639q-.3-.086-.607-.19-2.638-.844-5.244-1.746-3.6-1.234-7.141-2.581l-1.929-.74c-1.284-.506-2.562-1.012-3.833-1.531q-3.254-1.328-6.464-2.739h-.006v-.006c-1.689-.746-3.371-1.505-5.041-2.3-.3-.139-.607-.278-.911-.424-.058016-.017371-.113244-.042964-.164-.076-.006,0-.006-.006-.013-.006-.436-.2-.873-.411-1.309-.62l-.013-.007q-3.349-1.6-6.641-3.308-4.08-2.106-8.09-4.364-3.321-1.869-6.578-3.839-3.862-2.334-7.641-4.807-1.176-.768-2.353-1.556c-.708-.474-1.411-.949-2.113-1.43q-3.719-2.543-7.343-5.218-3.748-2.761-7.388-5.661-4.744-3.776-9.3-7.767-8.492-7.419-16.287-15.585c-.164-.171-.329-.342-.493-.519-.519-.544-1.031-1.088-1.543-1.638-.746-.8-1.486-1.607-2.22-2.416q-1.822-1.983-3.58-4.01h-.006v-.006c-.715-.816-1.41-1.626-2.119-2.448v-.006c-.1-.114-.2-.228-.291-.342-.449-.525-.885-1.044-1.322-1.575v-.013c-.595-.7-1.177-1.4-1.746-2.113-.127-.152-.247-.3-.367-.449h.001v-.006c-.468-.569-.93-1.145-1.385-1.72-.234-.285-.462-.576-.689-.867h-.006v-.006q-2.068-2.609-4.054-5.269v-.006c-.367-.487-.727-.974-1.082-1.467h-.006q-2.543-3.434-4.953-6.951v-.006q-.911-1.319-1.8-2.657t-1.765-2.682h-.006q-.9-1.385-1.784-2.783c-.032-.051-.063-.1-.089-.139q-.873-1.376-1.72-2.77c-.455-.74-.9-1.474-1.341-2.214-.3-.5-.6-.993-.892-1.5-.108-.171-.2-.341-.3-.506-.67-1.145-1.328-2.29-1.986-3.441-.765-1.354-1.524-2.72-2.264-4.086-.3-.563-.607-1.132-.9-1.7-.107-.183-.2-.367-.3-.557-.354-.67-.708-1.341-1.056-2.018s-.7-1.347-1.037-2.024-.683-1.354-1.018-2.037c-.253-.512-.506-1.031-.753-1.543-.025421-.043035-.048456-.087435-.069-.133-.114-.24-.234-.474-.342-.715-.025291-.036697-.044535-.077211-.057-.12-.259-.531-.512-1.056-.759-1.588-.329-.683-.645-1.372-.961-2.062-.228-.481-.443-.968-.664-1.455q-.474-1.025-.93-2.068c-.323-.715-.633-1.436-.942-2.157-.082-.183-.158-.361-.234-.544-.146-.329-.285-.658-.424-.987-.373-.873-.74-1.758-1.1-2.638q-.617-1.489-1.2-2.985-.56-1.395-1.088-2.8l-.133-.342v-.006c-5.49603-14.444224-9.654478-29.362487-12.423-44.567v-.006c-1.578555-8.680983-2.701757-17.438624-3.365-26.237-.038-.481-.07-.961-.1-1.442q-.626-8.928-.614-17.926q0-3.994.127-7.951c1.640127-55.143096,21.297237-108.231165,55.965-151.145q2.287-2.837,4.655-5.6q2.6-3.036,5.288-5.99q1.86-2.049,3.763-4.048c.023724-.026893.049107-.052276.076-.076q.2-.218.417-.437c7.741797-8.107446,16.014398-15.690858,24.763-22.7c1-.81,2-1.6,3.011-2.378.9-.7,1.8-1.4,2.7-2.075q1.575-1.2,3.169-2.359q8.3-6.082,17.1-11.486q3.672-2.258,7.426-4.39c.911-.525,1.834-1.037,2.758-1.55c1.252-.689,2.5-1.372,3.77-2.037C410.380405,53.833916,502.034846,55.072535,577.3,97.471c.177.095.354.2.525.3c1.088.62,2.17,1.24,3.245,1.879q2.106,1.233,4.181,2.511Q595.725,108.6,605.516,116c1.012.765,2.024,1.537,3.023,2.321.9.7,1.8,1.417,2.695,2.132.487.392.98.791,1.468,1.189c10.680377,8.698078,20.637073,18.248774,29.772,28.558l.013.013c.139.158.278.31.411.468.436.493.873.993,1.3,1.486.057.063.114.133.171.2q.949,1.091,1.885,2.2c7.604267,8.976768,14.576669,18.470221,20.867,28.412q3.51,5.522,6.717,11.246c21.332126,37.907882,32.506032,80.685155,32.438,124.183Z" transform="translate(-198.998993-45.839159)" fill="#e4ded2"/><path id="euBMwey7fGb5" d="M669.441,48.843l15.18,410.937v.007q-.768,1.061-1.556,2.121c-.285.39-.576.774-.873,1.164-.436.6-.886,1.186-1.341,1.775-.006.007-.006.015-.013.022l-.019.022v.007c-13.313788,17.574093-28.719307,33.460489-45.876,47.308v.162l-.177-.022c-.209.177-.417.339-.626.508-1.512,1.208-3.036,2.4-4.573,3.565q-1.129.862-2.264,1.7v.007c-.006,0-.006,0-.013.007h-.013l-.013.015-.038.022-.051.037c-.582.435-1.158.862-1.746,1.289-.177.14-.354.265-.531.39-.31.228-.626.457-.943.685s-.626.449-.942.67c-1.259.9-2.53,1.783-3.8,2.652-.316.221-.639.435-.961.656s-.639.427-.961.641v.022l-.038.007-.013.007-.013.015h-.006c-.886.589-1.765,1.179-2.657,1.753l-.006.007c-.715.464-1.429.921-2.151,1.378-1.708,1.083-3.428,2.151-5.155,3.19-1.2.729-2.41,1.436-3.624,2.136-.734.427-1.474.847-2.214,1.267-.614.346-1.233.692-1.847,1.031-.171.1-.335.192-.506.28-.278.155-.563.31-.841.457h-214.42c-.3-.162-.607-.324-.911-.494-.058911-.020624-.114243-.050315-.164-.088-.006,0-.006-.007-.013-.007-.436-.236-.873-.479-1.309-.722l-.013-.007q-3.349-1.867-6.641-3.853-7.467-4.486-14.668-9.554-3.861-2.718-7.641-5.6-1.176-.9-2.353-1.812c-.708-.552-1.411-1.1-2.113-1.665q-3.719-2.961-7.343-6.077-3.748-3.215-7.388-6.593-4.744-4.4-9.3-9.046-8.491-8.641-16.287-18.151c-.164-.2-.329-.4-.493-.6q-1.907-2.332-3.763-4.722L316.05,48.842c-.011529-2.544031.454188-5.067657,1.373-7.44c1.923-4.862,5.674-8.169,9.981-8.169h330.683c4.364,0,8.153,3.389,10.051,8.354.063.162.12.324.177.486.754174,2.177086,1.134871,4.466003,1.126,6.77Z" transform="translate(-237.365005-33.035165)" fill="#e4ded2"/><g id="euBMwey7fGb6"><path d="M587.483,154.558c-30.469594,7.818505-61.69411,12.325274-93.131,13.442-4.753915.257978-9.519168.224582-14.269-.1-10.438-.878-19.379-4.159-29.337-5.951-4.787-.859-10.119-1.488-14.939-2.417q1.67-2.072,3.4-4.094c10.392.878,20.946,3.752,31.462,5.087c17.878,2.273,37.908-.263,51.461-6.52c6.575-3.036,11.612-6.825,18.164-9.874.891194-.457396,1.856499-.752981,2.851-.873c1.889438-.055251,3.755331.430478,5.378,1.4c10.993,5.549,26.953,10.059,41.767,7.578c1.11.864-.99,1.847-2.807,2.322Z" transform="translate(-286.02301-73.654999)" fill="#fff"/><path d="M788.508,285.112q-12.7,1.015-25.541,1.512c-6.507352.351253-13.030034.306838-19.532-.133-14.288-1.208-26.528-5.693-40.158-8.147-12.492-2.245-27.672-3.327-35.6-8.311c20.5-3.548,41.74,3.675,62.878,6.363c17.098659,2.102597,34.431638,1.246773,51.24-2.53q3.505,5.522,6.713,11.246Z" transform="translate(-371.230011-119.899002)" fill="#fff"/></g><path d="M665.843,269.724c.185-.034.371-.06.556-.092-.778833-.482835-1.512181-1.03544-2.191-1.651Z" transform="translate(-369.957001-119.498001)" fill="#fff"/><path id="euBMwey7fGb10" d="M543.571,512.561v-6.061c-.002542-4.805648-3.751402-8.775957-8.549-9.054v-23.66h-2.012v23.635h-9.052v15.086h-42.743v173.493h94.54v-139.426c-.000458-18.081823-14.12785-33.012995-32.182-34.013Z" transform="translate(-302.709991-195.128006)" fill="#659476"/><rect width="12.572" height="10.057" rx="0" ry="0" transform="translate(194.093994 342.019989)" fill="#fff"/><rect id="euBMwey7fGb12" width="12.572" height="10.057" rx="0" ry="0" transform="translate(214.712006 342.019989)" fill="#fff"/><rect width="12.572" height="10.057" rx="0" ry="0" transform="translate(235.330002 342.019989)" fill="#fff"/><ellipse id="euBMwey7fGb15" rx="57.07812" ry="57.07812" transform="matrix(.4108-.912107 0.90635 0.408207 62.365953 75.820953)" opacity="0" fill="#ffff03" stroke-width="0"/><ellipse id="euBMwey7fGb16" rx="57.07812" ry="57.07812" transform="matrix(.4108-.912107 0.90635 0.408207 62.365953 75.820953)" opacity="0" fill="#f8f8f2" stroke-width="0"/><rect width="12.572" height="10.057" rx="0" ry="0" transform="translate(194.093994 367.665985)" fill="#fff"/><rect width="12.572" height="10.057" rx="0" ry="0" transform="translate(214.712006 367.665985)" fill="#fff"/><rect id="euBMwey7fGb19" width="12.572" height="10.057" rx="0" ry="0" transform="translate(235.330002 367.665985)" fill="#fff"/><rect id="euBMwey7fGb20" width="12.572" height="10.057" rx="0" ry="0" transform="translate(194.093994 393.312988)" fill="#fff"/><rect id="euBMwey7fGb21" width="12.572" height="10.057" rx="0" ry="0" transform="translate(214.712006 393.312988)" fill="#fff"/><rect width="12.572" height="10.057" rx="0" ry="0" transform="translate(235.330002 393.312988)" fill="#fff"/><rect width="12.572" height="10.057" rx="0" ry="0" transform="translate(194.093994 418.959015)" fill="#fff"/><rect id="euBMwey7fGb24" width="12.572" height="10.057" rx="0" ry="0" transform="translate(214.712006 418.959015)" fill="#fff"/><rect width="12.572" height="10.057" rx="0" ry="0" transform="translate(235.330002 418.959015)" fill="#fff"/><rect width="12.572" height="10.057" rx="0" ry="0" transform="translate(194.093994 444.605988)" fill="#fff"/><rect width="12.572" height="10.057" rx="0" ry="0" transform="translate(214.712006 444.605988)" fill="#fff"/><rect id="euBMwey7fGb28" width="12.572" height="10.057" rx="0" ry="0" transform="translate(235.330002 444.605988)" fill="#fff"/><rect id="euBMwey7fGb29" width="12.572" height="10.057" rx="0" ry="0" transform="translate(194.093994 470.252991)" fill="#fff"/><rect width="12.572" height="10.057" rx="0" ry="0" transform="translate(214.712006 470.252991)" fill="#fff"/><rect id="euBMwey7fGb31" width="12.572" height="10.057" rx="0" ry="0" transform="translate(235.330002 470.252991)" fill="#fff"/><path id="euBMwey7fGb32" d="M430.415,404.966v223.91h-58.4q-3.862-2.334-7.641-4.807-1.176-.769-2.353-1.556c-.708-.474-1.41-.949-2.113-1.43q-3.719-2.543-7.343-5.218-3.748-2.761-7.388-5.661-4.744-3.776-9.3-7.767v-231.537h16.844v-26.9h17.1v-25.65h2.011v25.65h12.543c5.016012,0,9.082448,4.065988,9.083,9.082v17.818h2.891c15.084106.000433,28.373608,9.916406,32.669,24.376.364445,1.239753.660227,2.498666.886,3.771.340806,1.95491.51211,3.935605.512,5.92Z" transform="translate(-249.300995-138.007996)" fill="#946565"/><rect id="euBMwey7fGb33" width="40.733002" height="3.017" rx="0" ry="0" transform="translate(113.480003 253.261993)" fill="#fff"/><rect width="40.733002" height="3.017" rx="0" ry="0" transform="translate(113.480003 271.868988)" fill="#fff"/><rect width="40.733002" height="3.017" rx="0" ry="0" transform="translate(113.480003 290.475006)" fill="#fff"/><rect id="euBMwey7fGb36" width="40.733002" height="3.017" rx="0" ry="0" transform="translate(113.480003 309.080994)" fill="#fff"/><rect id="euBMwey7fGb37" width="40.733002" height="3.017" rx="0" ry="0" transform="translate(113.480003 327.687988)" fill="#fff"/><rect width="40.733002" height="3.017" rx="0" ry="0" transform="translate(113.480003 346.294006)" fill="#fff"/><rect width="40.733002" height="3.017" rx="0" ry="0" transform="translate(113.480003 364.899994)" fill="#fff"/><rect id="euBMwey7fGb40" width="40.733002" height="3.017" rx="0" ry="0" transform="translate(113.480003 383.506989)" fill="#fff"/><rect width="40.733002" height="3.017" rx="0" ry="0" transform="translate(113.480003 402.113007)" fill="#fff"/><rect width="40.733002" height="3.017" rx="0" ry="0" transform="translate(113.480003 420.720001)" fill="#fff"/><rect id="euBMwey7fGb43" width="40.733002" height="3.017" rx="0" ry="0" transform="translate(113.480003 439.325989)" fill="#fff"/><rect width="40.733002" height="3.017" rx="0" ry="0" transform="translate(113.480003 457.932007)" fill="#fff"/><rect width="12.572" height="10.057" rx="0" ry="0" transform="translate(117.502998 211.524002)" fill="#fff"/><path d="M668.316,42.073c-.057-.165-.114-.323-.177-.487-1.9-4.965-5.686-8.356-10.05-8.356h-330.689c-4.307,0-8.058,3.308-9.981,8.172-.918452,2.371749-1.384161,4.894651-1.373,7.438L303.4,477.5c.734.81,1.474,1.619,2.22,2.416.512.55,1.025,1.094,1.543,1.638L319.814,48.84c-.00308-1.226418.158701-2.447685.481-3.631.001302-.019566.005689-.038804.013-.057c1.088-3.934,3.858-6.736,7.1-6.736h330.68c.775335.000881,1.542093.162267,2.252.474c2.96,1.265,5.142,4.946,5.319,9.367.006.2.013.386.013.582l15.18,416c.455-.588.9-1.176,1.341-1.771.164-.215.323-.43.481-.639.133-.177.266-.348.392-.525q.787-1.063,1.556-2.125v-.006L669.442,48.841c.008742-2.303334-.371955-4.591572-1.126-6.768ZM374.747,532.3q3.292,1.708,6.641,3.308l.013.006c.437.209.873.417,1.309.62.006,0,.006.006.013.006.05075.033048.105979.058642.164.076.3.146.607.285.911.424h214.423c.278-.126.563-.259.841-.392.171-.076.335-.158.506-.24.613-.291,1.233-.588,1.847-.885.74-.361,1.48-.721,2.214-1.088c1.214-.6,2.423-1.208,3.624-1.834Z" transform="translate(-237.365005-33.23)" fill="#2f2e41"/><rect width="349.622986" height="4.39" rx="0" ry="0" transform="translate(80.567001 52.945999)" fill="#2f2e41"/><rect width="358.002991" height="4.39" rx="0" ry="0" transform="translate(77.002998 107.342003)" fill="#2f2e41"/><path d="M211.219,193.67h-3.769L220.1,3.116h3.769Z" transform="translate(-76.235001-1.145)" fill="#2f2e41"/><path d="M593.042,194.935h-3.769L574.093,3.116h3.769Z" transform="translate(-210.970993-1.145)" fill="#2f2e41"/><rect width="359.268005" height="12.564" rx="0" ry="0" transform="translate(77.635002 187.386002)" fill="#2f2e41"/><path d="M403.75,285.3h3.769c1.832646,0,3.590231.728016,4.886108,2.023892s2.023892,3.053462,2.023892,4.886108h-17.589c0-1.832646.728016-3.590231,2.023892-4.886108s3.053462-2.023892,4.886108-2.023892Z" transform="translate(-145.832993-104.843002)" fill="#2f2e41"/><path d="M368.789,518.542c-5.693,5.693-5.25,8.065-7.419,6.755q-3.862-2.334-7.641-4.807-1.176-.769-2.353-1.556c-.708-.474-1.41-.949-2.113-1.43q-3.719-2.543-7.343-5.218-3.748-2.761-7.388-5.661-4.744-3.776-9.3-7.767-8.492-7.419-16.287-15.585c-.164-.171-.329-.342-.493-.519-.519-.544-1.031-1.088-1.543-1.638l2.574-9.3L312.647,336.3l.19-40.835.013-3.77l2.808-59.051.019-3.77l1.632-79.615.013-3.1.025-4.39-8.817-8.571l12.84-41.436.019-4.39.2-40.968.013-3.346c6.7-6.1,16.18-7.293,27.774-6.218.576.057,1.164.114,1.752.177l.158,2.593.291,4.624v.006l2.277,36.66v.013l.4,6.458.272,4.39.715,11.486-10.259,38.52.272,4.39l1.98,31.828.272,4.39.563,9.058l2.328,37.438.234,3.77.481,7.774.6,9.614.07,1.12.272,4.39.784,12.612.215,3.517.993,16.022.133,2.138.057.879.063.987.1,1.645.133,2.125.474,7.628.2,3.2.19,3.017.133,2.182.221,3.517.171,2.72.443,7.173.19,3.017.323,5.244.2,3.137.025.38.424,6.831.19,3.017.139,2.334.373,5.977.221,3.51.234,3.763.183,3.017.708,11.373.215,3.517.044.7.19,3.017.9,14.434.07,1.158.146,2.359.038.658.974,15.585.12,1.91.07,1.107.145,2.41.822,13.181.19,3.017.12,1.955.215,3.517.626,10.12.19,3.017.31,5.022.221,3.51.436,7.052.19,3.017.5,8.084.221,3.51.139,4l.108,3.017Z" transform="translate(-238.654999-34.429001)" fill="#ccc"/><path d="M867.718,474.082c-.171.2-.348.4-.525.6-.436.512-.886,1.018-1.341,1.524-.006.006-.006.013-.013.019l-.019.019v.006c-13.597742,15.340718-29.00168,28.979831-45.876,40.62-.05651.043555-.11562.083629-.177.12-.209.152-.417.291-.626.436-1.512,1.037-3.036,2.062-4.573,3.061-.753.493-1.505.98-2.264,1.461v.006c-.006,0-.006,0-.013.006h-.013l-.013.013-.038.019-.05.032c-.582.373-1.158.74-1.746,1.107-.177.12-.354.228-.531.335-.31.2-.626.392-.943.588s-.626.386-.942.576c-.4.24-.8.487-1.2.721l.025-2.087.038-2.777.183-12.764.633-10.2l3.751-60.348.595-9.551.133-2.151l1.689-27.154.576-9.323l1.309-21l.588-9.551.576-9.228.025-.361.051-.86.032-.525v-.006l.671-10.715.025-.455.474-7.578v-.013l.677-10.98.43-6.894.481-7.742.386-6.2.089-1.423.234-3.77.013-.152l1.455-23.466.38-6.116v-.007l.4-6.414.272-4.39.563-8.969.595-9.538.234-3.77.829-13.384v-.006l.462-7.451.462-7.464.683-10.917.449-7.274.272-4.39l1.974-31.828.089-1.379.19-3.011.639-10.3-13.719-23.542l1.006-16.167.272-4.39L820.887,41l.089-1.385.158-2.593c12.385-1.36,22.486-.361,29.526,6.041l.2,44.314.019,4.39l4,48.52.006,1.486.019,4.39l1.625,82.714.019,3.77l2.783,59.051.019,3.77l1.442,40.835.057,12.562l6.825,114.77Z" transform="translate(-422.36499-34.429001)" fill="#ccc"/><path d="M658.059,801.69c-.753.493-1.505.98-2.264,1.461v.006c-.006,0-.006,0-.013.006h-.013l-.013.013-.038.019-.051.032c-.582.373-1.158.74-1.746,1.107-.177.12-.354.228-.531.335-.31.2-.626.392-.942.588s-.626.386-.942.576c-.4.24-.8.487-1.2.721q-1.3.788-2.606,1.556c-.316.19-.639.373-.961.563s-.639.367-.961.55v.019l-.038.006-.013.006-.013.013h-.006c-.886.506-1.765,1.012-2.657,1.505l-.006.006c-.715.4-1.43.791-2.151,1.183q-2.562,1.395-5.155,2.739c-1.2.626-2.41,1.233-3.624,1.834-.734.367-1.474.727-2.214,1.088-.613.3-1.233.594-1.847.885-.171.082-.335.164-.506.24-.278.133-.563.266-.841.392-.234.107-.462.215-.7.323-.557.266-1.12.519-1.676.772-.626.285-1.246.563-1.872.841-2.353,1.05-4.731,2.062-7.116,3.036-8.51883,3.48842-17.225308,6.499748-26.079,9.02-.411.12-.829.24-1.246.354q-5.683,1.594-11.449,2.916-10.066,2.315-20.316,3.8c-.013,0-.032.006-.044.006-.816.12-1.638.234-2.454.348-.07.013-.146.025-.221.032-.006.006-.013.006-.025,0h-.006c-.9.12-1.809.24-2.72.354-.063.012-.126.019-.19.025-.847.1-1.7.2-2.555.3-.917.1-1.834.2-2.758.291h-.006c-1.4.139-2.808.272-4.212.386-.025,0-.051.006-.076.006-.557.051-1.113.089-1.67.133h-.006q-9.82.778-19.823.772-10.863,0-21.505-.9c-.025,0-.051-.006-.076-.006q-2.268-.19-4.529-.417c-.4-.038-.791-.082-1.189-.12-.076-.006-.152-.013-.228-.025l-.367-.038c-.063-.006-.133-.013-.2-.025-.525-.057-1.05-.114-1.581-.177-.588-.07-1.183-.139-1.771-.215s-1.183-.145-1.771-.228c-.127-.013-.259-.025-.386-.051-.43-.051-.86-.107-1.284-.171-.209-.025-.411-.057-.613-.089-.411-.057-.816-.114-1.227-.177-.013,0-.032-.006-.044-.006-12.916382-1.866587-25.666712-4.742048-38.134-8.6h-.006c-.677-.208-1.354-.424-2.03-.639q-.3-.085-.607-.19-2.638-.845-5.244-1.746-3.6-1.234-7.141-2.581l-1.929-.74c-1.284-.506-2.562-1.012-3.833-1.531q-3.254-1.328-6.464-2.739h-.006v-.006c-1.689-.746-3.371-1.505-5.041-2.3-.3-.139-.607-.278-.911-.424-.058016-.017371-.113244-.042964-.164-.076-.006,0-.006-.006-.013-.006-.436-.2-.873-.411-1.309-.62l-.013-.006q-3.349-1.6-6.641-3.308-4.08-2.106-8.09-4.364-3.321-1.869-6.578-3.839-3.862-2.334-7.641-4.807Z" transform="translate(-265.855988-315.628998)" fill="#2f2e41"/><rect width="1.265" height="69.554001" rx="0" ry="0" transform="matrix(.999628-.027276 0.027276 0.999628 405.910004 396.213013)" fill="#b3b3b3"/><rect width="1.265" height="127.733002" rx="0" ry="0" transform="matrix(.99989-.014852 0.014852 0.99989 425.518005 123.586998)" fill="#b3b3b3"/><g id="euBMwey7fGb58" transform="translate(.000001 0)"><path d="M790.532,437.234h-17.86c-.815854-.002408-1.59094.356394-2.117.98-.248796-.048123-.501593-.072565-.755-.073-2.339478,0-4.236,1.896522-4.236,4.236s1.896522,4.236,4.236,4.236c.639277-.000058,1.270055-.146465,1.844-.428l.3,3.66l1.184,14.468c.056145.180578.13158.354582.225.519.487277.895192,1.424781,1.452554,2.444,1.453h11.613c1.019701-.002444,1.957453-.559043,2.448-1.453.090601-.165289.164628-.339136.221-.519l3.123-23.467c.260102-.846889.102989-1.766956-.423412-2.47954s-1.359657-1.13317-2.245588-1.13346ZM769.8,445.4c-1.671766,0-3.027-1.355234-3.027-3.027s1.355234-3.027,3.027-3.027c.054,0,.105.015.16.018-.119378.487568-.10417.998397.044,1.478L771.282,445c-.45054.260591-.961527.39851-1.482.4Z" transform="translate(-407.20401-181.695999)" fill="#f2f2f2"/></g><path d="M793.618,809.31l-2.979-5.427l1.467-.689l1.17-.557l5.1-2.41l3.068-1.448l1.265-.6l1.006-.474l1.67,2.524.841,1.271.126.19v.006c-.02651.010162-.051964.022889-.076.038l-.051.032c-.582.373-1.158.74-1.746,1.107-.177.12-.354.228-.531.335-.31.2-.626.392-.942.588s-.626.386-.943.575c-1.259.772-2.53,1.531-3.8,2.277-.316.19-.639.373-.961.563s-.639.367-.961.55v.019l-.038.006-.013.006-.013.013h-.006c-.882.506-1.761,1.012-2.653,1.505Z" transform="translate(-416.419006-314.164001)" fill="#2f2e41"/><g id="euBMwey7fGb61" transform="translate(369.018005 211.893997)" opacity="0.5"><path d="M790.415,421.851c.144275-.19056.274933-.391058.391-.6-.224462.092962-.456698.165912-.694.218Z" transform="translate(-785.242981-387.716003)" fill="#fff"/><path d="M789.219,389.464c-1.283893-2.101371-2.873-6.763-2.873-6.763s-.056-4.908.084-7.368-.036-5.089-1.458-7.1c-1.941,6.144-3.864,12.914-1.381,18.86c1.077,2.579,2.913,4.775,4.1,7.308c1.081,2.312,1.518,5.195.29,7.366c2.028402-.99761,3.319097-3.055598,3.334-5.316-.086423-2.470456-.808323-4.876904-2.096-6.987Z" transform="translate(-782.414001-368.234009)" fill="#fff"/></g><g id="euBMwey7fGb64" transform="translate(370.033997 240.990005)" opacity="0.5"><path d="M787.129,435.065c.056167-.074286.106963-.152484.152-.234-.087312.036254-.177666.064699-.27.085Z" transform="translate(-785.119995-421.803009)" fill="#fff"/><path d="M786.664,422.482c-.498787-.816214-.874811-1.701353-1.116-2.627-.105013-.952147-.093932-1.913527.033-2.863.124546-.956865-.075077-1.927871-.567-2.758-.754,2.387-1.5,5.017-.537,7.327.418,1,1.132,1.855,1.591,2.839.482479.884024.524278,1.942688.113,2.862.789722-.386274,1.293117-1.185898,1.3-2.065-.033401-.959478-.313397-1.894176-.813-2.714Z" transform="translate(-784.020996-414.234009)" fill="#fff"/></g><path d="M369.516,122.965h-39.849c-1.597652.024011-3.084325-.814575-3.890163-2.194318s-.805838-3.08662,0-4.466364s2.292511-2.218329,3.890163-2.194318h39.848c1.597652-.024011,3.084325.814575,3.890163,2.194318s.805838,3.08662,0,4.466364-2.292511,2.218329-3.890163,2.194318Z" transform="translate(-245.391006-62.952)" fill="#2f2e41"/><path d="M689.773,42.465h-418.091c-1.597652.024011-3.084325-.814575-3.890163-2.194318s-.805838-3.08662,0-4.466364s2.292511-2.218329,3.890163-2.194318h418.091c1.597652-.024011,3.084325.814575,3.890163,2.194318s.805838,3.08662,0,4.466364-2.292511,2.218329-3.890163,2.194318Z" transform="translate(-224.082001-33.369999)" fill="#2f2e41"/><path d="M347.516,192.965h-39.849c-1.597652.024011-3.084325-.814575-3.890163-2.194318s-.805838-3.08662,0-4.466364s2.292511-2.218329,3.890163-2.194318h39.848c1.597652-.024011,3.084325.814575,3.890163,2.194318s.805838,3.08662,0,4.466364-2.292511,2.218329-3.890163,2.194318Z" transform="translate(-237.306-88.676003)" fill="#2f2e41"/><path d="M849.516,122.965h-39.849c-2.419297-.03636-4.361459-2.00793-4.361459-4.4275s1.942162-4.39114,4.361459-4.4275h39.848c1.597652-.024011,3.084325.814575,3.890163,2.194318s.805838,3.08662,0,4.466364-2.292511,2.218329-3.890163,2.194318Z" transform="translate(-421.783997-62.952)" fill="#2f2e41"/><path d="M874.516,189.965h-39.849c-2.419297-.03636-4.361459-2.00793-4.361459-4.4275s1.942162-4.39114,4.361459-4.4275h39.848c1.597652-.024011,3.084325.814575,3.890163,2.194318s.805838,3.08662,0,4.466364-2.292511,2.218329-3.890163,2.194318Z" transform="translate(-430.971985-87.573997)" fill="#2f2e41"/><rect width="1.265" height="127.733002" rx="0" ry="0" transform="matrix(.99989-.014852 0.014852 0.99989 85.225998 117.896004)" fill="#b3b3b3"/><rect width="1.265" height="127.733002" rx="0" ry="0" transform="matrix(.99989-.014852 0.014852 0.99989 97.876999 264.639008)" fill="#b3b3b3"/><rect width="1.265" height="69.554001" rx="0" ry="0" transform="matrix(.999628-.027276 0.027276 0.999628 83.959999 372.80899)" fill="#b3b3b3"/><path id="euBMwey7fGb75" d="M717.643,683.987v-2.414c-.000505-1.914957-1.494246-3.497287-3.406-3.608v-9.428h-.8v9.417h-3.606v6.011h-17.031v69.124h37.667v-55.551c-.00011-7.204301-5.628735-13.153383-12.822-13.552Z" transform="translate(-380.463989-266.696991)" fill="#6a6594"/><rect width="5.009" height="4.007" rx="0" ry="0" transform="translate(318.54599 427.085999)" fill="#fff"/><rect width="5.009" height="4.007" rx="0" ry="0" transform="translate(326.760986 427.085999)" fill="#fff"/><rect width="5.009" height="4.007" rx="0" ry="0" transform="translate(334.975006 427.085999)" fill="#fff"/><rect width="5.009" height="4.007" rx="0" ry="0" transform="translate(318.54599 437.303986)" fill="#fff"/><rect width="5.009" height="4.007" rx="0" ry="0" transform="translate(326.760986 437.303986)" fill="#fff"/><rect width="5.009" height="4.007" rx="0" ry="0" transform="translate(334.975006 437.303986)" fill="#fff"/><rect width="5.009" height="4.007" rx="0" ry="0" transform="translate(318.54599 447.522003)" fill="#fff"/><rect width="5.009" height="4.007" rx="0" ry="0" transform="translate(326.760986 447.522003)" fill="#fff"/><rect width="5.009" height="4.007" rx="0" ry="0" transform="translate(334.975006 447.522003)" fill="#fff"/><rect width="5.009" height="4.007" rx="0" ry="0" transform="translate(318.54599 457.740997)" fill="#fff"/><rect width="5.009" height="4.007" rx="0" ry="0" transform="translate(326.760986 457.740997)" fill="#fff"/><rect width="5.009" height="4.007" rx="0" ry="0" transform="translate(334.975006 457.740997)" fill="#fff"/><rect width="5.009" height="4.007" rx="0" ry="0" transform="translate(318.54599 467.959015)" fill="#fff"/><rect width="5.009" height="4.007" rx="0" ry="0" transform="translate(326.760986 467.959015)" fill="#fff"/><rect width="5.009" height="4.007" rx="0" ry="0" transform="translate(334.975006 467.959015)" fill="#fff"/><rect width="5.009" height="4.007" rx="0" ry="0" transform="translate(318.54599 478.177002)" fill="#fff"/><rect width="5.009" height="4.007" rx="0" ry="0" transform="translate(326.760986 478.177002)" fill="#fff"/><rect width="5.009" height="4.007" rx="0" ry="0" transform="translate(334.975006 478.177002)" fill="#fff"/><path id="euBMwey7fGb94" d="M658.986,627.547h-1.153v-7.1c0-.959553-.381181-1.879806-1.059688-2.558312s-1.598759-1.059688-2.558312-1.059688h-5v-10.219h-.8v10.218h-6.815v10.719h-6.712v102.784h37.668v-89.21c.000552-7.49538-6.07462-13.572343-13.57-13.574Z" transform="translate(-359.18399-244.870981)" fill="#948565"/><rect width="16.229" height="1.202" rx="0" ry="0" transform="translate(286.427002 391.722992)" fill="#fff"/><rect width="16.229" height="1.202" rx="0" ry="0" transform="translate(286.427002 399.135986)" fill="#fff"/><rect width="16.229" height="1.202" rx="0" ry="0" transform="translate(286.427002 406.549011)" fill="#fff"/><rect width="16.229" height="1.202" rx="0" ry="0" transform="translate(286.427002 413.962006)" fill="#fff"/><rect width="16.229" height="1.202" rx="0" ry="0" transform="translate(286.427002 421.376007)" fill="#fff"/><rect width="16.229" height="1.202" rx="0" ry="0" transform="translate(286.427002 428.789001)" fill="#fff"/><rect width="16.229" height="1.202" rx="0" ry="0" transform="translate(286.427002 436.201996)" fill="#fff"/><rect width="16.229" height="1.202" rx="0" ry="0" transform="translate(286.427002 443.61499)" fill="#fff"/><rect width="16.229" height="1.202" rx="0" ry="0" transform="translate(286.427002 451.028992)" fill="#fff"/><rect width="16.229" height="1.202" rx="0" ry="0" transform="translate(286.427002 458.441986)" fill="#fff"/><rect width="16.229" height="1.202" rx="0" ry="0" transform="translate(286.427002 465.855011)" fill="#fff"/><rect width="16.229" height="1.202" rx="0" ry="0" transform="translate(286.427002 473.269012)" fill="#fff"/><rect width="5.009" height="4.007" rx="0" ry="0" transform="translate(288.029999 375.092987)" fill="#fff"/><path d="M910.068,703.524v5.895c-.911,1.164-1.834,2.328-2.771,3.473-.2.253-.4.5-.6.746-.31.373-.614.746-.917,1.113-.1.126-.2.247-.31.373-.519.62-1.037,1.24-1.569,1.86c0,0,.006.006,0,.006q-.768.911-1.556,1.822c-.285.335-.576.664-.873,1-.437.512-.885,1.018-1.341,1.524-.006.006-.006.013-.013.019l-.019.019v-17.85Z" transform="translate(-456.644012-279.553986)" fill="#2f2e41"/><path d="M907.042,684.084q-2.486,3.833-5.1,7.552c0,.006-.006.006-.013.013-1.044,1.493-2.113,2.973-3.188,4.44q-1.034,1.4-2.087,2.8t-2.125,2.764c-.158.209-.323.417-.487.626-.911,1.164-1.834,2.328-2.77,3.473-.2.253-.4.5-.6.746-.31.373-.613.746-.917,1.113-.108.126-.209.247-.31.373-.519.62-1.037,1.24-1.569,1.86c0,0,.006.006,0,.006q-.768.911-1.556,1.822c-.285.335-.576.664-.873,1h-20.657c-4.588667-.003309-8.307691-3.722333-8.311-8.311v-11.966c.00551-4.587754,3.723246-8.30549,8.311-8.311Z" transform="translate(-440.614014-272.410004)" fill="#577590"/><path d="M942.3,521.843c-1.269661-.438324-2.60381-.660739-3.947-.658h-3.4c-1.237257.000684-2.46748.186061-3.65.55-5.114945,1.611925-8.595914,6.352079-8.603,11.715v99.779c0,.373.019.74.051,1.1.054974.641171.163011,1.276681.323,1.9c1.075-1.467,2.144-2.947,3.188-4.44.006-.006.013-.006.013-.013q2.619-3.719,5.1-7.552c.892-1.372,1.777-2.758,2.644-4.149c6.262725-10.04614,11.809794-20.521079,16.6-31.347v-55.278c-.005585-5.249887-3.349222-9.915063-8.319-11.607Z" transform="translate(-464.947998-212.546997)" fill="#577590"/><path d="M516.415,759.042l-8.611-4.118l11.829-35.993l12.709,6.078Z" transform="translate(-186.610992-264.196991)" fill="#ffb6b6"/><path d="M798.878,786.666c-.626.392-1.252.778-1.885,1.164-1.259.772-2.53,1.531-3.8,2.277-.639.373-1.284.747-1.923,1.113v.019l-.038.007-.013.006-.974.24-1.4-3.694-.645-1.7-.911-2.41-1.67-4.409-8.792-23.213l13.669-3.371.512,2.094h.006l.253,1.037l4.776,19.368.974,3.959.032.12.588,2.366.506,2.049.563,2.29Z" transform="translate(-411.343994-297.622986)" fill="#ffb6b6"/><path d="M755.793,560.568c2.554298,4.148281,7.950992,5.502225,12.161,3.051.407131-.246263.793123-.525889,1.154-.836l27.224,15.623-1.182-16.038-25.671-12.377c-2.87301-2.885794-7.332667-3.46663-10.849-1.413-4.074786,2.447081-5.394593,7.733922-2.948,11.809q.054.092.111.181Z" transform="translate(-403.121002-222.164993)" fill="#ffb6b6"/><path d="M802.159,554.848l4.812,2.933l21.612,13.179c2.86512,1.792649,6.325029,2.373687,9.618557,1.615286s6.150879-2.794112,7.943443-5.659286l.007-.011c1.599557-2.635947,2.165665-5.771096,1.589-8.8l-9.606-47.991c-.718138-3.812206-3.06299-7.121722-6.421451-9.063212s-7.396592-2.321908-11.058549-1.041788c-6.312283,2.218427-9.814366,8.959937-8,15.4L822.7,549.467l-15.4-7.178Z" transform="translate(-420.652008-204.490005)" fill="#3a72b9"/><path d="M875.561,643.555c-.006-.019-.019-.089-.038-.2l-.019-.07q-.066-.342-.152-.759c-1.290539-6.408553-2.948271-12.737652-4.965-18.956-1.194887-3.808294-2.778214-7.483624-4.725-10.968-.063-.114-.133-.228-.2-.341l-.234-.38-1.967.721-.076.025-29.905,10.961-8.647,3.169-.272.1-1.474,6.009-20.679-2.666-16.85-2.182-4.839-.626c-4.23721-.552197-8.518794.618979-11.885,3.251-3.512782,2.723604-5.784764,6.743709-6.306,11.158-.063.481-.1.968-.12,1.448l-1.461,54.5v.07l.677,1.353l14.137,28.362h9.8l5.781-.006h4.7L786.066,702.8l.221-.335c1.863946-2.857462,2.278629-6.424113,1.12-9.633l1.1-3.188c2.283-6.585,1.2-9.747-.164-13.745-1.227113-3.250404-1.948171-6.669865-2.138-10.139l-.228-4.51c5.737,1.006,11.081,2.125,16.23,3.251q2.581.56,5.111,1.132c4.8,1.069,9.437,2.1,13.978,2.96c9.2,1.752,18.008,2.821,27.059,2.157.177-.013.354-.025.531-.044c2.2-.177,4.415-.462,6.654-.86c1.259-.228,2.524-.487,3.8-.791l1.069-.266c.98352-.259245,1.931087-.639481,2.821-1.132c1.265797-.706899,2.443915-1.560448,3.51-2.543.006-.006.013-.006.013-.013q2.619-3.719,5.1-7.552c.892-1.373,1.778-2.758,2.644-4.149c1.284489-3.113503,1.653615-6.528953,1.064-9.845Z" transform="translate(-405.43399-245.878006)" fill="#2f2e41"/><path d="M859.967,628.354c-.095-.4-.215-.816-.342-1.214-1.002773-3.018088-2.171214-5.978582-3.5-8.868-1.493-3.289-3.283-6.812-5.414-10.626q-1.547-2.77-3.327-5.762-.892-1.5-1.853-3.055c-.025001-.04767-.052369-.094061-.082-.139l-.183-.3-29.589,3.96-11.018,1.474-.658,5.49-.158,1.36c-.006,0-.006,0,0,.006l-.443,3.706v.006l-.588,4.9-.051-.006-16.35-2.119-16.85-2.182-9.051-1.17c-4.237218-.552311-8.518846.618877-11.885,3.251-3.512782,2.723604-5.784764,6.743709-6.306,11.158-.057.443-.095.9-.114,1.347L733.661,649.8c-5.109594,12.10098-8.363573,24.90383-9.652,37.976l-6.262,20.019.892.082l13.27,1.233l3.5.329l7.717-11.265c.879-1.284,1.714-2.606,2.492-3.959c1.280816-2.210598,2.419457-4.500572,3.409-6.856l16.692-39.722q1.936.332,3.833.633q8.776,1.423,16.85,2.321c17.5,1.955,32.657,2.106,46.148.449q5.683-.693,10.987-1.822q1.945-.408,3.839-.879c.3-.07.588-.139.879-.215c5.311493-1.369842,9.563776-5.34341,11.29-10.55c1.014207-2.969529,1.158885-6.167012.417-9.216Z" transform="translate(-389.631989-240.917007)" fill="#2f2e41"/><ellipse rx="20.466999" ry="20.923" transform="translate(407.416004 247.051006)" fill="#ffb6b6"/><path d="M876.857,549.021c-.032-.234-.07-.468-.12-.7-.64743-2.631462-1.647478-5.16337-2.973-7.527-1.185471-2.116441-2.101261-4.372994-2.726-6.717-.329482-2.125151-.3038-4.290263.076-6.407.437689-2.273648.409794-4.612438-.082-6.875-3.302745-11.59756-7.839334-22.807615-13.532-33.438-2.935165-9.547949-11.190393-16.491731-21.1-17.748.566212-1.057287.802054-2.260182.677-3.453-.160137-1.557124-.936913-2.985354-2.157-3.966-1.171969-.944069-2.672387-1.381091-4.168-1.214l-9.513,1.069c-3.174475.3984-5.435319,3.279895-5.067,6.458.053224.470073.159225.932656.316,1.379-8.83,11.246-13.365,21.493-13.782,31.183v.006c-.050631,1.119264-.044289,2.24038.019,3.359.2001,3.617516.986333,7.17853,2.328,10.544c1.584022,3.887996,3.704606,7.535065,6.3,10.835q.8,1.006,1.651,1.974.8.949,1.784,1.992l1.663,2.606l1.55,2.435l8.286,19.121l4.219-.139.588,4.206.139.98l2.732,9.785.2.734l3.738-1.777l22.3-10.588l16.673-7.919Z" transform="translate(-420.841003-190.408005)" fill="#3a72b9"/><path style="isolation:isolate" d="M806.833,530.544c1.90196,4.657849,4.575408,8.961803,7.908,12.731.571.682,1.173,1.351,1.8,2.022l3.238,5.08c11.935-8.946,21.6-44.17,21.6-44.17l-13.466-2.62Z" transform="translate(-422.369995-206.080002)" opacity="0.2"/><g id="euBMwey7fGb120" transform="translate(.000002 0.000002)"><path d="M784.094,457.461c2.450536,4.211846,1.103904,9.609015-3.038,12.176-.408947.244309-.837409.454359-1.281.628l.953,31.375-13.587-8.553l1.178-28.483c-1.189057-3.897934.398305-8.107626,3.865-10.25c4.056901-2.454572,9.335453-1.15631,11.791,2.9q.061.104.119.207Z" transform="translate(-407.783997-188.020965)" fill="#ffb6b6"/><path d="M781.829,502.685l-14.942,2.125.642,30.941c.07568,4.48794,2.470654,8.616422,6.329,10.91v0c4.762039,2.803538,10.804538,2.117604,14.817-1.682l35.275-33.93c5.153391-4.889072,5.585915-12.953788.985-18.366v0c-4.522117-5.349706-12.524552-6.021239-17.875-1.5q-.151.127-.3.259c-.348505.311611-.679985.641756-.993.989l-23.293,26.8Z" transform="translate(-407.690002-200.419998)" fill="#3a72b9"/></g><path d="M705.917,803.283l-9.317-4.466-1.461-.7-2.334,5.731-16.294,3.586c-1.653661.362292-2.879267,1.75833-3.024407,3.444979s.823951,3.271545,2.391407,3.911021l15.92,6.5l5.054-4.548-1.24,6.1l6,2.448l6.572-20.917Z" transform="translate(-373.362-314.315002)" fill="#2f2e41"/><path d="M883.433,396.76c-3.479-4.057-5.133-9.44-7.914-14.047s-7.621-8.73-12.734-7.658c-3.525.739-6.248,3.849-7.628,7.317s-1.637,7.291-1.879,11.037c.085-7.7-4.986-15.162-11.973-17.618-7.285814-2.358957-15.261301.254553-19.738,6.468-3.964609-3.676003-10.05235-3.804898-14.169-.3-3.971053,3.849179-4.762006,9.928902-1.908,14.666c3.000086,4.507269,8.885939,6.076887,13.732,3.662l1.622,1.493c-.867603,3.292584.747722,6.733838,3.835,8.17c2.414.975,5.823.813,6.726,3.346.631,1.77-.549,3.66-1.8,5.02s-2.745,2.765-2.9,4.647c-.228,2.84,2.707,4.83,5.375,5.429c6.691064,1.337734,13.525149-1.514548,17.28-7.212q.107-.164.233-.329c4.206476-5.377309,6.014734-12.248689,5-19-.208-1.312,0-2.288.906-2.6c3.911-1.343,14.867,1.476,18.183,4.024s5.971,5.92,9.165,8.632s7.264,4.8,11.32,4.066c3.248-.592,6.011-2.95,7.87-5.794c1.752582-2.943395,3.061973-6.128929,3.886-9.454-7.502262,4.09541-16.840564,2.449062-22.49-3.965Z" transform="translate(-421.248993-158.783005)" fill="#2f2e41"/><path d="M754.88,716.824v.139l-.177-.019c-.209.152-.417.291-.626.437q-2.268,1.556-4.573,3.061c-.753.493-1.505.98-2.264,1.461v.006c-.006,0-.013.006-.019.006h-.006l-.013.013-.038.019-.051.032v-116.926c0-3.39-1.139-6.142-2.536-6.148h-105.308c-1.4.006-2.536,2.758-2.543,6.148v155.257c-1.4.139-2.808.272-4.212.386-.025,0-.051.006-.076.006-.557.051-1.113.089-1.67.133h-.006c-.335-.62-.664-1.246-.993-1.879v-161.879c0-.936.038-1.879.1-2.808.090229-1.276854.248454-2.54799.474-3.808c1.069-5.876,3.485-9.855,6.23-9.867h110.69c.400707.002804.796686.08683,1.164.247.539474.238863,1.027231.580565,1.436,1.006.554921.576638,1.029533,1.225486,1.411,1.929c1.574857,3.13839,2.481624,6.569325,2.663,10.076c0,.038.006.076.006.114.089,1.025.133,2.068.127,3.112l.089,13.555.057,8.083.171,25.364.063,9.007Z" transform="translate(-357.300995-234.378998)" fill="#5f441f"/><path d="M488.676,475.569l-7.325,32.23-4.681,5.127h-3.377l13.918-58.6.688,9.955v.007Z" transform="translate(-173.929001-166.959)" fill="#2f2e41"/><path d="M717.608,573.021l-42.973-.272-3.814-.025-2.72-.019-3.169-.019h-.025c-.459596.000902-.900369.182671-1.227.506l-5.351,5.351c-.118187.115191-.21472.250676-.285.4-.033273.042563-.060839.089292-.082.139-.235293.546465-.183014,1.174218.139429,1.674235s.872707.806638,1.467571.817765h55.668c.681845-.002355,1.301783-.395942,1.594-1.012l.437-.949.9-1.929l1.018-2.176c.108913-.231475.16526-.484182.165-.74-.008117-.959904-.783117-1.736683-1.743-1.747Z" transform="translate(-367.608002-231.473007)" fill="#2f2e41"/><path style="isolation:isolate" d="M717.267,583.256l-.439.952c-.291691.614537-.909759,1.007535-1.59,1.011h-55.67c-.593688-.012214-1.142334-.319188-1.463341-.818756s-.372245-1.126163-.136659-1.671244c.019784-.050178.047097-.097049.081-.139Z" transform="translate(-367.609009-235.112)" opacity="0.17"/><path style="isolation:isolate" d="M487.9,464.281v.007l-11.918,48.638h-2.688l13.918-58.6Z" transform="translate(-173.929001-166.959)" opacity="0.17"/><path d="M698.22,432.983L681.351,304.64c-.062907-.481552-.314747-.918315-.7-1.214L669.042,288.89l-1.044-.8c-.386679-.29293-.872812-.422541-1.354-.361l-1.746.234c-.48137.062055-.918373.312795-1.214869.697059s-.428198.870572-.366131,1.351941v0L680.8,422.99v.01l1.069,8.134l1.271,9.659v.013l1.974,15.029c.063517.521377.352694.988593.791,1.278.430235.296472.967275.393387,1.474.266l1.107-.278c.424018-.109112.795883-.364459,1.05-.721l.493-.7.228-.329L697.9,434.28c.269111-.376471.384617-.841356.323-1.3Z" transform="translate(-369.625-126.749001)" fill="#2f2e41"/><path style="isolation:isolate" d="M669.041,288.891L690.26,455.345l-.231.326-.492.7c-.253641.357228-.625652.61303-1.05.722l-1.108.279c-.507503.125736-1.044537.029382-1.476673-.264944s-.718469-.758763-.787327-1.277056L663.322,290.012c-.1312-1.002533.574596-1.921814,1.577-2.054l1.75-.23c.479689-.064858.965336.06556,1.348.362Z" transform="translate(-369.626007-126.749001)" opacity="0.17"/><path d="M474.361,263.872l11.261,16.073L499.006,381.78l-7.256,14.4Z" transform="translate(-174.320999-96.969002)" fill="#3a72b9"/><path d="M909.33,618.514c.000538,2.277544-1.402725,4.319811-3.529,5.136-.492983.189265-1.011267.304514-1.538.342-.139.013-.285.019-.424.019h-10.619v51.525c-.158.209-.323.417-.487.626-.911,1.164-1.834,2.328-2.771,3.473-.2.253-.4.5-.6.746-.31.373-.614.746-.917,1.113-.107.126-.209.247-.31.373-.519.62-1.037,1.24-1.569,1.86c0,0,.006.006,0,.006q-.768.911-1.556,1.821c-.958225-.53469-1.730584-1.348912-2.214-2.334-.006-.006-.006-.013-.013-.025-.007463-.014153-.013815-.028864-.019-.044-.354964-.740038-.536564-1.551254-.531-2.372v-56.769h-23.808c-.70275.003673-1.399229-.132291-2.049-.4-1.663127-.664686-2.895702-2.101195-3.3-3.846v-.006c-.29619-1.248797-.139191-2.562201.443-3.706-.006-.006-.006-.006,0-.006.247873-.500381.574726-.957569.968-1.354c0-.006,0-.006.006-.013c1.035291-1.058681,2.453246-1.655924,3.934-1.657h45.413c3.032138.001656,5.489448,2.459862,5.49,5.492Z" transform="translate(-439.30899-246.296005)" fill="#577590"/><path d="M931.521,454.367c-9.50703,0-17.214,7.70697-17.214,17.214v0c.001229,8.234455,5.83333,15.315124,13.915,16.894v28.154h10.988v-62.262Z" transform="translate(-461.86499-187.992004)" fill="#577590"/><path d="M831.547,385.08c4.7,6.245,10.853,21.328,8.616,28.82" transform="translate(-431.451996-162.529999)" fill="#c33764"/></g></g><g id="euBMwey7fGb136" transform="translate(388.73543-68.457002)" opacity="0"><polygon points="9,-3.79717 10.11596,-1.535988 12.611323,-1.17339 10.805662,0.586695 11.23192,3.071975 9,1.898585 6.76808,3.071975 7.194338,0.586695 5.388677,-1.17339 7.88404,-1.535988 9,-3.79717" transform="translate(-44.3565 109.656277)" fill="#e7e9f0" stroke-width="0"/><polygon points="9,-3.79717 10.11596,-1.535988 12.611323,-1.17339 10.805662,0.586695 11.23192,3.071975 9,1.898585 6.76808,3.071975 7.194338,0.586695 5.388677,-1.17339 7.88404,-1.535988 9,-3.79717" transform="translate(-217.252971 137.1296)" fill="#e7e9f0" stroke-width="0"/><polygon points="-68.504997,-19.982004 -67.389037,-17.720822 -64.893674,-17.358224 -66.699335,-15.598139 -66.273077,-13.112859 -68.504997,-14.286249 -70.736917,-13.112859 -70.310659,-15.598139 -72.11632,-17.358224 -69.620957,-17.720822 -68.504997,-19.982004" transform="translate(-120.464311 109.015732)" fill="#e7e9f0" stroke-width="0"/><polygon points="-68.504997,-19.982004 -67.389037,-17.720822 -64.919451,-17.358224 -66.699335,-15.598139 -66.298854,-13.112859 -68.504997,-14.286249 -70.736917,-13.112859 -70.310659,-15.598139 -72.11632,-17.358224 -69.620957,-17.720822 -68.504997,-19.982004" transform="translate(-162.586383 120.937074)" fill="#fff" stroke-width="0"/><polygon points="9,-3.79717 10.11596,-1.535988 12.611323,-1.17339 10.805662,0.586695 11.23192,3.071975 9,1.898585 6.76808,3.071975 7.194338,0.586695 5.388677,-1.17339 7.88404,-1.535988 9,-3.79717" transform="translate(-268.806023 111.203069)" fill="#e7e9f0" stroke-width="0"/><polygon points="9,-3.79717 10.11596,-1.535988 12.611323,-1.17339 10.805662,0.586695 11.23192,3.071975 9,1.898585 6.76808,3.071975 7.194338,0.586695 5.388677,-1.17339 7.88404,-1.535988 9,-3.79717" transform="matrix(1.064342 0 0 1.132275-278.369539 82.724207)" fill="#e7e9f0" stroke-width="0"/><polygon points="9,-3.79717 10.11596,-1.535988 12.611323,-1.17339 10.805662,0.586695 11.23192,3.071975 9,1.898585 6.76808,3.071975 7.194338,0.586695 5.388677,-1.17339 7.88404,-1.535988 9,-3.79717" transform="translate(-10.663783 86.565128)" fill="#feffda" stroke-width="0"/><polygon points="9,-3.79717 10.11596,-1.535988 12.611323,-1.17339 10.805662,0.586695 11.23192,3.071975 9,1.898585 6.76808,3.071975 7.194338,0.586695 5.388677,-1.17339 7.88404,-1.535988 9,-3.79717" transform="matrix(.994603 0.103752-.103752 0.994603-56.473696 87.669138)" fill="#d2d2d2" stroke-width="0"/><polygon points="9,-3.79717 10.11596,-1.535988 12.611323,-1.17339 10.805662,0.586695 11.23192,3.071975 9,1.898585 6.76808,3.071975 7.194338,0.586695 5.388677,-1.17339 7.88404,-1.535988 9,-3.79717" transform="translate(-60.359227 130.383862)" fill="#f8ffb9" stroke-width="0"/><polygon points="9,-3.79717 10.11596,-1.535988 12.611323,-1.17339 10.805662,0.586695 11.23192,3.071975 9,1.898585 6.76808,3.071975 7.194338,0.586695 5.388677,-1.17339 7.88404,-1.535988 9,-3.79717" transform="translate(-10.920803 142.350115)" fill="#e7e9f0" stroke-width="0"/><polygon points="0,-3.79717 1.11596,-1.535988 3.611323,-1.17339 1.805662,0.586695 2.23192,3.071975 0,1.898585 -2.23192,3.071975 -1.805662,0.586695 -3.611323,-1.17339 -1.11596,-1.535988 0,-3.79717" transform="translate(163.695762 42.064958)" fill="#e7e9f0" stroke-width="0"/></g><script><![CDATA[!function(t,e){"object"==typeof exports&&"undefined"!=typeof module?module.exports=e():"function"==typeof define&&define.amd?define(e):((t="undefined"!=typeof globalThis?globalThis:t||self).__SVGATOR_PLAYER__=t.__SVGATOR_PLAYER__||{},t.__SVGATOR_PLAYER__["91c80d77"]=e())}(this,(function(){"use strict";function t(t,e){var n=Object.keys(t);if(Object.getOwnPropertySymbols){var r=Object.getOwnPropertySymbols(t);e&&(r=r.filter((function(e){return Object.getOwnPropertyDescriptor(t,e).enumerable}))),n.push.apply(n,r)}return n}function e(e){for(var n=1;n<arguments.length;n++){var r=null!=arguments[n]?arguments[n]:{};n%2?t(Object(r),!0).forEach((function(t){u(e,t,r[t])})):Object.getOwnPropertyDescriptors?Object.defineProperties(e,Object.getOwnPropertyDescriptors(r)):t(Object(r)).forEach((function(t){Object.defineProperty(e,t,Object.getOwnPropertyDescriptor(r,t))}))}return e}function n(t){return(n="function"==typeof Symbol&&"symbol"==typeof Symbol.iterator?function(t){return typeof t}:function(t){return t&&"function"==typeof Symbol&&t.constructor===Symbol&&t!==Symbol.prototype?"symbol":typeof t})(t)}function r(t,e){if(!(t instanceof e))throw new TypeError("Cannot call a class as a function")}function i(t,e){for(var n=0;n<e.length;n++){var r=e[n];r.enumerable=r.enumerable||!1,r.configurable=!0,"value"in r&&(r.writable=!0),Object.defineProperty(t,r.key,r)}}function o(t,e,n){return e&&i(t.prototype,e),n&&i(t,n),t}function u(t,e,n){return e in t?Object.defineProperty(t,e,{value:n,enumerable:!0,configurable:!0,writable:!0}):t[e]=n,t}function a(t){return(a=Object.setPrototypeOf?Object.getPrototypeOf:function(t){return t.__proto__||Object.getPrototypeOf(t)})(t)}function s(t,e){return(s=Object.setPrototypeOf||function(t,e){return t.__proto__=e,t})(t,e)}function l(){if("undefined"==typeof Reflect||!Reflect.construct)return!1;if(Reflect.construct.sham)return!1;if("function"==typeof Proxy)return!0;try{return Boolean.prototype.valueOf.call(Reflect.construct(Boolean,[],(function(){}))),!0}catch(t){return!1}}function f(t,e,n){return(f=l()?Reflect.construct:function(t,e,n){var r=[null];r.push.apply(r,e);var i=new(Function.bind.apply(t,r));return n&&s(i,n.prototype),i}).apply(null,arguments)}function c(t,e){if(e&&("object"==typeof e||"function"==typeof e))return e;if(void 0!==e)throw new TypeError("Derived constructors may only return object or undefined");return function(t){if(void 0===t)throw new ReferenceError("this hasn't been initialised - super() hasn't been called");return t}(t)}function h(t,e,n){return(h="undefined"!=typeof Reflect&&Reflect.get?Reflect.get:function(t,e,n){var r=function(t,e){for(;!Object.prototype.hasOwnProperty.call(t,e)&&null!==(t=a(t)););return t}(t,e);if(r){var i=Object.getOwnPropertyDescriptor(r,e);return i.get?i.get.call(n):i.value}})(t,e,n||t)}function v(t){return function(t){if(Array.isArray(t))return y(t)}(t)||function(t){if("undefined"!=typeof Symbol&&null!=t[Symbol.iterator]||null!=t["@@iterator"])return Array.from(t)}(t)||function(t,e){if(!t)return;if("string"==typeof t)return y(t,e);var n=Object.prototype.toString.call(t).slice(8,-1);"Object"===n&&t.constructor&&(n=t.constructor.name);if("Map"===n||"Set"===n)return Array.from(t);if("Arguments"===n||/^(?:Ui|I)nt(?:8|16|32)(?:Clamped)?Array$/.test(n))return y(t,e)}(t)||function(){throw new TypeError("Invalid attempt to spread non-iterable instance.\nIn order to be iterable, non-array objects must have a [Symbol.iterator]() method.")}()}function y(t,e){(null==e||e>t.length)&&(e=t.length);for(var n=0,r=new Array(e);n<e;n++)r[n]=t[n];return r}Number.isInteger||(Number.isInteger=function(t){return"number"==typeof t&&isFinite(t)&&Math.floor(t)===t}),Number.EPSILON||(Number.EPSILON=2220446049250313e-31);var d=g(Math.pow(10,-6));function g(t){var e=arguments.length>1&&void 0!==arguments[1]?arguments[1]:6;if(Number.isInteger(t))return t;var n=Math.pow(10,e);return Math.round((+t+Number.EPSILON)*n)/n}function p(t,e){var n=arguments.length>2&&void 0!==arguments[2]?arguments[2]:d;return Math.abs(t-e)<n}var m=Math.PI/180;function b(t){return t}function k(t,e,n){var r=1-n;return 3*n*r*(t*r+e*n)+n*n*n}function w(){var t=arguments.length>0&&void 0!==arguments[0]?arguments[0]:0,e=arguments.length>1&&void 0!==arguments[1]?arguments[1]:0,n=arguments.length>2&&void 0!==arguments[2]?arguments[2]:1,r=arguments.length>3&&void 0!==arguments[3]?arguments[3]:1;return t<0||t>1||n<0||n>1?null:p(t,e)&&p(n,r)?b:function(i){if(i<=0)return t>0?i*e/t:0===e&&n>0?i*r/n:0;if(i>=1)return n<1?1+(i-1)*(r-1)/(n-1):1===n&&t<1?1+(i-1)*(e-1)/(t-1):1;for(var o,u=0,a=1;u<a;){var s=k(t,n,o=(u+a)/2);if(p(i,s))break;s<i?u=o:a=o}return k(e,r,o)}}function x(){return 1}function A(t){return 1===t?1:0}function _(){var t=arguments.length>0&&void 0!==arguments[0]?arguments[0]:1,e=arguments.length>1&&void 0!==arguments[1]?arguments[1]:0;if(1===t){if(0===e)return A;if(1===e)return x}var n=1/t;return function(t){return t>=1?1:(t+=e*n)-t%n}}var O=Math.sin,S=Math.cos,E=Math.acos,P=Math.asin,M=Math.tan,j=Math.atan2,B=Math.PI/180,T=180/Math.PI,I=Math.sqrt,R=function(){function t(){var e=arguments.length>0&&void 0!==arguments[0]?arguments[0]:1,n=arguments.length>1&&void 0!==arguments[1]?arguments[1]:0,i=arguments.length>2&&void 0!==arguments[2]?arguments[2]:0,o=arguments.length>3&&void 0!==arguments[3]?arguments[3]:1,u=arguments.length>4&&void 0!==arguments[4]?arguments[4]:0,a=arguments.length>5&&void 0!==arguments[5]?arguments[5]:0;r(this,t),this.m=[e,n,i,o,u,a],this.i=null,this.w=null,this.s=null}return o(t,[{key:"determinant",get:function(){var t=this.m;return t[0]*t[3]-t[1]*t[2]}},{key:"isIdentity",get:function(){if(null===this.i){var t=this.m;this.i=1===t[0]&&0===t[1]&&0===t[2]&&1===t[3]&&0===t[4]&&0===t[5]}return this.i}},{key:"point",value:function(t,e){var n=this.m;return{x:n[0]*t+n[2]*e+n[4],y:n[1]*t+n[3]*e+n[5]}}},{key:"translateSelf",value:function(){var t=arguments.length>0&&void 0!==arguments[0]?arguments[0]:0,e=arguments.length>1&&void 0!==arguments[1]?arguments[1]:0;if(!t&&!e)return this;var n=this.m;return n[4]+=n[0]*t+n[2]*e,n[5]+=n[1]*t+n[3]*e,this.w=this.s=this.i=null,this}},{key:"rotateSelf",value:function(){var t=arguments.length>0&&void 0!==arguments[0]?arguments[0]:0;if(t%=360){var e=O(t*=B),n=S(t),r=this.m,i=r[0],o=r[1];r[0]=i*n+r[2]*e,r[1]=o*n+r[3]*e,r[2]=r[2]*n-i*e,r[3]=r[3]*n-o*e,this.w=this.s=this.i=null}return this}},{key:"scaleSelf",value:function(){var t=arguments.length>0&&void 0!==arguments[0]?arguments[0]:1,e=arguments.length>1&&void 0!==arguments[1]?arguments[1]:1;if(1!==t||1!==e){var n=this.m;n[0]*=t,n[1]*=t,n[2]*=e,n[3]*=e,this.w=this.s=this.i=null}return this}},{key:"skewSelf",value:function(t,e){if(e%=360,(t%=360)||e){var n=this.m,r=n[0],i=n[1],o=n[2],u=n[3];t&&(t=M(t*B),n[2]+=r*t,n[3]+=i*t),e&&(e=M(e*B),n[0]+=o*e,n[1]+=u*e),this.w=this.s=this.i=null}return this}},{key:"resetSelf",value:function(){var t=arguments.length>0&&void 0!==arguments[0]?arguments[0]:1,e=arguments.length>1&&void 0!==arguments[1]?arguments[1]:0,n=arguments.length>2&&void 0!==arguments[2]?arguments[2]:0,r=arguments.length>3&&void 0!==arguments[3]?arguments[3]:1,i=arguments.length>4&&void 0!==arguments[4]?arguments[4]:0,o=arguments.length>5&&void 0!==arguments[5]?arguments[5]:0,u=this.m;return u[0]=t,u[1]=e,u[2]=n,u[3]=r,u[4]=i,u[5]=o,this.w=this.s=this.i=null,this}},{key:"recomposeSelf",value:function(){var t=arguments.length>0&&void 0!==arguments[0]?arguments[0]:null,e=arguments.length>1&&void 0!==arguments[1]?arguments[1]:null,n=arguments.length>2&&void 0!==arguments[2]?arguments[2]:null,r=arguments.length>3&&void 0!==arguments[3]?arguments[3]:null,i=arguments.length>4&&void 0!==arguments[4]?arguments[4]:null;return this.isIdentity||this.resetSelf(),t&&(t.x||t.y)&&this.translateSelf(t.x,t.y),e&&this.rotateSelf(e),n&&(n.x&&this.skewSelf(n.x,0),n.y&&this.skewSelf(0,n.y)),!r||1===r.x&&1===r.y||this.scaleSelf(r.x,r.y),i&&(i.x||i.y)&&this.translateSelf(i.x,i.y),this}},{key:"decompose",value:function(){var t=arguments.length>0&&void 0!==arguments[0]?arguments[0]:0,e=arguments.length>1&&void 0!==arguments[1]?arguments[1]:0,n=this.m,r=n[0]*n[0]+n[1]*n[1],i=[[n[0],n[1]],[n[2],n[3]]],o=I(r);if(0===o)return{origin:{x:g(n[4]),y:g(n[5])},translate:{x:g(t),y:g(e)},scale:{x:0,y:0},skew:{x:0,y:0},rotate:0};i[0][0]/=o,i[0][1]/=o;var u=n[0]*n[3]-n[1]*n[2]<0;u&&(o=-o);var a=i[0][0]*i[1][0]+i[0][1]*i[1][1];i[1][0]-=i[0][0]*a,i[1][1]-=i[0][1]*a;var s=I(i[1][0]*i[1][0]+i[1][1]*i[1][1]);if(0===s)return{origin:{x:g(n[4]),y:g(n[5])},translate:{x:g(t),y:g(e)},scale:{x:g(o),y:0},skew:{x:0,y:0},rotate:0};i[1][0]/=s,i[1][1]/=s,a/=s;var l=0;return i[1][1]<0?(l=E(i[1][1])*T,i[0][1]<0&&(l=360-l)):l=P(i[0][1])*T,u&&(l=-l),a=j(a,I(i[0][0]*i[0][0]+i[0][1]*i[0][1]))*T,u&&(a=-a),{origin:{x:g(n[4]),y:g(n[5])},translate:{x:g(t),y:g(e)},scale:{x:g(o),y:g(s)},skew:{x:g(a),y:0},rotate:g(l)}}},{key:"clone",value:function(){var t=this.m;return new this.constructor(t[0],t[1],t[2],t[3],t[4],t[5])}},{key:"toString",value:function(){var t=arguments.length>0&&void 0!==arguments[0]?arguments[0]:" ";if(null===this.s){var e=this.m.map((function(t){return g(t)}));1===e[0]&&0===e[1]&&0===e[2]&&1===e[3]?this.s="translate("+e[4]+t+e[5]+")":this.s="matrix("+e.join(t)+")"}return this.s}}],[{key:"create",value:function(t){return t?Array.isArray(t)?f(this,v(t)):t instanceof this?t.clone():(new this).recomposeSelf(t.origin,t.rotate,t.skew,t.scale,t.translate):new this}}]),t}();function N(t,e,n){return t>=.5?n:e}function F(t,e,n){return 0===t||e===n?e:t*(n-e)+e}function C(t,e,n){var r=F(t,e,n);return r<=0?0:r}function L(t,e,n){var r=F(t,e,n);return r<=0?0:r>=1?1:r}function D(t,e,n){return 0===t?e:1===t?n:{x:F(t,e.x,n.x),y:F(t,e.y,n.y)}}function q(t,e,n){return 0===t?e:1===t?n:{x:C(t,e.x,n.x),y:C(t,e.y,n.y)}}function V(t,e,n){var r=function(t,e,n){return Math.round(F(t,e,n))}(t,e,n);return r<=0?0:r>=255?255:r}function z(t,e,n){return 0===t?e:1===t?n:{r:V(t,e.r,n.r),g:V(t,e.g,n.g),b:V(t,e.b,n.b),a:F(t,null==e.a?1:e.a,null==n.a?1:n.a)}}function Y(t,e,n){var r=e.length;if(r!==n.length)return N(t,e,n);for(var i=new Array(r),o=0;o<r;o++)i[o]=F(t,e[o],n[o]);return i}function G(t,e){for(var n=[],r=0;r<t;r++)n.push(e);return n}function U(t,e){if(--e<=0)return t;var n=(t=Object.assign([],t)).length;do{for(var r=0;r<n;r++)t.push(t[r])}while(--e>0);return t}var $,W=function(){function t(e){r(this,t),this.list=e,this.length=e.length}return o(t,[{key:"setAttribute",value:function(t,e){for(var n=this.list,r=0;r<this.length;r++)n[r].setAttribute(t,e)}},{key:"removeAttribute",value:function(t){for(var e=this.list,n=0;n<this.length;n++)e[n].removeAttribute(t)}},{key:"style",value:function(t,e){for(var n=this.list,r=0;r<this.length;r++)n[r].style[t]=e}}]),t}(),H=/-./g,Q=function(t,e){return e.toUpperCase()};function X(t){return"function"==typeof t?t:N}function J(t){return t?"function"==typeof t?t:Array.isArray(t)?function(t){var e=arguments.length>1&&void 0!==arguments[1]?arguments[1]:b;if(!Array.isArray(t))return e;switch(t.length){case 1:return _(t[0])||e;case 2:return _(t[0],t[1])||e;case 4:return w(t[0],t[1],t[2],t[3])||e}return e}(t,null):function(t,e){var n=arguments.length>2&&void 0!==arguments[2]?arguments[2]:b;switch(t){case"linear":return b;case"steps":return _(e.steps||1,e.jump||0)||n;case"bezier":case"cubic-bezier":return w(e.x1||0,e.y1||0,e.x2||0,e.y2||0)||n}return n}(t.type,t.value,null):null}function K(t,e,n){var r=arguments.length>3&&void 0!==arguments[3]&&arguments[3],i=e.length-1;if(t<=e[0].t)return r?[0,0,e[0].v]:e[0].v;if(t>=e[i].t)return r?[i,1,e[i].v]:e[i].v;var o,u=e[0],a=null;for(o=1;o<=i;o++){if(!(t>e[o].t)){a=e[o];break}u=e[o]}return null==a?r?[i,1,e[i].v]:e[i].v:u.t===a.t?r?[o,1,a.v]:a.v:(t=(t-u.t)/(a.t-u.t),u.e&&(t=u.e(t)),r?[o,t,n(t,u.v,a.v)]:n(t,u.v,a.v))}function Z(t,e){var n=arguments.length>2&&void 0!==arguments[2]?arguments[2]:null;return t&&t.length?"function"!=typeof e?null:("function"!=typeof n&&(n=null),function(r){var i=K(r,t,e);return null!=i&&n&&(i=n(i)),i}):null}function tt(t,e){return t.t-e.t}function et(t,e,r,i,o){var u,a="@"===r[0],s="#"===r[0],l=$[r],f=N;switch(a?(u=r.substr(1),r=u.replace(H,Q)):s&&(r=r.substr(1)),n(l)){case"function":if(f=l(i,o,K,J,r,a,e,t),s)return f;break;case"string":f=Z(i,X(l));break;case"object":if((f=Z(i,X(l.i),l.f))&&"function"==typeof l.u)return l.u(e,f,r,a,t)}return f?function(t,e,n){if(arguments.length>3&&void 0!==arguments[3]&&arguments[3])return t instanceof W?function(r){return t.style(e,n(r))}:function(r){return t.style[e]=n(r)};if(Array.isArray(e)){var r=e.length;return function(i){var o=n(i);if(null==o)for(var u=0;u<r;u++)t[u].removeAttribute(e);else for(var a=0;a<r;a++)t[a].setAttribute(e,o)}}return function(r){var i=n(r);null==i?t.removeAttribute(e):t.setAttribute(e,i)}}(e,r,f,a):null}function nt(t,e,r,i){if(!i||"object"!==n(i))return null;var o=null,u=null;return Array.isArray(i)?u=function(t){if(!t||!t.length)return null;for(var e=0;e<t.length;e++)t[e].e&&(t[e].e=J(t[e].e));return t.sort(tt)}(i):(u=i.keys,o=i.data||null),u?et(t,e,r,u,o):null}function rt(t,e,n){if(!n)return null;var r=[];for(var i in n)if(n.hasOwnProperty(i)){var o=nt(t,e,i,n[i]);o&&r.push(o)}return r.length?r:null}function it(t,e){if(!e.settings.duration||e.settings.duration<0)return null;var n,r,i,o,u,a=function(t,e){if(!e)return null;var n=[];if(Array.isArray(e))for(var r=e.length,i=0;i<r;i++){var o=e[i];if(2===o.length){var u=null;if("string"==typeof o[0])u=t.getElementById(o[0]);else if(Array.isArray(o[0])){u=[];for(var a=0;a<o[0].length;a++)if("string"==typeof o[0][a]){var s=t.getElementById(o[0][a]);s&&u.push(s)}u=u.length?1===u.length?u[0]:new W(u):null}if(u){var l=rt(t,u,o[1]);l&&(n=n.concat(l))}}}else for(var f in e)if(e.hasOwnProperty(f)){var c=t.getElementById(f);if(c){var h=rt(t,c,e[f]);h&&(n=n.concat(h))}}return n.length?n:null}(t,e.elements);return a?(n=a,r=e.settings,i=r.duration,o=n.length,u=null,function(t,e){var a=r.iterations||1/0,s=(r.alternate&&a%2==0)^r.direction>0?i:0,l=t%i,f=1+(t-l)/i;e*=r.direction,r.alternate&&f%2==0&&(e=-e);var c=!1;if(f>a)l=s,c=!0,-1===r.fill&&(l=r.direction>0?0:i);else if(e<0&&(l=i-l),l===u)return!1;u=l;for(var h=0;h<o;h++)n[h](l);return c}):null}function ot(t,e){if($=e,!t||!t.root||!Array.isArray(t.animations))return null;var n=function(t){for(var e=document.getElementsByTagName("svg"),n=0;n<e.length;n++)if(e[n].id===t.root&&!e[n].svgatorAnimation)return e[n].svgatorAnimation=!0,e[n];return null}(t);if(!n)return null;var r=t.animations.map((function(t){return it(n,t)})).filter((function(t){return!!t}));return r.length?{svg:n,animations:r,animationSettings:t.animationSettings,options:t.options||void 0}:null}function ut(t){return+("0x"+(t.replace(/[^0-9a-fA-F]+/g,"")||27))}function at(t,e,n){return!t||!n||e>t.length?t:t.substring(0,e)+at(t.substring(e+1),n,n)}function st(t){var e=arguments.length>1&&void 0!==arguments[1]?arguments[1]:27;return!t||t%e?t%e:st(t/e,e)}function lt(t,e,n){if(t&&t.length){var r=ut(n),i=ut(e),o=st(r)+5,u=at(t,st(r,5),o);return u=u.replace(/\x7c$/g,"==").replace(/\x2f$/g,"="),u=function(t,e,n){var r=+("0x"+t.substring(0,4));t=t.substring(4);for(var i=e%r+n%27,o=[],u=0;u<t.length;u+=2)if("|"!==t[u]){var a=+("0x"+t[u]+t[u+1])-i;o.push(a)}else{var s=+("0x"+t.substring(u+1,u+1+4))-i;u+=3,o.push(s)}return String.fromCharCode.apply(String,o)}(u=(u=atob(u)).replace(/[\x41-\x5A]/g,""),i,r),u=JSON.parse(u)}}var ft=[{key:"alternate",def:!1},{key:"fill",def:1},{key:"iterations",def:0},{key:"direction",def:1},{key:"speed",def:1},{key:"fps",def:100}],ct=function(){function t(e,n){var i=this,o=arguments.length>2&&void 0!==arguments[2]?arguments[2]:null;r(this,t),this._id=0,this._running=!1,this._rollingBack=!1,this._animations=e,this._settings=n,(!o||o<"2022-05-02")&&delete this._settings.speed,ft.forEach((function(t){i._settings[t.key]=i._settings[t.key]||t.def})),this.duration=n.duration,this.offset=n.offset||0,this.rollbackStartOffset=0}return o(t,[{key:"alternate",get:function(){return this._settings.alternate}},{key:"fill",get:function(){return this._settings.fill}},{key:"iterations",get:function(){return this._settings.iterations}},{key:"direction",get:function(){return this._settings.direction}},{key:"speed",get:function(){return this._settings.speed}},{key:"fps",get:function(){return this._settings.fps}},{key:"maxFiniteDuration",get:function(){return this.iterations>0?this.iterations*this.duration:this.duration}},{key:"_apply",value:function(t){for(var e=arguments.length>1&&void 0!==arguments[1]?arguments[1]:{},n=this._animations,r=n.length,i=0,o=0;o<r;o++)e[o]?i++:(e[o]=n[o](t,1),e[o]&&i++);return i}},{key:"_rollback",value:function(t){var e=this,n=1/0,r=null;this.rollbackStartOffset=t,this._rollingBack=!0,this._running=!0;this._id=window.requestAnimationFrame((function i(o){if(e._rollingBack){null==r&&(r=o);var u=Math.round(t-(o-r)*e.speed);if(u>e.duration&&n!==1/0){var a=!!e.alternate&&u/e.duration%2>1,s=u%e.duration;u=(s+=a?e.duration:0)||e.duration}var l=(e.fps?1e3/e.fps:0)*e.speed,f=Math.max(0,u);f<n-l&&(e.offset=f,n=f,e._apply(f));var c=e.iterations>0&&-1===e.fill&&u>=e.maxFiniteDuration;(u<=0||e.offset<u||c)&&e.stop(),e._id=window.requestAnimationFrame(i)}}))}},{key:"_start",value:function(){var t=this,e=arguments.length>0&&void 0!==arguments[0]?arguments[0]:0,n=-1/0,r=null,i={};this._running=!0;var o=function o(u){null==r&&(r=u);var a=Math.round((u-r)*t.speed+e),s=(t.fps?1e3/t.fps:0)*t.speed;if(a>n+s&&!t._rollingBack&&(t.offset=a,n=a,t._apply(a,i)===t._animations.length))return void t.pause(!0);t._id=window.requestAnimationFrame(o)};this._id=window.requestAnimationFrame(o)}},{key:"_pause",value:function(){this._id&&window.cancelAnimationFrame(this._id),this._running=!1}},{key:"play",value:function(){if(!this._running)return this._rollingBack?this._rollback(this.offset):this._start(this.offset)}},{key:"stop",value:function(){this._pause(),this.offset=0,this.rollbackStartOffset=0,this._rollingBack=!1,this._apply(0)}},{key:"reachedToEnd",value:function(){return this.iterations>0&&this.offset>=this.iterations*this.duration}},{key:"restart",value:function(){var t=arguments.length>0&&void 0!==arguments[0]&&arguments[0];this.stop(t),this.play(t)}},{key:"pause",value:function(){this._pause()}},{key:"reverse",value:function(){this.direction=-this.direction}}],[{key:"build",value:function(t,e){delete t.animationSettings,t.options=lt(t.options,t.root,"91c80d77"),t.animations.map((function(e){e.settings=lt(e.s,t.root,"91c80d77"),delete e.s,t.animationSettings||(t.animationSettings=e.settings)}));var n=t.version;if(!(t=ot(t,e)))return null;var r=t.options||{},i=new this(t.animations,t.animationSettings,n);return{el:t.svg,options:r,player:i}}},{key:"push",value:function(t){return this.build(t)}},{key:"init",value:function(){var t=this,e=window.__SVGATOR_PLAYER__&&window.__SVGATOR_PLAYER__["91c80d77"];Array.isArray(e)&&e.splice(0).forEach((function(e){return t.build(e)}))}}]),t}();!function(){for(var t=0,e=["ms","moz","webkit","o"],n=0;n<e.length&&!window.requestAnimationFrame;++n)window.requestAnimationFrame=window[e[n]+"RequestAnimationFrame"],window.cancelAnimationFrame=window[e[n]+"CancelAnimationFrame"]||window[e[n]+"CancelRequestAnimationFrame"];window.requestAnimationFrame||(window.requestAnimationFrame=function(e){var n=Date.now(),r=Math.max(0,16-(n-t)),i=window.setTimeout((function(){e(n+r)}),r);return t=n+r,i},window.cancelAnimationFrame=window.clearTimeout)}();var ht=function(t,e){var n=!1,r=null;return function(i){n&&clearTimeout(n),n=setTimeout((function(){return function(){for(var i=0,o=window.innerHeight,u=0,a=window.innerWidth,s=t.parentNode;s instanceof Element;){var l=window.getComputedStyle(s);if("visible"!==l.overflowY||"visible"!==l.overflowX){var f=s.getBoundingClientRect();"visible"!==l.overflowY&&(i=Math.max(i,f.top),o=Math.min(o,f.bottom)),"visible"!==l.overflowX&&(u=Math.max(u,f.left),a=Math.min(a,f.right))}if(s===s.parentNode)break;s=s.parentNode}n=!1;var c=t.getBoundingClientRect(),h=Math.min(c.height,Math.max(0,i-c.top)),v=Math.min(c.height,Math.max(0,c.bottom-o)),y=Math.min(c.width,Math.max(0,u-c.left)),d=Math.min(c.width,Math.max(0,c.right-a)),g=(c.height-h-v)/c.height,p=(c.width-y-d)/c.width,m=Math.round(g*p*100);null!==r&&r===m||(r=m,e(m))}()}),100)}},vt=function(){function t(e,n,i){r(this,t),n=Math.max(1,n||1),n=Math.min(n,100),this.el=e,this._handlers=[],this.onThresholdChange=i&&i.call?i:function(){},this.thresholdPercent=n||1,this.currentVisibility=null,this.visibilityCalculator=ht(e,this.onVisibilityUpdate.bind(this)),this.bindScrollWatchers(),this.visibilityCalculator()}return o(t,[{key:"bindScrollWatchers",value:function(){for(var t=this.el.parentNode;t&&(this._handlers.push({element:t,event:"scroll",handler:this.visibilityCalculator}),t.addEventListener("scroll",this.visibilityCalculator),t!==t.parentNode&&t!==document);)t=t.parentNode}},{key:"onVisibilityUpdate",value:function(t){var e=this.currentVisibility>=this.thresholdPercent,n=t>=this.thresholdPercent;if(null===this.currentVisibility||e!==n)return this.currentVisibility=t,void this.onThresholdChange(n);this.currentVisibility=t}},{key:"destruct",value:function(){this._handlers.forEach((function(t){t.element.removeEventListener(t.event,t.handler)}))}}]),t}();function yt(t){return g(t)+""}function dt(t){var e=arguments.length>1&&void 0!==arguments[1]?arguments[1]:" ";return t&&t.length?t.map(yt).join(e):""}function gt(t){return yt(t.x)+","+yt(t.y)}function pt(t){if(!t)return"transparent";if(null==t.a||t.a>=1){var e=function(t){return 1===(t=parseInt(t).toString(16)).length?"0"+t:t},n=function(t){return t.charAt(0)===t.charAt(1)},r=e(t.r),i=e(t.g),o=e(t.b);return n(r)&&n(i)&&n(o)&&(r=r.charAt(0),i=i.charAt(0),o=o.charAt(0)),"#"+r+i+o}return"rgba("+t.r+","+t.g+","+t.b+","+t.a+")"}function mt(t){return t?"url(#"+t+")":"none"}var bt={f:null,i:q,u:function(t,e){return function(n){var r=e(n);t.setAttribute("rx",yt(r.x)),t.setAttribute("ry",yt(r.y))}}},kt={f:null,i:function(t,e,n){return 0===t?e:1===t?n:{width:C(t,e.width,n.width),height:C(t,e.height,n.height)}},u:function(t,e){return function(n){var r=e(n);t.setAttribute("width",yt(r.width)),t.setAttribute("height",yt(r.height))}}};Object.freeze({M:2,L:2,Z:0,H:1,V:1,C:6,Q:4,T:2,S:4,A:7});var wt={},xt=null;function At(t){var e=function(){if(xt)return xt;if("object"!==("undefined"==typeof document?"undefined":n(document))||!document.createElementNS)return{};var t=document.createElementNS("http://www.w3.org/2000/svg","svg");return t&&t.style?(t.style.position="absolute",t.style.opacity="0.01",t.style.zIndex="-9999",t.style.left="-9999px",t.style.width="1px",t.style.height="1px",xt={svg:t}):{}}().svg;if(!e)return function(t){return null};var r=document.createElementNS(e.namespaceURI,"path");r.setAttributeNS(null,"d",t),r.setAttributeNS(null,"fill","none"),r.setAttributeNS(null,"stroke","none"),e.appendChild(r);var i=r.getTotalLength();return function(t){var e=r.getPointAtLength(i*t);return{x:e.x,y:e.y}}}function _t(t){return wt[t]?wt[t]:wt[t]=At(t)}function Ot(t,e,n,r){if(!t||!r)return!1;var i=["M",t.x,t.y];if(e&&n&&(i.push("C"),i.push(e.x),i.push(e.y),i.push(n.x),i.push(n.y)),e?!n:n){var o=e||n;i.push("Q"),i.push(o.x),i.push(o.y)}return e||n||i.push("L"),i.push(r.x),i.push(r.y),i.join(" ")}function St(t,e,n,r){var i=arguments.length>4&&void 0!==arguments[4]?arguments[4]:1,o=Ot(t,e,n,r),u=_t(o);try{return u(i)}catch(t){return null}}function Et(t,e,n){return t+(e-t)*n}function Pt(t,e,n){var r=arguments.length>3&&void 0!==arguments[3]&&arguments[3],i={x:Et(t.x,e.x,n),y:Et(t.y,e.y,n)};return r&&(i.a=Mt(t,e)),i}function Mt(t,e){return Math.atan2(e.y-t.y,e.x-t.x)}function jt(t,e,n,r){var i=1-r;return i*i*t+2*i*r*e+r*r*n}function Bt(t,e,n,r){return 2*(1-r)*(e-t)+2*r*(n-e)}function Tt(t,e,n,r){var i=arguments.length>4&&void 0!==arguments[4]&&arguments[4],o=St(t,e,null,n,r);return o||(o={x:jt(t.x,e.x,n.x,r),y:jt(t.y,e.y,n.y,r)}),i&&(o.a=It(t,e,n,r)),o}function It(t,e,n,r){return Math.atan2(Bt(t.y,e.y,n.y,r),Bt(t.x,e.x,n.x,r))}function Rt(t,e,n,r,i){var o=i*i;return i*o*(r-t+3*(e-n))+3*o*(t+n-2*e)+3*i*(e-t)+t}function Nt(t,e,n,r,i){var o=1-i;return 3*(o*o*(e-t)+2*o*i*(n-e)+i*i*(r-n))}function Ft(t,e,n,r,i){var o=arguments.length>5&&void 0!==arguments[5]&&arguments[5],u=St(t,e,n,r,i);return u||(u={x:Rt(t.x,e.x,n.x,r.x,i),y:Rt(t.y,e.y,n.y,r.y,i)}),o&&(u.a=Ct(t,e,n,r,i)),u}function Ct(t,e,n,r,i){return Math.atan2(Nt(t.y,e.y,n.y,r.y,i),Nt(t.x,e.x,n.x,r.x,i))}function Lt(t,e,n){var r=arguments.length>3&&void 0!==arguments[3]&&arguments[3];if(qt(e)){if(Vt(n))return Tt(e,n.start,n,t,r)}else if(qt(n)){if(zt(e))return Tt(e,e.end,n,t,r)}else{if(zt(e))return Vt(n)?Ft(e,e.end,n.start,n,t,r):Tt(e,e.end,n,t,r);if(Vt(n))return Tt(e,n.start,n,t,r)}return Pt(e,n,t,r)}function Dt(t,e,n){var r=Lt(t,e,n,!0);return r.a=function(t){return arguments.length>1&&void 0!==arguments[1]&&arguments[1]?t+Math.PI:t}(r.a)/m,r}function qt(t){return!t.type||"corner"===t.type}function Vt(t){return null!=t.start&&!qt(t)}function zt(t){return null!=t.end&&!qt(t)}var Yt=new R;var Gt={f:function(t){return t?t.join(" "):""},i:function(t,e,r){if(0===t)return e;if(1===t)return r;var i=e.length;if(i!==r.length)return N(t,e,r);for(var o,u=new Array(i),a=0;a<i;a++){if((o=n(e[a]))!==n(r[a]))return N(t,e,r);if("number"===o)u[a]=F(t,e[a],r[a]);else{if(e[a]!==r[a])return N(t,e,r);u[a]=e[a]}}return u}},Ut={f:null,i:Y,u:function(t,e){return function(n){var r=e(n);t.setAttribute("x1",yt(r[0])),t.setAttribute("y1",yt(r[1])),t.setAttribute("x2",yt(r[2])),t.setAttribute("y2",yt(r[3]))}}},$t={f:yt,i:F},Wt={f:yt,i:L},Ht={f:function(t){var e=arguments.length>1&&void 0!==arguments[1]?arguments[1]:" ";return t&&t.length>0&&(t=t.map((function(t){return g(t,4)}))),dt(t,e)},i:function(t,e,n){var r,i,o,u=e.length,a=n.length;if(u!==a)if(0===u)e=G(u=a,0);else if(0===a)a=u,n=G(u,0);else{var s=(o=(r=u)*(i=a)/function(t,e){for(var n;e;)n=e,e=t%e,t=n;return t||1}(r,i))<0?-o:o;e=U(e,Math.floor(s/u)),n=U(n,Math.floor(s/a)),u=a=s}for(var l=[],f=0;f<u;f++)l.push(g(C(t,e[f],n[f])));return l}};function Qt(t,e,n){return t.map((function(t){return function(t,e,n){var r=t.v;if(!r||"g"!==r.t||r.s||!r.v||!r.r)return t;var i=n.getElementById(r.r),o=i&&i.querySelectorAll("stop")||[];return r.s=r.v.map((function(t,e){var n=o[e]&&o[e].getAttribute("offset");return{c:t,o:n=g(parseInt(n)/100)}})),delete r.v,t}(t,0,n)}))}var Xt={gt:"gradientTransform",c:{x:"cx",y:"cy"},rd:"r",f:{x:"x1",y:"y1"},to:{x:"x2",y:"y2"}};function Jt(t,e,r,i,o,u,a,s){return Qt(t,0,s),e=function(t,e,n){for(var r,i,o,u=t.length-1,a={},s=0;s<=u;s++)(r=t[s]).e&&(r.e=e(r.e)),r.v&&"g"===(i=r.v).t&&i.r&&(o=n.getElementById(i.r))&&(a[i.r]={e:o,s:o.querySelectorAll("stop")});return a}(t,i,s),function(i){var o=r(i,t,Kt);if(!o)return"none";if("c"===o.t)return pt(o.v);if("g"===o.t){if(!e[o.r])return mt(o.r);var u=e[o.r];return function(t,e){for(var n=t.s,r=n.length;r<e.length;r++){var i=n[n.length-1].cloneNode();i.id=ee(i.id),t.e.appendChild(i),n=t.s=t.e.querySelectorAll("stop")}for(var o=0,u=n.length,a=e.length-1;o<u;o++)n[o].setAttribute("stop-color",pt(e[Math.min(o,a)].c)),n[o].setAttribute("offset",e[Math.min(o,a)].o)}(u,o.s),Object.keys(Xt).forEach((function(t){if(void 0!==o[t])if("object"!==n(Xt[t])){var e,r="gt"===t?(e=o[t],Array.isArray(e)?"matrix("+e.join(" ")+")":""):o[t],i=Xt[t];u.e.setAttribute(i,r)}else Object.keys(Xt[t]).forEach((function(e){if(void 0!==o[t][e]){var n=o[t][e],r=Xt[t][e];u.e.setAttribute(r,n)}}))})),mt(o.r)}return"none"}}function Kt(t,n,r){if(0===t)return n;if(1===t)return r;if(n&&r){var i=n.t;if(i===r.t)switch(n.t){case"c":return{t:i,v:z(t,n.v,r.v)};case"g":if(n.r===r.r){var o={t:i,s:Zt(t,n.s,r.s),r:n.r};return n.gt&&r.gt&&(o.gt=Y(t,n.gt,r.gt)),n.c?(o.c=D(t,n.c,r.c),o.rd=C(t,n.rd,r.rd)):n.f&&(o.f=D(t,n.f,r.f),o.to=D(t,n.to,r.to)),o}}if("c"===n.t&&"g"===r.t||"c"===r.t&&"g"===n.t){var u="c"===n.t?n:r,a="g"===n.t?e({},n):e({},r),s=a.s.map((function(t){return{c:u.v,o:t.o}}));return a.s="c"===n.t?Zt(t,s,a.s):Zt(t,a.s,s),a}}return N(t,n,r)}function Zt(t,e,n){if(e.length===n.length)return e.map((function(e,r){return te(t,e,n[r])}));for(var r=Math.max(e.length,n.length),i=[],o=0;o<r;o++){var u=te(t,e[Math.min(o,e.length-1)],n[Math.min(o,n.length-1)]);i.push(u)}return i}function te(t,e,n){return{o:L(t,e.o,n.o||0),c:z(t,e.c,n.c||{})}}function ee(t){return t.replace(/-fill-([0-9]+)$/,(function(t,e){return"-fill-"+(+e+1)}))}var ne={blur:q,brightness:C,contrast:C,"drop-shadow":function(t,e,n){return 0===t?e:1===t?n:{blur:q(t,e.blur,n.blur),offset:D(t,e.offset,n.offset),color:z(t,e.color,n.color)}},grayscale:C,"hue-rotate":F,invert:C,opacity:C,saturate:C,sepia:C};function re(t,e,n){if(0===t)return e;if(1===t)return n;var r=e.length;if(r!==n.length)return N(t,e,n);for(var i,o=[],u=0;u<r;u++){if(e[u].type!==n[u].type)return e;if(!(i=ne[e[u].type]))return N(t,e,n);o.push({type:e.type,value:i(t,e[u].value,n[u].value)})}return o}var ie={blur:function(t){return t?function(e){t.setAttribute("stdDeviation",gt(e))}:null},brightness:function(t,e,n){return(t=ue(n,e))?function(e){e=yt(e),t.map((function(t){return t.setAttribute("slope",e)}))}:null},contrast:function(t,e,n){return(t=ue(n,e))?function(e){var n=yt((1-e)/2);e=yt(e),t.map((function(t){t.setAttribute("slope",e),t.setAttribute("intercept",n)}))}:null},"drop-shadow":function(t,e,n){var r=n.getElementById(e+"-blur");if(!r)return null;var i=n.getElementById(e+"-offset");if(!i)return null;var o=n.getElementById(e+"-flood");return o?function(t){r.setAttribute("stdDeviation",gt(t.blur)),i.setAttribute("dx",yt(t.offset.x)),i.setAttribute("dy",yt(t.offset.y)),o.setAttribute("flood-color",pt(t.color))}:null},grayscale:function(t){return t?function(e){t.setAttribute("values",dt(function(t){return[.2126+.7874*(t=1-t),.7152-.7152*t,.0722-.0722*t,0,0,.2126-.2126*t,.7152+.2848*t,.0722-.0722*t,0,0,.2126-.2126*t,.7152-.7152*t,.0722+.9278*t,0,0,0,0,0,1,0]}(e)))}:null},"hue-rotate":function(t){return t?function(e){return t.setAttribute("values",yt(e))}:null},invert:function(t,e,n){return(t=ue(n,e))?function(e){e=yt(e)+" "+yt(1-e),t.map((function(t){return t.setAttribute("tableValues",e)}))}:null},opacity:function(t,e,n){return(t=n.getElementById(e+"-A"))?function(e){return t.setAttribute("tableValues","0 "+yt(e))}:null},saturate:function(t){return t?function(e){return t.setAttribute("values",yt(e))}:null},sepia:function(t){return t?function(e){return t.setAttribute("values",dt(function(t){return[.393+.607*(t=1-t),.769-.769*t,.189-.189*t,0,0,.349-.349*t,.686+.314*t,.168-.168*t,0,0,.272-.272*t,.534-.534*t,.131+.869*t,0,0,0,0,0,1,0]}(e)))}:null}};var oe=["R","G","B"];function ue(t,e){var n=oe.map((function(n){return t.getElementById(e+"-"+n)||null}));return-1!==n.indexOf(null)?null:n}var ae={fill:Jt,"fill-opacity":Wt,stroke:Jt,"stroke-opacity":Wt,"stroke-width":$t,"stroke-dashoffset":{f:yt,i:F},"stroke-dasharray":Ht,opacity:Wt,transform:function(t,e,r,i){if(!(t=function(t,e){if(!t||"object"!==n(t))return null;var r=!1;for(var i in t)t.hasOwnProperty(i)&&(t[i]&&t[i].length?(t[i].forEach((function(t){t.e&&(t.e=e(t.e))})),r=!0):delete t[i]);return r?t:null}(t,i)))return null;var o=function(n,i,o){var u=arguments.length>3&&void 0!==arguments[3]?arguments[3]:null;return t[n]?r(i,t[n],o):e&&e[n]?e[n]:u};return e&&e.a&&t.o?function(e){var n=r(e,t.o,Dt);return Yt.recomposeSelf(n,o("r",e,F,0)+n.a,o("k",e,D),o("s",e,D),o("t",e,D)).toString()}:function(t){return Yt.recomposeSelf(o("o",t,Lt,null),o("r",t,F,0),o("k",t,D),o("s",t,D),o("t",t,D)).toString()}},"#filter":function(t,e,n,r,i,o,u,a){if(!e.items||!t||!t.length)return null;var s=function(t,e){var n=(t=t.map((function(t){return t&&ie[t[0]]?(e.getElementById(t[1]),ie[t[0]](e.getElementById(t[1]),t[1],e)):null}))).length;return function(e){for(var r=0;r<n;r++)t[r]&&t[r](e[r].value)}}(e.items,a);return s?(t=function(t,e){return t.map((function(t){return t.e=e(t.e),t}))}(t,r),function(e){s(n(e,t,re))}):null},"#line":Ut,points:{f:dt,i:Y},d:Gt,r:$t,"#size":kt,"#radius":bt,_:function(t,e){if(Array.isArray(t))for(var n=0;n<t.length;n++)this[t[n]]=e;else this[t]=e}},se={currentTime:"offset",duration:"duration",hasEnded:function(){return this.reachedToEnd()},isAlternate:"alternate",isPlaying:"_running",isRollingBack:"_rollingBack",state:function(t,e){return e.isPlaying?e.isRollingBack?"rollback":"playing":e.hasEnded?"ended":"paused"},totalTime:"maxFiniteDuration",iterations:"iterations",direction:"direction",fill:"fill",isReversed:function(t,e){return-1===e.direction},isBackwards:function(t,e){return-1===e.fill},isInfinite:function(t,e){return 0===e.iterations},speed:"speed",fps:"fps"},le={destruct:"destruct",pause:"pause",play:function(t,e){return fe(t,e.hasEnded?"restart":"play",e)},restart:"restart",reverse:function(t,e){return fe(t,"reverse",e,[!0])},seek:"seek",seekBy:"seekBy",seekTo:"seekTo",stop:"stop",toggle:"toggle",togglePlay:"toggle",set:"set"};function fe(t,e,n){var r=arguments.length>3&&void 0!==arguments[3]?arguments[3]:[];return function(){var i,o=Array.prototype.slice.call(arguments);return o.unshift.apply(o,v(r)),(i=t[e]).call.apply(i,[t].concat(v(o))),n}}var ce=function t(e){r(this,t);var n={},i=["on","off"],o={get:function(t,e,r){return se[e]?"function"==typeof se[e]?se[e].call(t,t,r):t[se[e]]:le[e]?"function"==typeof le[e]?le[e].call(t,t,r):fe(t,le[e],r):-1!==i.indexOf(e)?n[e]:"ready"===e?function(t){return t&&t.call(r,r),r}:void 0},set:function(t,e,r){return-1!==i.indexOf(e)&&(n[e]=r)},ownKeys:function(t){return Object.keys(se)},has:function(t,e){return void 0!==se[e]}};if("function"==typeof Proxy)return new Proxy(e,o);var u=Object.keys(se).concat(Object.keys(le)).concat(i),a={};return u.forEach((function(t){var n={enumerable:!1,configurable:!1,get:function(){return o.get(e,t,a)}};-1!==i.indexOf(t)&&(n.set=function(n){return o.set(e,t,n)}),Object.defineProperty(a,t,n)})),a};function he(t){t||(t=this);var e={};this.on=function(t,n){var r=arguments.length>2&&void 0!==arguments[2]&&arguments[2];return"function"==typeof n&&(t.split(/[, ]+/g).forEach((function(t){return e[t]=e[t]||[],r?e[t].unshift(n):e[t].push(n)})),!0)},this.off=function(t,n){for(var r in e)if(e.hasOwnProperty(r)&&r.substr(0,t.length)===t)if(n)for(var i=0;i<e[r].length;i++)e[r][i]===n&&(e[r][i]=null);else e[r]=null},this.trigger=function(){var n,r=Array.prototype.slice.call(arguments),i=r[0],o=r.slice(1);t:for(var u in e)if(e.hasOwnProperty(u)&&e[u]&&(u===i||u.substr(0,i.length+1)===i+"."))for(var a=0;a<e[u].length;a++)if(e[u][a]&&!1===(n=e[u][a].apply(t,o)))break t;return n}}var ve=!0,ye=["iterations","speed","fps","direction","fill","alternate"],de=function(t){!function(t,e){if("function"!=typeof e&&null!==e)throw new TypeError("Super expression must either be null or a function");t.prototype=Object.create(e&&e.prototype,{constructor:{value:t,writable:!0,configurable:!0}}),e&&s(t,e)}(u,t);var e,n,i=(e=u,n=l(),function(){var t,r=a(e);if(n){var i=a(this).constructor;t=Reflect.construct(r,arguments,i)}else t=r.apply(this,arguments);return c(this,t)});function u(t,e){var n,o=arguments.length>2&&void 0!==arguments[2]?arguments[2]:null;return r(this,u),(n=i.call(this,t,e,o))._handlers=[],n}return o(u,[{key:"_adjustOffset",value:function(){var t=arguments.length>0&&void 0!==arguments[0]&&arguments[0],e=this.alternate?2*this.duration:this.duration;if(t){if(!this._rollingBack&&0===this.offset)return void(this.offset=e);this._rollingBack&&(this.offset,this.maxFiniteDuration)}!this._rollingBack||this.rollbackStartOffset<=this.duration?0!==this.iterations&&(this.offset=Math.min(this.offset,this.maxFiniteDuration)):(this.offset=this.rollbackStartOffset-(this.rollbackStartOffset-this.offset)%e,this.rollbackStartOffset=0)}},{key:"reverse",value:function(){var t=arguments.length>0&&void 0!==arguments[0]&&arguments[0];if(!this._running)return this._adjustOffset(t),this._rollingBack=!this._rollingBack,t&&this.play(!1),void this.trigger("reverse",this.offset);this.pause(!1,!1),this._adjustOffset(),this._rollingBack=!this._rollingBack,this.play(!1),this.trigger("reverse",this.offset)}},{key:"play",value:function(){var t=arguments.length>0&&void 0!==arguments[0]?arguments[0]:ve,e=h(a(u.prototype),"play",this).call(this);return t===ve&&this.trigger("play",this.offset),e}},{key:"pause",value:function(){var t=arguments.length>0&&void 0!==arguments[0]&&arguments[0],e=arguments.length>1&&void 0!==arguments[1]?arguments[1]:ve,n=h(a(u.prototype),"pause",this).call(this);return e===ve&&this.trigger(t?"end":"pause",this.offset),n}},{key:"restart",value:function(){var t=h(a(u.prototype),"restart",this).call(this,!1);return this.trigger("restart",this.offset),t}},{key:"stop",value:function(){var t=arguments.length>0&&void 0!==arguments[0]?arguments[0]:ve,e=h(a(u.prototype),"stop",this).call(this);return t===ve&&this.trigger("stop",this.offset),e}},{key:"_apply",value:function(t){var e=this,n=arguments.length>2&&void 0!==arguments[2]?arguments[2]:ve,r=h(a(u.prototype),"_apply",this).call(this,t);if(n===ve){var i=function(){return e.trigger("keyframe",t)};window.requestAnimationFrame(i)}return r}},{key:"seekTo",value:function(t){var e,n,r,i=this._running;i&&this.pause(!1,!1),this.offset=this.iterations>0?(e=t,n=0,r=this.maxFiniteDuration,e<n?n:e>r?r:e):Math.max(t,0),this._apply(this.offset),i&&this.play(!1)}},{key:"seek",value:function(t){return this.seekTo(Math.round(t/100*this.maxFiniteDuration))}},{key:"seekBy",value:function(t){return this.seekTo(this.offset+t)}},{key:"toggle",value:function(){return this._running?this.pause():this.reachedToEnd()?this.restart():this.play()}},{key:"set",value:function(t,e){if(ye.includes(t)){var n=this._running;n&&this.pause(!1,!1),this._settings[t]=e,n?this.play(!1):this._apply(this.offset,{},!1)}}},{key:"destruct",value:function(){var t=this;this.stop(),this._handlers.forEach((function(t){t.element?t.element.removeEventListener(t.event,t.handler):t.callback&&t.callback.call&&t.callback.call()}));var e=function(){},n=Object.getOwnPropertyNames(Object.getPrototypeOf(this));n.push.apply(n,v(Object.getOwnPropertyNames(this))),n.forEach((function(n){"function"==typeof t[n]?t[n]=e:delete t[n]}))}}],[{key:"build",value:function(t){var e=h(a(u),"build",this).call(this,t,ae);if(!e)return null;var n=e.el,r=e.options,i=e.player,o=new ce(i),s=new he(o);o.on=s.on,o.off=s.off,i.trigger=s.trigger;var l=n.svgatorPlayer&&n.svgatorPlayer.ready&&n.svgatorPlayer.ready.call&&n.svgatorPlayer.ready.call();n.svgatorPlayer=o,function(t,e,n){if("click"===n.start){var r=function(){switch(n.click){case"freeze":return!t._running&&t.reachedToEnd()?t.restart():t.toggle();case"restart":return t.offset>0?t.restart():t.play();case"reverse":return t._running?t.reverse():t.reachedToEnd()?1===t.fill?t.reverse(!0):t.restart():t.play();case"none":default:if(t._running)return;return t.reachedToEnd()?t.restart():t.play()}};return t._handlers.push({element:e,event:"click",handler:r}),void e.addEventListener("click",r)}if("hover"===n.start){var i=function(){return t.reachedToEnd()?t.restart():t._rollingBack?t.reverse():t.play()};t._handlers.push({element:e,event:"mouseenter",handler:i}),e.addEventListener("mouseenter",i);var o=function(){switch(n.hover){case"freeze":return t.pause();case"reset":return t.stop();case"reverse":if(t.reverse(),t._running)return;return t.play();case"none":default:return}};return t._handlers.push({element:e,event:"mouseleave",handler:o}),void e.addEventListener("mouseleave",o)}if("scroll"===n.start){var u=new vt(e,n.scroll||25,(function(e){e?t.reachedToEnd()?t.restart():t.play():t.pause()}));return void t._handlers.push({callback:function(){return u.destruct()}})}if("programmatic"===n.start)return;t.play()}(i,n,r),function(t,e,n){var r;"function"==typeof Event?r=new Event("ready"):(r=document.createEvent("Event")).initEvent("ready",!0,!0);if(t.dispatchEvent(r),!n||!n.length)return;n.forEach((function(t){return e.ready(t)}))}(n,n.svgatorPlayer,l)}}]),u}(ct);return de.init(),de}));
(function(s,i,o,w,a,b){(a=document.getElementById(i.root)).svgatorPlayer={ready:(function(a){b=[];return function(c){return c?(b.push(c),a.svgatorPlayer):b}})(a)};w[o]=w[o]||{};w[o][s]=w[o][s]||[];w[o][s].push(i);})('91c80d77',{"root":"euBMwey7fGb1","version":"2022-05-04","animations":[{"elements":{"euBMwey7fGb4":{"fill":[{"t":2000,"v":{"t":"c","v":{"r":228,"g":222,"b":210,"a":1}}},{"t":3000,"v":{"t":"c","v":{"r":63,"g":61,"b":86,"a":1}}}]},"euBMwey7fGb5":{"fill":[{"t":2000,"v":{"t":"c","v":{"r":228,"g":222,"b":210,"a":1}}},{"t":3000,"v":{"t":"c","v":{"r":63,"g":61,"b":86,"a":1}}}]},"euBMwey7fGb6":{"transform":{"data":{"t":{"x":-253.643507,"y":-527.238051}},"keys":{"o":[{"t":1010,"v":{"x":253.643507,"y":527.238051,"type":"corner"},"e":[0.495,0.005,1,-0.005]},{"t":2010,"v":{"x":646.447762,"y":529.39692,"type":"corner"}}]}}},"euBMwey7fGb10":{"fill":[{"t":2000,"v":{"t":"c","v":{"r":101,"g":148,"b":118,"a":1}}},{"t":3000,"v":{"t":"c","v":{"r":43,"g":63,"b":49,"a":1}}}]},"euBMwey7fGb12":{"fill":[{"t":3000,"v":{"t":"c","v":{"r":255,"g":255,"b":255,"a":1}}},{"t":3500,"v":{"t":"c","v":{"r":255,"g":186,"b":8,"a":1}}}]},"euBMwey7fGb15":{"transform":{"data":{"o":{"x":235.330002,"y":2746.620829,"type":"corner"},"s":{"x":1.000348,"y":0.994034},"t":{"x":2363.356889,"y":-1262.018983}},"keys":{"r":[{"t":0,"v":-65.753881,"e":[0.015,0.005,0.32,1.275]},{"t":1000,"v":-61.316572,"e":[0.015,0.005,0.32,1.275]},{"t":2000,"v":-61.316572,"e":[0.015,0.005,0.32,1.275]},{"t":2500,"v":-57.318745}]}},"opacity":[{"t":0,"v":0},{"t":100,"v":0.6},{"t":2000,"v":0.6},{"t":2500,"v":0}]},"euBMwey7fGb16":{"transform":{"data":{"o":{"x":235.330002,"y":2746.620829,"type":"corner"},"s":{"x":1.000348,"y":0.994034},"t":{"x":2363.356889,"y":-1262.018983}},"keys":{"r":[{"t":2500,"v":-65.753881,"e":[0.02,0.005,0.32,1.275]},{"t":3500,"v":-61.316572,"e":[0.02,0.005,0.32,1.275]},{"t":4500,"v":-61.316572,"e":[0.02,0.005,0.32,1.275]},{"t":5000,"v":-57.318745}]}},"opacity":[{"t":2500,"v":0},{"t":2600,"v":0.6},{"t":4500,"v":0.6},{"t":5000,"v":0}]},"euBMwey7fGb19":{"fill":[{"t":3000,"v":{"t":"c","v":{"r":255,"g":255,"b":255,"a":1}}},{"t":4000,"v":{"t":"c","v":{"r":255,"g":186,"b":8,"a":1}}}]},"euBMwey7fGb20":{"fill":[{"t":3000,"v":{"t":"c","v":{"r":255,"g":255,"b":255,"a":1}}},{"t":4000,"v":{"t":"c","v":{"r":255,"g":186,"b":8,"a":1}}}]},"euBMwey7fGb21":{"fill":[{"t":3000,"v":{"t":"c","v":{"r":255,"g":255,"b":255,"a":1}}},{"t":4000,"v":{"t":"c","v":{"r":255,"g":186,"b":8,"a":1}}}]},"euBMwey7fGb24":{"fill":[{"t":3000,"v":{"t":"c","v":{"r":255,"g":255,"b":255,"a":1}}},{"t":4000,"v":{"t":"c","v":{"r":255,"g":186,"b":8,"a":1}}}]},"euBMwey7fGb28":{"fill":[{"t":2990,"v":{"t":"c","v":{"r":255,"g":255,"b":255,"a":1}}},{"t":3990,"v":{"t":"c","v":{"r":255,"g":186,"b":8,"a":1}}}]},"euBMwey7fGb29":{"fill":[{"t":2990,"v":{"t":"c","v":{"r":255,"g":255,"b":255,"a":1}}},{"t":4000,"v":{"t":"c","v":{"r":255,"g":186,"b":8,"a":1}}}]},"euBMwey7fGb31":{"fill":[{"t":2990,"v":{"t":"c","v":{"r":255,"g":255,"b":255,"a":1}}},{"t":3990,"v":{"t":"c","v":{"r":255,"g":186,"b":8,"a":1}}}]},"euBMwey7fGb32":{"fill":[{"t":2000,"v":{"t":"c","v":{"r":148,"g":101,"b":101,"a":1}}},{"t":3000,"v":{"t":"c","v":{"r":72,"g":48,"b":48,"a":1}}}]},"euBMwey7fGb33":{"fill":[{"t":3000,"v":{"t":"c","v":{"r":255,"g":255,"b":255,"a":1}}},{"t":4000,"v":{"t":"c","v":{"r":255,"g":186,"b":8,"a":1}}}]},"euBMwey7fGb36":{"fill":[{"t":3000,"v":{"t":"c","v":{"r":255,"g":255,"b":255,"a":1}}},{"t":4000,"v":{"t":"c","v":{"r":255,"g":186,"b":8,"a":1}}}]},"euBMwey7fGb37":{"fill":[{"t":3000,"v":{"t":"c","v":{"r":255,"g":255,"b":255,"a":1}}},{"t":4000,"v":{"t":"c","v":{"r":255,"g":186,"b":8,"a":1}}}]},"euBMwey7fGb40":{"fill":[{"t":3000,"v":{"t":"c","v":{"r":255,"g":255,"b":255,"a":1}}},{"t":4000,"v":{"t":"c","v":{"r":255,"g":186,"b":8,"a":1}}}]},"euBMwey7fGb43":{"fill":[{"t":3000,"v":{"t":"c","v":{"r":255,"g":255,"b":255,"a":1}}},{"t":4000,"v":{"t":"c","v":{"r":255,"g":186,"b":8,"a":1}}}]},"euBMwey7fGb58":{"transform":{"data":{"o":{"x":405.910004,"y":294.773148,"type":"corner"},"t":{"x":-405.910003,"y":-294.773148}},"keys":{"r":[{"t":3000,"v":0},{"t":3500,"v":6.78921}]}}},"euBMwey7fGb61":{"opacity":[{"t":2000,"v":0.5},{"t":3000,"v":0}]},"euBMwey7fGb64":{"opacity":[{"t":2000,"v":0.5},{"t":3000,"v":0}]},"euBMwey7fGb75":{"fill":[{"t":2000,"v":{"t":"c","v":{"r":106,"g":101,"b":148,"a":1}}},{"t":3000,"v":{"t":"c","v":{"r":41,"g":40,"b":56,"a":1}}}]},"euBMwey7fGb94":{"fill":[{"t":2000,"v":{"t":"c","v":{"r":148,"g":133,"b":101,"a":1}}},{"t":3000,"v":{"t":"c","v":{"r":58,"g":52,"b":40,"a":1}}}]},"euBMwey7fGb120":{"transform":{"data":{"o":{"x":404.633028,"y":293.492006,"type":"corner"},"t":{"x":-404.633026,"y":-293.492004}},"keys":{"r":[{"t":3000,"v":0},{"t":3500,"v":6.78921}]}}},"euBMwey7fGb136":{"opacity":[{"t":2500,"v":0,"e":[0.495,0.005,1,-0.005]},{"t":3600,"v":1}]}},"s":"MDVA1M2M5NzBiMOmMzYzBhZmMyWYjdiZGJjNzAD4ODgzN2U3ZTDdlN2E3MGIyYMjdjMGIzYjFjNMmI3YmRiYzcSwODg3ZjdhNzDBiN2MyYjNjMHGFmYzJiN2JkIYmNUYzE3MDgT4N2U3YTcwYjQRVYjdNYmFiYDTcwODg3ZjdhTNzBhZmJhT2MOyYjNjME1iY2JFmYzJiMzcwOGDhiNGFmYmFjVMWIzN2E3MGMHxYmViM2IzYjSJSNzA4ODdmYM2I/"}],"options":"MDCAxZThlMzU4NYjg3NzQ4NUM4ENzM1NGQzNTgE2NzY4NTgyN2AY3ZjM1M2ZFMCzU4Njc2ODU4YMjdmN2YzNU4B0ZDRhNDg5MAQ|"},'__SVGATOR_PLAYER__',window)]]></script></svg>